<?xml version="1.0" encoding="utf-8"?>
<COLLADA xmlns="http://www.collada.org/2005/11/COLLADASchema" version="1.4.1">
  <asset><unit name="meter" meter="1"/><up_axis>Z_UP</up_axis></asset>
  <library_geometries>
    <geometry id="ruins_urban_01_geometry" name="Ruins-Urban-01">
      <mesh>
        <source id="positions">
          <float_array id="positions-array" count="4128">-21.00000 -16.00000 -0.16000 21.00000 -16.00000 -0.16000 21.00000 16.00000 -0.16000 -21.00000 16.00000 -0.16000 -21.00000 -16.00000 0.00000 21.00000 -16.00000 0.00000 21.00000 16.00000 0.00000 -21.00000 16.00000 0.00000 -21.00142 15.75501 0.00000 -2.00237 15.56501 0.00000 -1.99858 15.94499 0.00000 -20.99763 16.13499 0.00000 -21.00142 15.75501 3.10000 -2.00237 15.56501 3.10000 -1.99858 15.94499 3.10000 -20.99763 16.13499 3.10000 0.00433 15.53253 0.00000 21.00197 15.84752 0.00000 20.99567 16.26747 0.00000 -0.00197 15.95248 0.00000 0.00433 15.53253 3.60000 21.00197 15.84752 3.60000 20.99567 16.26747 3.60000 -0.00197 15.95248 3.60000 -20.99669 -16.24198 0.00000 1.00173 -15.97799 0.00000 0.99669 -15.55802 0.00000 -21.00173 -15.82201 0.00000 -20.99669 -16.24198 3.50000 1.00173 -15.97799 3.50000 0.99669 -15.55802 3.50000 -21.00173 -15.82201 3.50000 2.99804 -15.87798 0.00000 20.99512 -16.20196 0.00000 21.00196 -15.82202 0.00000 3.00488 -15.49804 0.00000 2.99804 -15.87798 3.00000 20.99512 -16.20196 3.00000 21.00196 -15.82202 3.00000 3.00488 -15.49804 3.00000 -21.29695 2.30557 0.00000 -20.87703 2.29717 0.00000 -20.60305 15.99443 0.00000 -21.02297 16.00283 0.00000 -21.29695 2.30557 3.40000 -20.87703 2.29717 3.40000 -20.60305 15.99443 3.40000 -21.02297 16.00283 3.40000 -21.05723 -16.00238 0.00000 -20.63728 -15.99608 0.00000 -20.84277 -2.29762 0.00000 -21.26272 -2.30392 0.00000 -21.05723 -16.00238 3.40000 -20.63728 -15.99608 3.40000 -20.84277 -2.29762 3.40000 -21.26272 -2.30392 3.40000 20.58101 -15.89711 0.00000 21.00099 -15.90130 0.00000 21.31899 15.89711 0.00000 20.89901 15.90130 0.00000 20.58101 -15.89711 3.40000 21.00099 -15.90130 3.40000 21.31899 15.89711 3.40000 20.89901 15.90130 3.40000 -13.63661 0.68543 0.00000 -14.02134 2.83993 0.00000 -14.29698 2.79071 0.00000 -13.91225 0.63621 0.00000 -13.63661 0.68543 3.15000 -14.02134 2.83993 3.15000 -14.29698 2.79071 3.15000 -13.91225 0.63621 3.15000 -10.70302 1.20929 0.00000 -11.08775 3.36379 0.00000 -11.36339 3.31457 0.00000 -10.97866 1.16007 0.00000 -10.70302 1.20929 3.15000 -11.08775 3.36379 3.15000 -11.36339 3.31457 3.15000 -10.97866 1.16007 3.15000 -14.40696 6.06830 0.00000 -14.90219 7.10829 0.00000 -15.15499 6.98791 0.00000 -14.65976 5.94792 0.00000 -14.40696 6.06830 2.75000 -14.90219 7.10829 2.75000 -15.15499 6.98791 2.75000 -14.65976 5.94792 2.75000 -12.84501 6.81209 0.00000 -13.34024 7.85208 0.00000 -13.59304 7.73170 0.00000 -13.09781 6.69171 0.00000 -12.84501 6.81209 2.75000 -13.34024 7.85208 2.75000 -13.59304 7.73170 2.75000 -13.09781 6.69171 2.75000 -14.86360 11.20599 0.00000 -13.66836 12.57197 0.00000 -13.87908 12.75635 0.00000 -15.07432 11.39037 0.00000 -14.86360 11.20599 3.15000 -13.66836 12.57197 3.15000 -13.87908 12.75635 3.15000 -15.07432 11.39037 3.15000 -12.62092 9.24365 0.00000 -11.42568 10.60963 0.00000 -11.63640 10.79401 0.00000 -12.83164 9.42803 0.00000 -12.62092 9.24365 3.15000 -11.42568 10.60963 3.15000 -11.63640 10.79401 3.15000 -12.83164 9.42803 3.15000 -9.61548 13.19157 0.00000 -7.96787 12.69728 0.00000 -7.88741 12.96547 0.00000 -9.53502 13.45976 0.00000 -9.61548 13.19157 2.75000 -7.96787 12.69728 2.75000 -7.88741 12.96547 2.75000 -9.53502 13.45976 2.75000 -10.11259 11.53453 0.00000 -8.46498 11.04024 0.00000 -8.38452 11.30843 0.00000 -10.03213 11.80272 0.00000 -10.11259 11.53453 2.75000 -8.46498 11.04024 2.75000 -8.38452 11.30843 2.75000 -10.03213 11.80272 2.75000 -4.47001 10.62584 0.00000 -3.66976 9.18539 0.00000 -3.42500 9.32137 0.00000 -4.22525 10.76182 0.00000 -4.47001 10.62584 3.15000 -3.66976 9.18539 3.15000 -3.42500 9.32137 3.15000 -4.22525 10.76182 3.15000 -7.07500 9.17863 0.00000 -6.27475 7.73818 0.00000 -6.02999 7.87416 0.00000 -6.83024 9.31461 0.00000 -7.07500 9.17863 3.15000 -6.27475 7.73818 3.15000 -6.02999 7.87416 3.15000 -6.83024 9.31461 3.15000 -6.99123 -1.36656 0.00000 -7.35391 -3.32508 0.00000 -7.07859 -3.37606 0.00000 -6.71591 -1.41755 0.00000 -6.99123 -1.36656 3.15000 -7.35391 -3.32508 3.15000 -7.07859 -3.37606 3.15000 -6.71591 -1.41755 3.15000 -9.92141 -0.82394 0.00000 -10.28409 -2.78245 0.00000 -10.00877 -2.83344 0.00000 -9.64609 -0.87492 0.00000 -9.92141 -0.82394 3.15000 -10.28409 -2.78245 3.15000 -10.00877 -2.83344 3.15000 -9.64609 -0.87492 3.15000 -10.63530 -6.50702 0.00000 -11.67573 -7.06885 0.00000 -11.54269 -7.31522 0.00000 -10.50226 -6.75339 0.00000 -10.63530 -6.50702 2.75000 -11.67573 -7.06885 2.75000 -11.54269 -7.31522 2.75000 -10.50226 -6.75339 2.75000 -11.45731 -4.98478 0.00000 -12.49774 -5.54661 0.00000 -12.36470 -5.79298 0.00000 -11.32427 -5.23115 0.00000 -11.45731 -4.98478 2.75000 -12.49774 -5.54661 2.75000 -12.36470 -5.79298 2.75000 -11.32427 -5.23115 2.75000 -13.16506 -11.52977 0.00000 -9.62988 -12.03480 0.00000 -9.59028 -11.75761 0.00000 -13.12546 -11.25259 0.00000 -13.16506 -11.52977 2.75000 -9.62988 -12.03480 2.75000 -9.59028 -11.75761 2.75000 -13.12546 -11.25259 2.75000 -13.40972 -13.24239 0.00000 -9.87454 -13.74741 0.00000 -9.83494 -13.47023 0.00000 -13.37012 -12.96520 0.00000 -13.40972 -13.24239 2.75000 -9.87454 -13.74741 2.75000 -9.83494 -13.47023 2.75000 -13.37012 -12.96520 2.75000 -7.11013 -10.97685 0.00000 -4.68277 -9.65283 0.00000 -4.81685 -9.40702 0.00000 -7.24421 -10.73104 0.00000 -7.11013 -10.97685 3.15000 -4.68277 -9.65283 3.15000 -4.81685 -9.40702 3.15000 -7.24421 -10.73104 3.15000 -5.68315 -13.59298 0.00000 -3.25579 -12.26896 0.00000 -3.38987 -12.02315 0.00000 -5.81723 -13.34717 0.00000 -5.68315 -13.59298 3.15000 -3.25579 -12.26896 3.15000 -3.38987 -12.02315 3.15000 -5.81723 -13.34717 3.15000 10.83345 3.00730 0.00000 11.13092 3.82037 0.00000 10.86796 3.91657 0.00000 10.57050 3.10350 0.00000 10.83345 3.00730 3.15000 11.13092 3.82037 3.15000 10.86796 3.91657 3.15000 10.57050 3.10350 3.15000 13.63204 1.98343 0.00000 13.92950 2.79650 0.00000 13.66655 2.89270 0.00000 13.36908 2.07963 0.00000 13.63204 1.98343 3.15000 13.92950 2.79650 3.15000 13.66655 2.89270 3.15000 13.36908 2.07963 3.15000 14.24102 6.43108 0.00000 15.11052 6.86584 0.00000 14.98530 7.11628 0.00000 14.11580 6.68152 0.00000 14.24102 6.43108 2.75000 15.11052 6.86584 2.75000 14.98530 7.11628 2.75000 14.11580 6.68152 2.75000 15.01470 4.88372 0.00000 15.88420 5.31848 0.00000 15.75898 5.56892 0.00000 14.88948 5.13416 0.00000 15.01470 4.88372 2.75000 15.88420 5.31848 2.75000 15.75898 5.56892 2.75000 14.88948 5.13416 2.75000 15.98483 8.96327 0.00000 16.35873 11.01972 0.00000 16.08324 11.06981 0.00000 15.70934 9.01336 0.00000 15.98483 8.96327 3.15000 16.35873 11.01972 3.15000 16.08324 11.06981 3.15000 15.70934 9.01336 3.15000 18.91676 8.43019 0.00000 19.29066 10.48664 0.00000 19.01517 10.53673 0.00000 18.64127 8.48028 0.00000 18.91676 8.43019 3.15000 19.29066 10.48664 3.15000 19.01517 10.53673 3.15000 18.64127 8.48028 3.15000 13.13209 -0.59040 0.00000 13.52729 -2.84305 0.00000 13.80308 -2.79466 0.00000 13.40788 -0.54201 0.00000 13.13209 -0.59040 3.15000 13.52729 -2.84305 3.15000 13.80308 -2.79466 3.15000 13.40788 -0.54201 3.15000 10.19692 -1.10534 0.00000 10.59212 -3.35799 0.00000 10.86791 -3.30960 0.00000 10.47271 -1.05695 0.00000 10.19692 -1.10534 3.15000 10.59212 -3.35799 3.15000 10.86791 -3.30960 3.15000 10.47271 -1.05695 3.15000 14.22929 -5.57310 0.00000 15.32409 -6.73046 0.00000 15.52750 -6.53804 0.00000 14.43270 -5.38068 0.00000 14.22929 -5.57310 2.75000 15.32409 -6.73046 2.75000 15.52750 -6.53804 2.75000 14.43270 -5.38068 2.75000 12.97250 -6.76196 0.00000 14.06730 -7.91932 0.00000 14.27071 -7.72690 0.00000 13.17591 -6.56954 0.00000 12.97250 -6.76196 2.75000 14.06730 -7.91932 2.75000 14.27071 -7.72690 2.75000 13.17591 -6.56954 2.75000 18.09399 -9.20724 0.00000 19.15254 -10.79507 0.00000 19.38552 -10.63975 0.00000 18.32697 -9.05193 0.00000 18.09399 -9.20724 3.15000 19.15254 -10.79507 3.15000 19.38552 -10.63975 3.15000 18.32697 -9.05193 3.15000 15.61448 -10.86025 0.00000 16.67303 -12.44807 0.00000 16.90601 -12.29276 0.00000 15.84746 -10.70493 0.00000 15.61448 -10.86025 3.15000 16.67303 -12.44807 3.15000 16.90601 -12.29276 3.15000 15.84746 -10.70493 3.15000 -18.60484 2.10008 0.00000 -15.50484 2.00008 0.00000 -15.49516 2.29992 0.00000 -18.59516 2.39992 0.00000 -18.60484 2.10008 2.60000 -15.50484 2.00008 2.60000 -15.49516 2.29992 2.60000 -18.59516 2.39992 2.60000 -9.18968 2.30036 0.00000 -6.28968 2.50036 0.00000 -6.31032 2.79964 0.00000 -9.21032 2.59964 0.00000 -9.18968 2.30036 3.10000 -6.28968 2.50036 3.10000 -6.31032 2.79964 3.10000 -9.21032 2.59964 3.10000 -0.41196 2.50048 0.00000 2.08804 2.30048 0.00000 2.11196 2.59952 0.00000 -0.38804 2.79952 0.00000 -0.41196 2.50048 2.85000 2.08804 2.30048 2.85000 2.11196 2.59952 2.85000 -0.38804 2.79952 2.85000 3.81246 1.80052 0.00000 6.21246 2.00052 0.00000 6.18754 2.29948 0.00000 3.78754 2.09948 0.00000 3.81246 1.80052 3.10000 6.21246 2.00052 3.10000 6.18754 2.29948 3.10000 3.78754 2.09948 3.10000 7.68446 2.45081 0.00000 10.08446 2.20081 0.00000 10.11554 2.49919 0.00000 7.71554 2.74919 0.00000 7.68446 2.45081 2.60000 10.08446 2.20081 2.60000 10.11554 2.49919 2.60000 7.71554 2.74919 2.60000 12.80864 1.95025 0.00000 15.40864 2.10025 0.00000 15.39136 2.39975 0.00000 12.79136 2.24975 0.00000 12.80864 1.95025 2.85000 15.40864 2.10025 2.85000 15.39136 2.39975 2.85000 12.79136 2.24975 2.85000 -18.29275 -2.44982 0.00000 -15.19275 -2.29982 0.00000 -15.20725 -2.00018 0.00000 -18.30725 -2.15018 0.00000 -18.29275 -2.44982 3.10000 -15.19275 -2.29982 3.10000 -15.20725 -2.00018 3.10000 -18.30725 -2.15018 3.10000 -13.48344 -2.89908 0.00000 -10.78344 -2.59908 0.00000 -10.81656 -2.30092 0.00000 -13.51656 -2.60092 0.00000 -13.48344 -2.89908 2.60000 -10.78344 -2.59908 2.60000 -10.81656 -2.30092 2.60000 -13.51656 -2.60092 2.60000 -4.68617 -2.94936 0.00000 -1.98617 -2.69936 0.00000 -2.01383 -2.40064 0.00000 -4.71383 -2.65064 0.00000 -4.68617 -2.94936 3.10000 -1.98617 -2.69936 3.10000 -2.01383 -2.40064 3.10000 -4.71383 -2.65064 3.10000 4.01719 -2.89901 0.00000 6.61719 -2.59901 0.00000 6.58281 -2.30099 0.00000 3.98281 -2.60099 0.00000 4.01719 -2.89901 2.85000 6.61719 -2.59901 2.85000 6.58281 -2.30099 2.85000 3.98281 -2.60099 2.85000 7.99064 -1.74971 0.00000 10.39064 -1.89971 0.00000 10.40936 -1.60029 0.00000 8.00936 -1.45029 0.00000 7.99064 -1.74971 3.10000 10.39064 -1.89971 3.10000 10.40936 -1.60029 3.10000 8.00936 -1.45029 3.10000 13.01246 -2.69948 0.00000 16.01246 -2.44948 0.00000 15.98754 -2.15052 0.00000 12.98754 -2.40052 0.00000 13.01246 -2.69948 2.60000 16.01246 -2.44948 2.60000 15.98754 -2.15052 2.60000 12.98754 -2.40052 2.60000 -17.37890 8.06297 2.58000 -11.52600 5.23569 2.58000 -10.22110 7.93703 2.58000 -16.07400 10.76431 2.58000 -17.37890 8.06297 2.86000 -11.52600 5.23569 2.86000 -10.22110 7.93703 2.86000 -16.07400 10.76431 2.86000 -12.76190 11.54152 2.49000 -7.95662 10.15974 2.49000 -7.23810 12.65848 2.49000 -12.04338 14.04026 2.49000 -12.76190 11.54152 2.75000 -7.95662 10.15974 2.75000 -7.23810 12.65848 2.75000 -12.04338 14.04026 2.75000 -17.51000 5.69000 0.00000 -16.89000 5.69000 0.00000 -16.89000 6.31000 0.00000 -17.51000 6.31000 0.00000 -17.51000 5.69000 3.50000 -16.89000 5.69000 3.50000 -16.89000 6.31000 3.50000 -17.51000 6.31000 3.50000 -17.51000 8.09000 0.00000 -16.89000 8.09000 0.00000 -16.89000 8.71000 0.00000 -17.51000 8.71000 0.00000 -17.51000 8.09000 3.50000 -16.89000 8.09000 3.50000 -16.89000 8.71000 3.50000 -17.51000 8.71000 3.50000 8.29000 5.69000 0.00000 8.91000 5.69000 0.00000 8.91000 6.31000 0.00000 8.29000 6.31000 0.00000 8.29000 5.69000 3.50000 8.91000 5.69000 3.50000 8.91000 6.31000 3.50000 8.29000 6.31000 3.50000 10.69000 8.69000 0.00000 11.31000 8.69000 0.00000 11.31000 9.31000 0.00000 10.69000 9.31000 0.00000 10.69000 8.69000 3.50000 11.31000 8.69000 3.50000 11.31000 9.31000 3.50000 10.69000 9.31000 3.50000 13.09000 8.69000 0.00000 13.71000 8.69000 0.00000 13.71000 9.31000 0.00000 13.09000 9.31000 0.00000 13.09000 8.69000 3.50000 13.71000 8.69000 3.50000 13.71000 9.31000 3.50000 13.09000 9.31000 3.50000 -1.31000 -13.11000 0.00000 -0.69000 -13.11000 0.00000 -0.69000 -12.49000 0.00000 -1.31000 -12.49000 0.00000 -1.31000 -13.11000 3.50000 -0.69000 -13.11000 3.50000 -0.69000 -12.49000 3.50000 -1.31000 -12.49000 3.50000 2.69000 -10.81000 0.00000 3.31000 -10.81000 0.00000 3.31000 -10.19000 0.00000 2.69000 -10.19000 0.00000 2.69000 -10.81000 3.50000 3.31000 -10.81000 3.50000 3.31000 -10.19000 3.50000 2.69000 -10.19000 3.50000 8.19000 -12.11000 0.00000 8.81000 -12.11000 0.00000 8.81000 -11.49000 0.00000 8.19000 -11.49000 0.00000 8.19000 -12.11000 3.50000 8.81000 -12.11000 3.50000 8.81000 -11.49000 3.50000 8.19000 -11.49000 3.50000 -1.97670 -0.60247 -0.09098 -0.74911 -0.82586 -0.01603 -0.36222 1.33708 0.09373 -1.58981 1.56046 0.01877 -2.03778 -0.63708 0.80627 -0.81019 -0.86046 0.88123 -0.42330 1.30247 0.99098 -1.65089 1.52586 0.91603 3.13413 -0.81933 2.12288 4.30645 -1.05697 2.02698 4.77536 1.29483 1.93132 3.60304 1.53247 2.02721 3.22464 -0.79483 3.16868 4.39696 -1.03247 3.07279 4.86587 1.31933 2.97712 3.69355 1.55697 3.07302 6.89008 -0.14074 2.92045 11.55099 0.90153 2.44125 11.47679 1.23333 2.44125 6.81589 0.19106 2.92045 6.92321 -0.13333 3.25875 11.58411 0.90894 2.77955 11.50992 1.24074 2.77955 6.84901 0.19847 3.25875 -2.43732 6.59858 3.24000 0.84230 8.89431 3.24000 -0.56268 10.90142 3.24000 -3.84230 8.60569 3.24000 -2.43732 6.59858 3.48000 0.84230 8.89431 3.48000 -0.56268 10.90142 3.48000 -3.84230 8.60569 3.48000 -2.88380 9.15458 3.38000 -1.40649 10.18869 3.38000 -1.53266 10.36892 3.38000 -3.00996 9.33481 3.38000 -2.88380 9.15458 5.38000 -1.40649 10.18869 5.38000 -1.53266 10.36892 5.38000 -3.00996 9.33481 5.38000 -1.46734 7.13108 3.38000 0.00996 8.16519 3.38000 -0.11620 8.34542 3.38000 -1.59351 7.31131 3.38000 -1.46734 7.13108 5.38000 0.00996 8.16519 5.38000 -0.11620 8.34542 5.38000 -1.59351 7.31131 5.38000 2.14810 9.36643 3.24000 6.05536 9.69203 3.24000 5.85190 12.13357 3.24000 1.94464 11.80797 3.24000 2.14810 9.36643 3.48000 6.05536 9.69203 3.48000 5.85190 12.13357 3.48000 1.94464 11.80797 3.48000 2.25191 11.73323 3.38000 5.56124 12.00900 3.38000 5.54297 12.22824 3.38000 2.23364 11.95247 3.38000 2.25191 11.73323 5.38000 5.56124 12.00900 5.38000 5.54297 12.22824 5.38000 2.23364 11.95247 5.38000 2.45703 9.27176 3.38000 5.76636 9.54753 3.38000 5.74809 9.76677 3.38000 2.43876 9.49100 3.38000 2.45703 9.27176 5.38000 5.76636 9.54753 5.38000 5.74809 9.76677 5.38000 2.43876 9.49100 5.38000 6.98354 9.38666 3.24000 9.40313 7.26952 3.24000 11.01646 9.11334 3.24000 8.59687 11.23048 3.24000 6.98354 9.38666 3.48000 9.40313 7.26952 3.48000 11.01646 9.11334 3.48000 8.59687 11.23048 3.48000 8.75680 10.95767 3.38000 10.72484 9.23563 3.38000 10.86971 9.40120 3.38000 8.90167 11.12323 3.38000 8.75680 10.95767 5.38000 10.72484 9.23563 5.38000 10.86971 9.40120 5.38000 8.90167 11.12323 5.38000 7.13029 9.09880 3.38000 9.09833 7.37677 3.38000 9.24320 7.54233 3.38000 7.27516 9.26437 3.38000 7.13029 9.09880 5.38000 9.09833 7.37677 5.38000 9.24320 7.54233 5.38000 7.27516 9.26437 5.38000 9.45414 7.03802 3.24000 8.30703 4.45702 3.24000 10.54586 3.46198 3.24000 11.69297 6.04298 3.24000 9.45414 7.03802 3.48000 8.30703 4.45702 3.48000 10.54586 3.46198 3.48000 11.69297 6.04298 3.48000 11.47975 5.80945 3.38000 10.57632 3.77674 3.38000 10.77736 3.68739 3.38000 11.68079 5.72010 3.38000 11.47975 5.80945 5.38000 10.57632 3.77674 5.38000 10.77736 3.68739 5.38000 11.68079 5.72010 5.38000 9.22264 6.81261 3.38000 8.31921 4.77990 3.38000 8.52025 4.69055 3.38000 9.42368 6.72326 3.38000 9.22264 6.81261 5.38000 8.31921 4.77990 5.38000 8.52025 4.69055 5.38000 9.42368 6.72326 5.38000 7.64765 3.87992 3.24000 2.16274 2.27102 3.24000 2.85235 -0.07992 3.24000 8.33726 1.52898 3.24000 7.64765 3.87992 3.48000 2.16274 2.27102 3.48000 2.85235 -0.07992 3.48000 8.33726 1.52898 3.48000 7.25358 1.31532 3.38000 3.87973 0.32565 3.38000 3.94166 0.11455 3.38000 7.31551 1.10421 3.38000 7.25358 1.31532 5.38000 3.87973 0.32565 5.38000 3.94166 0.11455 5.38000 7.31551 1.10421 5.38000 6.55834 3.68545 3.38000 3.18449 2.69579 3.38000 3.24642 2.48468 3.38000 6.62027 3.47435 3.38000 6.55834 3.68545 5.38000 3.18449 2.69579 5.38000 3.24642 2.48468 5.38000 6.62027 3.47435 5.38000 1.71960 2.39841 3.24000 -2.38681 7.02745 3.24000 -4.21960 5.40159 3.24000 -0.11319 0.77255 3.24000 1.71960 2.39841 3.48000 -2.38681 7.02745 3.48000 -4.21960 5.40159 3.48000 -0.11319 0.77255 3.48000 -0.76836 1.66179 3.38000 -3.41481 4.64507 3.38000 -3.57939 4.49908 3.38000 -0.93293 1.51580 3.38000 -0.76836 1.66179 5.38000 -3.41481 4.64507 5.38000 -3.57939 4.49908 5.38000 -0.93293 1.51580 5.38000 1.07939 3.30092 3.38000 -1.56707 6.28420 3.38000 -1.73164 6.13821 3.38000 0.91481 3.15493 3.38000 1.07939 3.30092 5.38000 -1.56707 6.28420 5.38000 -1.73164 6.13821 5.38000 0.91481 3.15493 5.38000 -0.25000 9.25000 3.24000 2.25000 9.25000 3.24000 2.25000 11.75000 3.24000 -0.25000 11.75000 3.24000 -0.25000 9.25000 3.48000 2.25000 9.25000 3.48000 2.25000 11.75000 3.48000 -0.25000 11.75000 3.48000 5.75000 9.75000 3.24000 8.25000 9.75000 3.24000 8.25000 12.25000 3.24000 5.75000 12.25000 3.24000 5.75000 9.75000 3.48000 8.25000 9.75000 3.48000 8.25000 12.25000 3.48000 5.75000 12.25000 3.48000 9.75000 6.25000 3.24000 12.25000 6.25000 3.24000 12.25000 8.75000 3.24000 9.75000 8.75000 3.24000 9.75000 6.25000 3.48000 12.25000 6.25000 3.48000 12.25000 8.75000 3.48000 9.75000 8.75000 3.48000 7.75000 1.75000 3.24000 10.25000 1.75000 3.24000 10.25000 4.25000 3.24000 7.75000 4.25000 3.24000 7.75000 1.75000 3.48000 10.25000 1.75000 3.48000 10.25000 4.25000 3.48000 7.75000 4.25000 3.48000 -5.46000 5.65000 3.34000 -5.24000 5.65000 3.34000 -5.24000 8.35000 3.34000 -5.46000 8.35000 3.34000 -5.46000 5.65000 3.76000 -5.24000 5.65000 3.76000 -5.24000 8.35000 3.76000 -5.46000 8.35000 3.76000 -2.76000 5.65000 3.34000 -2.54000 5.65000 3.34000 -2.54000 8.35000 3.34000 -2.76000 8.35000 3.34000 -2.76000 5.65000 3.76000 -2.54000 5.65000 3.76000 -2.54000 8.35000 3.76000 -2.76000 8.35000 3.76000 -5.35000 8.24000 3.34000 -2.65000 8.24000 3.34000 -2.65000 8.46000 3.34000 -5.35000 8.46000 3.34000 -5.35000 8.24000 3.76000 -2.65000 8.24000 3.76000 -2.65000 8.46000 3.76000 -5.35000 8.46000 3.76000 0.04000 -0.55000 3.34000 0.26000 -0.55000 3.34000 0.26000 2.15000 3.34000 0.04000 2.15000 3.34000 0.04000 -0.55000 3.76000 0.26000 -0.55000 3.76000 0.26000 2.15000 3.76000 0.04000 2.15000 3.76000 2.74000 -0.55000 3.34000 2.96000 -0.55000 3.34000 2.96000 2.15000 3.34000 2.74000 2.15000 3.34000 2.74000 -0.55000 3.76000 2.96000 -0.55000 3.76000 2.96000 2.15000 3.76000 2.74000 2.15000 3.76000 0.15000 2.04000 3.34000 2.85000 2.04000 3.34000 2.85000 2.26000 3.34000 0.15000 2.26000 3.34000 0.15000 2.04000 3.76000 2.85000 2.04000 3.76000 2.85000 2.26000 3.76000 0.15000 2.26000 3.76000 3.97998 9.31201 0.00000 4.77091 9.31201 0.00000 4.77091 9.89151 0.00000 3.97998 9.89151 0.00000 3.97998 9.31201 3.08430 4.77091 9.31201 3.08430 4.77091 9.89151 3.08430 3.97998 9.89151 3.08430 18.04038 2.76619 0.00000 18.79231 2.76619 0.00000 18.79231 3.31853 0.00000 18.04038 3.31853 0.00000 18.04038 2.76619 3.86739 18.79231 2.76619 3.86739 18.79231 3.31853 3.86739 18.04038 3.31853 3.86739 -17.29110 3.34523 0.00000 -16.58628 3.34523 0.00000 -16.58628 3.81021 0.00000 -17.29110 3.81021 0.00000 -17.29110 3.34523 2.84720 -16.58628 3.34523 2.84720 -16.58628 3.81021 2.84720 -17.29110 3.81021 2.84720 4.98759 -2.00430 0.00000 5.71080 -2.00430 0.00000 5.71080 -1.17979 0.00000 4.98759 -1.17979 0.00000 4.98759 -2.00430 3.31580 5.71080 -2.00430 3.31580 5.71080 -1.17979 3.31580 4.98759 -1.17979 3.31580 15.34676 -1.48906 0.00000 16.02756 -1.48906 0.00000 16.02756 -0.87251 0.00000 15.34676 -0.87251 0.00000 15.34676 -1.48906 2.60247 16.02756 -1.48906 2.60247 16.02756 -0.87251 2.60247 15.34676 -0.87251 2.60247 2.88942 3.87575 0.00000 3.68387 3.87575 0.00000 3.68387 4.70295 0.00000 2.88942 4.70295 0.00000 2.88942 3.87575 3.43240 3.68387 3.87575 3.43240 3.68387 4.70295 3.43240 2.88942 4.70295 3.43240 -5.74626 -3.45250 0.00000 -5.27542 -3.45250 0.00000 -5.27542 -2.68702 0.00000 -5.74626 -2.68702 0.00000 -5.74626 -3.45250 2.82630 -5.27542 -3.45250 2.82630 -5.27542 -2.68702 2.82630 -5.74626 -2.68702 2.82630 -6.17085 -8.22045 0.00000 -5.37450 -8.22045 0.00000 -5.37450 -7.44477 0.00000 -6.17085 -7.44477 0.00000 -6.17085 -8.22045 3.59535 -5.37450 -8.22045 3.59535 -5.37450 -7.44477 3.59535 -6.17085 -7.44477 3.59535 5.08938 -3.55719 0.00000 5.72444 -3.55719 0.00000 5.72444 -3.04761 0.00000 5.08938 -3.04761 0.00000 5.08938 -3.55719 3.98299 5.72444 -3.55719 3.98299 5.72444 -3.04761 3.98299 5.08938 -3.04761 3.98299 -17.04331 3.26618 0.00000 -16.40789 3.26618 0.00000 -16.40789 3.93460 0.00000 -17.04331 3.93460 0.00000 -17.04331 3.26618 3.67047 -16.40789 3.26618 3.67047 -16.40789 3.93460 3.67047 -17.04331 3.93460 3.67047 -6.31585 2.70297 -0.01091 -6.66501 2.80136 0.04348 -6.79750 2.34211 0.02379 -6.44834 2.24371 -0.03061 -6.17394 2.61623 1.05692 -6.52309 2.71462 1.11132 -6.65559 2.25537 1.09162 -6.30643 2.15697 1.03722 -7.87273 -7.16274 -0.07697 -9.07070 -6.09617 0.15017 -9.71124 -6.80187 0.08557 -8.51327 -7.86844 -0.14157 -7.83108 -7.26431 0.61962 -9.02905 -6.19774 0.84676 -9.66959 -6.90344 0.78216 -8.47162 -7.97001 0.55502 16.27139 -11.09477 -0.00948 15.01320 -10.76001 0.00666 14.92514 -11.09111 0.00951 16.18333 -11.42587 -0.00663 16.27498 -11.09353 0.24449 15.01679 -10.75877 0.26063 14.92873 -11.08987 0.26348 16.18692 -11.42464 0.24734 -9.38014 13.28623 0.02986 -9.14480 14.27288 -0.01308 -10.17276 14.51737 -0.02891 -10.40810 13.53072 0.01402 -9.38463 13.32821 0.96986 -9.14930 14.31485 0.92693 -10.17726 14.55935 0.91109 -10.41259 13.57270 0.95403 -15.47839 -6.58175 0.05756 -14.95856 -6.23338 -0.01606 -15.14626 -5.96011 -0.04826 -15.66608 -6.30848 0.02536 -15.44430 -6.46472 0.85202 -14.92448 -6.11635 0.77841 -15.11218 -5.84308 0.74620 -15.63200 -6.19145 0.81982 -3.27901 14.05361 0.05083 -3.59536 14.32512 -0.00375 -4.35318 13.43319 -0.04822 -4.03683 13.16169 0.00636 -3.31407 14.06936 0.33230 -3.63041 14.34086 0.27772 -4.38823 13.44894 0.23325 -4.07188 13.17744 0.28783 19.05817 8.64890 0.04969 18.47776 9.19640 -0.08301 18.11742 8.82643 -0.03336 18.69783 8.27893 0.09935 19.01131 8.81277 0.93073 18.43090 9.36028 0.79802 18.07056 8.99031 0.84768 18.65097 8.44281 0.98038 6.02388 7.22157 -0.03949 5.39213 7.60373 -0.11947 4.87124 6.77896 0.05403 5.50298 6.39680 0.13401 6.02419 7.36152 0.62672 5.39244 7.74368 0.54673 4.87155 6.91890 0.72023 5.50329 6.53674 0.80022 -17.64253 10.27955 -0.02350 -18.00413 10.51605 -0.00123 -18.16733 10.26402 0.02536 -17.80574 10.02751 0.00309 -17.61012 10.29583 0.32976 -17.97172 10.53234 0.35203 -18.13493 10.28030 0.37862 -17.77333 10.04380 0.35635 -7.90268 9.44120 -0.02195 -7.87360 9.88645 -0.08281 -8.65932 9.95380 0.03454 -8.68839 9.50855 0.09540 -7.80472 9.51839 0.58958 -7.77565 9.96364 0.52873 -8.56137 10.03099 0.64608 -8.59044 9.58574 0.70693 3.63466 6.23454 -0.00954 2.99350 6.90491 0.09275 2.38393 6.33381 0.01462 3.02510 5.66345 -0.08768 3.63843 6.16444 0.47346 2.99726 6.83481 0.57576 2.38770 6.26371 0.49762 3.02886 5.59335 0.39533 18.51402 -4.31001 -0.00190 19.23688 -3.15467 0.06682 18.35686 -2.60038 0.00488 17.63400 -3.75572 -0.06384 18.43851 -4.32082 0.97417 19.16137 -3.16548 1.04289 18.28135 -2.61119 0.98095 17.55849 -3.76653 0.91223 0.92744 -11.83878 0.03608 0.55060 -11.58484 0.01815 0.00708 -12.39517 -0.03511 0.38393 -12.64911 -0.01718 0.90038 -11.84874 0.46372 0.52354 -11.59480 0.44579 -0.01998 -12.40513 0.39253 0.35687 -12.65908 0.41046 3.45262 -3.22487 -0.02210 3.03857 -2.37998 -0.10265 2.25115 -2.75303 0.03202 2.66520 -3.59792 0.11257 3.51731 -3.13278 0.61129 3.10326 -2.28789 0.53074 2.31585 -2.66094 0.66541 2.72990 -3.50583 0.74595 -7.01532 -8.05623 -0.08078 -6.23760 -7.91320 -0.04527 -6.47804 -6.63833 0.08566 -7.25576 -6.78136 0.05016 -7.03601 -8.14229 0.71912 -6.25830 -7.99926 0.75463 -6.49874 -6.72439 0.88557 -7.27645 -6.86742 0.85006 5.60474 -4.31294 -0.05334 4.05539 -4.16021 -0.02928 4.00432 -4.69259 0.06135 5.55366 -4.84533 0.03728 5.62256 -4.21988 0.50342 4.07321 -4.06714 0.52749 4.02214 -4.59953 0.61812 5.57149 -4.75226 0.59405 -14.02860 -12.78375 -0.04808 -14.87261 -12.73586 0.04541 -14.94752 -14.07233 0.05371 -14.10350 -14.12022 -0.03979 -13.92667 -12.78375 0.87209 -14.77068 -12.73586 0.96559 -14.84558 -14.07233 0.97388 -14.00157 -14.12022 0.88039 -10.35093 1.59181 -0.07047 -10.30942 2.54030 -0.08834 -11.35937 2.58943 0.08018 -11.40088 1.64093 0.09805 -10.23015 1.60066 0.67944 -10.18864 2.54915 0.66157 -11.23860 2.59827 0.83009 -11.28010 1.64978 0.84796 -6.11266 -10.19444 0.03151 -5.36551 -9.15462 0.10993 -6.37159 -8.42167 -0.02322 -7.11874 -9.46150 -0.10164 -6.24645 -10.18038 1.11980 -5.49930 -9.14056 1.19823 -6.50538 -8.40762 1.06508 -7.25253 -9.44744 0.98665 4.73176 -9.87697 0.08652 5.02601 -9.65678 0.07000 4.38728 -8.81471 -0.08315 4.09303 -9.03490 -0.06663 4.71677 -9.83490 0.38032 5.01102 -9.61471 0.36380 4.37230 -8.77264 0.21065 4.07805 -8.99283 0.22717 4.54534 5.52301 0.08005 5.60056 6.31553 -0.06272 5.33747 6.66391 -0.07331 4.28226 5.87139 0.06945 4.62415 5.61594 1.17846 5.67937 6.40846 1.03569 5.41629 6.75684 1.02510 4.36107 5.96432 1.16786 -10.57556 6.23303 0.12960 -9.46497 7.25603 -0.10039 -9.81036 7.62564 -0.12415 -10.92095 6.60264 0.10584 -10.54139 6.29260 0.55962 -9.43080 7.31561 0.32963 -9.77619 7.68522 0.30586 -10.88678 6.66222 0.53585 7.84142 11.87597 0.05719 7.81509 13.32016 0.06196 6.69183 13.30007 -0.05475 6.71817 11.85587 -0.05952 7.79452 11.87362 0.50901 7.76818 13.31782 0.51377 6.64493 13.29772 0.39706 6.67126 11.85352 0.39229 -6.46460 -8.77270 -0.07406 -5.94085 -8.75157 0.01868 -5.98943 -7.88336 0.09527 -6.51317 -7.90449 0.00253 -6.65211 -8.87874 1.00914 -6.12837 -8.85762 1.10187 -6.17695 -7.98941 1.17846 -6.70069 -8.01053 1.08573 4.04906 -9.33048 -0.02235 3.54173 -7.84683 -0.00090 2.71628 -8.12943 0.02281 3.22360 -9.61308 0.00136 4.07879 -9.33457 0.96420 3.57147 -7.85093 0.98565 2.74602 -8.13353 1.00936 3.25334 -9.61717 0.98791 4.19658 6.47148 -0.01832 3.46068 7.15222 0.00106 2.99925 6.65290 0.01882 3.73515 5.97216 -0.00056 4.22689 6.47722 0.93054 3.49099 7.15797 0.94992 3.02957 6.65865 0.96769 3.76546 5.97790 0.94830 4.99458 4.03190 -0.07999 3.52999 4.42707 -0.00054 3.37916 3.85113 0.08374 4.84375 3.45596 0.00429 5.02340 4.07253 0.24925 3.55882 4.46770 0.32870 3.40799 3.89176 0.41298 4.87258 3.49659 0.33354 7.64741 -5.32930 0.00616 7.90537 -4.56890 -0.04930 7.41760 -4.39989 -0.00083 7.15964 -5.16029 0.05463 7.73470 -5.30183 0.78877 7.99265 -4.54142 0.73330 7.50488 -4.37242 0.78177 7.24692 -5.13282 0.83723 8.47100 -12.53633 0.06911 8.63134 -11.97638 0.00219 7.52103 -11.66617 -0.06241 7.36069 -12.22612 0.00451 8.45219 -12.43303 0.88841 8.61253 -11.87308 0.82149 7.50222 -11.56286 0.75688 7.34188 -12.12282 0.82381 -18.42091 9.69744 -0.02385 -18.04565 10.24089 -0.07026 -18.61100 10.64037 0.03620 -18.98626 10.09691 0.08262 -18.27664 9.67155 0.83941 -17.90138 10.21501 0.79299 -18.46674 10.61448 0.89945 -18.84200 10.07102 0.94587 10.73423 9.32347 0.04335 9.94428 10.51825 -0.03440 9.66214 10.33115 -0.04285 10.45209 9.13637 0.03490 10.71995 9.33231 0.32428 9.93000 10.52709 0.24652 9.64786 10.33999 0.23807 10.43781 9.14522 0.31583 -15.48905 0.89019 -0.06260 -14.37260 0.90479 0.11102 -14.37298 1.35993 0.07520 -15.48942 1.34534 -0.09842 -15.61862 0.95524 0.76514 -14.50218 0.96983 0.93876 -14.50255 1.42497 0.90294 -15.61900 1.41038 0.72931 -8.79942 -12.11356 -0.09123 -7.86976 -11.13266 0.06895 -8.79170 -10.26337 0.09649 -9.72136 -11.24427 -0.06369 -8.84707 -12.18713 0.63588 -7.91741 -11.20624 0.79607 -8.83936 -10.33695 0.82360 -9.76902 -11.31784 0.66342 14.77599 -10.09747 -0.04327 14.09263 -9.63409 0.03180 13.55863 -10.42366 0.04446 14.24200 -10.88703 -0.03062 14.79932 -10.10872 0.23847 14.11595 -9.64535 0.31355 13.58196 -10.43491 0.32620 14.26532 -10.89829 0.25113 -8.03836 8.89254 -0.02014 -7.86674 9.28663 -0.02396 -8.79522 9.69139 0.02090 -8.96684 9.29730 0.02472 -8.00546 8.88544 0.72491 -7.83384 9.27954 0.72108 -8.76232 9.68430 0.76594 -8.93394 9.29020 0.76976 -17.28009 -12.40857 -0.09684 -16.23103 -12.38595 0.00763 -16.25756 -11.60228 0.10431 -17.30662 -11.62490 -0.00017 -17.33735 -12.48345 0.49439 -16.28829 -12.46082 0.59886 -16.31482 -11.67715 0.69554 -17.36388 -11.69978 0.59106 -12.66832 -9.85125 0.01500 -12.86483 -9.40983 0.07261 -13.49205 -9.67902 -0.00433 -13.29553 -10.12044 -0.06195 -12.71234 -9.97354 0.80173 -12.90886 -9.53213 0.85935 -13.53607 -9.80132 0.78240 -13.33956 -10.24273 0.72478 10.03203 -1.36458 -0.03097 10.57633 -0.92373 -0.04964 10.16840 -0.41646 0.03554 9.62410 -0.85731 0.05421 10.08511 -1.40831 0.48369 10.62941 -0.96747 0.46502 10.22148 -0.46020 0.55020 9.67718 -0.90105 0.56887 14.97884 10.30504 0.09212 14.69067 10.61711 0.03573 13.87854 9.84618 -0.08041 14.16671 9.53411 -0.02401 14.84135 10.32631 0.91241 14.55317 10.63838 0.85602 13.74104 9.86744 0.73988 14.02922 9.55537 0.79627 -6.33236 13.12232 -0.00575 -5.52795 13.21891 0.09464 -5.59359 13.85200 0.01150 -6.39800 13.75542 -0.08889 -6.38116 13.16342 0.34577 -5.57676 13.26001 0.44615 -5.64240 13.89310 0.36302 -6.44680 13.79652 0.26263 13.82938 -9.51458 -0.06123 13.10005 -9.32320 0.03348 12.91724 -10.03753 0.06916 13.64657 -10.22891 -0.02555 13.94670 -9.50087 0.81442 13.21737 -9.30948 0.90914 13.03455 -10.02381 0.94482 13.76388 -10.21520 0.85010 16.59855 4.67203 0.10678 16.46725 5.94153 -0.03824 16.09477 5.89604 -0.09919 16.22607 4.62655 0.04583 16.53131 4.70888 0.49016 16.40001 5.97837 0.34514 16.02753 5.93288 0.28418 16.15883 4.66339 0.42920 -6.85389 -6.88120 -0.04528 -7.29774 -5.48110 0.06622 -8.50852 -5.86335 0.04627 -8.06467 -7.26345 -0.06523 -6.85128 -6.90671 0.28546 -7.29514 -5.50662 0.39697 -8.50592 -5.88887 0.37702 -8.06206 -7.28896 0.26551 2.81026 7.06008 0.02337 3.88973 7.27192 -0.10080 3.76305 7.96487 -0.01990 2.68358 7.75303 0.10426 2.84564 7.03553 0.28908 3.92511 7.24737 0.16492 3.79843 7.94031 0.24582 2.71896 7.72848 0.36998 2.10956 -10.28466 0.07625 2.37530 -9.71081 0.00370 1.71513 -9.41388 -0.06590 1.44938 -9.98774 0.00665 2.07261 -10.15132 0.99558 2.33835 -9.57747 0.92303 1.67818 -9.28055 0.85344 1.41243 -9.85440 0.92598 18.37355 5.21819 -0.05060 17.66143 5.55727 0.07535 17.47197 5.16344 0.06442 18.18409 4.82436 -0.06153 18.51512 5.12057 1.01263 17.80300 5.45966 1.13858 17.61354 5.06583 1.12765 18.32566 4.72675 1.00170 9.83708 -12.92213 0.03863 10.99310 -12.09936 -0.01277 10.61668 -11.57205 -0.03801 9.46066 -12.39483 0.01339 9.84010 -12.89899 0.47699 10.99612 -12.07622 0.42559 10.61970 -11.54891 0.40035 9.46368 -12.37169 0.45175 -15.56947 -7.17531 0.03722 -16.67828 -6.74762 0.09085 -16.95170 -7.44154 -0.02844 -15.84289 -7.86923 -0.08207 -15.57940 -7.28107 0.67522 -16.68821 -6.85338 0.72885 -16.96164 -7.54730 0.60956 -15.85283 -7.97498 0.55593 -13.20574 -10.79579 0.11209 -11.94507 -10.43194 -0.07313 -12.04447 -10.10439 -0.10622 -13.30514 -10.46824 0.07900 -13.16256 -10.74240 0.51091 -11.90189 -10.37854 0.32568 -12.00129 -10.05099 0.29259 -13.26196 -10.41485 0.47781 -8.17304 6.93904 0.00113 -6.73691 7.68444 -0.06504 -7.07937 8.35015 0.00134 -8.51551 7.60476 0.06751 -8.13309 6.90801 0.51849 -6.69696 7.65340 0.45232 -7.03943 8.31911 0.51870 -8.47556 7.57372 0.58487 -15.39823 -13.99775 0.00850 -15.41696 -13.49029 0.03321 -15.79355 -13.50232 -0.00509 -15.77482 -14.00978 -0.02981 -15.45184 -14.02582 0.54431 -15.47056 -13.51837 0.56903 -15.84715 -13.53040 0.53072 -15.82843 -14.03785 0.50600 8.19148 -12.91036 -0.03463 7.73205 -12.64082 -0.06282 7.30986 -13.34978 0.03889 7.76929 -13.61932 0.06708 8.19948 -12.84721 0.43882 7.74005 -12.57766 0.41063 7.31786 -13.28662 0.51233 7.77729 -13.55617 0.54053 8.97477 11.86162 0.25727 12.29733 12.63382 0.06042 12.22428 12.95249 0.07757 8.90172 12.18028 0.27442 9.02101 11.83569 0.93609 12.34357 12.60789 0.73924 12.27053 12.92655 0.75639 8.94797 12.15435 0.95324 -10.02413 3.49458 0.51117 -8.22064 6.45364 -0.11837 -8.50033 6.63279 -0.07755 -10.30382 3.67373 0.55200 -9.94970 3.52722 0.87781 -8.14621 6.48628 0.24826 -8.42591 6.66543 0.28909 -10.22939 3.70637 0.91864 4.65519 5.81306 0.49014 3.70682 8.85411 -0.08842 3.38943 8.74825 -0.12455 4.33780 5.70720 0.45401 4.59580 5.86489 0.85996 3.64743 8.90594 0.28140 3.33004 8.80009 0.24527 4.27841 5.75904 0.82382 8.76443 -12.20058 -0.03570 10.39512 -10.92215 0.04045 10.08646 -10.52953 0.05886 8.45577 -11.80796 -0.01729 8.76107 -12.22883 0.51058 10.39176 -10.95040 0.58673 10.08310 -10.55778 0.60514 8.45240 -11.83621 0.52899 10.76455 -11.58670 -0.18125 8.15071 -10.42192 0.20767 8.00991 -10.74954 0.24255 10.62375 -11.91431 -0.14637 10.85371 -11.56737 0.36007 8.23987 -10.40259 0.74900 8.09907 -10.73021 0.78388 10.71291 -11.89498 0.39496 -16.07387 -6.12340 0.25169 -14.04262 -5.86199 -0.06503 -14.10062 -5.36535 -0.02704 -16.13186 -5.62677 0.28968 -16.01643 -6.14360 0.60339 -13.98519 -5.88219 0.28667 -14.04318 -5.38555 0.32467 -16.07442 -5.64696 0.64138 -0.26438 -3.10117 0.44398 -0.24213 -0.71657 0.01810 -0.71422 -0.72106 -0.03167 -0.73646 -3.10565 0.39422 -0.34684 -2.96292 1.21373 -0.32459 -0.57833 0.78784 -0.79667 -0.58281 0.73808 -0.81892 -2.96741 1.16396 -6.50777 -8.82734 -0.20616 -4.79619 -4.58821 0.57918 -5.20466 -4.41412 0.52969 -6.91624 -8.65325 -0.25565 -6.64627 -8.92170 0.60502 -4.93469 -4.68257 1.39036 -5.34316 -4.50848 1.34087 -7.05474 -8.74761 0.55553 -7.22358 3.81008 0.21929 -8.82530 5.16101 0.23104 -9.03883 4.90762 0.25664 -7.43711 3.55669 0.24489 -7.18004 3.85470 1.02422 -8.78176 5.20563 1.03597 -8.99529 4.95224 1.06157 -7.39357 3.60131 1.04981 6.59282 -12.95104 -0.25749 11.13679 -12.00902 0.34995 11.04757 -11.54572 0.29885 6.50361 -12.48774 -0.30859 6.48948 -12.89522 0.42905 11.03344 -11.95320 1.03649 10.94422 -11.48990 0.98539 6.40026 -12.43192 0.37794 12.06338 -10.64035 -0.20414 10.24282 -8.02947 0.29155 9.86680 -8.29732 0.32125 11.68735 -10.90820 -0.17443 12.17541 -10.71083 0.57852 10.35485 -8.09995 1.07421 9.97883 -8.36779 1.10392 11.79938 -10.97867 0.60823 -10.57894 -11.23220 -0.05403 -9.66296 -7.78628 0.10036 -10.14956 -7.65809 0.12603 -11.06554 -11.10401 -0.02836 -10.55297 -11.26950 0.62446 -9.63699 -7.82358 0.77884 -10.12359 -7.69539 0.80451 -11.03957 -11.14131 0.65013 -8.28173 4.88346 0.12007 -10.06867 7.30790 0.29364 -10.37366 7.08531 0.26283 -8.58672 4.66087 0.08925 -8.30682 4.80835 0.91088 -10.09376 7.23279 1.08445 -10.39875 7.01020 1.05363 -8.61181 4.58576 0.88006 -17.50652 -4.05750 -0.07893 -16.11003 -0.97576 0.14428 -16.47069 -0.81307 0.15458 -17.86719 -3.89481 -0.06863 -17.50844 -4.09721 0.48130 -16.11194 -1.01548 0.70452 -16.47260 -0.85279 0.71482 -17.86910 -3.93452 0.49160 18.01085 -4.05202 0.22238 18.19385 -1.60181 0.13834 17.83942 -1.57628 0.11092 17.65641 -4.02649 0.19496 17.97670 -4.03374 0.68090 18.15970 -1.58353 0.59686 17.80526 -1.55800 0.56944 17.62226 -4.00821 0.65348 1.26443 11.04251 4.97968 5.91506 11.60328 6.02718 5.80574 12.39332 6.08957 1.15512 11.83255 5.04207 1.19426 11.00668 5.31043 5.84488 11.56745 6.35793 5.73557 12.35749 6.42032 1.08494 11.79672 5.37282 8.39930 4.13996 5.71225 11.66155 2.76070 5.06774 11.93981 3.45327 4.99407 8.67756 4.83252 5.63858 8.46019 4.14673 6.00593 11.72244 2.76748 5.36142 12.00070 3.46004 5.28775 8.73845 4.83930 5.93226 -5.97067 -5.33689 0.30000 -3.17067 -4.73689 0.30000 -3.22933 -4.46311 0.30000 -6.02933 -5.06311 0.30000 -5.97067 -5.33689 2.90000 -3.17067 -4.73689 2.90000 -3.22933 -4.46311 2.90000 -6.02933 -5.06311 2.90000 6.89899 3.80101 0.35000 8.79899 5.70101 0.35000 8.60101 5.89899 0.35000 6.70101 3.99899 0.35000 6.89899 3.80101 2.85000 8.79899 5.70101 2.85000 8.60101 5.89899 2.85000 6.70101 3.99899 2.85000</float_array>
          <technique_common>
            <accessor source="#positions-array" count="1376" stride="3">
              <param name="X" type="float"/><param name="Y" type="float"/><param name="Z" type="float"/>
            </accessor>
          </technique_common>
        </source>
        <vertices id="vertices"><input semantic="POSITION" source="#positions"/></vertices>
        <triangles count="2064">
          <input semantic="VERTEX" source="#vertices" offset="0"/>
          <p>0 1 2 0 2 3 4 7 6 4 6 5 0 4 5 0 5 1 1 5 6 1 6 2 2 6 7 2 7 3 3 7 4 3 4 0 8 9 10 8 10 11 12 15 14 12 14 13 8 12 13 8 13 9 9 13 14 9 14 10 10 14 15 10 15 11 11 15 12 11 12 8 16 17 18 16 18 19 20 23 22 20 22 21 16 20 21 16 21 17 17 21 22 17 22 18 18 22 23 18 23 19 19 23 20 19 20 16 24 25 26 24 26 27 28 31 30 28 30 29 24 28 29 24 29 25 25 29 30 25 30 26 26 30 31 26 31 27 27 31 28 27 28 24 32 33 34 32 34 35 36 39 38 36 38 37 32 36 37 32 37 33 33 37 38 33 38 34 34 38 39 34 39 35 35 39 36 35 36 32 40 41 42 40 42 43 44 47 46 44 46 45 40 44 45 40 45 41 41 45 46 41 46 42 42 46 47 42 47 43 43 47 44 43 44 40 48 49 50 48 50 51 52 55 54 52 54 53 48 52 53 48 53 49 49 53 54 49 54 50 50 54 55 50 55 51 51 55 52 51 52 48 56 57 58 56 58 59 60 63 62 60 62 61 56 60 61 56 61 57 57 61 62 57 62 58 58 62 63 58 63 59 59 63 60 59 60 56 64 65 66 64 66 67 68 71 70 68 70 69 64 68 69 64 69 65 65 69 70 65 70 66 66 70 71 66 71 67 67 71 68 67 68 64 72 73 74 72 74 75 76 79 78 76 78 77 72 76 77 72 77 73 73 77 78 73 78 74 74 78 79 74 79 75 75 79 76 75 76 72 80 81 82 80 82 83 84 87 86 84 86 85 80 84 85 80 85 81 81 85 86 81 86 82 82 86 87 82 87 83 83 87 84 83 84 80 88 89 90 88 90 91 92 95 94 92 94 93 88 92 93 88 93 89 89 93 94 89 94 90 90 94 95 90 95 91 91 95 92 91 92 88 96 97 98 96 98 99 100 103 102 100 102 101 96 100 101 96 101 97 97 101 102 97 102 98 98 102 103 98 103 99 99 103 100 99 100 96 104 105 106 104 106 107 108 111 110 108 110 109 104 108 109 104 109 105 105 109 110 105 110 106 106 110 111 106 111 107 107 111 108 107 108 104 112 113 114 112 114 115 116 119 118 116 118 117 112 116 117 112 117 113 113 117 118 113 118 114 114 118 119 114 119 115 115 119 116 115 116 112 120 121 122 120 122 123 124 127 126 124 126 125 120 124 125 120 125 121 121 125 126 121 126 122 122 126 127 122 127 123 123 127 124 123 124 120 128 129 130 128 130 131 132 135 134 132 134 133 128 132 133 128 133 129 129 133 134 129 134 130 130 134 135 130 135 131 131 135 132 131 132 128 136 137 138 136 138 139 140 143 142 140 142 141 136 140 141 136 141 137 137 141 142 137 142 138 138 142 143 138 143 139 139 143 140 139 140 136 144 145 146 144 146 147 148 151 150 148 150 149 144 148 149 144 149 145 145 149 150 145 150 146 146 150 151 146 151 147 147 151 148 147 148 144 152 153 154 152 154 155 156 159 158 156 158 157 152 156 157 152 157 153 153 157 158 153 158 154 154 158 159 154 159 155 155 159 156 155 156 152 160 161 162 160 162 163 164 167 166 164 166 165 160 164 165 160 165 161 161 165 166 161 166 162 162 166 167 162 167 163 163 167 164 163 164 160 168 169 170 168 170 171 172 175 174 172 174 173 168 172 173 168 173 169 169 173 174 169 174 170 170 174 175 170 175 171 171 175 172 171 172 168 176 177 178 176 178 179 180 183 182 180 182 181 176 180 181 176 181 177 177 181 182 177 182 178 178 182 183 178 183 179 179 183 180 179 180 176 184 185 186 184 186 187 188 191 190 188 190 189 184 188 189 184 189 185 185 189 190 185 190 186 186 190 191 186 191 187 187 191 188 187 188 184 192 193 194 192 194 195 196 199 198 196 198 197 192 196 197 192 197 193 193 197 198 193 198 194 194 198 199 194 199 195 195 199 196 195 196 192 200 201 202 200 202 203 204 207 206 204 206 205 200 204 205 200 205 201 201 205 206 201 206 202 202 206 207 202 207 203 203 207 204 203 204 200 208 209 210 208 210 211 212 215 214 212 214 213 208 212 213 208 213 209 209 213 214 209 214 210 210 214 215 210 215 211 211 215 212 211 212 208 216 217 218 216 218 219 220 223 222 220 222 221 216 220 221 216 221 217 217 221 222 217 222 218 218 222 223 218 223 219 219 223 220 219 220 216 224 225 226 224 226 227 228 231 230 228 230 229 224 228 229 224 229 225 225 229 230 225 230 226 226 230 231 226 231 227 227 231 228 227 228 224 232 233 234 232 234 235 236 239 238 236 238 237 232 236 237 232 237 233 233 237 238 233 238 234 234 238 239 234 239 235 235 239 236 235 236 232 240 241 242 240 242 243 244 247 246 244 246 245 240 244 245 240 245 241 241 245 246 241 246 242 242 246 247 242 247 243 243 247 244 243 244 240 248 249 250 248 250 251 252 255 254 252 254 253 248 252 253 248 253 249 249 253 254 249 254 250 250 254 255 250 255 251 251 255 252 251 252 248 256 257 258 256 258 259 260 263 262 260 262 261 256 260 261 256 261 257 257 261 262 257 262 258 258 262 263 258 263 259 259 263 260 259 260 256 264 265 266 264 266 267 268 271 270 268 270 269 264 268 269 264 269 265 265 269 270 265 270 266 266 270 271 266 271 267 267 271 268 267 268 264 272 273 274 272 274 275 276 279 278 276 278 277 272 276 277 272 277 273 273 277 278 273 278 274 274 278 279 274 279 275 275 279 276 275 276 272 280 281 282 280 282 283 284 287 286 284 286 285 280 284 285 280 285 281 281 285 286 281 286 282 282 286 287 282 287 283 283 287 284 283 284 280 288 289 290 288 290 291 292 295 294 292 294 293 288 292 293 288 293 289 289 293 294 289 294 290 290 294 295 290 295 291 291 295 292 291 292 288 296 297 298 296 298 299 300 303 302 300 302 301 296 300 301 296 301 297 297 301 302 297 302 298 298 302 303 298 303 299 299 303 300 299 300 296 304 305 306 304 306 307 308 311 310 308 310 309 304 308 309 304 309 305 305 309 310 305 310 306 306 310 311 306 311 307 307 311 308 307 308 304 312 313 314 312 314 315 316 319 318 316 318 317 312 316 317 312 317 313 313 317 318 313 318 314 314 318 319 314 319 315 315 319 316 315 316 312 320 321 322 320 322 323 324 327 326 324 326 325 320 324 325 320 325 321 321 325 326 321 326 322 322 326 327 322 327 323 323 327 324 323 324 320 328 329 330 328 330 331 332 335 334 332 334 333 328 332 333 328 333 329 329 333 334 329 334 330 330 334 335 330 335 331 331 335 332 331 332 328 336 337 338 336 338 339 340 343 342 340 342 341 336 340 341 336 341 337 337 341 342 337 342 338 338 342 343 338 343 339 339 343 340 339 340 336 344 345 346 344 346 347 348 351 350 348 350 349 344 348 349 344 349 345 345 349 350 345 350 346 346 350 351 346 351 347 347 351 348 347 348 344 352 353 354 352 354 355 356 359 358 356 358 357 352 356 357 352 357 353 353 357 358 353 358 354 354 358 359 354 359 355 355 359 356 355 356 352 360 361 362 360 362 363 364 367 366 364 366 365 360 364 365 360 365 361 361 365 366 361 366 362 362 366 367 362 367 363 363 367 364 363 364 360 368 369 370 368 370 371 372 375 374 372 374 373 368 372 373 368 373 369 369 373 374 369 374 370 370 374 375 370 375 371 371 375 372 371 372 368 376 377 378 376 378 379 380 383 382 380 382 381 376 380 381 376 381 377 377 381 382 377 382 378 378 382 383 378 383 379 379 383 380 379 380 376 384 385 386 384 386 387 388 391 390 388 390 389 384 388 389 384 389 385 385 389 390 385 390 386 386 390 391 386 391 387 387 391 388 387 388 384 392 393 394 392 394 395 396 399 398 396 398 397 392 396 397 392 397 393 393 397 398 393 398 394 394 398 399 394 399 395 395 399 396 395 396 392 400 401 402 400 402 403 404 407 406 404 406 405 400 404 405 400 405 401 401 405 406 401 406 402 402 406 407 402 407 403 403 407 404 403 404 400 408 409 410 408 410 411 412 415 414 412 414 413 408 412 413 408 413 409 409 413 414 409 414 410 410 414 415 410 415 411 411 415 412 411 412 408 416 417 418 416 418 419 420 423 422 420 422 421 416 420 421 416 421 417 417 421 422 417 422 418 418 422 423 418 423 419 419 423 420 419 420 416 424 425 426 424 426 427 428 431 430 428 430 429 424 428 429 424 429 425 425 429 430 425 430 426 426 430 431 426 431 427 427 431 428 427 428 424 432 433 434 432 434 435 436 439 438 436 438 437 432 436 437 432 437 433 433 437 438 433 438 434 434 438 439 434 439 435 435 439 436 435 436 432 440 441 442 440 442 443 444 447 446 444 446 445 440 444 445 440 445 441 441 445 446 441 446 442 442 446 447 442 447 443 443 447 444 443 444 440 448 449 450 448 450 451 452 455 454 452 454 453 448 452 453 448 453 449 449 453 454 449 454 450 450 454 455 450 455 451 451 455 452 451 452 448 456 457 458 456 458 459 460 463 462 460 462 461 456 460 461 456 461 457 457 461 462 457 462 458 458 462 463 458 463 459 459 463 460 459 460 456 464 465 466 464 466 467 468 471 470 468 470 469 464 468 469 464 469 465 465 469 470 465 470 466 466 470 471 466 471 467 467 471 468 467 468 464 472 473 474 472 474 475 476 479 478 476 478 477 472 476 477 472 477 473 473 477 478 473 478 474 474 478 479 474 479 475 475 479 476 475 476 472 480 481 482 480 482 483 484 487 486 484 486 485 480 484 485 480 485 481 481 485 486 481 486 482 482 486 487 482 487 483 483 487 484 483 484 480 488 489 490 488 490 491 492 495 494 492 494 493 488 492 493 488 493 489 489 493 494 489 494 490 490 494 495 490 495 491 491 495 492 491 492 488 496 497 498 496 498 499 500 503 502 500 502 501 496 500 501 496 501 497 497 501 502 497 502 498 498 502 503 498 503 499 499 503 500 499 500 496 504 505 506 504 506 507 508 511 510 508 510 509 504 508 509 504 509 505 505 509 510 505 510 506 506 510 511 506 511 507 507 511 508 507 508 504 512 513 514 512 514 515 516 519 518 516 518 517 512 516 517 512 517 513 513 517 518 513 518 514 514 518 519 514 519 515 515 519 516 515 516 512 520 521 522 520 522 523 524 527 526 524 526 525 520 524 525 520 525 521 521 525 526 521 526 522 522 526 527 522 527 523 523 527 524 523 524 520 528 529 530 528 530 531 532 535 534 532 534 533 528 532 533 528 533 529 529 533 534 529 534 530 530 534 535 530 535 531 531 535 532 531 532 528 536 537 538 536 538 539 540 543 542 540 542 541 536 540 541 536 541 537 537 541 542 537 542 538 538 542 543 538 543 539 539 543 540 539 540 536 544 545 546 544 546 547 548 551 550 548 550 549 544 548 549 544 549 545 545 549 550 545 550 546 546 550 551 546 551 547 547 551 548 547 548 544 552 553 554 552 554 555 556 559 558 556 558 557 552 556 557 552 557 553 553 557 558 553 558 554 554 558 559 554 559 555 555 559 556 555 556 552 560 561 562 560 562 563 564 567 566 564 566 565 560 564 565 560 565 561 561 565 566 561 566 562 562 566 567 562 567 563 563 567 564 563 564 560 568 569 570 568 570 571 572 575 574 572 574 573 568 572 573 568 573 569 569 573 574 569 574 570 570 574 575 570 575 571 571 575 572 571 572 568 576 577 578 576 578 579 580 583 582 580 582 581 576 580 581 576 581 577 577 581 582 577 582 578 578 582 583 578 583 579 579 583 580 579 580 576 584 585 586 584 586 587 588 591 590 588 590 589 584 588 589 584 589 585 585 589 590 585 590 586 586 590 591 586 591 587 587 591 588 587 588 584 592 593 594 592 594 595 596 599 598 596 598 597 592 596 597 592 597 593 593 597 598 593 598 594 594 598 599 594 599 595 595 599 596 595 596 592 600 601 602 600 602 603 604 607 606 604 606 605 600 604 605 600 605 601 601 605 606 601 606 602 602 606 607 602 607 603 603 607 604 603 604 600 608 609 610 608 610 611 612 615 614 612 614 613 608 612 613 608 613 609 609 613 614 609 614 610 610 614 615 610 615 611 611 615 612 611 612 608 616 617 618 616 618 619 620 623 622 620 622 621 616 620 621 616 621 617 617 621 622 617 622 618 618 622 623 618 623 619 619 623 620 619 620 616 624 625 626 624 626 627 628 631 630 628 630 629 624 628 629 624 629 625 625 629 630 625 630 626 626 630 631 626 631 627 627 631 628 627 628 624 632 633 634 632 634 635 636 639 638 636 638 637 632 636 637 632 637 633 633 637 638 633 638 634 634 638 639 634 639 635 635 639 636 635 636 632 640 641 642 640 642 643 644 647 646 644 646 645 640 644 645 640 645 641 641 645 646 641 646 642 642 646 647 642 647 643 643 647 644 643 644 640 648 649 650 648 650 651 652 655 654 652 654 653 648 652 653 648 653 649 649 653 654 649 654 650 650 654 655 650 655 651 651 655 652 651 652 648 656 657 658 656 658 659 660 663 662 660 662 661 656 660 661 656 661 657 657 661 662 657 662 658 658 662 663 658 663 659 659 663 660 659 660 656 664 665 666 664 666 667 668 671 670 668 670 669 664 668 669 664 669 665 665 669 670 665 670 666 666 670 671 666 671 667 667 671 668 667 668 664 672 673 674 672 674 675 676 679 678 676 678 677 672 676 677 672 677 673 673 677 678 673 678 674 674 678 679 674 679 675 675 679 676 675 676 672 680 681 682 680 682 683 684 687 686 684 686 685 680 684 685 680 685 681 681 685 686 681 686 682 682 686 687 682 687 683 683 687 684 683 684 680 688 689 690 688 690 691 692 695 694 692 694 693 688 692 693 688 693 689 689 693 694 689 694 690 690 694 695 690 695 691 691 695 692 691 692 688 696 697 698 696 698 699 700 703 702 700 702 701 696 700 701 696 701 697 697 701 702 697 702 698 698 702 703 698 703 699 699 703 700 699 700 696 704 705 706 704 706 707 708 711 710 708 710 709 704 708 709 704 709 705 705 709 710 705 710 706 706 710 711 706 711 707 707 711 708 707 708 704 712 713 714 712 714 715 716 719 718 716 718 717 712 716 717 712 717 713 713 717 718 713 718 714 714 718 719 714 719 715 715 719 716 715 716 712 720 721 722 720 722 723 724 727 726 724 726 725 720 724 725 720 725 721 721 725 726 721 726 722 722 726 727 722 727 723 723 727 724 723 724 720 728 729 730 728 730 731 732 735 734 732 734 733 728 732 733 728 733 729 729 733 734 729 734 730 730 734 735 730 735 731 731 735 732 731 732 728 736 737 738 736 738 739 740 743 742 740 742 741 736 740 741 736 741 737 737 741 742 737 742 738 738 742 743 738 743 739 739 743 740 739 740 736 744 745 746 744 746 747 748 751 750 748 750 749 744 748 749 744 749 745 745 749 750 745 750 746 746 750 751 746 751 747 747 751 748 747 748 744 752 753 754 752 754 755 756 759 758 756 758 757 752 756 757 752 757 753 753 757 758 753 758 754 754 758 759 754 759 755 755 759 756 755 756 752 760 761 762 760 762 763 764 767 766 764 766 765 760 764 765 760 765 761 761 765 766 761 766 762 762 766 767 762 767 763 763 767 764 763 764 760 768 769 770 768 770 771 772 775 774 772 774 773 768 772 773 768 773 769 769 773 774 769 774 770 770 774 775 770 775 771 771 775 772 771 772 768 776 777 778 776 778 779 780 783 782 780 782 781 776 780 781 776 781 777 777 781 782 777 782 778 778 782 783 778 783 779 779 783 780 779 780 776 784 785 786 784 786 787 788 791 790 788 790 789 784 788 789 784 789 785 785 789 790 785 790 786 786 790 791 786 791 787 787 791 788 787 788 784 792 793 794 792 794 795 796 799 798 796 798 797 792 796 797 792 797 793 793 797 798 793 798 794 794 798 799 794 799 795 795 799 796 795 796 792 800 801 802 800 802 803 804 807 806 804 806 805 800 804 805 800 805 801 801 805 806 801 806 802 802 806 807 802 807 803 803 807 804 803 804 800 808 809 810 808 810 811 812 815 814 812 814 813 808 812 813 808 813 809 809 813 814 809 814 810 810 814 815 810 815 811 811 815 812 811 812 808 816 817 818 816 818 819 820 823 822 820 822 821 816 820 821 816 821 817 817 821 822 817 822 818 818 822 823 818 823 819 819 823 820 819 820 816 824 825 826 824 826 827 828 831 830 828 830 829 824 828 829 824 829 825 825 829 830 825 830 826 826 830 831 826 831 827 827 831 828 827 828 824 832 833 834 832 834 835 836 839 838 836 838 837 832 836 837 832 837 833 833 837 838 833 838 834 834 838 839 834 839 835 835 839 836 835 836 832 840 841 842 840 842 843 844 847 846 844 846 845 840 844 845 840 845 841 841 845 846 841 846 842 842 846 847 842 847 843 843 847 844 843 844 840 848 849 850 848 850 851 852 855 854 852 854 853 848 852 853 848 853 849 849 853 854 849 854 850 850 854 855 850 855 851 851 855 852 851 852 848 856 857 858 856 858 859 860 863 862 860 862 861 856 860 861 856 861 857 857 861 862 857 862 858 858 862 863 858 863 859 859 863 860 859 860 856 864 865 866 864 866 867 868 871 870 868 870 869 864 868 869 864 869 865 865 869 870 865 870 866 866 870 871 866 871 867 867 871 868 867 868 864 872 873 874 872 874 875 876 879 878 876 878 877 872 876 877 872 877 873 873 877 878 873 878 874 874 878 879 874 879 875 875 879 876 875 876 872 880 881 882 880 882 883 884 887 886 884 886 885 880 884 885 880 885 881 881 885 886 881 886 882 882 886 887 882 887 883 883 887 884 883 884 880 888 889 890 888 890 891 892 895 894 892 894 893 888 892 893 888 893 889 889 893 894 889 894 890 890 894 895 890 895 891 891 895 892 891 892 888 896 897 898 896 898 899 900 903 902 900 902 901 896 900 901 896 901 897 897 901 902 897 902 898 898 902 903 898 903 899 899 903 900 899 900 896 904 905 906 904 906 907 908 911 910 908 910 909 904 908 909 904 909 905 905 909 910 905 910 906 906 910 911 906 911 907 907 911 908 907 908 904 912 913 914 912 914 915 916 919 918 916 918 917 912 916 917 912 917 913 913 917 918 913 918 914 914 918 919 914 919 915 915 919 916 915 916 912 920 921 922 920 922 923 924 927 926 924 926 925 920 924 925 920 925 921 921 925 926 921 926 922 922 926 927 922 927 923 923 927 924 923 924 920 928 929 930 928 930 931 932 935 934 932 934 933 928 932 933 928 933 929 929 933 934 929 934 930 930 934 935 930 935 931 931 935 932 931 932 928 936 937 938 936 938 939 940 943 942 940 942 941 936 940 941 936 941 937 937 941 942 937 942 938 938 942 943 938 943 939 939 943 940 939 940 936 944 945 946 944 946 947 948 951 950 948 950 949 944 948 949 944 949 945 945 949 950 945 950 946 946 950 951 946 951 947 947 951 948 947 948 944 952 953 954 952 954 955 956 959 958 956 958 957 952 956 957 952 957 953 953 957 958 953 958 954 954 958 959 954 959 955 955 959 956 955 956 952 960 961 962 960 962 963 964 967 966 964 966 965 960 964 965 960 965 961 961 965 966 961 966 962 962 966 967 962 967 963 963 967 964 963 964 960 968 969 970 968 970 971 972 975 974 972 974 973 968 972 973 968 973 969 969 973 974 969 974 970 970 974 975 970 975 971 971 975 972 971 972 968 976 977 978 976 978 979 980 983 982 980 982 981 976 980 981 976 981 977 977 981 982 977 982 978 978 982 983 978 983 979 979 983 980 979 980 976 984 985 986 984 986 987 988 991 990 988 990 989 984 988 989 984 989 985 985 989 990 985 990 986 986 990 991 986 991 987 987 991 988 987 988 984 992 993 994 992 994 995 996 999 998 996 998 997 992 996 997 992 997 993 993 997 998 993 998 994 994 998 999 994 999 995 995 999 996 995 996 992 1000 1001 1002 1000 1002 1003 1004 1007 1006 1004 1006 1005 1000 1004 1005 1000 1005 1001 1001 1005 1006 1001 1006 1002 1002 1006 1007 1002 1007 1003 1003 1007 1004 1003 1004 1000 1008 1009 1010 1008 1010 1011 1012 1015 1014 1012 1014 1013 1008 1012 1013 1008 1013 1009 1009 1013 1014 1009 1014 1010 1010 1014 1015 1010 1015 1011 1011 1015 1012 1011 1012 1008 1016 1017 1018 1016 1018 1019 1020 1023 1022 1020 1022 1021 1016 1020 1021 1016 1021 1017 1017 1021 1022 1017 1022 1018 1018 1022 1023 1018 1023 1019 1019 1023 1020 1019 1020 1016 1024 1025 1026 1024 1026 1027 1028 1031 1030 1028 1030 1029 1024 1028 1029 1024 1029 1025 1025 1029 1030 1025 1030 1026 1026 1030 1031 1026 1031 1027 1027 1031 1028 1027 1028 1024 1032 1033 1034 1032 1034 1035 1036 1039 1038 1036 1038 1037 1032 1036 1037 1032 1037 1033 1033 1037 1038 1033 1038 1034 1034 1038 1039 1034 1039 1035 1035 1039 1036 1035 1036 1032 1040 1041 1042 1040 1042 1043 1044 1047 1046 1044 1046 1045 1040 1044 1045 1040 1045 1041 1041 1045 1046 1041 1046 1042 1042 1046 1047 1042 1047 1043 1043 1047 1044 1043 1044 1040 1048 1049 1050 1048 1050 1051 1052 1055 1054 1052 1054 1053 1048 1052 1053 1048 1053 1049 1049 1053 1054 1049 1054 1050 1050 1054 1055 1050 1055 1051 1051 1055 1052 1051 1052 1048 1056 1057 1058 1056 1058 1059 1060 1063 1062 1060 1062 1061 1056 1060 1061 1056 1061 1057 1057 1061 1062 1057 1062 1058 1058 1062 1063 1058 1063 1059 1059 1063 1060 1059 1060 1056 1064 1065 1066 1064 1066 1067 1068 1071 1070 1068 1070 1069 1064 1068 1069 1064 1069 1065 1065 1069 1070 1065 1070 1066 1066 1070 1071 1066 1071 1067 1067 1071 1068 1067 1068 1064 1072 1073 1074 1072 1074 1075 1076 1079 1078 1076 1078 1077 1072 1076 1077 1072 1077 1073 1073 1077 1078 1073 1078 1074 1074 1078 1079 1074 1079 1075 1075 1079 1076 1075 1076 1072 1080 1081 1082 1080 1082 1083 1084 1087 1086 1084 1086 1085 1080 1084 1085 1080 1085 1081 1081 1085 1086 1081 1086 1082 1082 1086 1087 1082 1087 1083 1083 1087 1084 1083 1084 1080 1088 1089 1090 1088 1090 1091 1092 1095 1094 1092 1094 1093 1088 1092 1093 1088 1093 1089 1089 1093 1094 1089 1094 1090 1090 1094 1095 1090 1095 1091 1091 1095 1092 1091 1092 1088 1096 1097 1098 1096 1098 1099 1100 1103 1102 1100 1102 1101 1096 1100 1101 1096 1101 1097 1097 1101 1102 1097 1102 1098 1098 1102 1103 1098 1103 1099 1099 1103 1100 1099 1100 1096 1104 1105 1106 1104 1106 1107 1108 1111 1110 1108 1110 1109 1104 1108 1109 1104 1109 1105 1105 1109 1110 1105 1110 1106 1106 1110 1111 1106 1111 1107 1107 1111 1108 1107 1108 1104 1112 1113 1114 1112 1114 1115 1116 1119 1118 1116 1118 1117 1112 1116 1117 1112 1117 1113 1113 1117 1118 1113 1118 1114 1114 1118 1119 1114 1119 1115 1115 1119 1116 1115 1116 1112 1120 1121 1122 1120 1122 1123 1124 1127 1126 1124 1126 1125 1120 1124 1125 1120 1125 1121 1121 1125 1126 1121 1126 1122 1122 1126 1127 1122 1127 1123 1123 1127 1124 1123 1124 1120 1128 1129 1130 1128 1130 1131 1132 1135 1134 1132 1134 1133 1128 1132 1133 1128 1133 1129 1129 1133 1134 1129 1134 1130 1130 1134 1135 1130 1135 1131 1131 1135 1132 1131 1132 1128 1136 1137 1138 1136 1138 1139 1140 1143 1142 1140 1142 1141 1136 1140 1141 1136 1141 1137 1137 1141 1142 1137 1142 1138 1138 1142 1143 1138 1143 1139 1139 1143 1140 1139 1140 1136 1144 1145 1146 1144 1146 1147 1148 1151 1150 1148 1150 1149 1144 1148 1149 1144 1149 1145 1145 1149 1150 1145 1150 1146 1146 1150 1151 1146 1151 1147 1147 1151 1148 1147 1148 1144 1152 1153 1154 1152 1154 1155 1156 1159 1158 1156 1158 1157 1152 1156 1157 1152 1157 1153 1153 1157 1158 1153 1158 1154 1154 1158 1159 1154 1159 1155 1155 1159 1156 1155 1156 1152 1160 1161 1162 1160 1162 1163 1164 1167 1166 1164 1166 1165 1160 1164 1165 1160 1165 1161 1161 1165 1166 1161 1166 1162 1162 1166 1167 1162 1167 1163 1163 1167 1164 1163 1164 1160 1168 1169 1170 1168 1170 1171 1172 1175 1174 1172 1174 1173 1168 1172 1173 1168 1173 1169 1169 1173 1174 1169 1174 1170 1170 1174 1175 1170 1175 1171 1171 1175 1172 1171 1172 1168 1176 1177 1178 1176 1178 1179 1180 1183 1182 1180 1182 1181 1176 1180 1181 1176 1181 1177 1177 1181 1182 1177 1182 1178 1178 1182 1183 1178 1183 1179 1179 1183 1180 1179 1180 1176 1184 1185 1186 1184 1186 1187 1188 1191 1190 1188 1190 1189 1184 1188 1189 1184 1189 1185 1185 1189 1190 1185 1190 1186 1186 1190 1191 1186 1191 1187 1187 1191 1188 1187 1188 1184 1192 1193 1194 1192 1194 1195 1196 1199 1198 1196 1198 1197 1192 1196 1197 1192 1197 1193 1193 1197 1198 1193 1198 1194 1194 1198 1199 1194 1199 1195 1195 1199 1196 1195 1196 1192 1200 1201 1202 1200 1202 1203 1204 1207 1206 1204 1206 1205 1200 1204 1205 1200 1205 1201 1201 1205 1206 1201 1206 1202 1202 1206 1207 1202 1207 1203 1203 1207 1204 1203 1204 1200 1208 1209 1210 1208 1210 1211 1212 1215 1214 1212 1214 1213 1208 1212 1213 1208 1213 1209 1209 1213 1214 1209 1214 1210 1210 1214 1215 1210 1215 1211 1211 1215 1212 1211 1212 1208 1216 1217 1218 1216 1218 1219 1220 1223 1222 1220 1222 1221 1216 1220 1221 1216 1221 1217 1217 1221 1222 1217 1222 1218 1218 1222 1223 1218 1223 1219 1219 1223 1220 1219 1220 1216 1224 1225 1226 1224 1226 1227 1228 1231 1230 1228 1230 1229 1224 1228 1229 1224 1229 1225 1225 1229 1230 1225 1230 1226 1226 1230 1231 1226 1231 1227 1227 1231 1228 1227 1228 1224 1232 1233 1234 1232 1234 1235 1236 1239 1238 1236 1238 1237 1232 1236 1237 1232 1237 1233 1233 1237 1238 1233 1238 1234 1234 1238 1239 1234 1239 1235 1235 1239 1236 1235 1236 1232 1240 1241 1242 1240 1242 1243 1244 1247 1246 1244 1246 1245 1240 1244 1245 1240 1245 1241 1241 1245 1246 1241 1246 1242 1242 1246 1247 1242 1247 1243 1243 1247 1244 1243 1244 1240 1248 1249 1250 1248 1250 1251 1252 1255 1254 1252 1254 1253 1248 1252 1253 1248 1253 1249 1249 1253 1254 1249 1254 1250 1250 1254 1255 1250 1255 1251 1251 1255 1252 1251 1252 1248 1256 1257 1258 1256 1258 1259 1260 1263 1262 1260 1262 1261 1256 1260 1261 1256 1261 1257 1257 1261 1262 1257 1262 1258 1258 1262 1263 1258 1263 1259 1259 1263 1260 1259 1260 1256 1264 1265 1266 1264 1266 1267 1268 1271 1270 1268 1270 1269 1264 1268 1269 1264 1269 1265 1265 1269 1270 1265 1270 1266 1266 1270 1271 1266 1271 1267 1267 1271 1268 1267 1268 1264 1272 1273 1274 1272 1274 1275 1276 1279 1278 1276 1278 1277 1272 1276 1277 1272 1277 1273 1273 1277 1278 1273 1278 1274 1274 1278 1279 1274 1279 1275 1275 1279 1276 1275 1276 1272 1280 1281 1282 1280 1282 1283 1284 1287 1286 1284 1286 1285 1280 1284 1285 1280 1285 1281 1281 1285 1286 1281 1286 1282 1282 1286 1287 1282 1287 1283 1283 1287 1284 1283 1284 1280 1288 1289 1290 1288 1290 1291 1292 1295 1294 1292 1294 1293 1288 1292 1293 1288 1293 1289 1289 1293 1294 1289 1294 1290 1290 1294 1295 1290 1295 1291 1291 1295 1292 1291 1292 1288 1296 1297 1298 1296 1298 1299 1300 1303 1302 1300 1302 1301 1296 1300 1301 1296 1301 1297 1297 1301 1302 1297 1302 1298 1298 1302 1303 1298 1303 1299 1299 1303 1300 1299 1300 1296 1304 1305 1306 1304 1306 1307 1308 1311 1310 1308 1310 1309 1304 1308 1309 1304 1309 1305 1305 1309 1310 1305 1310 1306 1306 1310 1311 1306 1311 1307 1307 1311 1308 1307 1308 1304 1312 1313 1314 1312 1314 1315 1316 1319 1318 1316 1318 1317 1312 1316 1317 1312 1317 1313 1313 1317 1318 1313 1318 1314 1314 1318 1319 1314 1319 1315 1315 1319 1316 1315 1316 1312 1320 1321 1322 1320 1322 1323 1324 1327 1326 1324 1326 1325 1320 1324 1325 1320 1325 1321 1321 1325 1326 1321 1326 1322 1322 1326 1327 1322 1327 1323 1323 1327 1324 1323 1324 1320 1328 1329 1330 1328 1330 1331 1332 1335 1334 1332 1334 1333 1328 1332 1333 1328 1333 1329 1329 1333 1334 1329 1334 1330 1330 1334 1335 1330 1335 1331 1331 1335 1332 1331 1332 1328 1336 1337 1338 1336 1338 1339 1340 1343 1342 1340 1342 1341 1336 1340 1341 1336 1341 1337 1337 1341 1342 1337 1342 1338 1338 1342 1343 1338 1343 1339 1339 1343 1340 1339 1340 1336 1344 1345 1346 1344 1346 1347 1348 1351 1350 1348 1350 1349 1344 1348 1349 1344 1349 1345 1345 1349 1350 1345 1350 1346 1346 1350 1351 1346 1351 1347 1347 1351 1348 1347 1348 1344 1352 1353 1354 1352 1354 1355 1356 1359 1358 1356 1358 1357 1352 1356 1357 1352 1357 1353 1353 1357 1358 1353 1358 1354 1354 1358 1359 1354 1359 1355 1355 1359 1356 1355 1356 1352 1360 1361 1362 1360 1362 1363 1364 1367 1366 1364 1366 1365 1360 1364 1365 1360 1365 1361 1361 1365 1366 1361 1366 1362 1362 1366 1367 1362 1367 1363 1363 1367 1364 1363 1364 1360 1368 1369 1370 1368 1370 1371 1372 1375 1374 1372 1374 1373 1368 1372 1373 1368 1373 1369 1369 1373 1374 1369 1374 1370 1370 1374 1375 1370 1375 1371 1371 1375 1372 1371 1372 1368</p>
        </triangles>
      </mesh>
    </geometry>
  </library_geometries>
  <library_visual_scenes>
    <visual_scene id="Scene" name="Scene">
      <node id="Ruins-Urban-01" name="Ruins-Urban-01">
        <instance_geometry url="#ruins_urban_01_geometry"/>
      </node>
    </visual_scene>
  </library_visual_scenes>
  <scene><instance_visual_scene url="#Scene"/></scene>
</COLLADA>
