<?xml version="1.0" encoding="utf-8"?>
<COLLADA xmlns="http://www.collada.org/2005/11/COLLADASchema" version="1.4.1">
  <asset><unit name="meter" meter="1"/><up_axis>Z_UP</up_axis></asset>
  <library_geometries>
    <geometry id="ruins_urban_01_geometry" name="Ruins-Urban-01">
      <mesh>
        <source id="positions">
          <float_array id="positions-array" count="3144">-21.00000 -16.00000 -0.20000 21.00000 -16.00000 -0.20000 21.00000 16.00000 -0.20000 -21.00000 16.00000 -0.20000 -21.00000 -16.00000 0.00000 21.00000 -16.00000 0.00000 21.00000 16.00000 0.00000 -21.00000 16.00000 0.00000 -20.80000 15.47000 0.00000 20.80000 15.47000 0.00000 20.80000 15.93000 0.00000 -20.80000 15.93000 0.00000 -20.80000 15.47000 6.80000 20.80000 15.47000 6.80000 20.80000 15.93000 6.80000 -20.80000 15.93000 6.80000 -20.80000 -15.93000 0.00000 20.80000 -15.93000 0.00000 20.80000 -15.47000 0.00000 -20.80000 -15.47000 0.00000 -20.80000 -15.93000 6.80000 20.80000 -15.93000 6.80000 20.80000 -15.47000 6.80000 -20.80000 -15.47000 6.80000 -21.03000 15.70000 0.00000 -21.03000 2.30000 0.00000 -20.57000 2.30000 0.00000 -20.57000 15.70000 0.00000 -21.03000 15.70000 6.80000 -21.03000 2.30000 6.80000 -20.57000 2.30000 6.80000 -20.57000 15.70000 6.80000 -21.03000 -2.30000 0.00000 -21.03000 -15.70000 0.00000 -20.57000 -15.70000 0.00000 -20.57000 -2.30000 0.00000 -21.03000 -2.30000 6.80000 -21.03000 -15.70000 6.80000 -20.57000 -15.70000 6.80000 -20.57000 -2.30000 6.80000 21.03000 -15.70000 0.00000 21.03000 15.70000 0.00000 20.57000 15.70000 0.00000 20.57000 -15.70000 0.00000 21.03000 -15.70000 6.80000 21.03000 15.70000 6.80000 20.57000 15.70000 6.80000 20.57000 -15.70000 6.80000 -16.87500 2.35000 0.00000 -16.87500 3.15000 0.00000 -17.17500 3.15000 0.00000 -17.17500 2.35000 0.00000 -16.87500 2.35000 2.97000 -16.87500 3.15000 2.97000 -17.17500 3.15000 2.97000 -17.17500 2.35000 2.97000 -13.82500 2.35000 0.00000 -13.82500 3.15000 0.00000 -14.12500 3.15000 0.00000 -14.12500 2.35000 0.00000 -13.82500 2.35000 2.97000 -13.82500 3.15000 2.97000 -14.12500 3.15000 2.97000 -14.12500 2.35000 2.97000 -14.38631 7.70971 0.00000 -13.20971 8.88631 0.00000 -13.42184 9.09844 0.00000 -14.59844 7.92184 0.00000 -14.38631 7.70971 3.09000 -13.20971 8.88631 3.09000 -13.42184 9.09844 3.09000 -14.59844 7.92184 3.09000 -13.07816 6.40156 0.00000 -11.90156 7.57816 0.00000 -12.11369 7.79029 0.00000 -13.29029 6.61369 0.00000 -13.07816 6.40156 3.09000 -11.90156 7.57816 3.09000 -12.11369 7.79029 3.09000 -13.29029 6.61369 3.09000 -8.45827 9.02391 0.00000 -7.39434 7.69400 0.00000 -7.16008 7.88141 0.00000 -8.22401 9.21132 0.00000 -8.45827 9.02391 2.85000 -7.39434 7.69400 2.85000 -7.16008 7.88141 2.85000 -8.22401 9.21132 2.85000 -10.83992 7.11859 0.00000 -9.77599 5.78868 0.00000 -9.54173 5.97609 0.00000 -10.60566 7.30600 0.00000 -10.83992 7.11859 2.85000 -9.77599 5.78868 2.85000 -9.54173 5.97609 2.85000 -10.60566 7.30600 2.85000 -6.11257 2.42598 0.00000 -6.19083 2.03470 0.00000 -5.89665 1.97587 0.00000 -5.81840 2.36714 0.00000 -6.11257 2.42598 2.97000 -6.19083 2.03470 2.97000 -5.89665 1.97587 2.97000 -5.81840 2.36714 2.97000 -9.10335 3.02413 0.00000 -9.18160 2.63286 0.00000 -8.88743 2.57402 0.00000 -8.80917 2.96530 0.00000 -9.10335 3.02413 2.97000 -9.18160 2.63286 2.97000 -8.88743 2.57402 2.97000 -8.80917 2.96530 2.97000 -10.35000 -1.37500 0.00000 -13.15000 -1.37500 0.00000 -13.15000 -1.67500 0.00000 -10.35000 -1.67500 0.00000 -10.35000 -1.37500 3.09000 -13.15000 -1.37500 3.09000 -13.15000 -1.67500 3.09000 -10.35000 -1.67500 3.09000 -10.35000 1.67500 0.00000 -13.15000 1.67500 0.00000 -13.15000 1.37500 0.00000 -10.35000 1.37500 0.00000 -10.35000 1.67500 3.09000 -13.15000 1.67500 3.09000 -13.15000 1.37500 3.09000 -10.35000 1.37500 3.09000 -17.09615 7.38077 0.00000 -17.78846 9.04231 0.00000 -18.06538 8.92692 0.00000 -17.37308 7.26538 0.00000 -17.09615 7.38077 2.85000 -17.78846 9.04231 2.85000 -18.06538 8.92692 2.85000 -17.37308 7.26538 2.85000 -15.43462 8.07308 0.00000 -16.12692 9.73462 0.00000 -16.40385 9.61923 0.00000 -15.71154 7.95769 0.00000 -15.43462 8.07308 2.85000 -16.12692 9.73462 2.85000 -16.40385 9.61923 2.85000 -15.71154 7.95769 2.85000 -14.12500 -2.35000 0.00000 -14.12500 -3.15000 0.00000 -13.82500 -3.15000 0.00000 -13.82500 -2.35000 0.00000 -14.12500 -2.35000 2.97000 -14.12500 -3.15000 2.97000 -13.82500 -3.15000 2.97000 -13.82500 -2.35000 2.97000 -17.17500 -2.35000 0.00000 -17.17500 -3.15000 0.00000 -16.87500 -3.15000 0.00000 -16.87500 -2.35000 0.00000 -17.17500 -2.35000 2.97000 -17.17500 -3.15000 2.97000 -16.87500 -3.15000 2.97000 -16.87500 -2.35000 2.97000 -13.29029 -6.61369 0.00000 -11.61369 -8.29029 0.00000 -11.40156 -8.07816 0.00000 -13.07816 -6.40156 0.00000 -13.29029 -6.61369 3.09000 -11.61369 -8.29029 3.09000 -11.40156 -8.07816 3.09000 -13.07816 -6.40156 3.09000 -14.59844 -7.92184 0.00000 -12.92184 -9.59844 0.00000 -12.70971 -9.38631 0.00000 -14.38631 -7.70971 0.00000 -14.59844 -7.92184 3.09000 -12.92184 -9.59844 3.09000 -12.70971 -9.38631 3.09000 -14.38631 -7.70971 3.09000 -9.98731 -7.82600 0.00000 -9.58228 -7.36311 0.00000 -9.80805 -7.16556 0.00000 -10.21308 -7.62845 0.00000 -9.98731 -7.82600 2.85000 -9.58228 -7.36311 2.85000 -9.80805 -7.16556 2.85000 -10.21308 -7.62845 2.85000 -7.69195 -9.83444 0.00000 -7.28692 -9.37155 0.00000 -7.51269 -9.17400 0.00000 -7.91772 -9.63689 0.00000 -7.69195 -9.83444 2.85000 -7.28692 -9.37155 2.85000 -7.51269 -9.17400 2.85000 -7.91772 -9.63689 2.85000 -8.71635 -4.38641 0.00000 -9.00168 -2.53175 0.00000 -9.29819 -2.57737 0.00000 -9.01286 -4.43202 0.00000 -8.71635 -4.38641 2.97000 -9.00168 -2.53175 2.97000 -9.29819 -2.57737 2.97000 -9.01286 -4.43202 2.97000 -5.70181 -3.92263 0.00000 -5.98714 -2.06798 0.00000 -6.28365 -2.11359 0.00000 -5.99832 -3.96825 0.00000 -5.70181 -3.92263 2.97000 -5.98714 -2.06798 2.97000 -6.28365 -2.11359 2.97000 -5.99832 -3.96825 2.97000 -15.71154 -7.95769 0.00000 -16.40385 -9.61923 0.00000 -16.12692 -9.73462 0.00000 -15.43462 -8.07308 0.00000 -15.71154 -7.95769 3.09000 -16.40385 -9.61923 3.09000 -16.12692 -9.73462 3.09000 -15.43462 -8.07308 3.09000 -17.37308 -7.26538 0.00000 -18.06538 -8.92692 0.00000 -17.78846 -9.04231 0.00000 -17.09615 -7.38077 0.00000 -17.37308 -7.26538 3.09000 -18.06538 -8.92692 3.09000 -17.78846 -9.04231 3.09000 -17.09615 -7.38077 3.09000 -6.90821 2.49422 0.00000 -5.20927 3.72981 0.00000 -5.38572 3.97243 0.00000 -7.08466 2.73684 0.00000 -6.90821 2.49422 2.85000 -5.20927 3.72981 2.85000 -5.38572 3.97243 2.85000 -7.08466 2.73684 2.85000 -5.11428 0.02757 0.00000 -3.41534 1.26316 0.00000 -3.59179 1.50578 0.00000 -5.29073 0.27019 0.00000 -5.11428 0.02757 2.85000 -3.41534 1.26316 2.85000 -3.59179 1.50578 2.85000 -5.29073 0.27019 2.85000 0.16991 3.46643 0.00000 1.15709 2.58894 0.00000 1.35640 2.81317 0.00000 0.36922 3.69066 0.00000 0.16991 3.46643 2.97000 1.15709 2.58894 2.97000 1.35640 2.81317 2.97000 0.36922 3.69066 2.97000 -1.85640 1.18683 0.00000 -0.86922 0.30934 0.00000 -0.66991 0.53357 0.00000 -1.65709 1.41106 0.00000 -1.85640 1.18683 2.97000 -0.86922 0.30934 2.97000 -0.66991 0.53357 2.97000 -1.65709 1.41106 2.97000 -5.29073 -0.27019 0.00000 -3.59179 -1.50578 0.00000 -3.41534 -1.26316 0.00000 -5.11428 -0.02757 0.00000 -5.29073 -0.27019 3.09000 -3.59179 -1.50578 3.09000 -3.41534 -1.26316 3.09000 -5.11428 -0.02757 3.09000 -7.08466 -2.73684 0.00000 -5.38572 -3.97243 0.00000 -5.20927 -3.72981 0.00000 -6.90821 -2.49422 0.00000 -7.08466 -2.73684 3.09000 -5.38572 -3.97243 3.09000 -5.20927 -3.72981 3.09000 -6.90821 -2.49422 3.09000 -1.65709 -1.41106 0.00000 -0.66991 -0.53357 0.00000 -0.86922 -0.30934 0.00000 -1.85640 -1.18683 0.00000 -1.65709 -1.41106 2.85000 -0.66991 -0.53357 2.85000 -0.86922 -0.30934 2.85000 -1.85640 -1.18683 2.85000 0.36922 -3.69066 0.00000 1.35640 -2.81317 0.00000 1.15709 -2.58894 0.00000 0.16991 -3.46643 0.00000 0.36922 -3.69066 2.85000 1.35640 -2.81317 2.85000 1.15709 -2.58894 2.85000 0.16991 -3.46643 2.85000 -5.61349 -4.15677 0.00000 -5.22203 -3.93929 0.00000 -5.36772 -3.67705 0.00000 -5.75918 -3.89453 0.00000 -5.61349 -4.15677 3.09000 -5.22203 -3.93929 3.09000 -5.36772 -3.67705 3.09000 -5.75918 -3.89453 3.09000 -4.13228 -6.82295 0.00000 -3.74082 -6.60547 0.00000 -3.88651 -6.34323 0.00000 -4.27797 -6.56071 0.00000 -4.13228 -6.82295 3.09000 -3.74082 -6.60547 3.09000 -3.88651 -6.34323 3.09000 -4.27797 -6.56071 3.09000 4.35000 1.37500 0.00000 8.65000 1.37500 0.00000 8.65000 1.67500 0.00000 4.35000 1.67500 0.00000 4.35000 1.37500 2.85000 8.65000 1.37500 2.85000 8.65000 1.67500 2.85000 4.35000 1.67500 2.85000 4.35000 -1.67500 0.00000 8.65000 -1.67500 0.00000 8.65000 -1.37500 0.00000 4.35000 -1.37500 0.00000 4.35000 -1.67500 2.85000 8.65000 -1.67500 2.85000 8.65000 -1.37500 2.85000 4.35000 -1.37500 2.85000 13.35000 1.37500 0.00000 15.65000 1.37500 0.00000 15.65000 1.67500 0.00000 13.35000 1.67500 0.00000 13.35000 1.37500 2.97000 15.65000 1.37500 2.97000 15.65000 1.67500 2.97000 13.35000 1.67500 2.97000 13.35000 -1.67500 0.00000 15.65000 -1.67500 0.00000 15.65000 -1.37500 0.00000 13.35000 -1.37500 0.00000 13.35000 -1.67500 2.97000 15.65000 -1.67500 2.97000 15.65000 -1.37500 2.97000 13.35000 -1.37500 2.97000 0.62500 2.35000 0.00000 0.62500 2.65000 0.00000 0.32500 2.65000 0.00000 0.32500 2.35000 0.00000 0.62500 2.35000 3.09000 0.62500 2.65000 3.09000 0.32500 2.65000 3.09000 0.32500 2.35000 3.09000 3.67500 2.35000 0.00000 3.67500 2.65000 0.00000 3.37500 2.65000 0.00000 3.37500 2.35000 0.00000 3.67500 2.35000 3.09000 3.67500 2.65000 3.09000 3.37500 2.65000 3.09000 3.37500 2.35000 3.09000 4.35000 5.77500 0.00000 8.65000 5.77500 0.00000 8.65000 6.07500 0.00000 4.35000 6.07500 0.00000 4.35000 5.77500 2.85000 8.65000 5.77500 2.85000 8.65000 6.07500 2.85000 4.35000 6.07500 2.85000 4.35000 3.92500 0.00000 8.65000 3.92500 0.00000 8.65000 4.22500 0.00000 4.35000 4.22500 0.00000 4.35000 3.92500 2.85000 8.65000 3.92500 2.85000 8.65000 4.22500 2.85000 4.35000 4.22500 2.85000 12.37500 2.65000 0.00000 12.37500 2.35000 0.00000 12.67500 2.35000 0.00000 12.67500 2.65000 0.00000 12.37500 2.65000 2.97000 12.37500 2.35000 2.97000 12.67500 2.35000 2.97000 12.67500 2.65000 2.97000 9.32500 2.65000 0.00000 9.32500 2.35000 0.00000 9.62500 2.35000 0.00000 9.62500 2.65000 0.00000 9.32500 2.65000 2.97000 9.32500 2.35000 2.97000 9.62500 2.35000 2.97000 9.62500 2.65000 2.97000 12.60832 6.87037 0.00000 15.10553 8.40711 0.00000 14.94830 8.66261 0.00000 12.45109 7.12587 0.00000 12.60832 6.87037 3.09000 15.10553 8.40711 3.09000 14.94830 8.66261 3.09000 12.45109 7.12587 3.09000 13.55170 5.33739 0.00000 16.04891 6.87413 0.00000 15.89168 7.12963 0.00000 13.39447 5.59289 0.00000 13.55170 5.33739 3.09000 16.04891 6.87413 3.09000 15.89168 7.12963 3.09000 13.39447 5.59289 3.09000 3.37500 -2.35000 0.00000 3.37500 -2.65000 0.00000 3.67500 -2.65000 0.00000 3.67500 -2.35000 0.00000 3.37500 -2.35000 2.85000 3.37500 -2.65000 2.85000 3.67500 -2.65000 2.85000 3.67500 -2.35000 2.85000 0.32500 -2.35000 0.00000 0.32500 -2.65000 0.00000 0.62500 -2.65000 0.00000 0.62500 -2.35000 0.00000 0.32500 -2.35000 2.85000 0.32500 -2.65000 2.85000 0.62500 -2.65000 2.85000 0.62500 -2.35000 2.85000 4.35000 -4.22500 0.00000 8.65000 -4.22500 0.00000 8.65000 -3.92500 0.00000 4.35000 -3.92500 0.00000 4.35000 -4.22500 2.97000 8.65000 -4.22500 2.97000 8.65000 -3.92500 2.97000 4.35000 -3.92500 2.97000 4.35000 -6.07500 0.00000 8.65000 -6.07500 0.00000 8.65000 -5.77500 0.00000 4.35000 -5.77500 0.00000 4.35000 -6.07500 2.97000 8.65000 -6.07500 2.97000 8.65000 -5.77500 2.97000 4.35000 -5.77500 2.97000 9.62500 -2.65000 0.00000 9.62500 -2.35000 0.00000 9.32500 -2.35000 0.00000 9.32500 -2.65000 0.00000 9.62500 -2.65000 3.09000 9.62500 -2.35000 3.09000 9.32500 -2.35000 3.09000 9.32500 -2.65000 3.09000 12.67500 -2.65000 0.00000 12.67500 -2.35000 0.00000 12.37500 -2.35000 0.00000 12.37500 -2.65000 0.00000 12.67500 -2.65000 3.09000 12.67500 -2.35000 3.09000 12.37500 -2.35000 3.09000 12.37500 -2.65000 3.09000 13.39447 -5.59289 0.00000 15.89168 -7.12963 0.00000 16.04891 -6.87413 0.00000 13.55170 -5.33739 0.00000 13.39447 -5.59289 2.85000 15.89168 -7.12963 2.85000 16.04891 -6.87413 2.85000 13.55170 -5.33739 2.85000 12.45109 -7.12587 0.00000 14.94830 -8.66261 0.00000 15.10553 -8.40711 0.00000 12.60832 -6.87037 0.00000 12.45109 -7.12587 2.85000 14.94830 -8.66261 2.85000 15.10553 -8.40711 2.85000 12.60832 -6.87037 2.85000 -18.70000 12.85000 0.00000 -13.20000 12.85000 0.00000 -13.20000 13.15000 0.00000 -18.70000 13.15000 0.00000 -18.70000 12.85000 3.10000 -13.20000 12.85000 3.10000 -13.20000 13.15000 3.10000 -18.70000 13.15000 3.10000 -12.40000 12.85000 0.00000 -8.60000 12.85000 0.00000 -8.60000 13.15000 0.00000 -12.40000 13.15000 0.00000 -12.40000 12.85000 3.10000 -8.60000 12.85000 3.10000 -8.60000 13.15000 3.10000 -12.40000 13.15000 3.10000 -6.00000 12.65000 0.00000 -1.20000 12.65000 0.00000 -1.20000 12.95000 0.00000 -6.00000 12.95000 0.00000 -6.00000 12.65000 3.10000 -1.20000 12.65000 3.10000 -1.20000 12.95000 3.10000 -6.00000 12.95000 3.10000 7.00000 12.45000 0.00000 11.50000 12.45000 0.00000 11.50000 12.75000 0.00000 7.00000 12.75000 0.00000 7.00000 12.45000 3.10000 11.50000 12.45000 3.10000 11.50000 12.75000 3.10000 7.00000 12.75000 3.10000 14.00000 12.45000 0.00000 18.80000 12.45000 0.00000 18.80000 12.75000 0.00000 14.00000 12.75000 0.00000 14.00000 12.45000 3.10000 18.80000 12.45000 3.10000 18.80000 12.75000 3.10000 14.00000 12.75000 3.10000 -18.80000 -12.95000 0.00000 -13.00000 -12.95000 0.00000 -13.00000 -12.65000 0.00000 -18.80000 -12.65000 0.00000 -18.80000 -12.95000 3.10000 -13.00000 -12.95000 3.10000 -13.00000 -12.65000 3.10000 -18.80000 -12.65000 3.10000 -10.30000 -12.95000 0.00000 -6.00000 -12.95000 0.00000 -6.00000 -12.65000 0.00000 -10.30000 -12.65000 0.00000 -10.30000 -12.95000 3.10000 -6.00000 -12.95000 3.10000 -6.00000 -12.65000 3.10000 -10.30000 -12.65000 3.10000 -1.20000 -12.75000 0.00000 4.60000 -12.75000 0.00000 4.60000 -12.45000 0.00000 -1.20000 -12.45000 0.00000 -1.20000 -12.75000 3.10000 4.60000 -12.75000 3.10000 4.60000 -12.45000 3.10000 -1.20000 -12.45000 3.10000 7.50000 -12.95000 0.00000 11.80000 -12.95000 0.00000 11.80000 -12.65000 0.00000 7.50000 -12.65000 0.00000 7.50000 -12.95000 3.10000 11.80000 -12.95000 3.10000 11.80000 -12.65000 3.10000 7.50000 -12.65000 3.10000 14.20000 -12.95000 0.00000 18.80000 -12.95000 0.00000 18.80000 -12.65000 0.00000 14.20000 -12.65000 0.00000 14.20000 -12.95000 3.10000 18.80000 -12.95000 3.10000 18.80000 -12.65000 3.10000 14.20000 -12.65000 3.10000 -5.49000 5.91000 0.00000 -4.91000 5.91000 0.00000 -4.91000 6.49000 0.00000 -5.49000 6.49000 0.00000 -5.49000 5.91000 6.30000 -4.91000 5.91000 6.30000 -4.91000 6.49000 6.30000 -5.49000 6.49000 6.30000 0.41000 5.91000 0.00000 0.99000 5.91000 0.00000 0.99000 6.49000 0.00000 0.41000 6.49000 0.00000 0.41000 5.91000 6.30000 0.99000 5.91000 6.30000 0.99000 6.49000 6.30000 0.41000 6.49000 6.30000 4.91000 3.11000 0.00000 5.49000 3.11000 0.00000 5.49000 3.69000 0.00000 4.91000 3.69000 0.00000 4.91000 3.11000 6.30000 5.49000 3.11000 6.30000 5.49000 3.69000 6.30000 4.91000 3.69000 6.30000 4.91000 -3.69000 0.00000 5.49000 -3.69000 0.00000 5.49000 -3.11000 0.00000 4.91000 -3.11000 0.00000 4.91000 -3.69000 6.30000 5.49000 -3.69000 6.30000 5.49000 -3.11000 6.30000 4.91000 -3.11000 6.30000 0.41000 -6.49000 0.00000 0.99000 -6.49000 0.00000 0.99000 -5.91000 0.00000 0.41000 -5.91000 0.00000 0.41000 -6.49000 6.30000 0.99000 -6.49000 6.30000 0.99000 -5.91000 6.30000 0.41000 -5.91000 6.30000 -16.95531 3.78884 3.22564 -13.87142 3.85053 2.91616 -13.88062 4.31044 2.91616 -16.96451 4.24875 3.22564 -16.91938 3.78956 3.58384 -13.83549 3.85125 3.27436 -13.84469 4.31116 3.27436 -16.92858 4.24947 3.58384 -7.57805 5.55220 3.14071 -7.11826 5.53841 3.14071 -7.02109 8.77655 3.40044 -7.48088 8.79035 3.40044 -7.57891 5.52345 3.49956 -7.11912 5.50965 3.49956 -7.02195 8.74780 3.75929 -7.48174 8.76159 3.75929 0.17722 -4.25835 3.36016 3.61344 -4.12083 3.08445 3.59323 -3.66184 3.06153 0.15702 -3.79936 3.33724 0.20677 -4.23816 3.73847 3.64298 -4.10064 3.46276 3.62278 -3.64165 3.43984 0.18656 -3.77917 3.71555 10.74997 2.24348 3.00160 11.22834 2.23391 3.03996 11.27917 5.57753 3.24020 10.80080 5.58710 3.20184 10.72083 2.22247 3.35980 11.19920 2.21290 3.39816 11.25003 5.55652 3.59840 10.77166 5.56609 3.56004 13.22403 8.04718 3.16701 16.26243 8.41355 3.66090 16.01960 10.18825 3.83830 12.98120 9.82188 3.34441 13.18040 8.01175 3.46170 16.21880 8.37812 3.95559 15.97597 10.15282 4.13299 12.93757 9.78645 3.63910 -13.32409 -9.77221 3.54974 -10.58309 -10.27099 3.27020 -10.30922 -8.65579 3.07367 -13.05022 -8.15702 3.35320 -13.29078 -9.74421 3.82633 -10.54978 -10.24298 3.54680 -10.27591 -8.62779 3.35026 -13.01691 -8.12901 3.62980 -15.82874 -7.08848 0.03152 -15.53655 -6.74207 0.05431 -15.99204 -6.35271 -0.02410 -16.28423 -6.69911 -0.04689 -15.92899 -7.05362 0.78703 -15.63679 -6.70721 0.80982 -16.09228 -6.31785 0.73142 -16.38448 -6.66425 0.70863 -14.57385 -9.56558 0.01331 -14.61232 -8.97596 0.02938 -15.59644 -9.03903 -0.01239 -15.55796 -9.62866 -0.02846 -14.60337 -9.58735 0.74178 -14.64184 -8.99773 0.75784 -15.62596 -9.06081 0.71607 -15.58748 -9.65043 0.70001 -14.05481 -10.54094 -0.07972 -13.72228 -10.01923 -0.01886 -14.21881 -9.71489 0.08513 -14.55133 -10.23660 0.02426 -14.02912 -10.58753 0.17930 -13.69660 -10.06581 0.24016 -14.19312 -9.76148 0.34414 -14.52565 -10.28319 0.28328 -14.09625 -9.17135 -0.04265 -13.19619 -9.06722 0.08308 -13.28797 -8.22970 0.04649 -14.18804 -8.33383 -0.07924 -14.14824 -9.16115 0.32111 -13.24818 -9.05702 0.44683 -13.33996 -8.21951 0.41025 -14.24003 -8.32364 0.28452 -17.87563 -10.04571 -0.04890 -18.23785 -9.40976 -0.08121 -18.88890 -9.77366 0.05509 -18.52668 -10.40961 0.08740 -17.82730 -10.00029 0.30322 -18.18952 -9.36434 0.27091 -18.84058 -9.72824 0.40720 -18.47835 -10.36419 0.43952 -15.08458 -7.56877 0.00357 -14.98887 -6.69399 0.05239 -15.95988 -6.58474 -0.00155 -16.05560 -7.45952 -0.05037 -15.12471 -7.60105 0.66065 -15.02900 -6.72627 0.70947 -16.00002 -6.61702 0.65553 -16.09573 -7.49180 0.60671 -14.20894 -5.43234 0.06320 -15.00245 -4.84891 0.00455 -15.27277 -5.22285 -0.05791 -14.47927 -5.80628 0.00075 -14.27107 -5.46821 0.54687 -15.06457 -4.88478 0.48822 -15.33490 -5.25872 0.42577 -14.54140 -5.84215 0.48442 -17.11979 -5.52348 -0.05858 -17.81755 -5.39146 0.04445 -17.98142 -6.27380 0.06528 -17.28367 -6.40583 -0.03775 -17.02813 -5.52579 0.56516 -17.72588 -5.39376 0.66819 -17.88976 -6.27610 0.68902 -17.19200 -6.40813 0.58599 -15.30095 -8.64131 0.01550 -15.43565 -7.92287 -0.11909 -16.07248 -8.01872 0.00661 -15.93777 -8.73716 0.14120 -15.20172 -8.50973 0.61855 -15.33642 -7.79129 0.48396 -15.97324 -7.88715 0.60966 -15.83854 -8.60558 0.74425 -17.15519 -8.28418 -0.09665 -16.95167 -7.22401 -0.02387 -17.73457 -7.08258 0.10520 -17.93809 -8.14275 0.03242 -17.07360 -8.33786 0.45710 -16.87008 -7.27769 0.52988 -17.65298 -7.13626 0.65894 -17.85650 -8.19643 0.58616 -17.58502 -8.26877 0.01778 -18.48310 -7.67171 0.00636 -18.85200 -8.22704 -0.01750 -17.95392 -8.82410 -0.00608 -17.59658 -8.27844 0.42132 -18.49465 -7.68137 0.40991 -18.86355 -8.23670 0.38605 -17.96548 -8.83377 0.39746 -14.92367 -5.53169 -0.06938 -14.43689 -5.37946 -0.01461 -14.64993 -4.73084 0.07593 -15.13671 -4.88308 0.02116 -14.95156 -5.60319 0.37721 -14.46479 -5.45096 0.43199 -14.67782 -4.80235 0.52253 -15.16460 -4.95458 0.46775 -17.57628 -7.67258 0.04671 -18.05076 -7.51700 0.06770 -18.23650 -8.06894 -0.03998 -17.76202 -8.22452 -0.06097 -17.58297 -7.74378 0.42321 -18.05745 -7.58820 0.44420 -18.24319 -8.14014 0.33652 -17.76871 -8.29572 0.31553 -14.57525 -8.66234 0.10328 -13.68871 -8.42007 -0.06565 -13.84343 -7.87232 -0.09206 -14.72997 -8.11459 0.07687 -14.47196 -8.60292 0.73059 -13.58542 -8.36065 0.56166 -13.74014 -7.81290 0.53524 -14.62668 -8.05517 0.70418 -14.75037 -10.06305 0.09352 -14.85924 -7.22938 -0.04519 -15.17714 -7.24325 -0.07908 -15.06827 -10.07692 0.05963 -14.97851 -9.96894 2.19509 -15.08738 -7.13527 2.05638 -15.40528 -7.14914 2.02249 -15.29641 -9.98281 2.16120 -10.41178 8.10347 0.00376 -10.07341 8.46893 0.02615 -10.47433 8.84190 -0.00265 -10.81270 8.47643 -0.02505 -10.44365 8.10476 0.46413 -10.10528 8.47023 0.48652 -10.50620 8.84319 0.45772 -10.84457 8.47773 0.43532 -12.16256 8.90538 -0.02729 -11.03920 8.92678 0.07506 -11.04230 9.28620 0.03392 -12.16566 9.26480 -0.06842 -12.22014 8.97555 0.59007 -11.09678 8.99694 0.69241 -11.09988 9.35636 0.65127 -12.22324 9.33497 0.54893 -10.61685 8.13920 0.09175 -11.40969 8.62319 -0.06268 -11.60288 8.30136 -0.07949 -10.81004 7.81737 0.07494 -10.75457 8.17850 0.92194 -11.54741 8.66248 0.76751 -11.74059 8.34065 0.75070 -10.94776 7.85667 0.90513 -12.61856 8.02561 -0.00371 -13.52954 8.11536 -0.09758 -13.61948 7.31435 0.00945 -12.70850 7.22460 0.10331 -12.65457 8.08378 0.40138 -13.56555 8.17353 0.30751 -13.65549 7.37252 0.41454 -12.74451 7.28277 0.50841 -12.49166 12.26143 0.00790 -12.20762 12.57626 0.00636 -12.58612 12.91768 -0.00760 -12.87015 12.60285 -0.00606 -12.50579 12.27806 0.79790 -12.22176 12.59288 0.79636 -12.60025 12.93430 0.78240 -12.88429 12.61948 0.78394 -12.04278 10.05798 0.09943 -12.10698 10.86889 -0.03917 -12.52830 10.82684 -0.09003 -12.46411 10.01593 0.04857 -12.10140 10.12663 0.52824 -12.16560 10.93754 0.38965 -12.58692 10.89549 0.33879 -12.52272 10.08458 0.47739 -12.09565 11.01193 -0.01408 -11.56546 11.07072 -0.05980 -11.64591 11.85557 0.01647 -12.17610 11.79677 0.06220 -12.06823 10.98696 0.27174 -11.53804 11.04575 0.22602 -11.61849 11.83060 0.30230 -12.14868 11.77181 0.34802 -12.20674 8.96443 0.06499 -11.11742 9.17918 0.09680 -11.27584 10.00595 -0.06002 -12.36516 9.79120 -0.09182 -12.22485 9.01446 0.34710 -11.13553 9.22921 0.37890 -11.29394 10.05599 0.22209 -12.38326 9.84123 0.19029 -12.39418 9.62387 0.00284 -11.52223 9.76472 -0.09834 -11.62888 10.49660 0.00141 -12.50082 10.35575 0.10259 -12.35779 9.59241 0.27261 -11.48585 9.73326 0.17142 -11.59249 10.46513 0.27117 -12.46444 10.32429 0.37236 -12.84777 9.11779 0.00519 -11.92962 9.37500 0.06018 -12.16515 10.22936 -0.00362 -13.08330 9.97214 -0.05861 -12.87548 9.13773 0.37455 -11.95733 9.39495 0.42954 -12.19285 10.24930 0.36574 -13.11100 9.99208 0.31075 -10.97931 9.23658 0.02197 -11.08951 9.97209 -0.03773 -11.79985 9.86719 -0.01896 -11.68965 9.13168 0.04074 -10.96739 9.30691 0.86641 -11.07758 10.04242 0.80671 -11.78793 9.93752 0.82548 -11.67773 9.20201 0.88518 -14.46484 7.71627 0.00772 -14.28077 8.25763 0.02300 -15.11688 8.54279 -0.00742 -15.30096 8.00143 -0.02271 -14.47776 7.71182 0.32089 -14.29368 8.25318 0.33618 -15.12980 8.53834 0.30575 -15.31387 7.99698 0.29047 -10.27840 11.16756 -0.00598 -10.83279 11.73066 0.07888 -11.42349 11.15970 0.00848 -10.86910 10.59660 -0.07638 -10.27482 11.13137 0.25752 -10.82921 11.69447 0.34238 -11.41991 11.12351 0.27199 -10.86552 10.56041 0.18713 -13.78978 8.07562 0.03945 -14.18378 8.96020 0.08650 -14.99694 8.60428 -0.03136 -14.60294 7.71970 -0.07841 -13.87232 7.99573 0.85012 -14.26632 8.88032 0.89717 -15.07947 8.52440 0.77931 -14.68547 7.63982 0.73226 14.68779 9.31969 -0.02133 14.48541 9.88035 -0.05507 13.85674 9.65847 0.02882 14.05912 9.09781 0.06256 14.76605 9.39526 0.76498 14.56367 9.95592 0.73124 13.93500 9.73404 0.81514 14.13738 9.17338 0.84887 15.27235 5.24605 0.10341 15.17222 6.22986 -0.06134 14.48323 6.15401 -0.09554 14.58336 5.17019 0.06920 15.23717 5.32998 0.62600 15.13703 6.31379 0.46125 14.44804 6.23794 0.42704 14.54818 5.25412 0.59179 14.47192 7.40361 -0.04015 14.55589 7.92131 -0.10988 13.65708 8.08897 0.05250 13.57311 7.57128 0.12222 14.57108 7.45439 0.45631 14.65505 7.97209 0.38659 13.75624 8.13975 0.54896 13.67227 7.62206 0.61869 11.08482 5.89128 0.00052 11.77897 6.62303 0.00834 11.35843 7.02207 -0.00042 10.66427 6.29032 -0.00824 11.07314 5.89470 0.71689 11.76730 6.62645 0.72471 11.34675 7.02548 0.71595 10.65259 6.29373 0.70813 12.99681 9.22513 0.10756 12.30721 9.95433 0.00410 11.79635 9.45630 -0.10096 12.48595 8.72710 0.00250 12.92422 9.21403 0.51316 12.23461 9.94323 0.40970 11.72376 9.44520 0.30464 12.41336 8.71600 0.40810 16.89830 5.86528 0.02495 16.84291 6.83129 -0.07417 16.42987 6.81391 -0.01268 16.48526 5.84791 0.08643 17.00612 5.94818 0.77264 16.95073 6.91418 0.67353 16.53769 6.89681 0.73502 16.59308 5.93080 0.83413 12.74805 5.90897 0.04574 13.71425 6.51247 0.04230 13.42492 6.97523 -0.03872 12.45872 6.37174 -0.03528 12.69934 5.99061 0.68602 13.66554 6.59410 0.68259 13.37621 7.05687 0.60157 12.41000 6.45338 0.60500 13.18416 8.25747 -0.00661 14.11486 8.52902 0.05795 13.91168 9.23721 0.00828 12.98097 8.96566 -0.05627 13.15335 8.27470 0.36509 14.08405 8.54625 0.42965 13.88087 9.25444 0.37998 12.95017 8.98289 0.31543 13.77775 7.94932 0.09176 12.93666 8.46569 -0.00250 12.66419 8.00697 -0.08409 13.50528 7.49061 0.01016 13.70165 7.91104 0.56112 12.86056 8.42740 0.46687 12.58809 7.96869 0.38528 13.42918 7.45232 0.47953 13.31933 10.41943 0.07093 12.42829 11.09182 -0.09140 12.12561 10.69671 -0.06655 13.01664 10.02432 0.09578 13.28765 10.46703 0.44195 12.39661 11.13942 0.27961 12.09393 10.74431 0.30446 12.98497 10.07192 0.46680 15.05162 9.54121 0.03460 15.60230 10.48160 -0.05292 15.07149 10.79444 -0.03149 14.52081 9.85405 0.05603 15.10901 9.58306 0.84537 15.65970 10.52345 0.75786 15.12888 10.83628 0.77928 14.57820 9.89589 0.86680 14.75267 6.16737 0.08612 15.57076 6.83216 0.03793 14.99554 7.53160 -0.07844 14.17744 6.86681 -0.03025 14.71488 6.27379 0.91250 15.53297 6.93858 0.86431 14.95775 7.63801 0.74794 14.13966 6.97322 0.79613 12.39095 8.47730 0.02185 11.96598 8.84854 0.09740 11.58907 8.43926 -0.01154 12.01404 8.06802 -0.08710 12.37996 8.39099 0.38409 11.95499 8.76223 0.45965 11.57809 8.35295 0.35070 12.00305 7.98171 0.27514 14.19551 10.25116 -0.03875 13.36011 10.42398 -0.05611 13.20407 9.67955 0.04196 14.03947 9.50672 0.05933 14.19786 10.30053 0.33976 13.36245 10.47335 0.32240 13.20641 9.72892 0.42048 14.04182 9.55610 0.43784 12.64944 8.05591 0.15782 14.83876 8.75514 -0.15320 14.74420 9.06018 -0.13304 12.55488 8.36095 0.17798 12.97918 8.01135 2.37874 15.16850 8.71058 2.06772 15.07394 9.01562 2.08788 12.88462 8.31639 2.39890 -13.85000 -12.30000 0.00000 -13.85000 -9.30000 0.00000 -14.15000 -9.30000 0.00000 -14.15000 -12.30000 0.00000 -13.85000 -12.30000 2.70000 -13.85000 -9.30000 2.70000 -14.15000 -9.30000 2.70000 -14.15000 -12.30000 2.70000 -8.85000 10.65000 0.00000 -8.85000 13.35000 0.00000 -9.15000 13.35000 0.00000 -9.15000 10.65000 0.00000 -8.85000 10.65000 2.70000 -8.85000 13.35000 2.70000 -9.15000 13.35000 2.70000 -9.15000 10.65000 2.70000 7.00000 10.35000 0.00000 10.00000 10.35000 0.00000 10.00000 10.65000 0.00000 7.00000 10.65000 0.00000 7.00000 10.35000 2.70000 10.00000 10.35000 2.70000 10.00000 10.65000 2.70000 7.00000 10.65000 2.70000 10.45000 -11.15000 0.00000 13.55000 -11.15000 0.00000 13.55000 -10.85000 0.00000 10.45000 -10.85000 0.00000 10.45000 -11.15000 2.70000 13.55000 -11.15000 2.70000 13.55000 -10.85000 2.70000 10.45000 -10.85000 2.70000 -8.40000 -10.45000 0.00000 -6.00000 -10.45000 0.00000 -6.00000 -10.15000 0.00000 -8.40000 -10.15000 0.00000 -8.40000 -10.45000 2.70000 -6.00000 -10.45000 2.70000 -6.00000 -10.15000 2.70000 -8.40000 -10.15000 2.70000 -11.31635 0.95032 -0.08941 -9.95446 1.25486 0.02247 -10.22148 2.42257 0.09420 -11.58337 2.11803 -0.01768 -11.37852 0.87743 0.86580 -10.01663 1.18197 0.97768 -10.28365 2.34968 1.04941 -11.64554 2.04514 0.93753 8.40306 0.90519 -0.09895 9.64345 1.26187 0.05667 9.29253 2.46058 0.10630 8.05214 2.10390 -0.04933 8.30747 0.83942 0.81370 9.54786 1.19610 0.96933 9.19694 2.39481 1.01895 7.95655 2.03813 0.86333 3.96562 -6.90774 -0.01648 5.56705 -7.29964 -0.08247 5.81946 -6.28583 0.02228 4.21803 -5.89393 0.08826 3.98054 -7.01417 0.97772 5.58197 -7.40607 0.91174 5.83438 -6.39226 1.01648 4.23295 -6.00036 1.08247</float_array>
          <technique_common>
            <accessor source="#positions-array" count="1048" stride="3">
              <param name="X" type="float"/><param name="Y" type="float"/><param name="Z" type="float"/>
            </accessor>
          </technique_common>
        </source>
        <vertices id="vertices"><input semantic="POSITION" source="#positions"/></vertices>
        <triangles count="1572">
          <input semantic="VERTEX" source="#vertices" offset="0"/>
          <p>0 1 2 0 2 3 4 7 6 4 6 5 0 4 5 0 5 1 1 5 6 1 6 2 2 6 7 2 7 3 3 7 4 3 4 0 8 9 10 8 10 11 12 15 14 12 14 13 8 12 13 8 13 9 9 13 14 9 14 10 10 14 15 10 15 11 11 15 12 11 12 8 16 17 18 16 18 19 20 23 22 20 22 21 16 20 21 16 21 17 17 21 22 17 22 18 18 22 23 18 23 19 19 23 20 19 20 16 24 25 26 24 26 27 28 31 30 28 30 29 24 28 29 24 29 25 25 29 30 25 30 26 26 30 31 26 31 27 27 31 28 27 28 24 32 33 34 32 34 35 36 39 38 36 38 37 32 36 37 32 37 33 33 37 38 33 38 34 34 38 39 34 39 35 35 39 36 35 36 32 40 41 42 40 42 43 44 47 46 44 46 45 40 44 45 40 45 41 41 45 46 41 46 42 42 46 47 42 47 43 43 47 44 43 44 40 48 49 50 48 50 51 52 55 54 52 54 53 48 52 53 48 53 49 49 53 54 49 54 50 50 54 55 50 55 51 51 55 52 51 52 48 56 57 58 56 58 59 60 63 62 60 62 61 56 60 61 56 61 57 57 61 62 57 62 58 58 62 63 58 63 59 59 63 60 59 60 56 64 65 66 64 66 67 68 71 70 68 70 69 64 68 69 64 69 65 65 69 70 65 70 66 66 70 71 66 71 67 67 71 68 67 68 64 72 73 74 72 74 75 76 79 78 76 78 77 72 76 77 72 77 73 73 77 78 73 78 74 74 78 79 74 79 75 75 79 76 75 76 72 80 81 82 80 82 83 84 87 86 84 86 85 80 84 85 80 85 81 81 85 86 81 86 82 82 86 87 82 87 83 83 87 84 83 84 80 88 89 90 88 90 91 92 95 94 92 94 93 88 92 93 88 93 89 89 93 94 89 94 90 90 94 95 90 95 91 91 95 92 91 92 88 96 97 98 96 98 99 100 103 102 100 102 101 96 100 101 96 101 97 97 101 102 97 102 98 98 102 103 98 103 99 99 103 100 99 100 96 104 105 106 104 106 107 108 111 110 108 110 109 104 108 109 104 109 105 105 109 110 105 110 106 106 110 111 106 111 107 107 111 108 107 108 104 112 113 114 112 114 115 116 119 118 116 118 117 112 116 117 112 117 113 113 117 118 113 118 114 114 118 119 114 119 115 115 119 116 115 116 112 120 121 122 120 122 123 124 127 126 124 126 125 120 124 125 120 125 121 121 125 126 121 126 122 122 126 127 122 127 123 123 127 124 123 124 120 128 129 130 128 130 131 132 135 134 132 134 133 128 132 133 128 133 129 129 133 134 129 134 130 130 134 135 130 135 131 131 135 132 131 132 128 136 137 138 136 138 139 140 143 142 140 142 141 136 140 141 136 141 137 137 141 142 137 142 138 138 142 143 138 143 139 139 143 140 139 140 136 144 145 146 144 146 147 148 151 150 148 150 149 144 148 149 144 149 145 145 149 150 145 150 146 146 150 151 146 151 147 147 151 148 147 148 144 152 153 154 152 154 155 156 159 158 156 158 157 152 156 157 152 157 153 153 157 158 153 158 154 154 158 159 154 159 155 155 159 156 155 156 152 160 161 162 160 162 163 164 167 166 164 166 165 160 164 165 160 165 161 161 165 166 161 166 162 162 166 167 162 167 163 163 167 164 163 164 160 168 169 170 168 170 171 172 175 174 172 174 173 168 172 173 168 173 169 169 173 174 169 174 170 170 174 175 170 175 171 171 175 172 171 172 168 176 177 178 176 178 179 180 183 182 180 182 181 176 180 181 176 181 177 177 181 182 177 182 178 178 182 183 178 183 179 179 183 180 179 180 176 184 185 186 184 186 187 188 191 190 188 190 189 184 188 189 184 189 185 185 189 190 185 190 186 186 190 191 186 191 187 187 191 188 187 188 184 192 193 194 192 194 195 196 199 198 196 198 197 192 196 197 192 197 193 193 197 198 193 198 194 194 198 199 194 199 195 195 199 196 195 196 192 200 201 202 200 202 203 204 207 206 204 206 205 200 204 205 200 205 201 201 205 206 201 206 202 202 206 207 202 207 203 203 207 204 203 204 200 208 209 210 208 210 211 212 215 214 212 214 213 208 212 213 208 213 209 209 213 214 209 214 210 210 214 215 210 215 211 211 215 212 211 212 208 216 217 218 216 218 219 220 223 222 220 222 221 216 220 221 216 221 217 217 221 222 217 222 218 218 222 223 218 223 219 219 223 220 219 220 216 224 225 226 224 226 227 228 231 230 228 230 229 224 228 229 224 229 225 225 229 230 225 230 226 226 230 231 226 231 227 227 231 228 227 228 224 232 233 234 232 234 235 236 239 238 236 238 237 232 236 237 232 237 233 233 237 238 233 238 234 234 238 239 234 239 235 235 239 236 235 236 232 240 241 242 240 242 243 244 247 246 244 246 245 240 244 245 240 245 241 241 245 246 241 246 242 242 246 247 242 247 243 243 247 244 243 244 240 248 249 250 248 250 251 252 255 254 252 254 253 248 252 253 248 253 249 249 253 254 249 254 250 250 254 255 250 255 251 251 255 252 251 252 248 256 257 258 256 258 259 260 263 262 260 262 261 256 260 261 256 261 257 257 261 262 257 262 258 258 262 263 258 263 259 259 263 260 259 260 256 264 265 266 264 266 267 268 271 270 268 270 269 264 268 269 264 269 265 265 269 270 265 270 266 266 270 271 266 271 267 267 271 268 267 268 264 272 273 274 272 274 275 276 279 278 276 278 277 272 276 277 272 277 273 273 277 278 273 278 274 274 278 279 274 279 275 275 279 276 275 276 272 280 281 282 280 282 283 284 287 286 284 286 285 280 284 285 280 285 281 281 285 286 281 286 282 282 286 287 282 287 283 283 287 284 283 284 280 288 289 290 288 290 291 292 295 294 292 294 293 288 292 293 288 293 289 289 293 294 289 294 290 290 294 295 290 295 291 291 295 292 291 292 288 296 297 298 296 298 299 300 303 302 300 302 301 296 300 301 296 301 297 297 301 302 297 302 298 298 302 303 298 303 299 299 303 300 299 300 296 304 305 306 304 306 307 308 311 310 308 310 309 304 308 309 304 309 305 305 309 310 305 310 306 306 310 311 306 311 307 307 311 308 307 308 304 312 313 314 312 314 315 316 319 318 316 318 317 312 316 317 312 317 313 313 317 318 313 318 314 314 318 319 314 319 315 315 319 316 315 316 312 320 321 322 320 322 323 324 327 326 324 326 325 320 324 325 320 325 321 321 325 326 321 326 322 322 326 327 322 327 323 323 327 324 323 324 320 328 329 330 328 330 331 332 335 334 332 334 333 328 332 333 328 333 329 329 333 334 329 334 330 330 334 335 330 335 331 331 335 332 331 332 328 336 337 338 336 338 339 340 343 342 340 342 341 336 340 341 336 341 337 337 341 342 337 342 338 338 342 343 338 343 339 339 343 340 339 340 336 344 345 346 344 346 347 348 351 350 348 350 349 344 348 349 344 349 345 345 349 350 345 350 346 346 350 351 346 351 347 347 351 348 347 348 344 352 353 354 352 354 355 356 359 358 356 358 357 352 356 357 352 357 353 353 357 358 353 358 354 354 358 359 354 359 355 355 359 356 355 356 352 360 361 362 360 362 363 364 367 366 364 366 365 360 364 365 360 365 361 361 365 366 361 366 362 362 366 367 362 367 363 363 367 364 363 364 360 368 369 370 368 370 371 372 375 374 372 374 373 368 372 373 368 373 369 369 373 374 369 374 370 370 374 375 370 375 371 371 375 372 371 372 368 376 377 378 376 378 379 380 383 382 380 382 381 376 380 381 376 381 377 377 381 382 377 382 378 378 382 383 378 383 379 379 383 380 379 380 376 384 385 386 384 386 387 388 391 390 388 390 389 384 388 389 384 389 385 385 389 390 385 390 386 386 390 391 386 391 387 387 391 388 387 388 384 392 393 394 392 394 395 396 399 398 396 398 397 392 396 397 392 397 393 393 397 398 393 398 394 394 398 399 394 399 395 395 399 396 395 396 392 400 401 402 400 402 403 404 407 406 404 406 405 400 404 405 400 405 401 401 405 406 401 406 402 402 406 407 402 407 403 403 407 404 403 404 400 408 409 410 408 410 411 412 415 414 412 414 413 408 412 413 408 413 409 409 413 414 409 414 410 410 414 415 410 415 411 411 415 412 411 412 408 416 417 418 416 418 419 420 423 422 420 422 421 416 420 421 416 421 417 417 421 422 417 422 418 418 422 423 418 423 419 419 423 420 419 420 416 424 425 426 424 426 427 428 431 430 428 430 429 424 428 429 424 429 425 425 429 430 425 430 426 426 430 431 426 431 427 427 431 428 427 428 424 432 433 434 432 434 435 436 439 438 436 438 437 432 436 437 432 437 433 433 437 438 433 438 434 434 438 439 434 439 435 435 439 436 435 436 432 440 441 442 440 442 443 444 447 446 444 446 445 440 444 445 440 445 441 441 445 446 441 446 442 442 446 447 442 447 443 443 447 444 443 444 440 448 449 450 448 450 451 452 455 454 452 454 453 448 452 453 448 453 449 449 453 454 449 454 450 450 454 455 450 455 451 451 455 452 451 452 448 456 457 458 456 458 459 460 463 462 460 462 461 456 460 461 456 461 457 457 461 462 457 462 458 458 462 463 458 463 459 459 463 460 459 460 456 464 465 466 464 466 467 468 471 470 468 470 469 464 468 469 464 469 465 465 469 470 465 470 466 466 470 471 466 471 467 467 471 468 467 468 464 472 473 474 472 474 475 476 479 478 476 478 477 472 476 477 472 477 473 473 477 478 473 478 474 474 478 479 474 479 475 475 479 476 475 476 472 480 481 482 480 482 483 484 487 486 484 486 485 480 484 485 480 485 481 481 485 486 481 486 482 482 486 487 482 487 483 483 487 484 483 484 480 488 489 490 488 490 491 492 495 494 492 494 493 488 492 493 488 493 489 489 493 494 489 494 490 490 494 495 490 495 491 491 495 492 491 492 488 496 497 498 496 498 499 500 503 502 500 502 501 496 500 501 496 501 497 497 501 502 497 502 498 498 502 503 498 503 499 499 503 500 499 500 496 504 505 506 504 506 507 508 511 510 508 510 509 504 508 509 504 509 505 505 509 510 505 510 506 506 510 511 506 511 507 507 511 508 507 508 504 512 513 514 512 514 515 516 519 518 516 518 517 512 516 517 512 517 513 513 517 518 513 518 514 514 518 519 514 519 515 515 519 516 515 516 512 520 521 522 520 522 523 524 527 526 524 526 525 520 524 525 520 525 521 521 525 526 521 526 522 522 526 527 522 527 523 523 527 524 523 524 520 528 529 530 528 530 531 532 535 534 532 534 533 528 532 533 528 533 529 529 533 534 529 534 530 530 534 535 530 535 531 531 535 532 531 532 528 536 537 538 536 538 539 540 543 542 540 542 541 536 540 541 536 541 537 537 541 542 537 542 538 538 542 543 538 543 539 539 543 540 539 540 536 544 545 546 544 546 547 548 551 550 548 550 549 544 548 549 544 549 545 545 549 550 545 550 546 546 550 551 546 551 547 547 551 548 547 548 544 552 553 554 552 554 555 556 559 558 556 558 557 552 556 557 552 557 553 553 557 558 553 558 554 554 558 559 554 559 555 555 559 556 555 556 552 560 561 562 560 562 563 564 567 566 564 566 565 560 564 565 560 565 561 561 565 566 561 566 562 562 566 567 562 567 563 563 567 564 563 564 560 568 569 570 568 570 571 572 575 574 572 574 573 568 572 573 568 573 569 569 573 574 569 574 570 570 574 575 570 575 571 571 575 572 571 572 568 576 577 578 576 578 579 580 583 582 580 582 581 576 580 581 576 581 577 577 581 582 577 582 578 578 582 583 578 583 579 579 583 580 579 580 576 584 585 586 584 586 587 588 591 590 588 590 589 584 588 589 584 589 585 585 589 590 585 590 586 586 590 591 586 591 587 587 591 588 587 588 584 592 593 594 592 594 595 596 599 598 596 598 597 592 596 597 592 597 593 593 597 598 593 598 594 594 598 599 594 599 595 595 599 596 595 596 592 600 601 602 600 602 603 604 607 606 604 606 605 600 604 605 600 605 601 601 605 606 601 606 602 602 606 607 602 607 603 603 607 604 603 604 600 608 609 610 608 610 611 612 615 614 612 614 613 608 612 613 608 613 609 609 613 614 609 614 610 610 614 615 610 615 611 611 615 612 611 612 608 616 617 618 616 618 619 620 623 622 620 622 621 616 620 621 616 621 617 617 621 622 617 622 618 618 622 623 618 623 619 619 623 620 619 620 616 624 625 626 624 626 627 628 631 630 628 630 629 624 628 629 624 629 625 625 629 630 625 630 626 626 630 631 626 631 627 627 631 628 627 628 624 632 633 634 632 634 635 636 639 638 636 638 637 632 636 637 632 637 633 633 637 638 633 638 634 634 638 639 634 639 635 635 639 636 635 636 632 640 641 642 640 642 643 644 647 646 644 646 645 640 644 645 640 645 641 641 645 646 641 646 642 642 646 647 642 647 643 643 647 644 643 644 640 648 649 650 648 650 651 652 655 654 652 654 653 648 652 653 648 653 649 649 653 654 649 654 650 650 654 655 650 655 651 651 655 652 651 652 648 656 657 658 656 658 659 660 663 662 660 662 661 656 660 661 656 661 657 657 661 662 657 662 658 658 662 663 658 663 659 659 663 660 659 660 656 664 665 666 664 666 667 668 671 670 668 670 669 664 668 669 664 669 665 665 669 670 665 670 666 666 670 671 666 671 667 667 671 668 667 668 664 672 673 674 672 674 675 676 679 678 676 678 677 672 676 677 672 677 673 673 677 678 673 678 674 674 678 679 674 679 675 675 679 676 675 676 672 680 681 682 680 682 683 684 687 686 684 686 685 680 684 685 680 685 681 681 685 686 681 686 682 682 686 687 682 687 683 683 687 684 683 684 680 688 689 690 688 690 691 692 695 694 692 694 693 688 692 693 688 693 689 689 693 694 689 694 690 690 694 695 690 695 691 691 695 692 691 692 688 696 697 698 696 698 699 700 703 702 700 702 701 696 700 701 696 701 697 697 701 702 697 702 698 698 702 703 698 703 699 699 703 700 699 700 696 704 705 706 704 706 707 708 711 710 708 710 709 704 708 709 704 709 705 705 709 710 705 710 706 706 710 711 706 711 707 707 711 708 707 708 704 712 713 714 712 714 715 716 719 718 716 718 717 712 716 717 712 717 713 713 717 718 713 718 714 714 718 719 714 719 715 715 719 716 715 716 712 720 721 722 720 722 723 724 727 726 724 726 725 720 724 725 720 725 721 721 725 726 721 726 722 722 726 727 722 727 723 723 727 724 723 724 720 728 729 730 728 730 731 732 735 734 732 734 733 728 732 733 728 733 729 729 733 734 729 734 730 730 734 735 730 735 731 731 735 732 731 732 728 736 737 738 736 738 739 740 743 742 740 742 741 736 740 741 736 741 737 737 741 742 737 742 738 738 742 743 738 743 739 739 743 740 739 740 736 744 745 746 744 746 747 748 751 750 748 750 749 744 748 749 744 749 745 745 749 750 745 750 746 746 750 751 746 751 747 747 751 748 747 748 744 752 753 754 752 754 755 756 759 758 756 758 757 752 756 757 752 757 753 753 757 758 753 758 754 754 758 759 754 759 755 755 759 756 755 756 752 760 761 762 760 762 763 764 767 766 764 766 765 760 764 765 760 765 761 761 765 766 761 766 762 762 766 767 762 767 763 763 767 764 763 764 760 768 769 770 768 770 771 772 775 774 772 774 773 768 772 773 768 773 769 769 773 774 769 774 770 770 774 775 770 775 771 771 775 772 771 772 768 776 777 778 776 778 779 780 783 782 780 782 781 776 780 781 776 781 777 777 781 782 777 782 778 778 782 783 778 783 779 779 783 780 779 780 776 784 785 786 784 786 787 788 791 790 788 790 789 784 788 789 784 789 785 785 789 790 785 790 786 786 790 791 786 791 787 787 791 788 787 788 784 792 793 794 792 794 795 796 799 798 796 798 797 792 796 797 792 797 793 793 797 798 793 798 794 794 798 799 794 799 795 795 799 796 795 796 792 800 801 802 800 802 803 804 807 806 804 806 805 800 804 805 800 805 801 801 805 806 801 806 802 802 806 807 802 807 803 803 807 804 803 804 800 808 809 810 808 810 811 812 815 814 812 814 813 808 812 813 808 813 809 809 813 814 809 814 810 810 814 815 810 815 811 811 815 812 811 812 808 816 817 818 816 818 819 820 823 822 820 822 821 816 820 821 816 821 817 817 821 822 817 822 818 818 822 823 818 823 819 819 823 820 819 820 816 824 825 826 824 826 827 828 831 830 828 830 829 824 828 829 824 829 825 825 829 830 825 830 826 826 830 831 826 831 827 827 831 828 827 828 824 832 833 834 832 834 835 836 839 838 836 838 837 832 836 837 832 837 833 833 837 838 833 838 834 834 838 839 834 839 835 835 839 836 835 836 832 840 841 842 840 842 843 844 847 846 844 846 845 840 844 845 840 845 841 841 845 846 841 846 842 842 846 847 842 847 843 843 847 844 843 844 840 848 849 850 848 850 851 852 855 854 852 854 853 848 852 853 848 853 849 849 853 854 849 854 850 850 854 855 850 855 851 851 855 852 851 852 848 856 857 858 856 858 859 860 863 862 860 862 861 856 860 861 856 861 857 857 861 862 857 862 858 858 862 863 858 863 859 859 863 860 859 860 856 864 865 866 864 866 867 868 871 870 868 870 869 864 868 869 864 869 865 865 869 870 865 870 866 866 870 871 866 871 867 867 871 868 867 868 864 872 873 874 872 874 875 876 879 878 876 878 877 872 876 877 872 877 873 873 877 878 873 878 874 874 878 879 874 879 875 875 879 876 875 876 872 880 881 882 880 882 883 884 887 886 884 886 885 880 884 885 880 885 881 881 885 886 881 886 882 882 886 887 882 887 883 883 887 884 883 884 880 888 889 890 888 890 891 892 895 894 892 894 893 888 892 893 888 893 889 889 893 894 889 894 890 890 894 895 890 895 891 891 895 892 891 892 888 896 897 898 896 898 899 900 903 902 900 902 901 896 900 901 896 901 897 897 901 902 897 902 898 898 902 903 898 903 899 899 903 900 899 900 896 904 905 906 904 906 907 908 911 910 908 910 909 904 908 909 904 909 905 905 909 910 905 910 906 906 910 911 906 911 907 907 911 908 907 908 904 912 913 914 912 914 915 916 919 918 916 918 917 912 916 917 912 917 913 913 917 918 913 918 914 914 918 919 914 919 915 915 919 916 915 916 912 920 921 922 920 922 923 924 927 926 924 926 925 920 924 925 920 925 921 921 925 926 921 926 922 922 926 927 922 927 923 923 927 924 923 924 920 928 929 930 928 930 931 932 935 934 932 934 933 928 932 933 928 933 929 929 933 934 929 934 930 930 934 935 930 935 931 931 935 932 931 932 928 936 937 938 936 938 939 940 943 942 940 942 941 936 940 941 936 941 937 937 941 942 937 942 938 938 942 943 938 943 939 939 943 940 939 940 936 944 945 946 944 946 947 948 951 950 948 950 949 944 948 949 944 949 945 945 949 950 945 950 946 946 950 951 946 951 947 947 951 948 947 948 944 952 953 954 952 954 955 956 959 958 956 958 957 952 956 957 952 957 953 953 957 958 953 958 954 954 958 959 954 959 955 955 959 956 955 956 952 960 961 962 960 962 963 964 967 966 964 966 965 960 964 965 960 965 961 961 965 966 961 966 962 962 966 967 962 967 963 963 967 964 963 964 960 968 969 970 968 970 971 972 975 974 972 974 973 968 972 973 968 973 969 969 973 974 969 974 970 970 974 975 970 975 971 971 975 972 971 972 968 976 977 978 976 978 979 980 983 982 980 982 981 976 980 981 976 981 977 977 981 982 977 982 978 978 982 983 978 983 979 979 983 980 979 980 976 984 985 986 984 986 987 988 991 990 988 990 989 984 988 989 984 989 985 985 989 990 985 990 986 986 990 991 986 991 987 987 991 988 987 988 984 992 993 994 992 994 995 996 999 998 996 998 997 992 996 997 992 997 993 993 997 998 993 998 994 994 998 999 994 999 995 995 999 996 995 996 992 1000 1001 1002 1000 1002 1003 1004 1007 1006 1004 1006 1005 1000 1004 1005 1000 1005 1001 1001 1005 1006 1001 1006 1002 1002 1006 1007 1002 1007 1003 1003 1007 1004 1003 1004 1000 1008 1009 1010 1008 1010 1011 1012 1015 1014 1012 1014 1013 1008 1012 1013 1008 1013 1009 1009 1013 1014 1009 1014 1010 1010 1014 1015 1010 1015 1011 1011 1015 1012 1011 1012 1008 1016 1017 1018 1016 1018 1019 1020 1023 1022 1020 1022 1021 1016 1020 1021 1016 1021 1017 1017 1021 1022 1017 1022 1018 1018 1022 1023 1018 1023 1019 1019 1023 1020 1019 1020 1016 1024 1025 1026 1024 1026 1027 1028 1031 1030 1028 1030 1029 1024 1028 1029 1024 1029 1025 1025 1029 1030 1025 1030 1026 1026 1030 1031 1026 1031 1027 1027 1031 1028 1027 1028 1024 1032 1033 1034 1032 1034 1035 1036 1039 1038 1036 1038 1037 1032 1036 1037 1032 1037 1033 1033 1037 1038 1033 1038 1034 1034 1038 1039 1034 1039 1035 1035 1039 1036 1035 1036 1032 1040 1041 1042 1040 1042 1043 1044 1047 1046 1044 1046 1045 1040 1044 1045 1040 1045 1041 1041 1045 1046 1041 1046 1042 1042 1046 1047 1042 1047 1043 1043 1047 1044 1043 1044 1040</p>
        </triangles>
      </mesh>
    </geometry>
  </library_geometries>
  <library_visual_scenes>
    <visual_scene id="Scene" name="Scene">
      <node id="Ruins-Urban-01" name="Ruins-Urban-01">
        <instance_geometry url="#ruins_urban_01_geometry"/>
      </node>
    </visual_scene>
  </library_visual_scenes>
  <scene><instance_visual_scene url="#Scene"/></scene>
</COLLADA>
