mtllib ruins_urban_01.mtl
o floor_slab
usemtl dark_concrete
v -21.00000 -16.00000 -0.16000
v 21.00000 -16.00000 -0.16000
v 21.00000 16.00000 -0.16000
v -21.00000 16.00000 -0.16000
v -21.00000 -16.00000 0.00000
v 21.00000 -16.00000 0.00000
v 21.00000 16.00000 0.00000
v -21.00000 16.00000 0.00000
f 1 2 3 4
f 5 8 7 6
f 1 5 6 2
f 2 6 7 3
f 3 7 8 4
f 4 8 5 1
o north_boundary_west
usemtl concrete
v -21.00142 15.75501 0.00000
v -2.00237 15.56501 0.00000
v -1.99858 15.94499 0.00000
v -20.99763 16.13499 0.00000
v -21.00142 15.75501 3.10000
v -2.00237 15.56501 3.10000
v -1.99858 15.94499 3.10000
v -20.99763 16.13499 3.10000
f 9 10 11 12
f 13 16 15 14
f 9 13 14 10
f 10 14 15 11
f 11 15 16 12
f 12 16 13 9
o north_boundary_east
usemtl concrete
v 0.00433 15.53253 0.00000
v 21.00197 15.84752 0.00000
v 20.99567 16.26747 0.00000
v -0.00197 15.95248 0.00000
v 0.00433 15.53253 3.60000
v 21.00197 15.84752 3.60000
v 20.99567 16.26747 3.60000
v -0.00197 15.95248 3.60000
f 17 18 19 20
f 21 24 23 22
f 17 21 22 18
f 18 22 23 19
f 19 23 24 20
f 20 24 21 17
o south_boundary_west
usemtl concrete
v -20.99669 -16.24198 0.00000
v 1.00173 -15.97799 0.00000
v 0.99669 -15.55802 0.00000
v -21.00173 -15.82201 0.00000
v -20.99669 -16.24198 3.50000
v 1.00173 -15.97799 3.50000
v 0.99669 -15.55802 3.50000
v -21.00173 -15.82201 3.50000
f 25 26 27 28
f 29 32 31 30
f 25 29 30 26
f 26 30 31 27
f 27 31 32 28
f 28 32 29 25
o south_boundary_east
usemtl concrete
v 2.99804 -15.87798 0.00000
v 20.99512 -16.20196 0.00000
v 21.00196 -15.82202 0.00000
v 3.00488 -15.49804 0.00000
v 2.99804 -15.87798 3.00000
v 20.99512 -16.20196 3.00000
v 21.00196 -15.82202 3.00000
v 3.00488 -15.49804 3.00000
f 33 34 35 36
f 37 40 39 38
f 33 37 38 34
f 34 38 39 35
f 35 39 40 36
f 36 40 37 33
o west_boundary_north
usemtl concrete
v -21.29695 2.30557 0.00000
v -20.87703 2.29717 0.00000
v -20.60305 15.99443 0.00000
v -21.02297 16.00283 0.00000
v -21.29695 2.30557 3.40000
v -20.87703 2.29717 3.40000
v -20.60305 15.99443 3.40000
v -21.02297 16.00283 3.40000
f 41 42 43 44
f 45 48 47 46
f 41 45 46 42
f 42 46 47 43
f 43 47 48 44
f 44 48 45 41
o west_boundary_south
usemtl concrete
v -21.05723 -16.00238 0.00000
v -20.63728 -15.99608 0.00000
v -20.84277 -2.29762 0.00000
v -21.26272 -2.30392 0.00000
v -21.05723 -16.00238 3.40000
v -20.63728 -15.99608 3.40000
v -20.84277 -2.29762 3.40000
v -21.26272 -2.30392 3.40000
f 49 50 51 52
f 53 56 55 54
f 49 53 54 50
f 50 54 55 51
f 51 55 56 52
f 52 56 53 49
o east_boundary
usemtl concrete
v 20.58101 -15.89711 0.00000
v 21.00099 -15.90130 0.00000
v 21.31899 15.89711 0.00000
v 20.89901 15.90130 0.00000
v 20.58101 -15.89711 3.40000
v 21.00099 -15.90130 3.40000
v 21.31899 15.89711 3.40000
v 20.89901 15.90130 3.40000
f 57 58 59 60
f 61 64 63 62
f 57 61 62 58
f 58 62 63 59
f 59 63 64 60
f 60 64 61 57
o ground_corridor_g2_n1_left
usemtl concrete
v -13.63661 0.68543 0.00000
v -14.02134 2.83993 0.00000
v -14.29698 2.79071 0.00000
v -13.91225 0.63621 0.00000
v -13.63661 0.68543 3.15000
v -14.02134 2.83993 3.15000
v -14.29698 2.79071 3.15000
v -13.91225 0.63621 3.15000
f 65 66 67 68
f 69 72 71 70
f 65 69 70 66
f 66 70 71 67
f 67 71 72 68
f 68 72 69 65
o ground_corridor_g2_n1_right
usemtl concrete
v -10.70302 1.20929 0.00000
v -11.08775 3.36379 0.00000
v -11.36339 3.31457 0.00000
v -10.97866 1.16007 0.00000
v -10.70302 1.20929 3.15000
v -11.08775 3.36379 3.15000
v -11.36339 3.31457 3.15000
v -10.97866 1.16007 3.15000
f 73 74 75 76
f 77 80 79 78
f 73 77 78 74
f 74 78 79 75
f 75 79 80 76
f 76 80 77 73
o ground_corridor_n1_n2_left
usemtl concrete
v -14.40696 6.06830 0.00000
v -14.90219 7.10829 0.00000
v -15.15499 6.98791 0.00000
v -14.65976 5.94792 0.00000
v -14.40696 6.06830 2.75000
v -14.90219 7.10829 2.75000
v -15.15499 6.98791 2.75000
v -14.65976 5.94792 2.75000
f 81 82 83 84
f 85 88 87 86
f 81 85 86 82
f 82 86 87 83
f 83 87 88 84
f 84 88 85 81
o ground_corridor_n1_n2_right
usemtl concrete
v -12.84501 6.81209 0.00000
v -13.34024 7.85208 0.00000
v -13.59304 7.73170 0.00000
v -13.09781 6.69171 0.00000
v -12.84501 6.81209 2.75000
v -13.34024 7.85208 2.75000
v -13.59304 7.73170 2.75000
v -13.09781 6.69171 2.75000
f 89 90 91 92
f 93 96 95 94
f 89 93 94 90
f 90 94 95 91
f 91 95 96 92
f 92 96 93 89
o ground_corridor_n2_n3_left
usemtl concrete
v -14.86360 11.20599 0.00000
v -13.66836 12.57197 0.00000
v -13.87908 12.75635 0.00000
v -15.07432 11.39037 0.00000
v -14.86360 11.20599 3.15000
v -13.66836 12.57197 3.15000
v -13.87908 12.75635 3.15000
v -15.07432 11.39037 3.15000
f 97 98 99 100
f 101 104 103 102
f 97 101 102 98
f 98 102 103 99
f 99 103 104 100
f 100 104 101 97
o ground_corridor_n2_n3_right
usemtl concrete
v -12.62092 9.24365 0.00000
v -11.42568 10.60963 0.00000
v -11.63640 10.79401 0.00000
v -12.83164 9.42803 0.00000
v -12.62092 9.24365 3.15000
v -11.42568 10.60963 3.15000
v -11.63640 10.79401 3.15000
v -12.83164 9.42803 3.15000
f 105 106 107 108
f 109 112 111 110
f 105 109 110 106
f 106 110 111 107
f 107 111 112 108
f 108 112 109 105
o ground_corridor_n3_n4_left
usemtl concrete
v -9.61548 13.19157 0.00000
v -7.96787 12.69728 0.00000
v -7.88741 12.96547 0.00000
v -9.53502 13.45976 0.00000
v -9.61548 13.19157 2.75000
v -7.96787 12.69728 2.75000
v -7.88741 12.96547 2.75000
v -9.53502 13.45976 2.75000
f 113 114 115 116
f 117 120 119 118
f 113 117 118 114
f 114 118 119 115
f 115 119 120 116
f 116 120 117 113
o ground_corridor_n3_n4_right
usemtl concrete
v -10.11259 11.53453 0.00000
v -8.46498 11.04024 0.00000
v -8.38452 11.30843 0.00000
v -10.03213 11.80272 0.00000
v -10.11259 11.53453 2.75000
v -8.46498 11.04024 2.75000
v -8.38452 11.30843 2.75000
v -10.03213 11.80272 2.75000
f 121 122 123 124
f 125 128 127 126
f 121 125 126 122
f 122 126 127 123
f 123 127 128 124
f 124 128 125 121
o ground_corridor_n4_n5_left
usemtl concrete
v -4.47001 10.62584 0.00000
v -3.66976 9.18539 0.00000
v -3.42500 9.32137 0.00000
v -4.22525 10.76182 0.00000
v -4.47001 10.62584 3.15000
v -3.66976 9.18539 3.15000
v -3.42500 9.32137 3.15000
v -4.22525 10.76182 3.15000
f 129 130 131 132
f 133 136 135 134
f 129 133 134 130
f 130 134 135 131
f 131 135 136 132
f 132 136 133 129
o ground_corridor_n4_n5_right
usemtl concrete
v -7.07500 9.17863 0.00000
v -6.27475 7.73818 0.00000
v -6.02999 7.87416 0.00000
v -6.83024 9.31461 0.00000
v -7.07500 9.17863 3.15000
v -6.27475 7.73818 3.15000
v -6.02999 7.87416 3.15000
v -6.83024 9.31461 3.15000
f 137 138 139 140
f 141 144 143 142
f 137 141 142 138
f 138 142 143 139
f 139 143 144 140
f 140 144 141 137
o ground_corridor_g3_s1_left
usemtl concrete
v -6.99123 -1.36656 0.00000
v -7.35391 -3.32508 0.00000
v -7.07859 -3.37606 0.00000
v -6.71591 -1.41755 0.00000
v -6.99123 -1.36656 3.15000
v -7.35391 -3.32508 3.15000
v -7.07859 -3.37606 3.15000
v -6.71591 -1.41755 3.15000
f 145 146 147 148
f 149 152 151 150
f 145 149 150 146
f 146 150 151 147
f 147 151 152 148
f 148 152 149 145
o ground_corridor_g3_s1_right
usemtl concrete
v -9.92141 -0.82394 0.00000
v -10.28409 -2.78245 0.00000
v -10.00877 -2.83344 0.00000
v -9.64609 -0.87492 0.00000
v -9.92141 -0.82394 3.15000
v -10.28409 -2.78245 3.15000
v -10.00877 -2.83344 3.15000
v -9.64609 -0.87492 3.15000
f 153 154 155 156
f 157 160 159 158
f 153 157 158 154
f 154 158 159 155
f 155 159 160 156
f 156 160 157 153
o ground_corridor_s1_s2_left
usemtl concrete
v -10.63530 -6.50702 0.00000
v -11.67573 -7.06885 0.00000
v -11.54269 -7.31522 0.00000
v -10.50226 -6.75339 0.00000
v -10.63530 -6.50702 2.75000
v -11.67573 -7.06885 2.75000
v -11.54269 -7.31522 2.75000
v -10.50226 -6.75339 2.75000
f 161 162 163 164
f 165 168 167 166
f 161 165 166 162
f 162 166 167 163
f 163 167 168 164
f 164 168 165 161
o ground_corridor_s1_s2_right
usemtl concrete
v -11.45731 -4.98478 0.00000
v -12.49774 -5.54661 0.00000
v -12.36470 -5.79298 0.00000
v -11.32427 -5.23115 0.00000
v -11.45731 -4.98478 2.75000
v -12.49774 -5.54661 2.75000
v -12.36470 -5.79298 2.75000
v -11.32427 -5.23115 2.75000
f 169 170 171 172
f 173 176 175 174
f 169 173 174 170
f 170 174 175 171
f 171 175 176 172
f 172 176 173 169
o ground_corridor_s3_s4_left
usemtl concrete
v -13.16506 -11.52977 0.00000
v -9.62988 -12.03480 0.00000
v -9.59028 -11.75761 0.00000
v -13.12546 -11.25259 0.00000
v -13.16506 -11.52977 2.75000
v -9.62988 -12.03480 2.75000
v -9.59028 -11.75761 2.75000
v -13.12546 -11.25259 2.75000
f 177 178 179 180
f 181 184 183 182
f 177 181 182 178
f 178 182 183 179
f 179 183 184 180
f 180 184 181 177
o ground_corridor_s3_s4_right
usemtl concrete
v -13.40972 -13.24239 0.00000
v -9.87454 -13.74741 0.00000
v -9.83494 -13.47023 0.00000
v -13.37012 -12.96520 0.00000
v -13.40972 -13.24239 2.75000
v -9.87454 -13.74741 2.75000
v -9.83494 -13.47023 2.75000
v -13.37012 -12.96520 2.75000
f 185 186 187 188
f 189 192 191 190
f 185 189 190 186
f 186 190 191 187
f 187 191 192 188
f 188 192 189 185
o ground_corridor_s4_s5_left
usemtl concrete
v -7.11013 -10.97685 0.00000
v -4.68277 -9.65283 0.00000
v -4.81685 -9.40702 0.00000
v -7.24421 -10.73104 0.00000
v -7.11013 -10.97685 3.15000
v -4.68277 -9.65283 3.15000
v -4.81685 -9.40702 3.15000
v -7.24421 -10.73104 3.15000
f 193 194 195 196
f 197 200 199 198
f 193 197 198 194
f 194 198 199 195
f 195 199 200 196
f 196 200 197 193
o ground_corridor_s4_s5_right
usemtl concrete
v -5.68315 -13.59298 0.00000
v -3.25579 -12.26896 0.00000
v -3.38987 -12.02315 0.00000
v -5.81723 -13.34717 0.00000
v -5.68315 -13.59298 3.15000
v -3.25579 -12.26896 3.15000
v -3.38987 -12.02315 3.15000
v -5.81723 -13.34717 3.15000
f 201 202 203 204
f 205 208 207 206
f 201 205 206 202
f 202 206 207 203
f 203 207 208 204
f 204 208 205 201
o ground_corridor_g7_en1_left
usemtl concrete
v 10.83345 3.00730 0.00000
v 11.13092 3.82037 0.00000
v 10.86796 3.91657 0.00000
v 10.57050 3.10350 0.00000
v 10.83345 3.00730 3.15000
v 11.13092 3.82037 3.15000
v 10.86796 3.91657 3.15000
v 10.57050 3.10350 3.15000
f 209 210 211 212
f 213 216 215 214
f 209 213 214 210
f 210 214 215 211
f 211 215 216 212
f 212 216 213 209
o ground_corridor_g7_en1_right
usemtl concrete
v 13.63204 1.98343 0.00000
v 13.92950 2.79650 0.00000
v 13.66655 2.89270 0.00000
v 13.36908 2.07963 0.00000
v 13.63204 1.98343 3.15000
v 13.92950 2.79650 3.15000
v 13.66655 2.89270 3.15000
v 13.36908 2.07963 3.15000
f 217 218 219 220
f 221 224 223 222
f 217 221 222 218
f 218 222 223 219
f 219 223 224 220
f 220 224 221 217
o ground_corridor_en1_en2_left
usemtl concrete
v 14.24102 6.43108 0.00000
v 15.11052 6.86584 0.00000
v 14.98530 7.11628 0.00000
v 14.11580 6.68152 0.00000
v 14.24102 6.43108 2.75000
v 15.11052 6.86584 2.75000
v 14.98530 7.11628 2.75000
v 14.11580 6.68152 2.75000
f 225 226 227 228
f 229 232 231 230
f 225 229 230 226
f 226 230 231 227
f 227 231 232 228
f 228 232 229 225
o ground_corridor_en1_en2_right
usemtl concrete
v 15.01470 4.88372 0.00000
v 15.88420 5.31848 0.00000
v 15.75898 5.56892 0.00000
v 14.88948 5.13416 0.00000
v 15.01470 4.88372 2.75000
v 15.88420 5.31848 2.75000
v 15.75898 5.56892 2.75000
v 14.88948 5.13416 2.75000
f 233 234 235 236
f 237 240 239 238
f 233 237 238 234
f 234 238 239 235
f 235 239 240 236
f 236 240 237 233
o ground_corridor_en2_dead_ne_left
usemtl concrete
v 15.98483 8.96327 0.00000
v 16.35873 11.01972 0.00000
v 16.08324 11.06981 0.00000
v 15.70934 9.01336 0.00000
v 15.98483 8.96327 3.15000
v 16.35873 11.01972 3.15000
v 16.08324 11.06981 3.15000
v 15.70934 9.01336 3.15000
f 241 242 243 244
f 245 248 247 246
f 241 245 246 242
f 242 246 247 243
f 243 247 248 244
f 244 248 245 241
o ground_corridor_en2_dead_ne_right
usemtl concrete
v 18.91676 8.43019 0.00000
v 19.29066 10.48664 0.00000
v 19.01517 10.53673 0.00000
v 18.64127 8.48028 0.00000
v 18.91676 8.43019 3.15000
v 19.29066 10.48664 3.15000
v 19.01517 10.53673 3.15000
v 18.64127 8.48028 3.15000
f 249 250 251 252
f 253 256 255 254
f 249 253 254 250
f 250 254 255 251
f 251 255 256 252
f 252 256 253 249
o ground_corridor_g7_es1_left
usemtl concrete
v 13.13209 -0.59040 0.00000
v 13.52729 -2.84305 0.00000
v 13.80308 -2.79466 0.00000
v 13.40788 -0.54201 0.00000
v 13.13209 -0.59040 3.15000
v 13.52729 -2.84305 3.15000
v 13.80308 -2.79466 3.15000
v 13.40788 -0.54201 3.15000
f 257 258 259 260
f 261 264 263 262
f 257 261 262 258
f 258 262 263 259
f 259 263 264 260
f 260 264 261 257
o ground_corridor_g7_es1_right
usemtl concrete
v 10.19692 -1.10534 0.00000
v 10.59212 -3.35799 0.00000
v 10.86791 -3.30960 0.00000
v 10.47271 -1.05695 0.00000
v 10.19692 -1.10534 3.15000
v 10.59212 -3.35799 3.15000
v 10.86791 -3.30960 3.15000
v 10.47271 -1.05695 3.15000
f 265 266 267 268
f 269 272 271 270
f 265 269 270 266
f 266 270 271 267
f 267 271 272 268
f 268 272 269 265
o ground_corridor_es1_es2_left
usemtl concrete
v 14.22929 -5.57310 0.00000
v 15.32409 -6.73046 0.00000
v 15.52750 -6.53804 0.00000
v 14.43270 -5.38068 0.00000
v 14.22929 -5.57310 2.75000
v 15.32409 -6.73046 2.75000
v 15.52750 -6.53804 2.75000
v 14.43270 -5.38068 2.75000
f 273 274 275 276
f 277 280 279 278
f 273 277 278 274
f 274 278 279 275
f 275 279 280 276
f 276 280 277 273
o ground_corridor_es1_es2_right
usemtl concrete
v 12.97250 -6.76196 0.00000
v 14.06730 -7.91932 0.00000
v 14.27071 -7.72690 0.00000
v 13.17591 -6.56954 0.00000
v 12.97250 -6.76196 2.75000
v 14.06730 -7.91932 2.75000
v 14.27071 -7.72690 2.75000
v 13.17591 -6.56954 2.75000
f 281 282 283 284
f 285 288 287 286
f 281 285 286 282
f 282 286 287 283
f 283 287 288 284
f 284 288 285 281
o ground_corridor_es2_dead_se_left
usemtl concrete
v 18.09399 -9.20724 0.00000
v 19.15254 -10.79507 0.00000
v 19.38552 -10.63975 0.00000
v 18.32697 -9.05193 0.00000
v 18.09399 -9.20724 3.15000
v 19.15254 -10.79507 3.15000
v 19.38552 -10.63975 3.15000
v 18.32697 -9.05193 3.15000
f 289 290 291 292
f 293 296 295 294
f 289 293 294 290
f 290 294 295 291
f 291 295 296 292
f 292 296 293 289
o ground_corridor_es2_dead_se_right
usemtl concrete
v 15.61448 -10.86025 0.00000
v 16.67303 -12.44807 0.00000
v 16.90601 -12.29276 0.00000
v 15.84746 -10.70493 0.00000
v 15.61448 -10.86025 3.15000
v 16.67303 -12.44807 3.15000
v 16.90601 -12.29276 3.15000
v 15.84746 -10.70493 3.15000
f 297 298 299 300
f 301 304 303 302
f 297 301 302 298
f 298 302 303 299
f 299 303 304 300
f 300 304 301 297
o spine_broken_panel_00
usemtl concrete
v -18.60484 2.10008 0.00000
v -15.50484 2.00008 0.00000
v -15.49516 2.29992 0.00000
v -18.59516 2.39992 0.00000
v -18.60484 2.10008 2.60000
v -15.50484 2.00008 2.60000
v -15.49516 2.29992 2.60000
v -18.59516 2.39992 2.60000
f 305 306 307 308
f 309 312 311 310
f 305 309 310 306
f 306 310 311 307
f 307 311 312 308
f 308 312 309 305
o spine_broken_panel_02
usemtl concrete
v -9.18968 2.30036 0.00000
v -6.28968 2.50036 0.00000
v -6.31032 2.79964 0.00000
v -9.21032 2.59964 0.00000
v -9.18968 2.30036 3.10000
v -6.28968 2.50036 3.10000
v -6.31032 2.79964 3.10000
v -9.21032 2.59964 3.10000
f 313 314 315 316
f 317 320 319 318
f 313 317 318 314
f 314 318 319 315
f 315 319 320 316
f 316 320 317 313
o spine_broken_panel_04
usemtl concrete
v -0.41196 2.50048 0.00000
v 2.08804 2.30048 0.00000
v 2.11196 2.59952 0.00000
v -0.38804 2.79952 0.00000
v -0.41196 2.50048 2.85000
v 2.08804 2.30048 2.85000
v 2.11196 2.59952 2.85000
v -0.38804 2.79952 2.85000
f 321 322 323 324
f 325 328 327 326
f 321 325 326 322
f 322 326 327 323
f 323 327 328 324
f 324 328 325 321
o spine_broken_panel_05
usemtl concrete
v 3.81246 1.80052 0.00000
v 6.21246 2.00052 0.00000
v 6.18754 2.29948 0.00000
v 3.78754 2.09948 0.00000
v 3.81246 1.80052 3.10000
v 6.21246 2.00052 3.10000
v 6.18754 2.29948 3.10000
v 3.78754 2.09948 3.10000
f 329 330 331 332
f 333 336 335 334
f 329 333 334 330
f 330 334 335 331
f 331 335 336 332
f 332 336 333 329
o spine_broken_panel_06
usemtl concrete
v 7.68446 2.45081 0.00000
v 10.08446 2.20081 0.00000
v 10.11554 2.49919 0.00000
v 7.71554 2.74919 0.00000
v 7.68446 2.45081 2.60000
v 10.08446 2.20081 2.60000
v 10.11554 2.49919 2.60000
v 7.71554 2.74919 2.60000
f 337 338 339 340
f 341 344 343 342
f 337 341 342 338
f 338 342 343 339
f 339 343 344 340
f 340 344 341 337
o spine_broken_panel_07
usemtl concrete
v 12.80864 1.95025 0.00000
v 15.40864 2.10025 0.00000
v 15.39136 2.39975 0.00000
v 12.79136 2.24975 0.00000
v 12.80864 1.95025 2.85000
v 15.40864 2.10025 2.85000
v 15.39136 2.39975 2.85000
v 12.79136 2.24975 2.85000
f 345 346 347 348
f 349 352 351 350
f 345 349 350 346
f 346 350 351 347
f 347 351 352 348
f 348 352 349 345
o spine_broken_panel_08
usemtl concrete
v -18.29275 -2.44982 0.00000
v -15.19275 -2.29982 0.00000
v -15.20725 -2.00018 0.00000
v -18.30725 -2.15018 0.00000
v -18.29275 -2.44982 3.10000
v -15.19275 -2.29982 3.10000
v -15.20725 -2.00018 3.10000
v -18.30725 -2.15018 3.10000
f 353 354 355 356
f 357 360 359 358
f 353 357 358 354
f 354 358 359 355
f 355 359 360 356
f 356 360 357 353
o spine_broken_panel_09
usemtl concrete
v -13.48344 -2.89908 0.00000
v -10.78344 -2.59908 0.00000
v -10.81656 -2.30092 0.00000
v -13.51656 -2.60092 0.00000
v -13.48344 -2.89908 2.60000
v -10.78344 -2.59908 2.60000
v -10.81656 -2.30092 2.60000
v -13.51656 -2.60092 2.60000
f 361 362 363 364
f 365 368 367 366
f 361 365 366 362
f 362 366 367 363
f 363 367 368 364
f 364 368 365 361
o spine_broken_panel_11
usemtl concrete
v -4.68617 -2.94936 0.00000
v -1.98617 -2.69936 0.00000
v -2.01383 -2.40064 0.00000
v -4.71383 -2.65064 0.00000
v -4.68617 -2.94936 3.10000
v -1.98617 -2.69936 3.10000
v -2.01383 -2.40064 3.10000
v -4.71383 -2.65064 3.10000
f 369 370 371 372
f 373 376 375 374
f 369 373 374 370
f 370 374 375 371
f 371 375 376 372
f 372 376 373 369
o spine_broken_panel_13
usemtl concrete
v 4.01719 -2.89901 0.00000
v 6.61719 -2.59901 0.00000
v 6.58281 -2.30099 0.00000
v 3.98281 -2.60099 0.00000
v 4.01719 -2.89901 2.85000
v 6.61719 -2.59901 2.85000
v 6.58281 -2.30099 2.85000
v 3.98281 -2.60099 2.85000
f 377 378 379 380
f 381 384 383 382
f 377 381 382 378
f 378 382 383 379
f 379 383 384 380
f 380 384 381 377
o spine_broken_panel_14
usemtl concrete
v 7.99064 -1.74971 0.00000
v 10.39064 -1.89971 0.00000
v 10.40936 -1.60029 0.00000
v 8.00936 -1.45029 0.00000
v 7.99064 -1.74971 3.10000
v 10.39064 -1.89971 3.10000
v 10.40936 -1.60029 3.10000
v 8.00936 -1.45029 3.10000
f 385 386 387 388
f 389 392 391 390
f 385 389 390 386
f 386 390 391 387
f 387 391 392 388
f 388 392 389 385
o spine_broken_panel_15
usemtl concrete
v 13.01246 -2.69948 0.00000
v 16.01246 -2.44948 0.00000
v 15.98754 -2.15052 0.00000
v 12.98754 -2.40052 0.00000
v 13.01246 -2.69948 2.60000
v 16.01246 -2.44948 2.60000
v 15.98754 -2.15052 2.60000
v 12.98754 -2.40052 2.60000
f 393 394 395 396
f 397 400 399 398
f 393 397 398 394
f 394 398 399 395
f 395 399 400 396
f 396 400 397 393
o utility_ceiling_01
usemtl dark_concrete
v -17.37890 8.06297 2.58000
v -11.52600 5.23569 2.58000
v -10.22110 7.93703 2.58000
v -16.07400 10.76431 2.58000
v -17.37890 8.06297 2.86000
v -11.52600 5.23569 2.86000
v -10.22110 7.93703 2.86000
v -16.07400 10.76431 2.86000
f 401 402 403 404
f 405 408 407 406
f 401 405 406 402
f 402 406 407 403
f 403 407 408 404
f 404 408 405 401
o utility_ceiling_02
usemtl dark_concrete
v -12.76190 11.54152 2.49000
v -7.95662 10.15974 2.49000
v -7.23810 12.65848 2.49000
v -12.04338 14.04026 2.49000
v -12.76190 11.54152 2.75000
v -7.95662 10.15974 2.75000
v -7.23810 12.65848 2.75000
v -12.04338 14.04026 2.75000
f 409 410 411 412
f 413 416 415 414
f 409 413 414 410
f 410 414 415 411
f 411 415 416 412
f 412 416 413 409
o fixed_column_00
usemtl concrete_light
v -17.51000 5.69000 0.00000
v -16.89000 5.69000 0.00000
v -16.89000 6.31000 0.00000
v -17.51000 6.31000 0.00000
v -17.51000 5.69000 3.50000
v -16.89000 5.69000 3.50000
v -16.89000 6.31000 3.50000
v -17.51000 6.31000 3.50000
f 417 418 419 420
f 421 424 423 422
f 417 421 422 418
f 418 422 423 419
f 419 423 424 420
f 420 424 421 417
o fixed_column_01
usemtl concrete_light
v -17.51000 8.09000 0.00000
v -16.89000 8.09000 0.00000
v -16.89000 8.71000 0.00000
v -17.51000 8.71000 0.00000
v -17.51000 8.09000 3.50000
v -16.89000 8.09000 3.50000
v -16.89000 8.71000 3.50000
v -17.51000 8.71000 3.50000
f 425 426 427 428
f 429 432 431 430
f 425 429 430 426
f 426 430 431 427
f 427 431 432 428
f 428 432 429 425
o fixed_column_03
usemtl concrete_light
v 8.29000 5.69000 0.00000
v 8.91000 5.69000 0.00000
v 8.91000 6.31000 0.00000
v 8.29000 6.31000 0.00000
v 8.29000 5.69000 3.50000
v 8.91000 5.69000 3.50000
v 8.91000 6.31000 3.50000
v 8.29000 6.31000 3.50000
f 433 434 435 436
f 437 440 439 438
f 433 437 438 434
f 434 438 439 435
f 435 439 440 436
f 436 440 437 433
o fixed_column_07
usemtl concrete_light
v 10.69000 8.69000 0.00000
v 11.31000 8.69000 0.00000
v 11.31000 9.31000 0.00000
v 10.69000 9.31000 0.00000
v 10.69000 8.69000 3.50000
v 11.31000 8.69000 3.50000
v 11.31000 9.31000 3.50000
v 10.69000 9.31000 3.50000
f 441 442 443 444
f 445 448 447 446
f 441 445 446 442
f 442 446 447 443
f 443 447 448 444
f 444 448 445 441
o fixed_column_08
usemtl concrete_light
v 13.09000 8.69000 0.00000
v 13.71000 8.69000 0.00000
v 13.71000 9.31000 0.00000
v 13.09000 9.31000 0.00000
v 13.09000 8.69000 3.50000
v 13.71000 8.69000 3.50000
v 13.71000 9.31000 3.50000
v 13.09000 9.31000 3.50000
f 449 450 451 452
f 453 456 455 454
f 449 453 454 450
f 450 454 455 451
f 451 455 456 452
f 452 456 453 449
o fixed_column_09
usemtl concrete_light
v -1.31000 -13.11000 0.00000
v -0.69000 -13.11000 0.00000
v -0.69000 -12.49000 0.00000
v -1.31000 -12.49000 0.00000
v -1.31000 -13.11000 3.50000
v -0.69000 -13.11000 3.50000
v -0.69000 -12.49000 3.50000
v -1.31000 -12.49000 3.50000
f 457 458 459 460
f 461 464 463 462
f 457 461 462 458
f 458 462 463 459
f 459 463 464 460
f 460 464 461 457
o fixed_column_10
usemtl concrete_light
v 2.69000 -10.81000 0.00000
v 3.31000 -10.81000 0.00000
v 3.31000 -10.19000 0.00000
v 2.69000 -10.19000 0.00000
v 2.69000 -10.81000 3.50000
v 3.31000 -10.81000 3.50000
v 3.31000 -10.19000 3.50000
v 2.69000 -10.19000 3.50000
f 465 466 467 468
f 469 472 471 470
f 465 469 470 466
f 466 470 471 467
f 467 471 472 468
f 468 472 469 465
o fixed_column_11
usemtl concrete_light
v 8.19000 -12.11000 0.00000
v 8.81000 -12.11000 0.00000
v 8.81000 -11.49000 0.00000
v 8.19000 -11.49000 0.00000
v 8.19000 -12.11000 3.50000
v 8.81000 -12.11000 3.50000
v 8.81000 -11.49000 3.50000
v 8.19000 -11.49000 3.50000
f 473 474 475 476
f 477 480 479 478
f 473 477 478 474
f 474 478 479 475
f 475 479 480 476
f 476 480 477 473
o overflight_rubble_gate
usemtl rubble
v -1.97670 -0.60247 -0.09098
v -0.74911 -0.82586 -0.01603
v -0.36222 1.33708 0.09373
v -1.58981 1.56046 0.01877
v -2.03778 -0.63708 0.80627
v -0.81019 -0.86046 0.88123
v -0.42330 1.30247 0.99098
v -1.65089 1.52586 0.91603
f 481 482 483 484
f 485 488 487 486
f 481 485 486 482
f 482 486 487 483
f 483 487 488 484
f 484 488 485 481
o underflight_hanging_gate
usemtl dark_concrete
v 3.13413 -0.81933 2.12288
v 4.30645 -1.05697 2.02698
v 4.77536 1.29483 1.93132
v 3.60304 1.53247 2.02721
v 3.22464 -0.79483 3.16868
v 4.39696 -1.03247 3.07279
v 4.86587 1.31933 2.97712
v 3.69355 1.55697 3.07302
f 489 490 491 492
f 493 496 495 494
f 489 493 494 490
f 490 494 495 491
f 491 495 496 492
f 492 496 493 489
o east_slanted_beam
usemtl rust
v 6.89008 -0.14074 2.92045
v 11.55099 0.90153 2.44125
v 11.47679 1.23333 2.44125
v 6.81589 0.19106 2.92045
v 6.92321 -0.13333 3.25875
v 11.58411 0.90894 2.77955
v 11.50992 1.24074 2.77955
v 6.84901 0.19847 3.25875
f 497 498 499 500
f 501 504 503 502
f 497 501 502 498
f 498 502 503 499
f 499 503 504 500
f 500 504 501 497
o upper_walkway_ua_u1
usemtl dark_concrete
v -2.43732 6.59858 3.24000
v 0.84230 8.89431 3.24000
v -0.56268 10.90142 3.24000
v -3.84230 8.60569 3.24000
v -2.43732 6.59858 3.48000
v 0.84230 8.89431 3.48000
v -0.56268 10.90142 3.48000
v -3.84230 8.60569 3.48000
f 505 506 507 508
f 509 512 511 510
f 505 509 510 506
f 506 510 511 507
f 507 511 512 508
f 508 512 509 505
o upper_corridor_ua_u1_left
usemtl concrete_light
v -3.53918 8.69581 3.38000
v -0.75111 10.64746 3.38000
v -0.87727 10.82769 3.38000
v -3.66534 8.87604 3.38000
v -3.53918 8.69581 5.38000
v -0.75111 10.64746 5.38000
v -0.87727 10.82769 5.38000
v -3.66534 8.87604 5.38000
f 513 514 515 516
f 517 520 519 518
f 513 517 518 514
f 514 518 519 515
f 515 519 520 516
f 516 520 517 513
o upper_corridor_ua_u1_right
usemtl concrete_light
v -2.12273 6.67231 3.38000
v 0.66534 8.62396 3.38000
v 0.53918 8.80419 3.38000
v -2.24889 6.85254 3.38000
v -2.12273 6.67231 5.38000
v 0.66534 8.62396 5.38000
v 0.53918 8.80419 5.38000
v -2.24889 6.85254 5.38000
f 521 522 523 524
f 525 528 527 526
f 521 525 526 522
f 522 526 527 523
f 523 527 528 524
f 524 528 525 521
o upper_walkway_u1_u2
usemtl dark_concrete
v 2.14810 9.36643 3.24000
v 6.05536 9.69203 3.24000
v 5.85190 12.13357 3.24000
v 1.94464 11.80797 3.24000
v 2.14810 9.36643 3.48000
v 6.05536 9.69203 3.48000
v 5.85190 12.13357 3.48000
v 1.94464 11.80797 3.48000
f 529 530 531 532
f 533 536 535 534
f 529 533 534 530
f 530 534 535 531
f 531 535 536 532
f 532 536 533 529
o upper_corridor_u1_u2_left
usemtl concrete_light
v 2.25191 11.73323 3.38000
v 5.56124 12.00900 3.38000
v 5.54297 12.22824 3.38000
v 2.23364 11.95247 3.38000
v 2.25191 11.73323 5.38000
v 5.56124 12.00900 5.38000
v 5.54297 12.22824 5.38000
v 2.23364 11.95247 5.38000
f 537 538 539 540
f 541 544 543 542
f 537 541 542 538
f 538 542 543 539
f 539 543 544 540
f 540 544 541 537
o upper_corridor_u1_u2_right
usemtl concrete_light
v 2.45703 9.27176 3.38000
v 5.76636 9.54753 3.38000
v 5.74809 9.76677 3.38000
v 2.43876 9.49100 3.38000
v 2.45703 9.27176 5.38000
v 5.76636 9.54753 5.38000
v 5.74809 9.76677 5.38000
v 2.43876 9.49100 5.38000
f 545 546 547 548
f 549 552 551 550
f 545 549 550 546
f 546 550 551 547
f 547 551 552 548
f 548 552 549 545
o upper_walkway_u2_u3
usemtl dark_concrete
v 6.98354 9.38666 3.24000
v 9.40313 7.26952 3.24000
v 11.01646 9.11334 3.24000
v 8.59687 11.23048 3.24000
v 6.98354 9.38666 3.48000
v 9.40313 7.26952 3.48000
v 11.01646 9.11334 3.48000
v 8.59687 11.23048 3.48000
f 553 554 555 556
f 557 560 559 558
f 553 557 558 554
f 554 558 559 555
f 555 559 560 556
f 556 560 557 553
o upper_corridor_u2_u3_left
usemtl concrete_light
v 8.75680 10.95767 3.38000
v 10.72484 9.23563 3.38000
v 10.86971 9.40120 3.38000
v 8.90167 11.12323 3.38000
v 8.75680 10.95767 5.38000
v 10.72484 9.23563 5.38000
v 10.86971 9.40120 5.38000
v 8.90167 11.12323 5.38000
f 561 562 563 564
f 565 568 567 566
f 561 565 566 562
f 562 566 567 563
f 563 567 568 564
f 564 568 565 561
o upper_corridor_u2_u3_right
usemtl concrete_light
v 7.13029 9.09880 3.38000
v 9.09833 7.37677 3.38000
v 9.24320 7.54233 3.38000
v 7.27516 9.26437 3.38000
v 7.13029 9.09880 5.38000
v 9.09833 7.37677 5.38000
v 9.24320 7.54233 5.38000
v 7.27516 9.26437 5.38000
f 569 570 571 572
f 573 576 575 574
f 569 573 574 570
f 570 574 575 571
f 571 575 576 572
f 572 576 573 569
o upper_walkway_u3_u4
usemtl dark_concrete
v 9.45414 7.03802 3.24000
v 8.30703 4.45702 3.24000
v 10.54586 3.46198 3.24000
v 11.69297 6.04298 3.24000
v 9.45414 7.03802 3.48000
v 8.30703 4.45702 3.48000
v 10.54586 3.46198 3.48000
v 11.69297 6.04298 3.48000
f 577 578 579 580
f 581 584 583 582
f 577 581 582 578
f 578 582 583 579
f 579 583 584 580
f 580 584 581 577
o upper_corridor_u3_u4_left
usemtl concrete_light
v 11.47975 5.80945 3.38000
v 10.57632 3.77674 3.38000
v 10.77736 3.68739 3.38000
v 11.68079 5.72010 3.38000
v 11.47975 5.80945 5.38000
v 10.57632 3.77674 5.38000
v 10.77736 3.68739 5.38000
v 11.68079 5.72010 5.38000
f 585 586 587 588
f 589 592 591 590
f 585 589 590 586
f 586 590 591 587
f 587 591 592 588
f 588 592 589 585
o upper_corridor_u3_u4_right
usemtl concrete_light
v 9.22264 6.81261 3.38000
v 8.31921 4.77990 3.38000
v 8.52025 4.69055 3.38000
v 9.42368 6.72326 3.38000
v 9.22264 6.81261 5.38000
v 8.31921 4.77990 5.38000
v 8.52025 4.69055 5.38000
v 9.42368 6.72326 5.38000
f 593 594 595 596
f 597 600 599 598
f 593 597 598 594
f 594 598 599 595
f 595 599 600 596
f 596 600 597 593
o upper_walkway_u4_uc
usemtl dark_concrete
v 7.64765 3.87992 3.24000
v 2.16274 2.27102 3.24000
v 2.85235 -0.07992 3.24000
v 8.33726 1.52898 3.24000
v 7.64765 3.87992 3.48000
v 2.16274 2.27102 3.48000
v 2.85235 -0.07992 3.48000
v 8.33726 1.52898 3.48000
f 601 602 603 604
f 605 608 607 606
f 601 605 606 602
f 602 606 607 603
f 603 607 608 604
f 604 608 605 601
o upper_corridor_u4_uc_left
usemtl concrete_light
v 8.02124 1.54050 3.38000
v 3.11208 0.10047 3.38000
v 3.17400 -0.11063 3.38000
v 8.08316 1.32939 3.38000
v 8.02124 1.54050 5.38000
v 3.11208 0.10047 5.38000
v 3.17400 -0.11063 5.38000
v 8.08316 1.32939 5.38000
f 609 610 611 612
f 613 616 615 614
f 609 613 614 610
f 610 614 615 611
f 611 615 616 612
f 612 616 613 609
o upper_corridor_u4_uc_right
usemtl concrete_light
v 7.32600 3.91063 3.38000
v 2.41684 2.47061 3.38000
v 2.47876 2.25950 3.38000
v 7.38792 3.69953 3.38000
v 7.32600 3.91063 5.38000
v 2.41684 2.47061 5.38000
v 2.47876 2.25950 5.38000
v 7.38792 3.69953 5.38000
f 617 618 619 620
f 621 624 623 622
f 617 621 622 618
f 618 622 623 619
f 619 623 624 620
f 620 624 621 617
o upper_walkway_uc_ua
usemtl dark_concrete
v 1.71960 2.39841 3.24000
v -2.38681 7.02745 3.24000
v -4.21960 5.40159 3.24000
v -0.11319 0.77255 3.24000
v 1.71960 2.39841 3.48000
v -2.38681 7.02745 3.48000
v -4.21960 5.40159 3.48000
v -0.11319 0.77255 3.48000
f 625 626 627 628
f 629 632 631 630
f 625 629 630 626
f 626 630 631 627
f 627 631 632 628
f 628 632 629 625
o upper_corridor_uc_ua_left
usemtl concrete_light
v -0.23746 1.06333 3.38000
v -3.94570 5.24353 3.38000
v -4.11028 5.09754 3.38000
v -0.40204 0.91734 3.38000
v -0.23746 1.06333 5.38000
v -3.94570 5.24353 5.38000
v -4.11028 5.09754 5.38000
v -0.40204 0.91734 5.38000
f 633 634 635 636
f 637 640 639 638
f 633 637 638 634
f 634 638 639 635
f 635 639 640 636
f 636 640 637 633
o upper_corridor_uc_ua_right
usemtl concrete_light
v 1.61028 2.70246 3.38000
v -2.09796 6.88266 3.38000
v -2.26254 6.73667 3.38000
v 1.44570 2.55647 3.38000
v 1.61028 2.70246 5.38000
v -2.09796 6.88266 5.38000
v -2.26254 6.73667 5.38000
v 1.44570 2.55647 5.38000
f 641 642 643 644
f 645 648 647 646
f 641 645 646 642
f 642 646 647 643
f 643 647 648 644
f 644 648 645 641
o upper_node_platform_u1
usemtl dark_concrete
v -0.25000 9.25000 3.24000
v 2.25000 9.25000 3.24000
v 2.25000 11.75000 3.24000
v -0.25000 11.75000 3.24000
v -0.25000 9.25000 3.48000
v 2.25000 9.25000 3.48000
v 2.25000 11.75000 3.48000
v -0.25000 11.75000 3.48000
f 649 650 651 652
f 653 656 655 654
f 649 653 654 650
f 650 654 655 651
f 651 655 656 652
f 652 656 653 649
o upper_node_platform_u2
usemtl dark_concrete
v 5.75000 9.75000 3.24000
v 8.25000 9.75000 3.24000
v 8.25000 12.25000 3.24000
v 5.75000 12.25000 3.24000
v 5.75000 9.75000 3.48000
v 8.25000 9.75000 3.48000
v 8.25000 12.25000 3.48000
v 5.75000 12.25000 3.48000
f 657 658 659 660
f 661 664 663 662
f 657 661 662 658
f 658 662 663 659
f 659 663 664 660
f 660 664 661 657
o upper_node_platform_u3
usemtl dark_concrete
v 9.75000 6.25000 3.24000
v 12.25000 6.25000 3.24000
v 12.25000 8.75000 3.24000
v 9.75000 8.75000 3.24000
v 9.75000 6.25000 3.48000
v 12.25000 6.25000 3.48000
v 12.25000 8.75000 3.48000
v 9.75000 8.75000 3.48000
f 665 666 667 668
f 669 672 671 670
f 665 669 670 666
f 666 670 671 667
f 667 671 672 668
f 668 672 669 665
o upper_node_platform_u4
usemtl dark_concrete
v 7.75000 1.75000 3.24000
v 10.25000 1.75000 3.24000
v 10.25000 4.25000 3.24000
v 7.75000 4.25000 3.24000
v 7.75000 1.75000 3.48000
v 10.25000 1.75000 3.48000
v 10.25000 4.25000 3.48000
v 7.75000 4.25000 3.48000
f 673 674 675 676
f 677 680 679 678
f 673 677 678 674
f 674 678 679 675
f 675 679 680 676
f 676 680 677 673
o connector_a_frame_0
usemtl rust
v -5.46000 5.65000 3.34000
v -5.24000 5.65000 3.34000
v -5.24000 8.35000 3.34000
v -5.46000 8.35000 3.34000
v -5.46000 5.65000 3.76000
v -5.24000 5.65000 3.76000
v -5.24000 8.35000 3.76000
v -5.46000 8.35000 3.76000
f 681 682 683 684
f 685 688 687 686
f 681 685 686 682
f 682 686 687 683
f 683 687 688 684
f 684 688 685 681
o connector_a_frame_1
usemtl rust
v -2.76000 5.65000 3.34000
v -2.54000 5.65000 3.34000
v -2.54000 8.35000 3.34000
v -2.76000 8.35000 3.34000
v -2.76000 5.65000 3.76000
v -2.54000 5.65000 3.76000
v -2.54000 8.35000 3.76000
v -2.76000 8.35000 3.76000
f 689 690 691 692
f 693 696 695 694
f 689 693 694 690
f 690 694 695 691
f 691 695 696 692
f 692 696 693 689
o connector_a_frame_3
usemtl rust
v -5.35000 8.24000 3.34000
v -2.65000 8.24000 3.34000
v -2.65000 8.46000 3.34000
v -5.35000 8.46000 3.34000
v -5.35000 8.24000 3.76000
v -2.65000 8.24000 3.76000
v -2.65000 8.46000 3.76000
v -5.35000 8.46000 3.76000
f 697 698 699 700
f 701 704 703 702
f 697 701 702 698
f 698 702 703 699
f 699 703 704 700
f 700 704 701 697
o connector_c_frame_0
usemtl rust
v 0.04000 -0.55000 3.34000
v 0.26000 -0.55000 3.34000
v 0.26000 2.15000 3.34000
v 0.04000 2.15000 3.34000
v 0.04000 -0.55000 3.76000
v 0.26000 -0.55000 3.76000
v 0.26000 2.15000 3.76000
v 0.04000 2.15000 3.76000
f 705 706 707 708
f 709 712 711 710
f 705 709 710 706
f 706 710 711 707
f 707 711 712 708
f 708 712 709 705
o connector_c_frame_1
usemtl rust
v 2.74000 -0.55000 3.34000
v 2.96000 -0.55000 3.34000
v 2.96000 2.15000 3.34000
v 2.74000 2.15000 3.34000
v 2.74000 -0.55000 3.76000
v 2.96000 -0.55000 3.76000
v 2.96000 2.15000 3.76000
v 2.74000 2.15000 3.76000
f 713 714 715 716
f 717 720 719 718
f 713 717 718 714
f 714 718 719 715
f 715 719 720 716
f 716 720 717 713
o connector_c_frame_3
usemtl rust
v 0.15000 2.04000 3.34000
v 2.85000 2.04000 3.34000
v 2.85000 2.26000 3.34000
v 0.15000 2.26000 3.34000
v 0.15000 2.04000 3.76000
v 2.85000 2.04000 3.76000
v 2.85000 2.26000 3.76000
v 0.15000 2.26000 3.76000
f 721 722 723 724
f 725 728 727 726
f 721 725 726 722
f 722 726 727 723
f 723 727 728 724
f 724 728 725 721
o medium_random_column_00
usemtl concrete
v 3.97998 9.31201 0.00000
v 4.77091 9.31201 0.00000
v 4.77091 9.89151 0.00000
v 3.97998 9.89151 0.00000
v 3.97998 9.31201 3.08430
v 4.77091 9.31201 3.08430
v 4.77091 9.89151 3.08430
v 3.97998 9.89151 3.08430
f 729 730 731 732
f 733 736 735 734
f 729 733 734 730
f 730 734 735 731
f 731 735 736 732
f 732 736 733 729
o medium_random_column_01
usemtl concrete
v 18.04038 2.76619 0.00000
v 18.79231 2.76619 0.00000
v 18.79231 3.31853 0.00000
v 18.04038 3.31853 0.00000
v 18.04038 2.76619 3.86739
v 18.79231 2.76619 3.86739
v 18.79231 3.31853 3.86739
v 18.04038 3.31853 3.86739
f 737 738 739 740
f 741 744 743 742
f 737 741 742 738
f 738 742 743 739
f 739 743 744 740
f 740 744 741 737
o medium_random_column_02
usemtl concrete
v -17.29110 3.34523 0.00000
v -16.58628 3.34523 0.00000
v -16.58628 3.81021 0.00000
v -17.29110 3.81021 0.00000
v -17.29110 3.34523 2.84720
v -16.58628 3.34523 2.84720
v -16.58628 3.81021 2.84720
v -17.29110 3.81021 2.84720
f 745 746 747 748
f 749 752 751 750
f 745 749 750 746
f 746 750 751 747
f 747 751 752 748
f 748 752 749 745
o medium_random_column_03
usemtl concrete
v 15.34676 -1.48906 0.00000
v 16.02756 -1.48906 0.00000
v 16.02756 -0.87251 0.00000
v 15.34676 -0.87251 0.00000
v 15.34676 -1.48906 2.60247
v 16.02756 -1.48906 2.60247
v 16.02756 -0.87251 2.60247
v 15.34676 -0.87251 2.60247
f 753 754 755 756
f 757 760 759 758
f 753 757 758 754
f 754 758 759 755
f 755 759 760 756
f 756 760 757 753
o medium_random_column_04
usemtl concrete
v 2.88942 3.87575 0.00000
v 3.68387 3.87575 0.00000
v 3.68387 4.70295 0.00000
v 2.88942 4.70295 0.00000
v 2.88942 3.87575 3.43240
v 3.68387 3.87575 3.43240
v 3.68387 4.70295 3.43240
v 2.88942 4.70295 3.43240
f 761 762 763 764
f 765 768 767 766
f 761 765 766 762
f 762 766 767 763
f 763 767 768 764
f 764 768 765 761
o medium_random_column_05
usemtl concrete
v -5.74626 -3.45250 0.00000
v -5.27542 -3.45250 0.00000
v -5.27542 -2.68702 0.00000
v -5.74626 -2.68702 0.00000
v -5.74626 -3.45250 2.82630
v -5.27542 -3.45250 2.82630
v -5.27542 -2.68702 2.82630
v -5.74626 -2.68702 2.82630
f 769 770 771 772
f 773 776 775 774
f 769 773 774 770
f 770 774 775 771
f 771 775 776 772
f 772 776 773 769
o medium_random_column_06
usemtl concrete
v -6.17085 -8.22045 0.00000
v -5.37450 -8.22045 0.00000
v -5.37450 -7.44477 0.00000
v -6.17085 -7.44477 0.00000
v -6.17085 -8.22045 3.59535
v -5.37450 -8.22045 3.59535
v -5.37450 -7.44477 3.59535
v -6.17085 -7.44477 3.59535
f 777 778 779 780
f 781 784 783 782
f 777 781 782 778
f 778 782 783 779
f 779 783 784 780
f 780 784 781 777
o medium_random_column_07
usemtl concrete
v -17.04331 3.26618 0.00000
v -16.40789 3.26618 0.00000
v -16.40789 3.93460 0.00000
v -17.04331 3.93460 0.00000
v -17.04331 3.26618 3.67047
v -16.40789 3.26618 3.67047
v -16.40789 3.93460 3.67047
v -17.04331 3.93460 3.67047
f 785 786 787 788
f 789 792 791 790
f 785 789 790 786
f 786 790 791 787
f 787 791 792 788
f 788 792 789 785
o medium_random_column_08
usemtl concrete
v -6.57402 1.95670 0.00000
v -6.05606 1.95670 0.00000
v -6.05606 2.82455 0.00000
v -6.57402 2.82455 0.00000
v -6.57402 1.95670 2.42069
v -6.05606 1.95670 2.42069
v -6.05606 2.82455 2.42069
v -6.57402 2.82455 2.42069
f 793 794 795 796
f 797 800 799 798
f 793 797 798 794
f 794 798 799 795
f 795 799 800 796
f 796 800 797 793
o medium_random_column_09
usemtl concrete
v 17.35813 3.09937 0.00000
v 17.93217 3.09937 0.00000
v 17.93217 3.59852 0.00000
v 17.35813 3.59852 0.00000
v 17.35813 3.09937 3.26629
v 17.93217 3.09937 3.26629
v 17.93217 3.59852 3.26629
v 17.35813 3.59852 3.26629
f 801 802 803 804
f 805 808 807 806
f 801 805 806 802
f 802 806 807 803
f 803 807 808 804
f 804 808 805 801
o medium_rubble_000
usemtl brick
v 9.58006 12.16266 0.17113
v 10.99121 12.64010 -0.05065
v 10.76483 13.26041 -0.15565
v 9.35368 12.78298 0.06613
v 9.63739 12.29272 0.81587
v 11.04854 12.77015 0.59409
v 10.82216 13.39047 0.48909
v 9.41101 12.91304 0.71087
f 809 810 811 812
f 813 816 815 814
f 809 813 814 810
f 810 814 815 811
f 811 815 816 812
f 812 816 813 809
o medium_rubble_001
usemtl rubble
v 9.02150 -12.49235 -0.07915
v 8.57426 -12.48848 -0.03760
v 8.57875 -13.32830 0.08894
v 9.02598 -13.33217 0.04739
v 9.08008 -12.39835 0.54265
v 8.63285 -12.39447 0.58421
v 8.63733 -13.23429 0.71075
v 9.08457 -13.23816 0.66920
f 817 818 819 820
f 821 824 823 822
f 817 821 822 818
f 818 822 823 819
f 819 823 824 820
f 820 824 821 817
o medium_rubble_002
usemtl rubble
v 0.35278 5.44503 -0.08431
v 1.22292 6.48434 0.11349
v 0.62605 6.98801 0.09275
v -0.24409 5.94870 -0.10505
v 0.26458 5.37223 0.68624
v 1.13472 6.41154 0.88404
v 0.53784 6.91521 0.86330
v -0.33230 5.87590 0.66550
f 825 826 827 828
f 829 832 831 830
f 825 829 830 826
f 826 830 831 827
f 827 831 832 828
f 828 832 829 825
o medium_rubble_003
usemtl rubble
v -11.02832 -2.93883 -0.00098
v -12.51335 -2.24945 0.06177
v -12.66388 -2.56912 0.01152
v -11.17884 -3.25851 -0.05123
v -11.05288 -3.08042 0.97334
v -12.53792 -2.39104 1.03608
v -12.68844 -2.71071 0.98583
v -11.20340 -3.40010 0.92309
f 833 834 835 836
f 837 840 839 838
f 833 837 838 834
f 834 838 839 835
f 835 839 840 836
f 836 840 837 833
o medium_rubble_004
usemtl brick
v 11.17924 13.89831 0.04123
v 9.78872 14.08372 -0.09551
v 9.69486 13.42219 -0.03802
v 11.08538 13.23679 0.09872
v 11.14698 13.93582 0.42018
v 9.75645 14.12123 0.28344
v 9.66259 13.45970 0.34093
v 11.05312 13.27430 0.47767
f 841 842 843 844
f 845 848 847 846
f 841 845 846 842
f 842 846 847 843
f 843 847 848 844
f 844 848 845 841
o medium_rubble_005
usemtl rubble
v -0.03880 13.20307 -0.18256
v 1.33374 13.20898 0.03487
v 1.30467 14.36684 0.18693
v -0.06787 14.36094 -0.03051
v -0.07100 13.17547 0.02144
v 1.30154 13.18138 0.23888
v 1.27247 14.33924 0.39093
v -0.10007 14.33334 0.17349
f 849 850 851 852
f 853 856 855 854
f 849 853 854 850
f 850 854 855 851
f 851 855 856 852
f 852 856 853 849
o medium_rubble_006
usemtl rubble
v -11.62594 6.47707 -0.12868
v -11.55928 7.27893 -0.00525
v -12.70452 7.35216 0.13746
v -12.77117 6.55030 0.01403
v -11.57501 6.40417 0.31741
v -11.50836 7.20603 0.44084
v -12.65359 7.27926 0.58355
v -12.72024 6.47740 0.46012
f 857 858 859 860
f 861 864 863 862
f 857 861 862 858
f 858 862 863 859
f 859 863 864 860
f 860 864 861 857
o medium_rubble_007
usemtl soil
v -1.20037 10.87589 -0.04473
v -1.26249 12.36384 -0.01720
v -2.06236 12.32926 0.04725
v -2.00024 10.84130 0.01972
v -1.14031 10.86471 0.69461
v -1.20243 12.35267 0.72214
v -2.00230 12.31809 0.78660
v -1.94018 10.83013 0.75907
f 865 866 867 868
f 869 872 871 870
f 865 869 870 866
f 866 870 871 867
f 867 871 872 868
f 868 872 869 865
o medium_rubble_008
usemtl brick
v -6.34499 -7.07646 0.03099
v -6.80005 -6.68088 0.05349
v -7.50888 -7.49154 -0.02972
v -7.05381 -7.88713 -0.05223
v -6.35276 -7.10494 0.37456
v -6.80782 -6.70936 0.39706
v -7.51664 -7.52002 0.31385
v -7.06158 -7.91561 0.29135
f 873 874 875 876
f 877 880 879 878
f 873 877 878 874
f 874 878 879 875
f 875 879 880 876
f 876 880 877 873
o medium_rubble_009
usemtl rubble
v 0.37154 12.98856 -0.08626
v 0.72813 13.74673 -0.03630
v -0.28130 14.21294 0.09365
v -0.63790 13.45477 0.04369
v 0.44083 12.89944 0.77170
v 0.79742 13.65760 0.82166
v -0.21201 14.12381 0.95161
v -0.56861 13.36565 0.90165
f 881 882 883 884
f 885 888 887 886
f 881 885 886 882
f 882 886 887 883
f 883 887 888 884
f 884 888 885 881
o medium_rubble_010
usemtl rubble
v 16.67153 3.65580 -0.01665
v 18.03088 3.70274 0.08015
v 18.01143 4.39381 0.01819
v 16.65208 4.34687 -0.07861
v 16.65411 3.67635 0.21796
v 18.01346 3.72328 0.31477
v 17.99401 4.41435 0.25281
v 16.63466 4.36742 0.15600
f 889 890 891 892
f 893 896 895 894
f 889 893 894 890
f 890 894 895 891
f 891 895 896 892
f 892 896 893 889
o medium_rubble_011
usemtl rubble
v 5.77772 -3.71293 0.01304
v 4.62036 -3.59003 0.05636
v 4.54887 -4.24093 -0.00723
v 5.70623 -4.36382 -0.05055
v 5.80646 -3.82109 1.08787
v 4.64910 -3.69819 1.13119
v 4.57761 -4.34909 1.06760
v 5.73497 -4.47198 1.02429
f 897 898 899 900
f 901 904 903 902
f 897 901 902 898
f 898 902 903 899
f 899 903 904 900
f 900 904 901 897
o medium_rubble_012
usemtl brick
v -0.76218 12.90389 -0.08003
v -1.67647 14.12716 0.15098
v -2.54392 13.48992 0.09218
v -1.62964 12.26665 -0.13883
v -0.71912 12.75849 0.86036
v -1.63340 13.98176 1.09137
v -2.50086 13.34451 1.03256
v -1.58657 12.12125 0.80155
f 905 906 907 908
f 909 912 911 910
f 905 909 910 906
f 906 910 911 907
f 907 911 912 908
f 908 912 909 905
o medium_rubble_013
usemtl rubble
v 12.01021 13.16499 0.01668
v 11.21159 13.19225 0.04977
v 11.19693 12.83791 -0.01202
v 11.99556 12.81065 -0.04511
v 12.02055 13.11368 0.30849
v 11.22193 13.14094 0.34159
v 11.20727 12.78660 0.27980
v 12.00590 12.75934 0.24670
f 913 914 915 916
f 917 920 919 918
f 913 917 918 914
f 914 918 919 915
f 915 919 920 916
f 916 920 917 913
o medium_rubble_014
usemtl soil
v 6.92767 6.73891 -0.01477
v 6.07671 7.71569 0.00333
v 5.75160 7.43225 0.01495
v 6.60255 6.45546 -0.00315
v 6.93915 6.74170 0.37450
v 6.08819 7.71849 0.39260
v 5.76308 7.43504 0.40422
v 6.61403 6.45825 0.38612
f 921 922 923 924
f 925 928 927 926
f 921 925 926 922
f 922 926 927 923
f 923 927 928 924
f 924 928 925 921
o medium_rubble_015
usemtl rubble
v 4.35654 12.62209 0.09254
v 3.33742 12.93027 0.00898
v 3.11177 12.15793 -0.08740
v 4.13089 11.84975 -0.00385
v 4.30167 12.57587 0.59136
v 3.28255 12.88406 0.50780
v 3.05690 12.11171 0.41142
v 4.07601 11.80353 0.49497
f 929 930 931 932
f 933 936 935 934
f 929 933 934 930
f 930 934 935 931
f 931 935 936 932
f 932 936 933 929
o medium_rubble_016
usemtl brick
v -12.19474 -14.09339 -0.07767
v -12.75613 -12.92815 0.06045
v -13.13939 -13.11505 0.07951
v -12.57800 -14.28030 -0.05861
v -12.17079 -14.11446 0.19735
v -12.73218 -12.94921 0.33547
v -13.11545 -13.13611 0.35453
v -12.55405 -14.30136 0.21641
f 937 938 939 940
f 941 944 943 942
f 937 941 942 938
f 938 942 943 939
f 939 943 944 940
f 940 944 941 937
o medium_rubble_017
usemtl rubble
v -10.32604 1.45698 0.03001
v -9.39141 1.86203 -0.06259
v -9.58147 2.30931 -0.02430
v -10.51609 1.90426 0.06830
v -10.23560 1.42809 0.81645
v -9.30097 1.83314 0.72384
v -9.49103 2.28042 0.76213
v -10.42565 1.87537 0.85473
f 945 946 947 948
f 949 952 951 950
f 945 949 950 946
f 946 950 951 947
f 947 951 952 948
f 948 952 949 945
o medium_rubble_018
usemtl rubble
v 16.79412 -2.50992 0.08126
v 17.91456 -1.71401 -0.12089
v 17.62279 -1.29172 -0.07534
v 16.50236 -2.08763 0.12681
v 16.86298 -2.50543 0.48059
v 17.98341 -1.70952 0.27844
v 17.69165 -1.28722 0.32399
v 16.57121 -2.08314 0.52614
f 953 954 955 956
f 957 960 959 958
f 953 957 958 954
f 954 958 959 955
f 955 959 960 956
f 956 960 957 953
o medium_rubble_019
usemtl rubble
v 2.39798 12.70798 -0.07843
v 1.10975 12.96622 0.06969
v 1.04912 12.65802 0.07974
v 2.33735 12.39977 -0.06838
v 2.42032 12.70981 0.11270
v 1.13210 12.96806 0.26083
v 1.07147 12.65985 0.27088
v 2.35969 12.40161 0.12275
f 961 962 963 964
f 965 968 967 966
f 961 965 966 962
f 962 966 967 963
f 963 967 968 964
f 964 968 965 961
o medium_rubble_020
usemtl brick
v 1.69276 8.58825 0.06497
v 2.31567 9.47884 -0.09215
v 1.67597 9.93259 -0.05627
v 1.05307 9.04199 0.10085
v 1.78458 8.65776 0.82300
v 2.40748 9.54835 0.66588
v 1.76779 10.00210 0.70176
v 1.14489 9.11150 0.85888
f 969 970 971 972
f 973 976 975 974
f 969 973 974 970
f 970 974 975 971
f 971 975 976 972
f 972 976 973 969
o medium_rubble_021
usemtl soil
v 4.53163 13.39778 0.08789
v 4.27907 14.48621 -0.03047
v 3.23816 14.23893 -0.08336
v 3.49071 13.15050 0.03500
v 4.48350 13.45865 0.75035
v 4.23095 14.54709 0.63199
v 3.19003 14.29981 0.57909
v 3.44259 13.21137 0.69746
f 977 978 979 980
f 981 984 983 982
f 977 981 982 978
f 978 982 983 979
f 979 983 984 980
f 980 984 981 977
o medium_rubble_022
usemtl rubble
v -8.15748 -10.35835 -0.06866
v -7.47356 -9.01705 0.02536
v -8.07239 -8.71508 0.07349
v -8.75631 -10.05638 -0.02054
v -8.11938 -10.45235 0.99514
v -7.43546 -9.11104 1.08917
v -8.03430 -8.80908 1.13729
v -8.71822 -10.15038 1.04327
f 985 986 987 988
f 989 992 991 990
f 985 989 990 986
f 986 990 991 987
f 987 991 992 988
f 988 992 989 985
o medium_rubble_023
usemtl rubble
v -11.34256 2.80529 -0.13744
v -10.22960 3.52026 0.06915
v -10.79270 4.37467 0.14579
v -11.90566 3.65970 -0.06080
v -11.39253 2.72252 0.41823
v -10.27957 3.43749 0.62482
v -10.84267 4.29189 0.70146
v -11.95563 3.57692 0.49487
f 993 994 995 996
f 997 1000 999 998
f 993 997 998 994
f 994 998 999 995
f 995 999 1000 996
f 996 1000 997 993
o medium_rubble_024
usemtl brick
v -18.42091 9.69744 -0.02385
v -18.04565 10.24089 -0.07026
v -18.61100 10.64037 0.03620
v -18.98626 10.09691 0.08262
v -18.27664 9.67155 0.83941
v -17.90138 10.21501 0.79299
v -18.46674 10.61448 0.89945
v -18.84200 10.07102 0.94587
f 1001 1002 1003 1004
f 1005 1008 1007 1006
f 1001 1005 1006 1002
f 1002 1006 1007 1003
f 1003 1007 1008 1004
f 1004 1008 1005 1001
o medium_rubble_025
usemtl rubble
v 3.31475 -10.31088 0.00335
v 4.48627 -9.93389 0.10642
v 4.31583 -9.37554 0.00147
v 3.14431 -9.75252 -0.10160
v 3.28169 -10.27500 0.24787
v 4.45321 -9.89802 0.35094
v 4.28277 -9.33967 0.24599
v 3.11125 -9.71665 0.14293
f 1009 1010 1011 1012
f 1013 1016 1015 1014
f 1009 1013 1014 1010
f 1010 1014 1015 1011
f 1011 1015 1016 1012
f 1012 1016 1013 1009
o medium_rubble_026
usemtl rubble
v 10.22606 11.15304 0.11346
v 11.21310 11.59256 -0.03256
v 10.84346 12.39725 -0.10903
v 9.85642 11.95773 0.03699
v 10.25610 11.19941 0.45615
v 11.24314 11.63893 0.31013
v 10.87351 12.44362 0.23366
v 9.88647 12.00410 0.37968
f 1017 1018 1019 1020
f 1021 1024 1023 1022
f 1017 1021 1022 1018
f 1018 1022 1023 1019
f 1019 1023 1024 1020
f 1020 1024 1021 1017
o medium_rubble_027
usemtl rubble
v -4.59967 3.65861 -0.06543
v -5.01968 3.90393 -0.02664
v -5.44606 3.15875 0.06937
v -5.02605 2.91343 0.03058
v -4.54732 3.68234 0.35130
v -4.96732 3.92766 0.39009
v -5.39371 3.18249 0.48609
v -4.97370 2.93717 0.44730
f 1025 1026 1027 1028
f 1029 1032 1031 1030
f 1025 1029 1030 1026
f 1026 1030 1031 1027
f 1027 1031 1032 1028
f 1028 1032 1029 1025
o medium_rubble_028
usemtl brick
v -16.13052 4.59505 -0.07062
v -16.22976 5.68114 0.12653
v -17.17958 5.60236 0.08236
v -17.08033 4.51627 -0.11479
v -16.15166 4.47018 0.60661
v -16.25090 5.55627 0.80376
v -17.20071 5.47750 0.75959
v -17.10147 4.39141 0.56244
f 1033 1034 1035 1036
f 1037 1040 1039 1038
f 1033 1037 1038 1034
f 1034 1038 1039 1035
f 1035 1039 1040 1036
f 1036 1040 1037 1033
o medium_rubble_029
usemtl rubble
v -3.55074 9.73890 -0.07956
v -3.54678 10.29825 0.01971
v -4.68574 10.29410 0.08861
v -4.68971 9.73475 -0.01066
v -3.51921 9.64716 0.43614
v -3.51524 10.20651 0.53541
v -4.65421 10.20235 0.60431
v -4.65817 9.64300 0.50504
f 1041 1042 1043 1044
f 1045 1048 1047 1046
f 1041 1045 1046 1042
f 1042 1046 1047 1043
f 1043 1047 1048 1044
f 1044 1048 1045 1041
o medium_rubble_030
usemtl rubble
v -17.28009 -12.40857 -0.09684
v -16.23103 -12.38595 0.00763
v -16.25756 -11.60228 0.10431
v -17.30662 -11.62490 -0.00017
v -17.33735 -12.48345 0.49439
v -16.28829 -12.46082 0.59886
v -16.31482 -11.67715 0.69554
v -17.36388 -11.69978 0.59106
f 1049 1050 1051 1052
f 1053 1056 1055 1054
f 1049 1053 1054 1050
f 1050 1054 1055 1051
f 1051 1055 1056 1052
f 1052 1056 1053 1049
o medium_rubble_031
usemtl rubble
v -12.66832 -9.85125 0.01500
v -12.86483 -9.40983 0.07261
v -13.49205 -9.67902 -0.00433
v -13.29553 -10.12044 -0.06195
v -12.71234 -9.97354 0.80173
v -12.90886 -9.53213 0.85935
v -13.53607 -9.80132 0.78240
v -13.33956 -10.24273 0.72478
f 1057 1058 1059 1060
f 1061 1064 1063 1062
f 1057 1061 1062 1058
f 1058 1062 1063 1059
f 1059 1063 1064 1060
f 1060 1064 1061 1057
o medium_rubble_032
usemtl brick
v 10.03203 -1.36458 -0.03097
v 10.57633 -0.92373 -0.04964
v 10.16840 -0.41646 0.03554
v 9.62410 -0.85731 0.05421
v 10.08511 -1.40831 0.48369
v 10.62941 -0.96747 0.46502
v 10.22148 -0.46020 0.55020
v 9.67718 -0.90105 0.56887
f 1065 1066 1067 1068
f 1069 1072 1071 1070
f 1065 1069 1070 1066
f 1066 1070 1071 1067
f 1067 1071 1072 1068
f 1068 1072 1069 1065
o medium_rubble_033
usemtl rubble
v 14.97884 10.30504 0.09212
v 14.69067 10.61711 0.03573
v 13.87854 9.84618 -0.08041
v 14.16671 9.53411 -0.02401
v 14.84135 10.32631 0.91241
v 14.55317 10.63838 0.85602
v 13.74104 9.86744 0.73988
v 14.02922 9.55537 0.79627
f 1073 1074 1075 1076
f 1077 1080 1079 1078
f 1073 1077 1078 1074
f 1074 1078 1079 1075
f 1075 1079 1080 1076
f 1076 1080 1077 1073
o medium_rubble_034
usemtl rubble
v -6.33236 13.12232 -0.00575
v -5.52795 13.21891 0.09464
v -5.59359 13.85200 0.01150
v -6.39800 13.75542 -0.08889
v -6.38116 13.16342 0.34577
v -5.57676 13.26001 0.44615
v -5.64240 13.89310 0.36302
v -6.44680 13.79652 0.26263
f 1081 1082 1083 1084
f 1085 1088 1087 1086
f 1081 1085 1086 1082
f 1082 1086 1087 1083
f 1083 1087 1088 1084
f 1084 1088 1085 1081
o medium_rubble_035
usemtl soil
v 13.82938 -9.51458 -0.06123
v 13.10005 -9.32320 0.03348
v 12.91724 -10.03753 0.06916
v 13.64657 -10.22891 -0.02555
v 13.94670 -9.50087 0.81442
v 13.21737 -9.30948 0.90914
v 13.03455 -10.02381 0.94482
v 13.76388 -10.21520 0.85010
f 1089 1090 1091 1092
f 1093 1096 1095 1094
f 1089 1093 1094 1090
f 1090 1094 1095 1091
f 1091 1095 1096 1092
f 1092 1096 1093 1089
o medium_rubble_036
usemtl brick
v 16.59855 4.67203 0.10678
v 16.46725 5.94153 -0.03824
v 16.09477 5.89604 -0.09919
v 16.22607 4.62655 0.04583
v 16.53131 4.70888 0.49016
v 16.40001 5.97837 0.34514
v 16.02753 5.93288 0.28418
v 16.15883 4.66339 0.42920
f 1097 1098 1099 1100
f 1101 1104 1103 1102
f 1097 1101 1102 1098
f 1098 1102 1103 1099
f 1099 1103 1104 1100
f 1100 1104 1101 1097
o medium_rubble_037
usemtl rubble
v -6.85389 -6.88120 -0.04528
v -7.29774 -5.48110 0.06622
v -8.50852 -5.86335 0.04627
v -8.06467 -7.26345 -0.06523
v -6.85128 -6.90671 0.28546
v -7.29514 -5.50662 0.39697
v -8.50592 -5.88887 0.37702
v -8.06206 -7.28896 0.26551
f 1105 1106 1107 1108
f 1109 1112 1111 1110
f 1105 1109 1110 1106
f 1106 1110 1111 1107
f 1107 1111 1112 1108
f 1108 1112 1109 1105
o medium_rubble_038
usemtl rubble
v 2.81026 7.06008 0.02337
v 3.88973 7.27192 -0.10080
v 3.76305 7.96487 -0.01990
v 2.68358 7.75303 0.10426
v 2.84564 7.03553 0.28908
v 3.92511 7.24737 0.16492
v 3.79843 7.94031 0.24582
v 2.71896 7.72848 0.36998
f 1113 1114 1115 1116
f 1117 1120 1119 1118
f 1113 1117 1118 1114
f 1114 1118 1119 1115
f 1115 1119 1120 1116
f 1116 1120 1117 1113
o medium_rubble_039
usemtl rubble
v 2.10956 -10.28466 0.07625
v 2.37530 -9.71081 0.00370
v 1.71513 -9.41388 -0.06590
v 1.44938 -9.98774 0.00665
v 2.07261 -10.15132 0.99558
v 2.33835 -9.57747 0.92303
v 1.67818 -9.28055 0.85344
v 1.41243 -9.85440 0.92598
f 1121 1122 1123 1124
f 1125 1128 1127 1126
f 1121 1125 1126 1122
f 1122 1126 1127 1123
f 1123 1127 1128 1124
f 1124 1128 1125 1121
o medium_rubble_040
usemtl brick
v 18.37355 5.21819 -0.05060
v 17.66143 5.55727 0.07535
v 17.47197 5.16344 0.06442
v 18.18409 4.82436 -0.06153
v 18.51512 5.12057 1.01263
v 17.80300 5.45966 1.13858
v 17.61354 5.06583 1.12765
v 18.32566 4.72675 1.00170
f 1129 1130 1131 1132
f 1133 1136 1135 1134
f 1129 1133 1134 1130
f 1130 1134 1135 1131
f 1131 1135 1136 1132
f 1132 1136 1133 1129
o medium_rubble_041
usemtl rubble
v 9.83708 -12.92213 0.03863
v 10.99310 -12.09936 -0.01277
v 10.61668 -11.57205 -0.03801
v 9.46066 -12.39483 0.01339
v 9.84010 -12.89899 0.47699
v 10.99612 -12.07622 0.42559
v 10.61970 -11.54891 0.40035
v 9.46368 -12.37169 0.45175
f 1137 1138 1139 1140
f 1141 1144 1143 1142
f 1137 1141 1142 1138
f 1138 1142 1143 1139
f 1139 1143 1144 1140
f 1140 1144 1141 1137
o medium_rubble_042
usemtl soil
v -15.56947 -7.17531 0.03722
v -16.67828 -6.74762 0.09085
v -16.95170 -7.44154 -0.02844
v -15.84289 -7.86923 -0.08207
v -15.57940 -7.28107 0.67522
v -16.68821 -6.85338 0.72885
v -16.96164 -7.54730 0.60956
v -15.85283 -7.97498 0.55593
f 1145 1146 1147 1148
f 1149 1152 1151 1150
f 1145 1149 1150 1146
f 1146 1150 1151 1147
f 1147 1151 1152 1148
f 1148 1152 1149 1145
o medium_rubble_043
usemtl rubble
v -13.20574 -10.79579 0.11209
v -11.94507 -10.43194 -0.07313
v -12.04447 -10.10439 -0.10622
v -13.30514 -10.46824 0.07900
v -13.16256 -10.74240 0.51091
v -11.90189 -10.37854 0.32568
v -12.00129 -10.05099 0.29259
v -13.26196 -10.41485 0.47781
f 1153 1154 1155 1156
f 1157 1160 1159 1158
f 1153 1157 1158 1154
f 1154 1158 1159 1155
f 1155 1159 1160 1156
f 1156 1160 1157 1153
o medium_rubble_044
usemtl brick
v -8.17304 6.93904 0.00113
v -6.73691 7.68444 -0.06504
v -7.07937 8.35015 0.00134
v -8.51551 7.60476 0.06751
v -8.13309 6.90801 0.51849
v -6.69696 7.65340 0.45232
v -7.03943 8.31911 0.51870
v -8.47556 7.57372 0.58487
f 1161 1162 1163 1164
f 1165 1168 1167 1166
f 1161 1165 1166 1162
f 1162 1166 1167 1163
f 1163 1167 1168 1164
f 1164 1168 1165 1161
o medium_rubble_045
usemtl rubble
v -15.39823 -13.99775 0.00850
v -15.41696 -13.49029 0.03321
v -15.79355 -13.50232 -0.00509
v -15.77482 -14.00978 -0.02981
v -15.45184 -14.02582 0.54431
v -15.47056 -13.51837 0.56903
v -15.84715 -13.53040 0.53072
v -15.82843 -14.03785 0.50600
f 1169 1170 1171 1172
f 1173 1176 1175 1174
f 1169 1173 1174 1170
f 1170 1174 1175 1171
f 1171 1175 1176 1172
f 1172 1176 1173 1169
o medium_rubble_046
usemtl rubble
v 8.19148 -12.91036 -0.03463
v 7.73205 -12.64082 -0.06282
v 7.30986 -13.34978 0.03889
v 7.76929 -13.61932 0.06708
v 8.19948 -12.84721 0.43882
v 7.74005 -12.57766 0.41063
v 7.31786 -13.28662 0.51233
v 7.77729 -13.55617 0.54053
f 1177 1178 1179 1180
f 1181 1184 1183 1182
f 1177 1181 1182 1178
f 1178 1182 1183 1179
f 1179 1183 1184 1180
f 1180 1184 1181 1177
o medium_rubble_047
usemtl rubble
v 10.74007 13.05157 0.01749
v 11.72007 13.27933 -0.04058
v 11.62778 13.68309 -0.01449
v 10.64778 13.45532 0.04357
v 10.79781 13.01187 0.83641
v 11.77782 13.23963 0.77835
v 11.68552 13.64339 0.80443
v 10.70552 13.41562 0.86249
f 1185 1186 1187 1188
f 1189 1192 1191 1190
f 1185 1189 1190 1186
f 1186 1190 1191 1187
f 1187 1191 1192 1188
f 1188 1192 1189 1185
o medium_rubble_048
usemtl brick
v 3.59214 9.34782 0.05866
v 3.34923 10.05042 0.04055
v 2.49964 9.75426 -0.05372
v 2.74254 9.05167 -0.03561
v 3.50067 9.33822 0.91312
v 3.25777 10.04082 0.89501
v 2.40817 9.74466 0.80074
v 2.65108 9.04207 0.81885
f 1193 1194 1195 1196
f 1197 1200 1199 1198
f 1193 1197 1198 1194
f 1194 1198 1199 1195
f 1195 1199 1200 1196
f 1196 1200 1197 1193
o medium_rubble_049
usemtl soil
v 2.37488 -10.14929 0.07097
v 2.23384 -9.76101 0.01872
v 1.05516 -10.19970 -0.05964
v 1.19620 -10.58798 -0.00740
v 2.25804 -10.03862 1.20886
v 2.11700 -9.65034 1.15661
v 0.93832 -10.08903 1.07825
v 1.07936 -10.47731 1.13050
f 1201 1202 1203 1204
f 1205 1208 1207 1206
f 1201 1205 1206 1202
f 1202 1206 1207 1203
f 1203 1207 1208 1204
f 1204 1208 1205 1201
o medium_rubble_050
usemtl rubble
v 10.96750 -1.74680 -0.02011
v 10.63071 -1.32523 -0.03881
v 10.35331 -1.54401 0.02531
v 10.69010 -1.96557 0.04401
v 11.00436 -1.70377 0.28612
v 10.66757 -1.28220 0.26742
v 10.39017 -1.50098 0.33155
v 10.72696 -1.92254 0.35025
f 1209 1210 1211 1212
f 1213 1216 1215 1214
f 1209 1213 1214 1210
f 1210 1214 1215 1211
f 1211 1215 1216 1212
f 1212 1216 1213 1209
o medium_rubble_051
usemtl rubble
v -1.98395 1.34647 0.04765
v -1.30615 1.55797 -0.06469
v -1.42343 1.94553 -0.04259
v -2.10122 1.73402 0.06975
v -1.92323 1.34419 0.40971
v -1.24543 1.55570 0.29737
v -1.36271 1.94325 0.31947
v -2.04050 1.73175 0.43181
f 1217 1218 1219 1220
f 1221 1224 1223 1222
f 1217 1221 1222 1218
f 1218 1222 1223 1219
f 1219 1223 1224 1220
f 1220 1224 1221 1217
o medium_collapsed_wall_00
usemtl rubble
v -11.29978 6.20287 0.35366
v -9.28235 7.03683 0.09462
v -9.42844 7.38666 0.08309
v -11.44587 6.55270 0.34213
v -11.25445 6.23707 0.81678
v -9.23702 7.07103 0.55774
v -9.38311 7.42085 0.54621
v -11.40054 6.58690 0.80525
f 1225 1226 1227 1228
f 1229 1232 1231 1230
f 1225 1229 1230 1226
f 1226 1230 1231 1227
f 1227 1231 1232 1228
f 1228 1232 1229 1225
o medium_collapsed_wall_01
usemtl rubble
v -15.65555 5.28791 0.06847
v -19.13018 8.28899 0.20812
v -19.33294 8.05523 0.18664
v -15.85831 5.05416 0.04699
v -15.66828 5.24676 0.63626
v -19.14291 8.24783 0.77591
v -19.34567 8.01408 0.75442
v -15.87104 5.01300 0.61477
f 1233 1234 1235 1236
f 1237 1240 1239 1238
f 1233 1237 1238 1234
f 1234 1238 1239 1235
f 1235 1239 1240 1236
f 1236 1240 1237 1233
o medium_collapsed_wall_02
usemtl rubble
v -6.50777 -8.82734 -0.20616
v -4.79619 -4.58821 0.57918
v -5.20466 -4.41412 0.52969
v -6.91624 -8.65325 -0.25565
v -6.64627 -8.92170 0.60502
v -4.93469 -4.68257 1.39036
v -5.34316 -4.50848 1.34087
v -7.05474 -8.74761 0.55553
f 1241 1242 1243 1244
f 1245 1248 1247 1246
f 1241 1245 1246 1242
f 1242 1246 1247 1243
f 1243 1247 1248 1244
f 1244 1248 1245 1241
o medium_collapsed_wall_03
usemtl rubble
v -7.22358 3.81008 0.21929
v -8.82530 5.16101 0.23104
v -9.03883 4.90762 0.25664
v -7.43711 3.55669 0.24489
v -7.18004 3.85470 1.02422
v -8.78176 5.20563 1.03597
v -8.99529 4.95224 1.06157
v -7.39357 3.60131 1.04981
f 1249 1250 1251 1252
f 1253 1256 1255 1254
f 1249 1253 1254 1250
f 1250 1254 1255 1251
f 1251 1255 1256 1252
f 1252 1256 1253 1249
o medium_collapsed_wall_04
usemtl rubble
v 6.59282 -12.95104 -0.25749
v 11.13679 -12.00902 0.34995
v 11.04757 -11.54572 0.29885
v 6.50361 -12.48774 -0.30859
v 6.48948 -12.89522 0.42905
v 11.03344 -11.95320 1.03649
v 10.94422 -11.48990 0.98539
v 6.40026 -12.43192 0.37794
f 1257 1258 1259 1260
f 1261 1264 1263 1262
f 1257 1261 1262 1258
f 1258 1262 1263 1259
f 1259 1263 1264 1260
f 1260 1264 1261 1257
o medium_collapsed_wall_05
usemtl rubble
v 12.06338 -10.64035 -0.20414
v 10.24282 -8.02947 0.29155
v 9.86680 -8.29732 0.32125
v 11.68735 -10.90820 -0.17443
v 12.17541 -10.71083 0.57852
v 10.35485 -8.09995 1.07421
v 9.97883 -8.36779 1.10392
v 11.79938 -10.97867 0.60823
f 1265 1266 1267 1268
f 1269 1272 1271 1270
f 1265 1269 1270 1266
f 1266 1270 1271 1267
f 1267 1271 1272 1268
f 1268 1272 1269 1265
o medium_collapsed_wall_06
usemtl rubble
v -10.57894 -11.23220 -0.05403
v -9.66296 -7.78628 0.10036
v -10.14956 -7.65809 0.12603
v -11.06554 -11.10401 -0.02836
v -10.55297 -11.26950 0.62446
v -9.63699 -7.82358 0.77884
v -10.12359 -7.69539 0.80451
v -11.03957 -11.14131 0.65013
f 1273 1274 1275 1276
f 1277 1280 1279 1278
f 1273 1277 1278 1274
f 1274 1278 1279 1275
f 1275 1279 1280 1276
f 1276 1280 1277 1273
o medium_collapsed_wall_07
usemtl rubble
v -8.28173 4.88346 0.12007
v -10.06867 7.30790 0.29364
v -10.37366 7.08531 0.26283
v -8.58672 4.66087 0.08925
v -8.30682 4.80835 0.91088
v -10.09376 7.23279 1.08445
v -10.39875 7.01020 1.05363
v -8.61181 4.58576 0.88006
f 1281 1282 1283 1284
f 1285 1288 1287 1286
f 1281 1285 1286 1282
f 1282 1286 1287 1283
f 1283 1287 1288 1284
f 1284 1288 1285 1281
o medium_collapsed_wall_08
usemtl rubble
v -17.50652 -4.05750 -0.07893
v -16.11003 -0.97576 0.14428
v -16.47069 -0.81307 0.15458
v -17.86719 -3.89481 -0.06863
v -17.50844 -4.09721 0.48130
v -16.11194 -1.01548 0.70452
v -16.47260 -0.85279 0.71482
v -17.86910 -3.93452 0.49160
f 1289 1290 1291 1292
f 1293 1296 1295 1294
f 1289 1293 1294 1290
f 1290 1294 1295 1291
f 1291 1295 1296 1292
f 1292 1296 1293 1289
o medium_collapsed_wall_09
usemtl rubble
v 18.01085 -4.05202 0.22238
v 18.19385 -1.60181 0.13834
v 17.83942 -1.57628 0.11092
v 17.65641 -4.02649 0.19496
v 17.97670 -4.03374 0.68090
v 18.15970 -1.58353 0.59686
v 17.80526 -1.55800 0.56944
v 17.62226 -4.00821 0.65348
f 1297 1298 1299 1300
f 1301 1304 1303 1302
f 1297 1301 1302 1298
f 1298 1302 1303 1299
f 1299 1303 1304 1300
f 1300 1304 1301 1297
o medium_collapsed_wall_10
usemtl rubble
v -5.80330 -7.97771 0.28476
v -4.20518 -6.15335 -0.05770
v -4.49479 -5.90149 -0.06744
v -6.09291 -7.72585 0.27503
v -5.76855 -7.91949 0.75708
v -4.17043 -6.09513 0.41462
v -4.46004 -5.84327 0.40488
v -6.05816 -7.66763 0.74734
f 1305 1306 1307 1308
f 1309 1312 1311 1310
f 1305 1309 1310 1306
f 1306 1310 1311 1307
f 1307 1311 1312 1308
f 1308 1312 1309 1305
o medium_collapsed_wall_11
usemtl rubble
v -16.05400 -6.30385 -0.14834
v -14.06483 -5.59195 0.17884
v -14.18377 -5.25852 0.17645
v -16.17294 -5.97042 -0.15073
v -16.16313 -6.33749 0.58833
v -14.17396 -5.62559 0.91551
v -14.29289 -5.29216 0.91311
v -16.28206 -6.00406 0.58594
f 1313 1314 1315 1316
f 1317 1320 1319 1318
f 1313 1317 1318 1314
f 1314 1318 1319 1315
f 1315 1319 1320 1316
f 1316 1320 1317 1313
o medium_collapsed_wall_12
usemtl rubble
v -5.98716 2.47127 0.12475
v -5.05259 4.94815 0.04143
v -5.45379 5.09850 0.01102
v -6.38836 2.62162 0.09434
v -6.00874 2.49253 0.51465
v -5.07417 4.96940 0.43133
v -5.47537 5.11976 0.40093
v -6.40994 2.64288 0.48424
f 1321 1322 1323 1324
f 1325 1328 1327 1326
f 1321 1325 1326 1322
f 1322 1326 1327 1323
f 1323 1327 1328 1324
f 1324 1328 1325 1321
o medium_collapsed_wall_13
usemtl rubble
v -8.65126 -9.99135 0.37426
v -10.66105 -7.82358 -0.07040
v -10.96181 -8.09203 -0.01978
v -8.95202 -10.25980 0.42488
v -8.65499 -9.90029 0.83504
v -10.66478 -7.73252 0.39038
v -10.96554 -8.00097 0.44100
v -8.95575 -10.16874 0.88566
f 1329 1330 1331 1332
f 1333 1336 1335 1334
f 1329 1333 1334 1330
f 1330 1334 1335 1331
f 1331 1335 1336 1332
f 1332 1336 1333 1329
o medium_collapsed_wall_14
usemtl rubble
v 0.49210 -13.28974 -0.02316
v 1.87354 -9.02825 0.40518
v 1.45843 -8.88798 0.34843
v 0.07699 -13.14947 -0.07992
v 0.40296 -13.31908 0.55628
v 1.78440 -9.05760 0.98463
v 1.36929 -8.91733 0.92787
v -0.01215 -13.17881 0.49952
f 1337 1338 1339 1340
f 1341 1344 1343 1342
f 1337 1341 1342 1338
f 1338 1342 1343 1339
f 1339 1343 1344 1340
f 1340 1344 1341 1337
o medium_broken_upper_slab_01
usemtl rubble
v 1.26443 11.04251 4.97968
v 5.91506 11.60328 6.02718
v 5.80574 12.39332 6.08957
v 1.15512 11.83255 5.04207
v 1.19426 11.00668 5.31043
v 5.84488 11.56745 6.35793
v 5.73557 12.35749 6.42032
v 1.08494 11.79672 5.37282
f 1345 1346 1347 1348
f 1349 1352 1351 1350
f 1345 1349 1350 1346
f 1346 1350 1351 1347
f 1347 1351 1352 1348
f 1348 1352 1349 1345
o medium_broken_upper_slab_02
usemtl rubble
v 8.39930 4.13996 5.71225
v 11.66155 2.76070 5.06774
v 11.93981 3.45327 4.99407
v 8.67756 4.83252 5.63858
v 8.46019 4.14673 6.00593
v 11.72244 2.76748 5.36142
v 12.00070 3.46004 5.28775
v 8.73845 4.83930 5.93226
f 1353 1354 1355 1356
f 1357 1360 1359 1358
f 1353 1357 1358 1354
f 1354 1358 1359 1355
f 1355 1359 1360 1356
f 1356 1360 1357 1353
o medium_narrow_deflector_01
usemtl concrete
v -5.97067 -5.33689 0.30000
v -3.17067 -4.73689 0.30000
v -3.22933 -4.46311 0.30000
v -6.02933 -5.06311 0.30000
v -5.97067 -5.33689 2.90000
v -3.17067 -4.73689 2.90000
v -3.22933 -4.46311 2.90000
v -6.02933 -5.06311 2.90000
f 1361 1362 1363 1364
f 1365 1368 1367 1366
f 1361 1365 1366 1362
f 1362 1366 1367 1363
f 1363 1367 1368 1364
f 1364 1368 1365 1361
o medium_narrow_deflector_02
usemtl concrete
v 6.89899 3.80101 0.35000
v 8.79899 5.70101 0.35000
v 8.60101 5.89899 0.35000
v 6.70101 3.99899 0.35000
v 6.89899 3.80101 2.85000
v 8.79899 5.70101 2.85000
v 8.60101 5.89899 2.85000
v 6.70101 3.99899 2.85000
f 1369 1370 1371 1372
f 1373 1376 1375 1374
f 1369 1373 1374 1370
f 1370 1374 1375 1371
f 1371 1375 1376 1372
f 1372 1376 1373 1369
