mtllib ruins_urban_01.mtl
o floor
usemtl floor
v -9.00000 -15.00000 -0.20000
v 9.00000 -15.00000 -0.20000
v 9.00000 15.00000 -0.20000
v -9.00000 15.00000 -0.20000
v -9.00000 -15.00000 0.00000
v 9.00000 -15.00000 0.00000
v 9.00000 15.00000 0.00000
v -9.00000 15.00000 0.00000
f 1 2 3 4
f 5 8 7 6
f 1 5 6 2
f 2 6 7 3
f 3 7 8 4
f 4 8 5 1
o envelope_north
usemtl wall
v -9.00000 14.86000 0.00000
v 9.00000 14.86000 0.00000
v 9.00000 15.14000 0.00000
v -9.00000 15.14000 0.00000
v -9.00000 14.86000 3.00000
v 9.00000 14.86000 3.00000
v 9.00000 15.14000 3.00000
v -9.00000 15.14000 3.00000
f 9 10 11 12
f 13 16 15 14
f 9 13 14 10
f 10 14 15 11
f 11 15 16 12
f 12 16 13 9
o envelope_south
usemtl wall
v -9.00000 -15.14000 0.00000
v 9.00000 -15.14000 0.00000
v 9.00000 -14.86000 0.00000
v -9.00000 -14.86000 0.00000
v -9.00000 -15.14000 3.00000
v 9.00000 -15.14000 3.00000
v 9.00000 -14.86000 3.00000
v -9.00000 -14.86000 3.00000
f 17 18 19 20
f 21 24 23 22
f 17 21 22 18
f 18 22 23 19
f 19 23 24 20
f 20 24 21 17
o envelope_east
usemtl wall
v 9.14000 -15.00000 0.00000
v 9.14000 15.00000 0.00000
v 8.86000 15.00000 0.00000
v 8.86000 -15.00000 0.00000
v 9.14000 -15.00000 3.00000
v 9.14000 15.00000 3.00000
v 8.86000 15.00000 3.00000
v 8.86000 -15.00000 3.00000
f 25 26 27 28
f 29 32 31 30
f 25 29 30 26
f 26 30 31 27
f 27 31 32 28
f 28 32 29 25
o envelope_west_00
usemtl wall
v -8.86000 -15.00000 0.00000
v -8.86000 -1.70000 0.00000
v -9.14000 -1.70000 0.00000
v -9.14000 -15.00000 0.00000
v -8.86000 -15.00000 3.00000
v -8.86000 -1.70000 3.00000
v -9.14000 -1.70000 3.00000
v -9.14000 -15.00000 3.00000
f 33 34 35 36
f 37 40 39 38
f 33 37 38 34
f 34 38 39 35
f 35 39 40 36
f 36 40 37 33
o envelope_west_01
usemtl wall
v -8.86000 1.70000 0.00000
v -8.86000 15.00000 0.00000
v -9.14000 15.00000 0.00000
v -9.14000 1.70000 0.00000
v -8.86000 1.70000 3.00000
v -8.86000 15.00000 3.00000
v -9.14000 15.00000 3.00000
v -9.14000 1.70000 3.00000
f 41 42 43 44
f 45 48 47 46
f 41 45 46 42
f 42 46 47 43
f 43 47 48 44
f 44 48 45 41
o s1_north_divider_00
usemtl partition
v -9.00000 4.86000 0.00000
v -7.10000 4.86000 0.00000
v -7.10000 5.14000 0.00000
v -9.00000 5.14000 0.00000
v -9.00000 4.86000 3.00000
v -7.10000 4.86000 3.00000
v -7.10000 5.14000 3.00000
v -9.00000 5.14000 3.00000
f 49 50 51 52
f 53 56 55 54
f 49 53 54 50
f 50 54 55 51
f 51 55 56 52
f 52 56 53 49
o s1_north_divider_01
usemtl partition
v -4.90000 4.86000 0.00000
v 2.40000 4.86000 0.00000
v 2.40000 5.14000 0.00000
v -4.90000 5.14000 0.00000
v -4.90000 4.86000 3.00000
v 2.40000 4.86000 3.00000
v 2.40000 5.14000 3.00000
v -4.90000 5.14000 3.00000
f 57 58 59 60
f 61 64 63 62
f 57 61 62 58
f 58 62 63 59
f 59 63 64 60
f 60 64 61 57
o s1_north_divider_02
usemtl partition
v 4.60000 4.86000 0.00000
v 9.00000 4.86000 0.00000
v 9.00000 5.14000 0.00000
v 4.60000 5.14000 0.00000
v 4.60000 4.86000 3.00000
v 9.00000 4.86000 3.00000
v 9.00000 5.14000 3.00000
v 4.60000 5.14000 3.00000
f 65 66 67 68
f 69 72 71 70
f 65 69 70 66
f 66 70 71 67
f 67 71 72 68
f 68 72 69 65
o s1_south_divider_00
usemtl partition
v -9.00000 -5.14000 0.00000
v -5.10000 -5.14000 0.00000
v -5.10000 -4.86000 0.00000
v -9.00000 -4.86000 0.00000
v -9.00000 -5.14000 3.00000
v -5.10000 -5.14000 3.00000
v -5.10000 -4.86000 3.00000
v -9.00000 -4.86000 3.00000
f 73 74 75 76
f 77 80 79 78
f 73 77 78 74
f 74 78 79 75
f 75 79 80 76
f 76 80 77 73
o s1_south_divider_01
usemtl partition
v -2.90000 -5.14000 0.00000
v 3.90000 -5.14000 0.00000
v 3.90000 -4.86000 0.00000
v -2.90000 -4.86000 0.00000
v -2.90000 -5.14000 3.00000
v 3.90000 -5.14000 3.00000
v 3.90000 -4.86000 3.00000
v -2.90000 -4.86000 3.00000
f 81 82 83 84
f 85 88 87 86
f 81 85 86 82
f 82 86 87 83
f 83 87 88 84
f 84 88 85 81
o s1_south_divider_02
usemtl partition
v 6.10000 -5.14000 0.00000
v 9.00000 -5.14000 0.00000
v 9.00000 -4.86000 0.00000
v 6.10000 -4.86000 0.00000
v 6.10000 -5.14000 3.00000
v 9.00000 -5.14000 3.00000
v 9.00000 -4.86000 3.00000
v 6.10000 -4.86000 3.00000
f 89 90 91 92
f 93 96 95 94
f 89 93 94 90
f 90 94 95 91
f 91 95 96 92
f 92 96 93 89
o s1_west_divider_00
usemtl partition
v -2.86000 -15.00000 0.00000
v -2.86000 -11.60000 0.00000
v -3.14000 -11.60000 0.00000
v -3.14000 -15.00000 0.00000
v -2.86000 -15.00000 3.00000
v -2.86000 -11.60000 3.00000
v -3.14000 -11.60000 3.00000
v -3.14000 -15.00000 3.00000
f 97 98 99 100
f 101 104 103 102
f 97 101 102 98
f 98 102 103 99
f 99 103 104 100
f 100 104 101 97
o s1_west_divider_01
usemtl partition
v -2.86000 -9.40000 0.00000
v -2.86000 -2.10000 0.00000
v -3.14000 -2.10000 0.00000
v -3.14000 -9.40000 0.00000
v -2.86000 -9.40000 3.00000
v -2.86000 -2.10000 3.00000
v -3.14000 -2.10000 3.00000
v -3.14000 -9.40000 3.00000
f 105 106 107 108
f 109 112 111 110
f 105 109 110 106
f 106 110 111 107
f 107 111 112 108
f 108 112 109 105
o s1_west_divider_02
usemtl partition
v -2.86000 0.10000 0.00000
v -2.86000 7.90000 0.00000
v -3.14000 7.90000 0.00000
v -3.14000 0.10000 0.00000
v -2.86000 0.10000 3.00000
v -2.86000 7.90000 3.00000
v -3.14000 7.90000 3.00000
v -3.14000 0.10000 3.00000
f 113 114 115 116
f 117 120 119 118
f 113 117 118 114
f 114 118 119 115
f 115 119 120 116
f 116 120 117 113
o s1_west_divider_03
usemtl partition
v -2.86000 10.10000 0.00000
v -2.86000 15.00000 0.00000
v -3.14000 15.00000 0.00000
v -3.14000 10.10000 0.00000
v -2.86000 10.10000 3.00000
v -2.86000 15.00000 3.00000
v -3.14000 15.00000 3.00000
v -3.14000 10.10000 3.00000
f 121 122 123 124
f 125 128 127 126
f 121 125 126 122
f 122 126 127 123
f 123 127 128 124
f 124 128 125 121
o s1_east_divider_00
usemtl partition
v 3.14000 -15.00000 0.00000
v 3.14000 -9.10000 0.00000
v 2.86000 -9.10000 0.00000
v 2.86000 -15.00000 0.00000
v 3.14000 -15.00000 3.00000
v 3.14000 -9.10000 3.00000
v 2.86000 -9.10000 3.00000
v 2.86000 -15.00000 3.00000
f 129 130 131 132
f 133 136 135 134
f 129 133 134 130
f 130 134 135 131
f 131 135 136 132
f 132 136 133 129
o s1_east_divider_01
usemtl partition
v 3.14000 -6.90000 0.00000
v 3.14000 0.90000 0.00000
v 2.86000 0.90000 0.00000
v 2.86000 -6.90000 0.00000
v 3.14000 -6.90000 3.00000
v 3.14000 0.90000 3.00000
v 2.86000 0.90000 3.00000
v 2.86000 -6.90000 3.00000
f 137 138 139 140
f 141 144 143 142
f 137 141 142 138
f 138 142 143 139
f 139 143 144 140
f 140 144 141 137
o s1_east_divider_02
usemtl partition
v 3.14000 3.10000 0.00000
v 3.14000 8.90000 0.00000
v 2.86000 8.90000 0.00000
v 2.86000 3.10000 0.00000
v 3.14000 3.10000 3.00000
v 3.14000 8.90000 3.00000
v 2.86000 8.90000 3.00000
v 2.86000 3.10000 3.00000
f 145 146 147 148
f 149 152 151 150
f 145 149 150 146
f 146 150 151 147
f 147 151 152 148
f 148 152 149 145
o s1_east_divider_03
usemtl partition
v 3.14000 11.10000 0.00000
v 3.14000 15.00000 0.00000
v 2.86000 15.00000 0.00000
v 2.86000 11.10000 0.00000
v 3.14000 11.10000 3.00000
v 3.14000 15.00000 3.00000
v 2.86000 15.00000 3.00000
v 2.86000 11.10000 3.00000
f 153 154 155 156
f 157 160 159 158
f 153 157 158 154
f 154 158 159 155
f 155 159 160 156
f 156 160 157 153
o s1_equipment_00
usemtl equipment
v -7.30000 9.15000 0.00000
v -5.10000 9.15000 0.00000
v -5.10000 9.85000 0.00000
v -7.30000 9.85000 0.00000
v -7.30000 9.15000 1.40000
v -5.10000 9.15000 1.40000
v -5.10000 9.85000 1.40000
v -7.30000 9.85000 1.40000
f 161 162 163 164
f 165 168 167 166
f 161 165 166 162
f 162 166 167 163
f 163 167 168 164
f 164 168 165 161
o s1_equipment_01
usemtl equipment
v -7.20000 -9.35000 0.00000
v -5.20000 -9.35000 0.00000
v -5.20000 -8.65000 0.00000
v -7.20000 -8.65000 0.00000
v -7.20000 -9.35000 1.40000
v -5.20000 -9.35000 1.40000
v -5.20000 -8.65000 1.40000
v -7.20000 -8.65000 1.40000
f 169 170 171 172
f 173 176 175 174
f 169 173 174 170
f 170 174 175 171
f 171 175 176 172
f 172 176 173 169
o s1_equipment_02
usemtl equipment
v 5.10000 9.85000 0.00000
v 7.50000 9.85000 0.00000
v 7.50000 10.55000 0.00000
v 5.10000 10.55000 0.00000
v 5.10000 9.85000 1.40000
v 7.50000 9.85000 1.40000
v 7.50000 10.55000 1.40000
v 5.10000 10.55000 1.40000
f 177 178 179 180
f 181 184 183 182
f 177 181 182 178
f 178 182 183 179
f 179 183 184 180
f 180 184 181 177
o s1_equipment_03
usemtl equipment
v 4.90000 -9.75000 0.00000
v 7.10000 -9.75000 0.00000
v 7.10000 -9.05000 0.00000
v 4.90000 -9.05000 0.00000
v 4.90000 -9.75000 1.40000
v 7.10000 -9.75000 1.40000
v 7.10000 -9.05000 1.40000
v 4.90000 -9.05000 1.40000
f 185 186 187 188
f 189 192 191 190
f 185 189 190 186
f 186 190 191 187
f 187 191 192 188
f 188 192 189 185
o s1_equipment_04
usemtl equipment
v -1.75000 9.95000 0.00000
v -0.25000 9.95000 0.00000
v -0.25000 11.05000 0.00000
v -1.75000 11.05000 0.00000
v -1.75000 9.95000 0.90000
v -0.25000 9.95000 0.90000
v -0.25000 11.05000 0.90000
v -1.75000 11.05000 0.90000
f 193 194 195 196
f 197 200 199 198
f 193 197 198 194
f 194 198 199 195
f 195 199 200 196
f 196 200 197 193
o s1_equipment_05
usemtl equipment
v 0.10000 -11.10000 0.00000
v 1.50000 -11.10000 0.00000
v 1.50000 -9.90000 0.00000
v 0.10000 -9.90000 0.00000
v 0.10000 -11.10000 0.90000
v 1.50000 -11.10000 0.90000
v 1.50000 -9.90000 0.90000
v 0.10000 -9.90000 0.90000
f 201 202 203 204
f 205 208 207 206
f 201 205 206 202
f 202 206 207 203
f 203 207 208 204
f 204 208 205 201
o s1_column_00
usemtl column
v -1.46000 1.34000 0.00000
v -0.94000 1.34000 0.00000
v -0.94000 1.86000 0.00000
v -1.46000 1.86000 0.00000
v -1.46000 1.34000 3.00000
v -0.94000 1.34000 3.00000
v -0.94000 1.86000 3.00000
v -1.46000 1.86000 3.00000
f 209 210 211 212
f 213 216 215 214
f 209 213 214 210
f 210 214 215 211
f 211 215 216 212
f 212 216 213 209
o s1_column_01
usemtl column
v 0.94000 1.34000 0.00000
v 1.46000 1.34000 0.00000
v 1.46000 1.86000 0.00000
v 0.94000 1.86000 0.00000
v 0.94000 1.34000 3.00000
v 1.46000 1.34000 3.00000
v 1.46000 1.86000 3.00000
v 0.94000 1.86000 3.00000
f 217 218 219 220
f 221 224 223 222
f 217 221 222 218
f 218 222 223 219
f 219 223 224 220
f 220 224 221 217
o s1_column_02
usemtl column
v -1.46000 -1.86000 0.00000
v -0.94000 -1.86000 0.00000
v -0.94000 -1.34000 0.00000
v -1.46000 -1.34000 0.00000
v -1.46000 -1.86000 3.00000
v -0.94000 -1.86000 3.00000
v -0.94000 -1.34000 3.00000
v -1.46000 -1.34000 3.00000
f 225 226 227 228
f 229 232 231 230
f 225 229 230 226
f 226 230 231 227
f 227 231 232 228
f 228 232 229 225
o s1_column_03
usemtl column
v 0.94000 -1.86000 0.00000
v 1.46000 -1.86000 0.00000
v 1.46000 -1.34000 0.00000
v 0.94000 -1.34000 0.00000
v 0.94000 -1.86000 3.00000
v 1.46000 -1.86000 3.00000
v 1.46000 -1.34000 3.00000
v 0.94000 -1.34000 3.00000
f 233 234 235 236
f 237 240 239 238
f 233 237 238 234
f 234 238 239 235
f 235 239 240 236
f 236 240 237 233
