mtllib ruins_urban_01.mtl
o floor
usemtl floor
v -15.00000 -15.00000 -0.20000
v 15.00000 -15.00000 -0.20000
v 15.00000 15.00000 -0.20000
v -15.00000 15.00000 -0.20000
v -15.00000 -15.00000 0.00000
v 15.00000 -15.00000 0.00000
v 15.00000 15.00000 0.00000
v -15.00000 15.00000 0.00000
f 1 2 3 4
f 5 8 7 6
f 1 5 6 2
f 2 6 7 3
f 3 7 8 4
f 4 8 5 1
o envelope_north
usemtl wall
v -15.00000 14.86000 0.00000
v 15.00000 14.86000 0.00000
v 15.00000 15.14000 0.00000
v -15.00000 15.14000 0.00000
v -15.00000 14.86000 3.50000
v 15.00000 14.86000 3.50000
v 15.00000 15.14000 3.50000
v -15.00000 15.14000 3.50000
f 9 10 11 12
f 13 16 15 14
f 9 13 14 10
f 10 14 15 11
f 11 15 16 12
f 12 16 13 9
o envelope_south
usemtl wall
v -15.00000 -15.14000 0.00000
v 15.00000 -15.14000 0.00000
v 15.00000 -14.86000 0.00000
v -15.00000 -14.86000 0.00000
v -15.00000 -15.14000 3.50000
v 15.00000 -15.14000 3.50000
v 15.00000 -14.86000 3.50000
v -15.00000 -14.86000 3.50000
f 17 18 19 20
f 21 24 23 22
f 17 21 22 18
f 18 22 23 19
f 19 23 24 20
f 20 24 21 17
o envelope_east
usemtl wall
v 15.14000 -15.00000 0.00000
v 15.14000 15.00000 0.00000
v 14.86000 15.00000 0.00000
v 14.86000 -15.00000 0.00000
v 15.14000 -15.00000 3.50000
v 15.14000 15.00000 3.50000
v 14.86000 15.00000 3.50000
v 14.86000 -15.00000 3.50000
f 25 26 27 28
f 29 32 31 30
f 25 29 30 26
f 26 30 31 27
f 27 31 32 28
f 28 32 29 25
o envelope_west_00
usemtl wall
v -14.86000 -15.00000 0.00000
v -14.86000 -1.70000 0.00000
v -15.14000 -1.70000 0.00000
v -15.14000 -15.00000 0.00000
v -14.86000 -15.00000 3.50000
v -14.86000 -1.70000 3.50000
v -15.14000 -1.70000 3.50000
v -15.14000 -15.00000 3.50000
f 33 34 35 36
f 37 40 39 38
f 33 37 38 34
f 34 38 39 35
f 35 39 40 36
f 36 40 37 33
o envelope_west_01
usemtl wall
v -14.86000 1.70000 0.00000
v -14.86000 15.00000 0.00000
v -15.14000 15.00000 0.00000
v -15.14000 1.70000 0.00000
v -14.86000 1.70000 3.50000
v -14.86000 15.00000 3.50000
v -15.14000 15.00000 3.50000
v -15.14000 1.70000 3.50000
f 41 42 43 44
f 45 48 47 46
f 41 45 46 42
f 42 46 47 43
f 43 47 48 44
f 44 48 45 41
o s2_north_ring_00
usemtl partition
v -15.00000 5.86000 0.00000
v -12.40000 5.86000 0.00000
v -12.40000 6.14000 0.00000
v -15.00000 6.14000 0.00000
v -15.00000 5.86000 3.50000
v -12.40000 5.86000 3.50000
v -12.40000 6.14000 3.50000
v -15.00000 6.14000 3.50000
f 49 50 51 52
f 53 56 55 54
f 49 53 54 50
f 50 54 55 51
f 51 55 56 52
f 52 56 53 49
o s2_north_ring_01
usemtl partition
v -9.60000 5.86000 0.00000
v -1.30000 5.86000 0.00000
v -1.30000 6.14000 0.00000
v -9.60000 6.14000 0.00000
v -9.60000 5.86000 3.50000
v -1.30000 5.86000 3.50000
v -1.30000 6.14000 3.50000
v -9.60000 6.14000 3.50000
f 57 58 59 60
f 61 64 63 62
f 57 61 62 58
f 58 62 63 59
f 59 63 64 60
f 60 64 61 57
o s2_north_ring_02
usemtl partition
v 1.30000 5.86000 0.00000
v 8.60000 5.86000 0.00000
v 8.60000 6.14000 0.00000
v 1.30000 6.14000 0.00000
v 1.30000 5.86000 3.50000
v 8.60000 5.86000 3.50000
v 8.60000 6.14000 3.50000
v 1.30000 6.14000 3.50000
f 65 66 67 68
f 69 72 71 70
f 65 69 70 66
f 66 70 71 67
f 67 71 72 68
f 68 72 69 65
o s2_north_ring_03
usemtl partition
v 11.40000 5.86000 0.00000
v 15.00000 5.86000 0.00000
v 15.00000 6.14000 0.00000
v 11.40000 6.14000 0.00000
v 11.40000 5.86000 3.50000
v 15.00000 5.86000 3.50000
v 15.00000 6.14000 3.50000
v 11.40000 6.14000 3.50000
f 73 74 75 76
f 77 80 79 78
f 73 77 78 74
f 74 78 79 75
f 75 79 80 76
f 76 80 77 73
o s2_south_ring_00
usemtl partition
v -15.00000 -6.14000 0.00000
v -11.40000 -6.14000 0.00000
v -11.40000 -5.86000 0.00000
v -15.00000 -5.86000 0.00000
v -15.00000 -6.14000 3.50000
v -11.40000 -6.14000 3.50000
v -11.40000 -5.86000 3.50000
v -15.00000 -5.86000 3.50000
f 81 82 83 84
f 85 88 87 86
f 81 85 86 82
f 82 86 87 83
f 83 87 88 84
f 84 88 85 81
o s2_south_ring_01
usemtl partition
v -8.60000 -6.14000 0.00000
v -1.30000 -6.14000 0.00000
v -1.30000 -5.86000 0.00000
v -8.60000 -5.86000 0.00000
v -8.60000 -6.14000 3.50000
v -1.30000 -6.14000 3.50000
v -1.30000 -5.86000 3.50000
v -8.60000 -5.86000 3.50000
f 89 90 91 92
f 93 96 95 94
f 89 93 94 90
f 90 94 95 91
f 91 95 96 92
f 92 96 93 89
o s2_south_ring_02
usemtl partition
v 1.30000 -6.14000 0.00000
v 8.60000 -6.14000 0.00000
v 8.60000 -5.86000 0.00000
v 1.30000 -5.86000 0.00000
v 1.30000 -6.14000 3.50000
v 8.60000 -6.14000 3.50000
v 8.60000 -5.86000 3.50000
v 1.30000 -5.86000 3.50000
f 97 98 99 100
f 101 104 103 102
f 97 101 102 98
f 98 102 103 99
f 99 103 104 100
f 100 104 101 97
o s2_south_ring_03
usemtl partition
v 11.40000 -6.14000 0.00000
v 15.00000 -6.14000 0.00000
v 15.00000 -5.86000 0.00000
v 11.40000 -5.86000 0.00000
v 11.40000 -6.14000 3.50000
v 15.00000 -6.14000 3.50000
v 15.00000 -5.86000 3.50000
v 11.40000 -5.86000 3.50000
f 105 106 107 108
f 109 112 111 110
f 105 109 110 106
f 106 110 111 107
f 107 111 112 108
f 108 112 109 105
o s2_west_ring_00
usemtl partition
v -5.86000 -15.00000 0.00000
v -5.86000 -11.40000 0.00000
v -6.14000 -11.40000 0.00000
v -6.14000 -15.00000 0.00000
v -5.86000 -15.00000 3.50000
v -5.86000 -11.40000 3.50000
v -6.14000 -11.40000 3.50000
v -6.14000 -15.00000 3.50000
f 113 114 115 116
f 117 120 119 118
f 113 117 118 114
f 114 118 119 115
f 115 119 120 116
f 116 120 117 113
o s2_west_ring_01
usemtl partition
v -5.86000 -8.60000 0.00000
v -5.86000 -1.40000 0.00000
v -6.14000 -1.40000 0.00000
v -6.14000 -8.60000 0.00000
v -5.86000 -8.60000 3.50000
v -5.86000 -1.40000 3.50000
v -6.14000 -1.40000 3.50000
v -6.14000 -8.60000 3.50000
f 121 122 123 124
f 125 128 127 126
f 121 125 126 122
f 122 126 127 123
f 123 127 128 124
f 124 128 125 121
o s2_west_ring_02
usemtl partition
v -5.86000 1.40000 0.00000
v -5.86000 8.70000 0.00000
v -6.14000 8.70000 0.00000
v -6.14000 1.40000 0.00000
v -5.86000 1.40000 3.50000
v -5.86000 8.70000 3.50000
v -6.14000 8.70000 3.50000
v -6.14000 1.40000 3.50000
f 129 130 131 132
f 133 136 135 134
f 129 133 134 130
f 130 134 135 131
f 131 135 136 132
f 132 136 133 129
o s2_west_ring_03
usemtl partition
v -5.86000 11.30000 0.00000
v -5.86000 15.00000 0.00000
v -6.14000 15.00000 0.00000
v -6.14000 11.30000 0.00000
v -5.86000 11.30000 3.50000
v -5.86000 15.00000 3.50000
v -6.14000 15.00000 3.50000
v -6.14000 11.30000 3.50000
f 137 138 139 140
f 141 144 143 142
f 137 141 142 138
f 138 142 143 139
f 139 143 144 140
f 140 144 141 137
o s2_east_ring_00
usemtl partition
v 6.14000 -15.00000 0.00000
v 6.14000 -12.30000 0.00000
v 5.86000 -12.30000 0.00000
v 5.86000 -15.00000 0.00000
v 6.14000 -15.00000 3.50000
v 6.14000 -12.30000 3.50000
v 5.86000 -12.30000 3.50000
v 5.86000 -15.00000 3.50000
f 145 146 147 148
f 149 152 151 150
f 145 149 150 146
f 146 150 151 147
f 147 151 152 148
f 148 152 149 145
o s2_east_ring_01
usemtl partition
v 6.14000 -9.70000 0.00000
v 6.14000 -1.40000 0.00000
v 5.86000 -1.40000 0.00000
v 5.86000 -9.70000 0.00000
v 6.14000 -9.70000 3.50000
v 6.14000 -1.40000 3.50000
v 5.86000 -1.40000 3.50000
v 5.86000 -9.70000 3.50000
f 153 154 155 156
f 157 160 159 158
f 153 157 158 154
f 154 158 159 155
f 155 159 160 156
f 156 160 157 153
o s2_east_ring_02
usemtl partition
v 6.14000 1.40000 0.00000
v 6.14000 9.70000 0.00000
v 5.86000 9.70000 0.00000
v 5.86000 1.40000 0.00000
v 6.14000 1.40000 3.50000
v 6.14000 9.70000 3.50000
v 5.86000 9.70000 3.50000
v 5.86000 1.40000 3.50000
f 161 162 163 164
f 165 168 167 166
f 161 165 166 162
f 162 166 167 163
f 163 167 168 164
f 164 168 165 161
o s2_east_ring_03
usemtl partition
v 6.14000 12.30000 0.00000
v 6.14000 15.00000 0.00000
v 5.86000 15.00000 0.00000
v 5.86000 12.30000 0.00000
v 6.14000 12.30000 3.50000
v 6.14000 15.00000 3.50000
v 5.86000 15.00000 3.50000
v 5.86000 12.30000 3.50000
f 169 170 171 172
f 173 176 175 174
f 169 173 174 170
f 170 174 175 171
f 171 175 176 172
f 172 176 173 169
o s2_north_west_rooms_00
usemtl wall
v -10.36000 6.00000 0.00000
v -10.36000 9.10000 0.00000
v -10.64000 9.10000 0.00000
v -10.64000 6.00000 0.00000
v -10.36000 6.00000 3.50000
v -10.36000 9.10000 3.50000
v -10.64000 9.10000 3.50000
v -10.64000 6.00000 3.50000
f 177 178 179 180
f 181 184 183 182
f 177 181 182 178
f 178 182 183 179
f 179 183 184 180
f 180 184 181 177
o s2_north_west_rooms_01
usemtl wall
v -10.36000 11.30000 0.00000
v -10.36000 15.00000 0.00000
v -10.64000 15.00000 0.00000
v -10.64000 11.30000 0.00000
v -10.36000 11.30000 3.50000
v -10.36000 15.00000 3.50000
v -10.64000 15.00000 3.50000
v -10.64000 11.30000 3.50000
f 185 186 187 188
f 189 192 191 190
f 185 189 190 186
f 186 190 191 187
f 187 191 192 188
f 188 192 189 185
o s2_north_east_rooms_00
usemtl wall
v 10.64000 6.00000 0.00000
v 10.64000 9.90000 0.00000
v 10.36000 9.90000 0.00000
v 10.36000 6.00000 0.00000
v 10.64000 6.00000 3.50000
v 10.64000 9.90000 3.50000
v 10.36000 9.90000 3.50000
v 10.36000 6.00000 3.50000
f 193 194 195 196
f 197 200 199 198
f 193 197 198 194
f 194 198 199 195
f 195 199 200 196
f 196 200 197 193
o s2_north_east_rooms_01
usemtl wall
v 10.64000 12.10000 0.00000
v 10.64000 15.00000 0.00000
v 10.36000 15.00000 0.00000
v 10.36000 12.10000 0.00000
v 10.64000 12.10000 3.50000
v 10.64000 15.00000 3.50000
v 10.36000 15.00000 3.50000
v 10.36000 12.10000 3.50000
f 201 202 203 204
f 205 208 207 206
f 201 205 206 202
f 202 206 207 203
f 203 207 208 204
f 204 208 205 201
o s2_south_west_rooms_00
usemtl wall
v -10.36000 -15.00000 0.00000
v -10.36000 -11.60000 0.00000
v -10.64000 -11.60000 0.00000
v -10.64000 -15.00000 0.00000
v -10.36000 -15.00000 3.50000
v -10.36000 -11.60000 3.50000
v -10.64000 -11.60000 3.50000
v -10.64000 -15.00000 3.50000
f 209 210 211 212
f 213 216 215 214
f 209 213 214 210
f 210 214 215 211
f 211 215 216 212
f 212 216 213 209
o s2_south_west_rooms_01
usemtl wall
v -10.36000 -9.40000 0.00000
v -10.36000 -6.00000 0.00000
v -10.64000 -6.00000 0.00000
v -10.64000 -9.40000 0.00000
v -10.36000 -9.40000 3.50000
v -10.36000 -6.00000 3.50000
v -10.64000 -6.00000 3.50000
v -10.64000 -9.40000 3.50000
f 217 218 219 220
f 221 224 223 222
f 217 221 222 218
f 218 222 223 219
f 219 223 224 220
f 220 224 221 217
o s2_south_east_rooms_00
usemtl wall
v 10.64000 -15.00000 0.00000
v 10.64000 -12.10000 0.00000
v 10.36000 -12.10000 0.00000
v 10.36000 -15.00000 0.00000
v 10.64000 -15.00000 3.50000
v 10.64000 -12.10000 3.50000
v 10.36000 -12.10000 3.50000
v 10.36000 -15.00000 3.50000
f 225 226 227 228
f 229 232 231 230
f 225 229 230 226
f 226 230 231 227
f 227 231 232 228
f 228 232 229 225
o s2_south_east_rooms_01
usemtl wall
v 10.64000 -9.90000 0.00000
v 10.64000 -6.00000 0.00000
v 10.36000 -6.00000 0.00000
v 10.36000 -9.90000 0.00000
v 10.64000 -9.90000 3.50000
v 10.64000 -6.00000 3.50000
v 10.36000 -6.00000 3.50000
v 10.36000 -9.90000 3.50000
f 233 234 235 236
f 237 240 239 238
f 233 237 238 234
f 234 238 239 235
f 235 239 240 236
f 236 240 237 233
o s2_partial_collapse_00
usemtl debris
v -13.40452 10.05016 0.00000
v -10.69157 10.74289 0.00000
v -10.79548 11.14984 0.00000
v -13.50843 10.45711 0.00000
v -13.40452 10.05016 2.10000
v -10.69157 10.74289 2.10000
v -10.79548 11.14984 2.10000
v -13.50843 10.45711 2.10000
f 241 242 243 244
f 245 248 247 246
f 241 245 246 242
f 242 246 247 243
f 243 247 248 244
f 244 248 245 241
o s2_partial_collapse_01
usemtl debris
v -9.44848 -10.78112 0.00000
v -7.09159 -11.61484 0.00000
v -6.95152 -11.21888 0.00000
v -9.30841 -10.38516 0.00000
v -9.44848 -10.78112 2.10000
v -7.09159 -11.61484 2.10000
v -6.95152 -11.21888 2.10000
v -9.30841 -10.38516 2.10000
f 249 250 251 252
f 253 256 255 254
f 249 253 254 250
f 250 254 255 251
f 251 255 256 252
f 252 256 253 249
o s2_partial_collapse_02
usemtl debris
v 11.78635 13.10555 0.00000
v 14.10568 12.48856 0.00000
v 14.21365 12.89445 0.00000
v 11.89432 13.51144 0.00000
v 11.78635 13.10555 2.10000
v 14.10568 12.48856 2.10000
v 14.21365 12.89445 2.10000
v 11.89432 13.51144 2.10000
f 257 258 259 260
f 261 264 263 262
f 257 261 262 258
f 258 262 263 259
f 259 263 264 260
f 260 264 261 257
o s2_partial_collapse_03
usemtl debris
v 11.96888 -13.55081 0.00000
v 14.15925 -12.84917 0.00000
v 14.03112 -12.44919 0.00000
v 11.84075 -13.15083 0.00000
v 11.96888 -13.55081 2.10000
v 14.15925 -12.84917 2.10000
v 14.03112 -12.44919 2.10000
v 11.84075 -13.15083 2.10000
f 265 266 267 268
f 269 272 271 270
f 265 269 270 266
f 266 270 271 267
f 267 271 272 268
f 268 272 269 265
o s2_atrium_column_00
usemtl column
v -3.89000 3.31000 0.00000
v -3.31000 3.31000 0.00000
v -3.31000 3.89000 0.00000
v -3.89000 3.89000 0.00000
v -3.89000 3.31000 3.50000
v -3.31000 3.31000 3.50000
v -3.31000 3.89000 3.50000
v -3.89000 3.89000 3.50000
f 273 274 275 276
f 277 280 279 278
f 273 277 278 274
f 274 278 279 275
f 275 279 280 276
f 276 280 277 273
o s2_atrium_column_01
usemtl column
v -0.29000 3.31000 0.00000
v 0.29000 3.31000 0.00000
v 0.29000 3.89000 0.00000
v -0.29000 3.89000 0.00000
v -0.29000 3.31000 3.50000
v 0.29000 3.31000 3.50000
v 0.29000 3.89000 3.50000
v -0.29000 3.89000 3.50000
f 281 282 283 284
f 285 288 287 286
f 281 285 286 282
f 282 286 287 283
f 283 287 288 284
f 284 288 285 281
o s2_atrium_column_02
usemtl column
v 3.31000 3.31000 0.00000
v 3.89000 3.31000 0.00000
v 3.89000 3.89000 0.00000
v 3.31000 3.89000 0.00000
v 3.31000 3.31000 3.50000
v 3.89000 3.31000 3.50000
v 3.89000 3.89000 3.50000
v 3.31000 3.89000 3.50000
f 289 290 291 292
f 293 296 295 294
f 289 293 294 290
f 290 294 295 291
f 291 295 296 292
f 292 296 293 289
o s2_atrium_column_03
usemtl column
v -3.89000 -3.89000 0.00000
v -3.31000 -3.89000 0.00000
v -3.31000 -3.31000 0.00000
v -3.89000 -3.31000 0.00000
v -3.89000 -3.89000 3.50000
v -3.31000 -3.89000 3.50000
v -3.31000 -3.31000 3.50000
v -3.89000 -3.31000 3.50000
f 297 298 299 300
f 301 304 303 302
f 297 301 302 298
f 298 302 303 299
f 299 303 304 300
f 300 304 301 297
o s2_atrium_column_04
usemtl column
v -0.29000 -3.89000 0.00000
v 0.29000 -3.89000 0.00000
v 0.29000 -3.31000 0.00000
v -0.29000 -3.31000 0.00000
v -0.29000 -3.89000 3.50000
v 0.29000 -3.89000 3.50000
v 0.29000 -3.31000 3.50000
v -0.29000 -3.31000 3.50000
f 305 306 307 308
f 309 312 311 310
f 305 309 310 306
f 306 310 311 307
f 307 311 312 308
f 308 312 309 305
o s2_atrium_column_05
usemtl column
v 3.31000 -3.89000 0.00000
v 3.89000 -3.89000 0.00000
v 3.89000 -3.31000 0.00000
v 3.31000 -3.31000 0.00000
v 3.31000 -3.89000 3.50000
v 3.89000 -3.89000 3.50000
v 3.89000 -3.31000 3.50000
v 3.31000 -3.31000 3.50000
f 313 314 315 316
f 317 320 319 318
f 313 317 318 314
f 314 318 319 315
f 315 319 320 316
f 316 320 317 313
o s2_equipment_00
usemtl equipment
v -14.30000 8.17500 0.00000
v -11.70000 8.17500 0.00000
v -11.70000 8.82500 0.00000
v -14.30000 8.82500 0.00000
v -14.30000 8.17500 1.80000
v -11.70000 8.17500 1.80000
v -11.70000 8.82500 1.80000
v -14.30000 8.82500 1.80000
f 321 322 323 324
f 325 328 327 326
f 321 325 326 322
f 322 326 327 323
f 323 327 328 324
f 324 328 325 321
o s2_equipment_01
usemtl equipment
v -9.40000 8.37500 0.00000
v -6.60000 8.37500 0.00000
v -6.60000 9.02500 0.00000
v -9.40000 9.02500 0.00000
v -9.40000 8.37500 1.80000
v -6.60000 8.37500 1.80000
v -6.60000 9.02500 1.80000
v -9.40000 9.02500 1.80000
f 329 330 331 332
f 333 336 335 334
f 329 333 334 330
f 330 334 335 331
f 331 335 336 332
f 332 336 333 329
o s2_equipment_02
usemtl equipment
v 6.60000 8.17500 0.00000
v 9.40000 8.17500 0.00000
v 9.40000 8.82500 0.00000
v 6.60000 8.82500 0.00000
v 6.60000 8.17500 1.80000
v 9.40000 8.17500 1.80000
v 9.40000 8.82500 1.80000
v 6.60000 8.82500 1.80000
f 337 338 339 340
f 341 344 343 342
f 337 341 342 338
f 338 342 343 339
f 339 343 344 340
f 340 344 341 337
o s2_equipment_03
usemtl equipment
v 11.70000 8.37500 0.00000
v 14.30000 8.37500 0.00000
v 14.30000 9.02500 0.00000
v 11.70000 9.02500 0.00000
v 11.70000 8.37500 1.80000
v 14.30000 8.37500 1.80000
v 14.30000 9.02500 1.80000
v 11.70000 9.02500 1.80000
f 345 346 347 348
f 349 352 351 350
f 345 349 350 346
f 346 350 351 347
f 347 351 352 348
f 348 352 349 345
o s2_equipment_04
usemtl equipment
v -14.40000 -9.02500 0.00000
v -11.60000 -9.02500 0.00000
v -11.60000 -8.37500 0.00000
v -14.40000 -8.37500 0.00000
v -14.40000 -9.02500 1.80000
v -11.60000 -9.02500 1.80000
v -11.60000 -8.37500 1.80000
v -14.40000 -8.37500 1.80000
f 353 354 355 356
f 357 360 359 358
f 353 357 358 354
f 354 358 359 355
f 355 359 360 356
f 356 360 357 353
o s2_equipment_05
usemtl equipment
v -9.20000 -8.82500 0.00000
v -6.80000 -8.82500 0.00000
v -6.80000 -8.17500 0.00000
v -9.20000 -8.17500 0.00000
v -9.20000 -8.82500 1.80000
v -6.80000 -8.82500 1.80000
v -6.80000 -8.17500 1.80000
v -9.20000 -8.17500 1.80000
f 361 362 363 364
f 365 368 367 366
f 361 365 366 362
f 362 366 367 363
f 363 367 368 364
f 364 368 365 361
o s2_equipment_06
usemtl equipment
v 6.60000 -8.92500 0.00000
v 9.40000 -8.92500 0.00000
v 9.40000 -8.27500 0.00000
v 6.60000 -8.27500 0.00000
v 6.60000 -8.92500 1.80000
v 9.40000 -8.92500 1.80000
v 9.40000 -8.27500 1.80000
v 6.60000 -8.27500 1.80000
f 369 370 371 372
f 373 376 375 374
f 369 373 374 370
f 370 374 375 371
f 371 375 376 372
f 372 376 373 369
o s2_equipment_07
usemtl equipment
v 11.75000 -8.72500 0.00000
v 14.25000 -8.72500 0.00000
v 14.25000 -8.07500 0.00000
v 11.75000 -8.07500 0.00000
v 11.75000 -8.72500 1.80000
v 14.25000 -8.72500 1.80000
v 14.25000 -8.07500 1.80000
v 11.75000 -8.07500 1.80000
f 377 378 379 380
f 381 384 383 382
f 377 381 382 378
f 378 382 383 379
f 379 383 384 380
f 380 384 381 377
o s2_equipment_08
usemtl equipment
v -12.15000 2.00000 0.00000
v -10.85000 2.00000 0.00000
v -10.85000 3.20000 0.00000
v -12.15000 3.20000 0.00000
v -12.15000 2.00000 1.10000
v -10.85000 2.00000 1.10000
v -10.85000 3.20000 1.10000
v -12.15000 3.20000 1.10000
f 385 386 387 388
f 389 392 391 390
f 385 389 390 386
f 386 390 391 387
f 387 391 392 388
f 388 392 389 385
o s2_equipment_09
usemtl equipment
v 10.95000 -3.40000 0.00000
v 12.25000 -3.40000 0.00000
v 12.25000 -2.20000 0.00000
v 10.95000 -2.20000 0.00000
v 10.95000 -3.40000 1.10000
v 12.25000 -3.40000 1.10000
v 12.25000 -2.20000 1.10000
v 10.95000 -2.20000 1.10000
f 393 394 395 396
f 397 400 399 398
f 393 397 398 394
f 394 398 399 395
f 395 399 400 396
f 396 400 397 393
o s2_ceiling_remnant_00
usemtl ceiling
v -13.50000 11.80000 3.06000
v -10.50000 11.80000 3.06000
v -10.50000 13.20000 3.06000
v -13.50000 13.20000 3.06000
v -13.50000 11.80000 3.30000
v -10.50000 11.80000 3.30000
v -10.50000 13.20000 3.30000
v -13.50000 13.20000 3.30000
f 401 402 403 404
f 405 408 407 406
f 401 405 406 402
f 402 406 407 403
f 403 407 408 404
f 404 408 405 401
o s2_ceiling_remnant_01
usemtl ceiling
v 10.50000 -13.20000 3.06000
v 13.50000 -13.20000 3.06000
v 13.50000 -11.80000 3.06000
v 10.50000 -11.80000 3.06000
v 10.50000 -13.20000 3.30000
v 13.50000 -13.20000 3.30000
v 13.50000 -11.80000 3.30000
v 10.50000 -11.80000 3.30000
f 409 410 411 412
f 413 416 415 414
f 409 413 414 410
f 410 414 415 411
f 411 415 416 412
f 412 416 413 409
