mtllib ruins_urban_01.mtl
o floor_slab
usemtl dark_concrete
v -21.00000 -16.00000 -0.16000
v 21.00000 -16.00000 -0.16000
v 21.00000 16.00000 -0.16000
v -21.00000 16.00000 -0.16000
v -21.00000 -16.00000 0.00000
v 21.00000 -16.00000 0.00000
v 21.00000 16.00000 0.00000
v -21.00000 16.00000 0.00000
f 1 2 3 4
f 5 8 7 6
f 1 5 6 2
f 2 6 7 3
f 3 7 8 4
f 4 8 5 1
o north_boundary_west
usemtl concrete
v -21.00142 15.75501 0.00000
v -2.00237 15.56501 0.00000
v -1.99858 15.94499 0.00000
v -20.99763 16.13499 0.00000
v -21.00142 15.75501 3.10000
v -2.00237 15.56501 3.10000
v -1.99858 15.94499 3.10000
v -20.99763 16.13499 3.10000
f 9 10 11 12
f 13 16 15 14
f 9 13 14 10
f 10 14 15 11
f 11 15 16 12
f 12 16 13 9
o north_boundary_east
usemtl concrete
v 0.00433 15.53253 0.00000
v 21.00197 15.84752 0.00000
v 20.99567 16.26747 0.00000
v -0.00197 15.95248 0.00000
v 0.00433 15.53253 3.60000
v 21.00197 15.84752 3.60000
v 20.99567 16.26747 3.60000
v -0.00197 15.95248 3.60000
f 17 18 19 20
f 21 24 23 22
f 17 21 22 18
f 18 22 23 19
f 19 23 24 20
f 20 24 21 17
o south_boundary_west
usemtl concrete
v -20.99669 -16.24198 0.00000
v 1.00173 -15.97799 0.00000
v 0.99669 -15.55802 0.00000
v -21.00173 -15.82201 0.00000
v -20.99669 -16.24198 3.50000
v 1.00173 -15.97799 3.50000
v 0.99669 -15.55802 3.50000
v -21.00173 -15.82201 3.50000
f 25 26 27 28
f 29 32 31 30
f 25 29 30 26
f 26 30 31 27
f 27 31 32 28
f 28 32 29 25
o south_boundary_east
usemtl concrete
v 2.99804 -15.87798 0.00000
v 20.99512 -16.20196 0.00000
v 21.00196 -15.82202 0.00000
v 3.00488 -15.49804 0.00000
v 2.99804 -15.87798 3.00000
v 20.99512 -16.20196 3.00000
v 21.00196 -15.82202 3.00000
v 3.00488 -15.49804 3.00000
f 33 34 35 36
f 37 40 39 38
f 33 37 38 34
f 34 38 39 35
f 35 39 40 36
f 36 40 37 33
o west_boundary_north
usemtl concrete
v -21.29695 2.30557 0.00000
v -20.87703 2.29717 0.00000
v -20.60305 15.99443 0.00000
v -21.02297 16.00283 0.00000
v -21.29695 2.30557 3.40000
v -20.87703 2.29717 3.40000
v -20.60305 15.99443 3.40000
v -21.02297 16.00283 3.40000
f 41 42 43 44
f 45 48 47 46
f 41 45 46 42
f 42 46 47 43
f 43 47 48 44
f 44 48 45 41
o west_boundary_south
usemtl concrete
v -21.05723 -16.00238 0.00000
v -20.63728 -15.99608 0.00000
v -20.84277 -2.29762 0.00000
v -21.26272 -2.30392 0.00000
v -21.05723 -16.00238 3.40000
v -20.63728 -15.99608 3.40000
v -20.84277 -2.29762 3.40000
v -21.26272 -2.30392 3.40000
f 49 50 51 52
f 53 56 55 54
f 49 53 54 50
f 50 54 55 51
f 51 55 56 52
f 52 56 53 49
o east_boundary
usemtl concrete
v 20.58101 -15.89711 0.00000
v 21.00099 -15.90130 0.00000
v 21.31899 15.89711 0.00000
v 20.89901 15.90130 0.00000
v 20.58101 -15.89711 3.40000
v 21.00099 -15.90130 3.40000
v 21.31899 15.89711 3.40000
v 20.89901 15.90130 3.40000
f 57 58 59 60
f 61 64 63 62
f 57 61 62 58
f 58 62 63 59
f 59 63 64 60
f 60 64 61 57
o ground_corridor_g2_n1_left
usemtl concrete
v -13.63661 0.68543 0.00000
v -14.02134 2.83993 0.00000
v -14.29698 2.79071 0.00000
v -13.91225 0.63621 0.00000
v -13.63661 0.68543 3.15000
v -14.02134 2.83993 3.15000
v -14.29698 2.79071 3.15000
v -13.91225 0.63621 3.15000
f 65 66 67 68
f 69 72 71 70
f 65 69 70 66
f 66 70 71 67
f 67 71 72 68
f 68 72 69 65
o ground_corridor_g2_n1_right
usemtl concrete
v -10.70302 1.20929 0.00000
v -11.08775 3.36379 0.00000
v -11.36339 3.31457 0.00000
v -10.97866 1.16007 0.00000
v -10.70302 1.20929 3.15000
v -11.08775 3.36379 3.15000
v -11.36339 3.31457 3.15000
v -10.97866 1.16007 3.15000
f 73 74 75 76
f 77 80 79 78
f 73 77 78 74
f 74 78 79 75
f 75 79 80 76
f 76 80 77 73
o ground_corridor_n1_n2_left
usemtl concrete
v -14.40696 6.06830 0.00000
v -14.90219 7.10829 0.00000
v -15.15499 6.98791 0.00000
v -14.65976 5.94792 0.00000
v -14.40696 6.06830 2.75000
v -14.90219 7.10829 2.75000
v -15.15499 6.98791 2.75000
v -14.65976 5.94792 2.75000
f 81 82 83 84
f 85 88 87 86
f 81 85 86 82
f 82 86 87 83
f 83 87 88 84
f 84 88 85 81
o ground_corridor_n1_n2_right
usemtl concrete
v -12.84501 6.81209 0.00000
v -13.34024 7.85208 0.00000
v -13.59304 7.73170 0.00000
v -13.09781 6.69171 0.00000
v -12.84501 6.81209 2.75000
v -13.34024 7.85208 2.75000
v -13.59304 7.73170 2.75000
v -13.09781 6.69171 2.75000
f 89 90 91 92
f 93 96 95 94
f 89 93 94 90
f 90 94 95 91
f 91 95 96 92
f 92 96 93 89
o ground_corridor_n2_n3_left
usemtl concrete
v -14.86360 11.20599 0.00000
v -13.66836 12.57197 0.00000
v -13.87908 12.75635 0.00000
v -15.07432 11.39037 0.00000
v -14.86360 11.20599 3.15000
v -13.66836 12.57197 3.15000
v -13.87908 12.75635 3.15000
v -15.07432 11.39037 3.15000
f 97 98 99 100
f 101 104 103 102
f 97 101 102 98
f 98 102 103 99
f 99 103 104 100
f 100 104 101 97
o ground_corridor_n2_n3_right
usemtl concrete
v -12.62092 9.24365 0.00000
v -11.42568 10.60963 0.00000
v -11.63640 10.79401 0.00000
v -12.83164 9.42803 0.00000
v -12.62092 9.24365 3.15000
v -11.42568 10.60963 3.15000
v -11.63640 10.79401 3.15000
v -12.83164 9.42803 3.15000
f 105 106 107 108
f 109 112 111 110
f 105 109 110 106
f 106 110 111 107
f 107 111 112 108
f 108 112 109 105
o ground_corridor_n3_n4_left
usemtl concrete
v -9.61548 13.19157 0.00000
v -7.96787 12.69728 0.00000
v -7.88741 12.96547 0.00000
v -9.53502 13.45976 0.00000
v -9.61548 13.19157 2.75000
v -7.96787 12.69728 2.75000
v -7.88741 12.96547 2.75000
v -9.53502 13.45976 2.75000
f 113 114 115 116
f 117 120 119 118
f 113 117 118 114
f 114 118 119 115
f 115 119 120 116
f 116 120 117 113
o ground_corridor_n3_n4_right
usemtl concrete
v -10.11259 11.53453 0.00000
v -8.46498 11.04024 0.00000
v -8.38452 11.30843 0.00000
v -10.03213 11.80272 0.00000
v -10.11259 11.53453 2.75000
v -8.46498 11.04024 2.75000
v -8.38452 11.30843 2.75000
v -10.03213 11.80272 2.75000
f 121 122 123 124
f 125 128 127 126
f 121 125 126 122
f 122 126 127 123
f 123 127 128 124
f 124 128 125 121
o ground_corridor_n4_n5_left
usemtl concrete
v -4.47001 10.62584 0.00000
v -3.66976 9.18539 0.00000
v -3.42500 9.32137 0.00000
v -4.22525 10.76182 0.00000
v -4.47001 10.62584 3.15000
v -3.66976 9.18539 3.15000
v -3.42500 9.32137 3.15000
v -4.22525 10.76182 3.15000
f 129 130 131 132
f 133 136 135 134
f 129 133 134 130
f 130 134 135 131
f 131 135 136 132
f 132 136 133 129
o ground_corridor_n4_n5_right
usemtl concrete
v -7.07500 9.17863 0.00000
v -6.27475 7.73818 0.00000
v -6.02999 7.87416 0.00000
v -6.83024 9.31461 0.00000
v -7.07500 9.17863 3.15000
v -6.27475 7.73818 3.15000
v -6.02999 7.87416 3.15000
v -6.83024 9.31461 3.15000
f 137 138 139 140
f 141 144 143 142
f 137 141 142 138
f 138 142 143 139
f 139 143 144 140
f 140 144 141 137
o ground_corridor_g3_s1_left
usemtl concrete
v -6.99123 -1.36656 0.00000
v -7.35391 -3.32508 0.00000
v -7.07859 -3.37606 0.00000
v -6.71591 -1.41755 0.00000
v -6.99123 -1.36656 3.15000
v -7.35391 -3.32508 3.15000
v -7.07859 -3.37606 3.15000
v -6.71591 -1.41755 3.15000
f 145 146 147 148
f 149 152 151 150
f 145 149 150 146
f 146 150 151 147
f 147 151 152 148
f 148 152 149 145
o ground_corridor_g3_s1_right
usemtl concrete
v -9.92141 -0.82394 0.00000
v -10.28409 -2.78245 0.00000
v -10.00877 -2.83344 0.00000
v -9.64609 -0.87492 0.00000
v -9.92141 -0.82394 3.15000
v -10.28409 -2.78245 3.15000
v -10.00877 -2.83344 3.15000
v -9.64609 -0.87492 3.15000
f 153 154 155 156
f 157 160 159 158
f 153 157 158 154
f 154 158 159 155
f 155 159 160 156
f 156 160 157 153
o ground_corridor_s1_s2_left
usemtl concrete
v -10.63530 -6.50702 0.00000
v -11.67573 -7.06885 0.00000
v -11.54269 -7.31522 0.00000
v -10.50226 -6.75339 0.00000
v -10.63530 -6.50702 2.75000
v -11.67573 -7.06885 2.75000
v -11.54269 -7.31522 2.75000
v -10.50226 -6.75339 2.75000
f 161 162 163 164
f 165 168 167 166
f 161 165 166 162
f 162 166 167 163
f 163 167 168 164
f 164 168 165 161
o ground_corridor_s1_s2_right
usemtl concrete
v -11.45731 -4.98478 0.00000
v -12.49774 -5.54661 0.00000
v -12.36470 -5.79298 0.00000
v -11.32427 -5.23115 0.00000
v -11.45731 -4.98478 2.75000
v -12.49774 -5.54661 2.75000
v -12.36470 -5.79298 2.75000
v -11.32427 -5.23115 2.75000
f 169 170 171 172
f 173 176 175 174
f 169 173 174 170
f 170 174 175 171
f 171 175 176 172
f 172 176 173 169
o ground_corridor_s3_s4_left
usemtl concrete
v -13.16506 -11.52977 0.00000
v -9.62988 -12.03480 0.00000
v -9.59028 -11.75761 0.00000
v -13.12546 -11.25259 0.00000
v -13.16506 -11.52977 2.75000
v -9.62988 -12.03480 2.75000
v -9.59028 -11.75761 2.75000
v -13.12546 -11.25259 2.75000
f 177 178 179 180
f 181 184 183 182
f 177 181 182 178
f 178 182 183 179
f 179 183 184 180
f 180 184 181 177
o ground_corridor_s3_s4_right
usemtl concrete
v -13.40972 -13.24239 0.00000
v -9.87454 -13.74741 0.00000
v -9.83494 -13.47023 0.00000
v -13.37012 -12.96520 0.00000
v -13.40972 -13.24239 2.75000
v -9.87454 -13.74741 2.75000
v -9.83494 -13.47023 2.75000
v -13.37012 -12.96520 2.75000
f 185 186 187 188
f 189 192 191 190
f 185 189 190 186
f 186 190 191 187
f 187 191 192 188
f 188 192 189 185
o ground_corridor_s4_s5_left
usemtl concrete
v -7.11013 -10.97685 0.00000
v -4.68277 -9.65283 0.00000
v -4.81685 -9.40702 0.00000
v -7.24421 -10.73104 0.00000
v -7.11013 -10.97685 3.15000
v -4.68277 -9.65283 3.15000
v -4.81685 -9.40702 3.15000
v -7.24421 -10.73104 3.15000
f 193 194 195 196
f 197 200 199 198
f 193 197 198 194
f 194 198 199 195
f 195 199 200 196
f 196 200 197 193
o ground_corridor_s4_s5_right
usemtl concrete
v -5.68315 -13.59298 0.00000
v -3.25579 -12.26896 0.00000
v -3.38987 -12.02315 0.00000
v -5.81723 -13.34717 0.00000
v -5.68315 -13.59298 3.15000
v -3.25579 -12.26896 3.15000
v -3.38987 -12.02315 3.15000
v -5.81723 -13.34717 3.15000
f 201 202 203 204
f 205 208 207 206
f 201 205 206 202
f 202 206 207 203
f 203 207 208 204
f 204 208 205 201
o spine_broken_panel_00
usemtl concrete
v -18.60484 2.10008 0.00000
v -15.50484 2.00008 0.00000
v -15.49516 2.29992 0.00000
v -18.59516 2.39992 0.00000
v -18.60484 2.10008 2.60000
v -15.50484 2.00008 2.60000
v -15.49516 2.29992 2.60000
v -18.59516 2.39992 2.60000
f 209 210 211 212
f 213 216 215 214
f 209 213 214 210
f 210 214 215 211
f 211 215 216 212
f 212 216 213 209
o spine_broken_panel_02
usemtl concrete
v -9.18968 2.30036 0.00000
v -6.28968 2.50036 0.00000
v -6.31032 2.79964 0.00000
v -9.21032 2.59964 0.00000
v -9.18968 2.30036 3.10000
v -6.28968 2.50036 3.10000
v -6.31032 2.79964 3.10000
v -9.21032 2.59964 3.10000
f 217 218 219 220
f 221 224 223 222
f 217 221 222 218
f 218 222 223 219
f 219 223 224 220
f 220 224 221 217
o spine_broken_panel_04
usemtl concrete
v -0.41196 2.50048 0.00000
v 2.08804 2.30048 0.00000
v 2.11196 2.59952 0.00000
v -0.38804 2.79952 0.00000
v -0.41196 2.50048 2.85000
v 2.08804 2.30048 2.85000
v 2.11196 2.59952 2.85000
v -0.38804 2.79952 2.85000
f 225 226 227 228
f 229 232 231 230
f 225 229 230 226
f 226 230 231 227
f 227 231 232 228
f 228 232 229 225
o spine_broken_panel_05
usemtl concrete
v 3.81246 1.80052 0.00000
v 6.21246 2.00052 0.00000
v 6.18754 2.29948 0.00000
v 3.78754 2.09948 0.00000
v 3.81246 1.80052 3.10000
v 6.21246 2.00052 3.10000
v 6.18754 2.29948 3.10000
v 3.78754 2.09948 3.10000
f 233 234 235 236
f 237 240 239 238
f 233 237 238 234
f 234 238 239 235
f 235 239 240 236
f 236 240 237 233
o spine_broken_panel_06
usemtl concrete
v 7.68446 2.45081 0.00000
v 10.08446 2.20081 0.00000
v 10.11554 2.49919 0.00000
v 7.71554 2.74919 0.00000
v 7.68446 2.45081 2.60000
v 10.08446 2.20081 2.60000
v 10.11554 2.49919 2.60000
v 7.71554 2.74919 2.60000
f 241 242 243 244
f 245 248 247 246
f 241 245 246 242
f 242 246 247 243
f 243 247 248 244
f 244 248 245 241
o spine_broken_panel_07
usemtl concrete
v 12.80864 1.95025 0.00000
v 15.40864 2.10025 0.00000
v 15.39136 2.39975 0.00000
v 12.79136 2.24975 0.00000
v 12.80864 1.95025 2.85000
v 15.40864 2.10025 2.85000
v 15.39136 2.39975 2.85000
v 12.79136 2.24975 2.85000
f 249 250 251 252
f 253 256 255 254
f 249 253 254 250
f 250 254 255 251
f 251 255 256 252
f 252 256 253 249
o spine_broken_panel_08
usemtl concrete
v -18.29275 -2.44982 0.00000
v -15.19275 -2.29982 0.00000
v -15.20725 -2.00018 0.00000
v -18.30725 -2.15018 0.00000
v -18.29275 -2.44982 3.10000
v -15.19275 -2.29982 3.10000
v -15.20725 -2.00018 3.10000
v -18.30725 -2.15018 3.10000
f 257 258 259 260
f 261 264 263 262
f 257 261 262 258
f 258 262 263 259
f 259 263 264 260
f 260 264 261 257
o spine_broken_panel_09
usemtl concrete
v -13.48344 -2.89908 0.00000
v -10.78344 -2.59908 0.00000
v -10.81656 -2.30092 0.00000
v -13.51656 -2.60092 0.00000
v -13.48344 -2.89908 2.60000
v -10.78344 -2.59908 2.60000
v -10.81656 -2.30092 2.60000
v -13.51656 -2.60092 2.60000
f 265 266 267 268
f 269 272 271 270
f 265 269 270 266
f 266 270 271 267
f 267 271 272 268
f 268 272 269 265
o spine_broken_panel_11
usemtl concrete
v -4.68617 -2.94936 0.00000
v -1.98617 -2.69936 0.00000
v -2.01383 -2.40064 0.00000
v -4.71383 -2.65064 0.00000
v -4.68617 -2.94936 3.10000
v -1.98617 -2.69936 3.10000
v -2.01383 -2.40064 3.10000
v -4.71383 -2.65064 3.10000
f 273 274 275 276
f 277 280 279 278
f 273 277 278 274
f 274 278 279 275
f 275 279 280 276
f 276 280 277 273
o spine_broken_panel_13
usemtl concrete
v 4.01719 -2.89901 0.00000
v 6.61719 -2.59901 0.00000
v 6.58281 -2.30099 0.00000
v 3.98281 -2.60099 0.00000
v 4.01719 -2.89901 2.85000
v 6.61719 -2.59901 2.85000
v 6.58281 -2.30099 2.85000
v 3.98281 -2.60099 2.85000
f 281 282 283 284
f 285 288 287 286
f 281 285 286 282
f 282 286 287 283
f 283 287 288 284
f 284 288 285 281
o spine_broken_panel_14
usemtl concrete
v 7.99064 -1.74971 0.00000
v 10.39064 -1.89971 0.00000
v 10.40936 -1.60029 0.00000
v 8.00936 -1.45029 0.00000
v 7.99064 -1.74971 3.10000
v 10.39064 -1.89971 3.10000
v 10.40936 -1.60029 3.10000
v 8.00936 -1.45029 3.10000
f 289 290 291 292
f 293 296 295 294
f 289 293 294 290
f 290 294 295 291
f 291 295 296 292
f 292 296 293 289
o spine_broken_panel_15
usemtl concrete
v 13.01246 -2.69948 0.00000
v 16.01246 -2.44948 0.00000
v 15.98754 -2.15052 0.00000
v 12.98754 -2.40052 0.00000
v 13.01246 -2.69948 2.60000
v 16.01246 -2.44948 2.60000
v 15.98754 -2.15052 2.60000
v 12.98754 -2.40052 2.60000
f 297 298 299 300
f 301 304 303 302
f 297 301 302 298
f 298 302 303 299
f 299 303 304 300
f 300 304 301 297
o utility_ceiling_01
usemtl dark_concrete
v -17.37890 8.06297 2.58000
v -11.52600 5.23569 2.58000
v -10.22110 7.93703 2.58000
v -16.07400 10.76431 2.58000
v -17.37890 8.06297 2.86000
v -11.52600 5.23569 2.86000
v -10.22110 7.93703 2.86000
v -16.07400 10.76431 2.86000
f 305 306 307 308
f 309 312 311 310
f 305 309 310 306
f 306 310 311 307
f 307 311 312 308
f 308 312 309 305
o utility_ceiling_02
usemtl dark_concrete
v -12.76190 11.54152 2.49000
v -7.95662 10.15974 2.49000
v -7.23810 12.65848 2.49000
v -12.04338 14.04026 2.49000
v -12.76190 11.54152 2.75000
v -7.95662 10.15974 2.75000
v -7.23810 12.65848 2.75000
v -12.04338 14.04026 2.75000
f 313 314 315 316
f 317 320 319 318
f 313 317 318 314
f 314 318 319 315
f 315 319 320 316
f 316 320 317 313
o fixed_column_00
usemtl concrete_light
v -17.51000 5.69000 0.00000
v -16.89000 5.69000 0.00000
v -16.89000 6.31000 0.00000
v -17.51000 6.31000 0.00000
v -17.51000 5.69000 3.50000
v -16.89000 5.69000 3.50000
v -16.89000 6.31000 3.50000
v -17.51000 6.31000 3.50000
f 321 322 323 324
f 325 328 327 326
f 321 325 326 322
f 322 326 327 323
f 323 327 328 324
f 324 328 325 321
o fixed_column_01
usemtl concrete_light
v -17.51000 8.09000 0.00000
v -16.89000 8.09000 0.00000
v -16.89000 8.71000 0.00000
v -17.51000 8.71000 0.00000
v -17.51000 8.09000 3.50000
v -16.89000 8.09000 3.50000
v -16.89000 8.71000 3.50000
v -17.51000 8.71000 3.50000
f 329 330 331 332
f 333 336 335 334
f 329 333 334 330
f 330 334 335 331
f 331 335 336 332
f 332 336 333 329
o fixed_column_03
usemtl concrete_light
v 8.29000 5.69000 0.00000
v 8.91000 5.69000 0.00000
v 8.91000 6.31000 0.00000
v 8.29000 6.31000 0.00000
v 8.29000 5.69000 3.50000
v 8.91000 5.69000 3.50000
v 8.91000 6.31000 3.50000
v 8.29000 6.31000 3.50000
f 337 338 339 340
f 341 344 343 342
f 337 341 342 338
f 338 342 343 339
f 339 343 344 340
f 340 344 341 337
o fixed_column_04
usemtl concrete_light
v 10.69000 5.69000 0.00000
v 11.31000 5.69000 0.00000
v 11.31000 6.31000 0.00000
v 10.69000 6.31000 0.00000
v 10.69000 5.69000 3.50000
v 11.31000 5.69000 3.50000
v 11.31000 6.31000 3.50000
v 10.69000 6.31000 3.50000
f 345 346 347 348
f 349 352 351 350
f 345 349 350 346
f 346 350 351 347
f 347 351 352 348
f 348 352 349 345
o fixed_column_05
usemtl concrete_light
v 13.09000 5.69000 0.00000
v 13.71000 5.69000 0.00000
v 13.71000 6.31000 0.00000
v 13.09000 6.31000 0.00000
v 13.09000 5.69000 3.50000
v 13.71000 5.69000 3.50000
v 13.71000 6.31000 3.50000
v 13.09000 6.31000 3.50000
f 353 354 355 356
f 357 360 359 358
f 353 357 358 354
f 354 358 359 355
f 355 359 360 356
f 356 360 357 353
o fixed_column_06
usemtl concrete_light
v 8.29000 8.69000 0.00000
v 8.91000 8.69000 0.00000
v 8.91000 9.31000 0.00000
v 8.29000 9.31000 0.00000
v 8.29000 8.69000 3.50000
v 8.91000 8.69000 3.50000
v 8.91000 9.31000 3.50000
v 8.29000 9.31000 3.50000
f 361 362 363 364
f 365 368 367 366
f 361 365 366 362
f 362 366 367 363
f 363 367 368 364
f 364 368 365 361
o fixed_column_07
usemtl concrete_light
v 10.69000 8.69000 0.00000
v 11.31000 8.69000 0.00000
v 11.31000 9.31000 0.00000
v 10.69000 9.31000 0.00000
v 10.69000 8.69000 3.50000
v 11.31000 8.69000 3.50000
v 11.31000 9.31000 3.50000
v 10.69000 9.31000 3.50000
f 369 370 371 372
f 373 376 375 374
f 369 373 374 370
f 370 374 375 371
f 371 375 376 372
f 372 376 373 369
o fixed_column_08
usemtl concrete_light
v 13.09000 8.69000 0.00000
v 13.71000 8.69000 0.00000
v 13.71000 9.31000 0.00000
v 13.09000 9.31000 0.00000
v 13.09000 8.69000 3.50000
v 13.71000 8.69000 3.50000
v 13.71000 9.31000 3.50000
v 13.09000 9.31000 3.50000
f 377 378 379 380
f 381 384 383 382
f 377 381 382 378
f 378 382 383 379
f 379 383 384 380
f 380 384 381 377
o fixed_column_09
usemtl concrete_light
v -1.31000 -13.11000 0.00000
v -0.69000 -13.11000 0.00000
v -0.69000 -12.49000 0.00000
v -1.31000 -12.49000 0.00000
v -1.31000 -13.11000 3.50000
v -0.69000 -13.11000 3.50000
v -0.69000 -12.49000 3.50000
v -1.31000 -12.49000 3.50000
f 385 386 387 388
f 389 392 391 390
f 385 389 390 386
f 386 390 391 387
f 387 391 392 388
f 388 392 389 385
o fixed_column_10
usemtl concrete_light
v 2.69000 -10.81000 0.00000
v 3.31000 -10.81000 0.00000
v 3.31000 -10.19000 0.00000
v 2.69000 -10.19000 0.00000
v 2.69000 -10.81000 3.50000
v 3.31000 -10.81000 3.50000
v 3.31000 -10.19000 3.50000
v 2.69000 -10.19000 3.50000
f 393 394 395 396
f 397 400 399 398
f 393 397 398 394
f 394 398 399 395
f 395 399 400 396
f 396 400 397 393
o fixed_column_11
usemtl concrete_light
v 8.19000 -12.11000 0.00000
v 8.81000 -12.11000 0.00000
v 8.81000 -11.49000 0.00000
v 8.19000 -11.49000 0.00000
v 8.19000 -12.11000 3.50000
v 8.81000 -12.11000 3.50000
v 8.81000 -11.49000 3.50000
v 8.19000 -11.49000 3.50000
f 401 402 403 404
f 405 408 407 406
f 401 405 406 402
f 402 406 407 403
f 403 407 408 404
f 404 408 405 401
o overflight_rubble_gate
usemtl rubble
v -1.97670 -0.60247 -0.09098
v -0.74911 -0.82586 -0.01603
v -0.36222 1.33708 0.09373
v -1.58981 1.56046 0.01877
v -2.03778 -0.63708 0.80627
v -0.81019 -0.86046 0.88123
v -0.42330 1.30247 0.99098
v -1.65089 1.52586 0.91603
f 409 410 411 412
f 413 416 415 414
f 409 413 414 410
f 410 414 415 411
f 411 415 416 412
f 412 416 413 409
o underflight_hanging_gate
usemtl dark_concrete
v 3.13413 -0.81933 2.12288
v 4.30645 -1.05697 2.02698
v 4.77536 1.29483 1.93132
v 3.60304 1.53247 2.02721
v 3.22464 -0.79483 3.16868
v 4.39696 -1.03247 3.07279
v 4.86587 1.31933 2.97712
v 3.69355 1.55697 3.07302
f 417 418 419 420
f 421 424 423 422
f 417 421 422 418
f 418 422 423 419
f 419 423 424 420
f 420 424 421 417
o east_slanted_beam
usemtl rust
v 6.89008 -0.14074 2.92045
v 11.55099 0.90153 2.44125
v 11.47679 1.23333 2.44125
v 6.81589 0.19106 2.92045
v 6.92321 -0.13333 3.25875
v 11.58411 0.90894 2.77955
v 11.50992 1.24074 2.77955
v 6.84901 0.19847 3.25875
f 425 426 427 428
f 429 432 431 430
f 425 429 430 426
f 426 430 431 427
f 427 431 432 428
f 428 432 429 425
o base_random_column_00
usemtl concrete
v -6.01000 -13.26261 0.00000
v -5.45634 -13.26261 0.00000
v -5.45634 -12.72996 0.00000
v -6.01000 -12.72996 0.00000
v -6.01000 -13.26261 2.67650
v -5.45634 -13.26261 2.67650
v -5.45634 -12.72996 2.67650
v -6.01000 -12.72996 2.67650
f 433 434 435 436
f 437 440 439 438
f 433 437 438 434
f 434 438 439 435
f 435 439 440 436
f 436 440 437 433
o base_random_column_01
usemtl concrete
v -8.98770 10.81399 0.00000
v -8.33053 10.81399 0.00000
v -8.33053 11.36312 0.00000
v -8.98770 11.36312 0.00000
v -8.98770 10.81399 3.18760
v -8.33053 10.81399 3.18760
v -8.33053 11.36312 3.18760
v -8.98770 11.36312 3.18760
f 441 442 443 444
f 445 448 447 446
f 441 445 446 442
f 442 446 447 443
f 443 447 448 444
f 444 448 445 441
o base_random_column_02
usemtl concrete
v 5.28063 -1.43977 0.00000
v 5.97198 -1.43977 0.00000
v 5.97198 -0.77632 0.00000
v 5.28063 -0.77632 0.00000
v 5.28063 -1.43977 3.62122
v 5.97198 -1.43977 3.62122
v 5.97198 -0.77632 3.62122
v 5.28063 -0.77632 3.62122
f 449 450 451 452
f 453 456 455 454
f 449 453 454 450
f 450 454 455 451
f 451 455 456 452
f 452 456 453 449
o base_random_column_03
usemtl concrete
v -4.33327 -6.50142 0.00000
v -3.84796 -6.50142 0.00000
v -3.84796 -5.67889 0.00000
v -4.33327 -5.67889 0.00000
v -4.33327 -6.50142 3.86965
v -3.84796 -6.50142 3.86965
v -3.84796 -5.67889 3.86965
v -4.33327 -5.67889 3.86965
f 457 458 459 460
f 461 464 463 462
f 457 461 462 458
f 458 462 463 459
f 459 463 464 460
f 460 464 461 457
o base_random_column_04
usemtl concrete
v 10.93313 7.41646 0.00000
v 11.70954 7.41646 0.00000
v 11.70954 8.05906 0.00000
v 10.93313 8.05906 0.00000
v 10.93313 7.41646 3.15802
v 11.70954 7.41646 3.15802
v 11.70954 8.05906 3.15802
v 10.93313 8.05906 3.15802
f 465 466 467 468
f 469 472 471 470
f 465 469 470 466
f 466 470 471 467
f 467 471 472 468
f 468 472 469 465
o base_random_column_05
usemtl concrete
v -1.43858 -5.48329 0.00000
v -0.89183 -5.48329 0.00000
v -0.89183 -4.98681 0.00000
v -1.43858 -4.98681 0.00000
v -1.43858 -5.48329 3.87733
v -0.89183 -5.48329 3.87733
v -0.89183 -4.98681 3.87733
v -1.43858 -4.98681 3.87733
f 473 474 475 476
f 477 480 479 478
f 473 477 478 474
f 474 478 479 475
f 475 479 480 476
f 476 480 477 473
o base_rubble_000
usemtl brick
v 1.33276 -8.66518 0.11811
v 0.22484 -8.54228 -0.08309
v 0.19395 -8.85549 -0.10430
v 1.30187 -8.97839 0.09690
v 1.19342 -8.70188 0.86296
v 0.08550 -8.57898 0.66176
v 0.05461 -8.89219 0.64055
v 1.16253 -9.01509 0.84175
f 481 482 483 484
f 485 488 487 486
f 481 485 486 482
f 482 486 487 483
f 483 487 488 484
f 484 488 485 481
o base_rubble_001
usemtl rubble
v 7.16454 2.74856 0.04506
v 7.80671 2.80914 0.07925
v 7.70306 3.97611 -0.04166
v 7.06089 3.91553 -0.07585
v 7.13301 2.79804 0.54958
v 7.77519 2.85862 0.58377
v 7.67154 4.02559 0.46286
v 7.02936 3.96501 0.42868
f 489 490 491 492
f 493 496 495 494
f 489 493 494 490
f 490 494 495 491
f 491 495 496 492
f 492 496 493 489
o base_rubble_002
usemtl rubble
v -2.78276 -8.05719 0.00934
v -3.00026 -7.41209 -0.03077
v -3.56039 -7.59944 -0.00654
v -3.34289 -8.24454 0.03356
v -2.76091 -7.98251 1.09218
v -2.97841 -7.33741 1.05208
v -3.53854 -7.52475 1.07630
v -3.32104 -8.16985 1.11641
f 497 498 499 500
f 501 504 503 502
f 497 501 502 498
f 498 502 503 499
f 499 503 504 500
f 500 504 501 497
o base_rubble_003
usemtl rubble
v -4.68385 11.97362 -0.07808
v -5.29708 12.92835 0.03958
v -5.80275 12.59821 0.08292
v -5.18952 11.64348 -0.03474
v -4.61287 11.94449 0.52827
v -5.22610 12.89922 0.64593
v -5.73177 12.56908 0.68926
v -5.11854 11.61435 0.57160
f 505 506 507 508
f 509 512 511 510
f 505 509 510 506
f 506 510 511 507
f 507 511 512 508
f 508 512 509 505
o base_rubble_004
usemtl brick
v -14.00729 2.08139 0.02719
v -13.78204 2.64821 -0.03024
v -14.73348 3.02691 -0.02417
v -14.95872 2.46008 0.03327
v -13.97983 2.13945 0.70791
v -13.75458 2.70628 0.65047
v -14.70602 3.08498 0.65655
v -14.93126 2.51815 0.71398
f 513 514 515 516
f 517 520 519 518
f 513 517 518 514
f 514 518 519 515
f 515 519 520 516
f 516 520 517 513
o base_rubble_005
usemtl rubble
v -13.30920 -5.66179 0.03411
v -13.63708 -5.01948 0.04343
v -14.15902 -5.28484 -0.03068
v -13.83114 -5.92715 -0.03999
v -13.35475 -5.69122 0.46032
v -13.68263 -5.04891 0.46963
v -14.20457 -5.31427 0.39553
v -13.87669 -5.95658 0.38622
f 521 522 523 524
f 525 528 527 526
f 521 525 526 522
f 522 526 527 523
f 523 527 528 524
f 524 528 525 521
o base_rubble_006
usemtl rubble
v 3.23518 12.45934 -0.10996
v 4.74907 12.80262 0.13042
v 4.64338 13.27742 0.11800
v 3.12949 12.93414 -0.12238
v 3.13231 12.45360 0.54607
v 4.64620 12.79688 0.78645
v 4.54051 13.27168 0.77404
v 3.02662 12.92840 0.53366
f 529 530 531 532
f 533 536 535 534
f 529 533 534 530
f 530 534 535 531
f 531 535 536 532
f 532 536 533 529
o base_rubble_007
usemtl soil
v 7.77426 -4.19294 -0.09049
v 6.44974 -3.87798 0.14996
v 6.20519 -4.86505 0.09575
v 7.52971 -5.18000 -0.14470
v 7.82362 -4.22221 0.21974
v 6.49910 -3.90725 0.46019
v 6.25454 -4.89431 0.40597
v 7.57907 -5.20927 0.16552
f 537 538 539 540
f 541 544 543 542
f 537 541 542 538
f 538 542 543 539
f 539 543 544 540
f 540 544 541 537
o base_rubble_008
usemtl brick
v 14.68906 -4.24773 -0.04102
v 15.98569 -4.08739 0.00565
v 15.84516 -2.96164 0.04222
v 14.54853 -3.12199 -0.00445
v 14.65650 -4.28540 0.99314
v 15.95312 -4.12505 1.03981
v 15.81259 -2.99931 1.07639
v 14.51596 -3.15965 1.02972
f 545 546 547 548
f 549 552 551 550
f 545 549 550 546
f 546 550 551 547
f 547 551 552 548
f 548 552 549 545
o base_rubble_009
usemtl rubble
v -18.33954 8.59787 -0.05198
v -17.82508 8.85185 -0.04220
v -18.07881 9.36188 0.05998
v -18.59328 9.10790 0.05020
v -18.30771 8.51426 0.44440
v -17.79324 8.76825 0.45419
v -18.04698 9.27827 0.55636
v -18.56144 9.02429 0.54658
f 553 554 555 556
f 557 560 559 558
f 553 557 558 554
f 554 558 559 555
f 555 559 560 556
f 556 560 557 553
o base_rubble_010
usemtl rubble
v 17.71370 7.00952 -0.01976
v 17.20641 7.21438 0.04863
v 16.80083 6.21759 0.02606
v 17.30812 6.01274 -0.04233
v 17.79855 6.95719 0.76647
v 17.29127 7.16205 0.83486
v 16.88569 6.16526 0.81229
v 17.39298 5.96041 0.74390
f 561 562 563 564
f 565 568 567 566
f 561 565 566 562
f 562 566 567 563
f 563 567 568 564
f 564 568 565 561
o base_rubble_011
usemtl rubble
v -7.90631 -11.54113 -0.04001
v -8.64483 -11.03944 0.07134
v -8.93640 -11.46339 0.04762
v -8.19789 -11.96508 -0.06373
v -7.84011 -11.63486 0.82138
v -8.57863 -11.13318 0.93274
v -8.87020 -11.55713 0.90901
v -8.13168 -12.05881 0.79766
f 569 570 571 572
f 573 576 575 574
f 569 573 574 570
f 570 574 575 571
f 571 575 576 572
f 572 576 573 569
o base_rubble_012
usemtl brick
v -17.07359 10.68939 0.05587
v -17.31143 10.95386 0.03157
v -17.73568 10.56523 -0.04545
v -17.49784 10.30077 -0.02115
v -17.20782 10.65333 0.97724
v -17.44566 10.91780 0.95294
v -17.86992 10.52917 0.87592
v -17.63207 10.26471 0.90022
f 577 578 579 580
f 581 584 583 582
f 577 581 582 578
f 578 582 583 579
f 579 583 584 580
f 580 584 581 577
o base_rubble_013
usemtl rubble
v 1.24985 -13.75746 0.04314
v 1.77050 -13.61417 0.00583
v 1.64725 -13.17777 -0.03807
v 1.12660 -13.32106 -0.00076
v 1.27904 -13.67725 0.75849
v 1.79969 -13.53396 0.72118
v 1.67644 -13.09756 0.67728
v 1.15579 -13.24085 0.71459
f 585 586 587 588
f 589 592 591 590
f 585 589 590 586
f 586 590 591 587
f 587 591 592 588
f 588 592 589 585
o base_rubble_014
usemtl soil
v -8.25978 6.65184 0.12466
v -8.46197 8.28144 0.08255
v -9.67204 8.12610 -0.11861
v -9.46985 6.49650 -0.07651
v -8.33260 6.65408 0.56097
v -8.53479 8.28368 0.51886
v -9.74486 8.12834 0.31770
v -9.54267 6.49874 0.35981
f 593 594 595 596
f 597 600 599 598
f 593 597 598 594
f 594 598 599 595
f 595 599 600 596
f 596 600 597 593
o base_rubble_015
usemtl rubble
v 18.92367 10.33519 -0.07156
v 18.49178 10.63550 -0.00685
v 18.09560 10.04553 0.08693
v 18.52750 9.74522 0.02222
v 19.08993 10.37246 0.86522
v 18.65803 10.67277 0.92992
v 18.26186 10.08280 1.02370
v 18.69375 9.78249 0.95900
f 601 602 603 604
f 605 608 607 606
f 601 605 606 602
f 602 606 607 603
f 603 607 608 604
f 604 608 605 601
o base_rubble_016
usemtl brick
v 7.76377 7.77474 -0.04233
v 8.68817 8.03439 -0.04707
v 8.44037 8.91828 0.04340
v 7.51596 8.65863 0.04814
v 7.77071 7.75404 0.17891
v 8.69512 8.01369 0.17416
v 8.44732 8.89759 0.26464
v 7.52291 8.63794 0.26938
f 609 610 611 612
f 613 616 615 614
f 609 613 614 610
f 610 614 615 611
f 611 615 616 612
f 612 616 613 609
o base_rubble_017
usemtl rubble
v -17.44911 -11.82838 -0.05185
v -16.29285 -11.52358 0.11507
v -16.39208 -11.12013 0.06570
v -17.54834 -11.42493 -0.10122
v -17.58473 -11.76168 0.76583
v -16.42847 -11.45688 0.93274
v -16.52769 -11.05342 0.88337
v -17.68395 -11.35823 0.71646
f 617 618 619 620
f 621 624 623 622
f 617 621 622 618
f 618 622 623 619
f 619 623 624 620
f 620 624 621 617
o base_rubble_018
usemtl rubble
v 6.90251 -11.89350 0.14700
v 8.31494 -11.29996 -0.12442
v 7.79612 -10.07087 -0.13647
v 6.38370 -10.66441 0.13495
v 7.01018 -11.84144 0.82116
v 8.42261 -11.24790 0.54974
v 7.90380 -10.01881 0.53770
v 6.49137 -10.61236 0.80911
f 625 626 627 628
f 629 632 631 630
f 625 629 630 626
f 626 630 631 627
f 627 631 632 628
f 628 632 629 625
o base_rubble_019
usemtl rubble
v -0.20889 5.28291 0.00111
v -0.14688 5.74301 0.05565
v -1.14450 5.88373 0.00259
v -1.20650 5.42363 -0.05195
v -0.23950 5.23413 0.44740
v -0.17750 5.69424 0.50194
v -1.17512 5.83496 0.44888
v -1.23712 5.37486 0.39434
f 633 634 635 636
f 637 640 639 638
f 633 637 638 634
f 634 638 639 635
f 635 639 640 636
f 636 640 637 633
o base_rubble_020
usemtl brick
v 16.33618 -14.57583 -0.10023
v 16.68755 -13.33007 0.11758
v 16.39212 -13.24511 0.10823
v 16.04075 -14.49087 -0.10958
v 16.29448 -14.66024 0.44986
v 16.64585 -13.41448 0.66767
v 16.35042 -13.32952 0.65831
v 15.99905 -14.57528 0.44050
f 641 642 643 644
f 645 648 647 646
f 641 645 646 642
f 642 646 647 643
f 643 647 648 644
f 644 648 645 641
o base_rubble_021
usemtl soil
v -10.10512 2.96313 -0.07122
v -9.83170 3.35231 -0.06647
v -10.75287 3.99776 0.07368
v -11.02629 3.60857 0.06893
v -10.07473 2.93792 0.24463
v -9.80131 3.32711 0.24938
v -10.72248 3.97255 0.38952
v -10.99590 3.58336 0.38477
f 649 650 651 652
f 653 656 655 654
f 649 653 654 650
f 650 654 655 651
f 651 655 656 652
f 652 656 653 649
o base_rubble_022
usemtl rubble
v 12.18650 10.14410 0.05043
v 12.03142 10.82749 0.01653
v 10.82005 10.54939 -0.04818
v 10.97513 9.86599 -0.01427
v 12.13162 10.17585 0.94137
v 11.97654 10.85924 0.90747
v 10.76517 10.58114 0.84276
v 10.92025 9.89774 0.87667
f 657 658 659 660
f 661 664 663 662
f 657 661 662 658
f 658 662 663 659
f 659 663 664 660
f 660 664 661 657
o base_rubble_023
usemtl rubble
v 4.38316 4.05929 -0.08204
v 3.88164 4.81555 -0.07233
v 3.08888 4.28775 0.09003
v 3.59039 3.53149 0.08031
v 4.46474 4.10631 0.46916
v 3.96323 4.86257 0.47887
v 3.17046 4.33477 0.64123
v 3.67198 3.57851 0.63152
f 665 666 667 668
f 669 672 671 670
f 665 669 670 666
f 666 670 671 667
f 667 671 672 668
f 668 672 669 665
o base_rubble_024
usemtl brick
v 9.05166 5.55124 -0.07691
v 9.13988 6.46969 -0.03431
v 8.14010 6.56018 0.08532
v 8.05188 5.64172 0.04272
v 9.16960 5.49211 0.95351
v 9.25783 6.41057 0.99611
v 8.25805 6.50105 1.11574
v 8.16982 5.58260 1.07314
f 673 674 675 676
f 677 680 679 678
f 673 677 678 674
f 674 678 679 675
f 675 679 680 676
f 676 680 677 673
o base_rubble_025
usemtl rubble
v -17.78110 -12.35487 0.03891
v -17.96695 -11.69262 -0.07389
v -18.74292 -11.90374 -0.03491
v -18.55707 -12.56599 0.07789
v -17.78011 -12.30791 0.31299
v -17.96595 -11.64566 0.20019
v -18.74192 -11.85677 0.23918
v -18.55608 -12.51902 0.35198
f 681 682 683 684
f 685 688 687 686
f 681 685 686 682
f 682 686 687 683
f 683 687 688 684
f 684 688 685 681
o base_rubble_026
usemtl rubble
v 16.01979 -11.73887 0.04246
v 14.88369 -11.43945 -0.11121
v 14.73484 -11.95602 -0.01722
v 15.87094 -12.25544 0.13645
v 15.93476 -11.52367 1.09050
v 14.79866 -11.22425 0.93683
v 14.64980 -11.74081 1.03083
v 15.78590 -12.04023 1.18449
f 689 690 691 692
f 693 696 695 694
f 689 693 694 690
f 690 694 695 691
f 691 695 696 692
f 692 696 693 689
o base_rubble_027
usemtl rubble
v 14.24885 10.65179 -0.04812
v 13.62221 11.33964 0.10545
v 13.18977 10.95747 0.05263
v 13.81641 10.26962 -0.10093
v 14.25936 10.60500 0.20434
v 13.63272 11.29285 0.35791
v 13.20028 10.91068 0.30509
v 13.82692 10.22283 0.15153
f 697 698 699 700
f 701 704 703 702
f 697 701 702 698
f 698 702 703 699
f 699 703 704 700
f 700 704 701 697
o base_collapsed_wall_00
usemtl rubble
v 6.87869 -14.88098 0.23636
v 9.44923 -10.85361 0.10564
v 9.19601 -10.69214 0.10117
v 6.62548 -14.71950 0.23190
v 6.87983 -14.86474 0.75907
v 9.45037 -10.83737 0.62835
v 9.19715 -10.67590 0.62388
v 6.62662 -14.70326 0.75461
f 705 706 707 708
f 709 712 711 710
f 705 709 710 706
f 706 710 711 707
f 707 711 712 708
f 708 712 709 705
o base_collapsed_wall_01
usemtl rubble
v -16.30760 2.63549 -0.07118
v -14.06763 3.66330 0.20436
v -14.24044 4.05077 0.16381
v -16.48041 3.02296 -0.11172
v -16.42010 2.66823 0.72124
v -14.18013 3.69604 0.99678
v -14.35294 4.08352 0.95623
v -16.59290 3.05571 0.68070
f 713 714 715 716
f 717 720 719 718
f 713 717 718 714
f 714 718 719 715
f 715 719 720 716
f 716 720 717 713
o base_collapsed_wall_02
usemtl rubble
v -10.33531 4.16003 0.06370
v -7.72779 7.83591 0.15840
v -8.09312 8.09518 0.15384
v -10.70064 4.41930 0.05914
v -10.34455 4.15495 0.51542
v -7.73703 7.83083 0.61012
v -8.10236 8.09009 0.60556
v -10.70988 4.41421 0.51086
f 721 722 723 724
f 725 728 727 726
f 721 725 726 722
f 722 726 727 723
f 723 727 728 724
f 724 728 725 721
o base_collapsed_wall_03
usemtl rubble
v 19.35072 -5.96061 0.06786
v 15.05501 -4.64873 0.22367
v 14.96609 -4.94289 0.24884
v 19.26180 -6.25477 0.09304
v 19.38661 -5.91770 0.69594
v 15.09089 -4.60582 0.85175
v 15.00197 -4.89998 0.87693
v 19.29768 -6.21186 0.72112
f 729 730 731 732
f 733 736 735 734
f 729 733 734 730
f 730 734 735 731
f 731 735 736 732
f 732 736 733 729
o base_collapsed_wall_04
usemtl rubble
v 4.46517 -13.26267 0.09634
v 3.03063 -11.58360 0.24495
v 2.62603 -11.92825 0.23341
v 4.06057 -13.60732 0.08480
v 4.47567 -13.28795 0.48340
v 3.04113 -11.60888 0.63201
v 2.63653 -11.95354 0.62047
v 4.07107 -13.63261 0.47186
f 737 738 739 740
f 741 744 743 742
f 737 741 742 738
f 738 742 743 739
f 739 743 744 740
f 740 744 741 737
o base_collapsed_wall_05
usemtl rubble
v 16.61874 -5.17250 0.31214
v 13.15277 -2.16509 -0.04019
v 12.91849 -2.43908 -0.07418
v 16.38446 -5.44648 0.27815
v 16.55528 -5.18376 0.84032
v 13.08931 -2.17635 0.48799
v 12.85502 -2.45034 0.45400
v 16.32100 -5.45775 0.80633
f 745 746 747 748
f 749 752 751 750
f 745 749 750 746
f 746 750 751 747
f 747 751 752 748
f 748 752 749 745
o base_collapsed_wall_06
usemtl rubble
v -14.47119 -5.40063 0.16174
v -16.40850 -4.83805 0.24699
v -16.56061 -5.35348 0.19150
v -14.62330 -5.91606 0.10625
v -14.46605 -5.44933 0.59995
v -16.40336 -4.88675 0.68520
v -16.55547 -5.40218 0.62971
v -14.61816 -5.96475 0.54446
f 753 754 755 756
f 757 760 759 758
f 753 757 758 754
f 754 758 759 755
f 755 759 760 756
f 756 760 757 753
o base_collapsed_wall_07
usemtl rubble
v 7.17311 -3.81701 0.19740
v 9.48672 -2.38632 -0.12039
v 9.31455 -2.10133 -0.09085
v 7.00093 -3.53201 0.22694
v 7.28820 -3.82882 0.98212
v 9.60181 -2.39813 0.66433
v 9.42964 -2.11313 0.69387
v 7.11602 -3.54382 1.01167
f 761 762 763 764
f 765 768 767 766
f 761 765 766 762
f 762 766 767 763
f 763 767 768 764
f 764 768 765 761
