mtllib ruins_urban_01.mtl
o floor_slab
usemtl dark_concrete
v -21.00000 -16.00000 -0.16000
v 21.00000 -16.00000 -0.16000
v 21.00000 16.00000 -0.16000
v -21.00000 16.00000 -0.16000
v -21.00000 -16.00000 0.00000
v 21.00000 -16.00000 0.00000
v 21.00000 16.00000 0.00000
v -21.00000 16.00000 0.00000
f 1 2 3 4
f 5 8 7 6
f 1 5 6 2
f 2 6 7 3
f 3 7 8 4
f 4 8 5 1
o north_boundary_west
usemtl concrete
v -21.00142 15.75501 0.00000
v -2.00237 15.56501 0.00000
v -1.99858 15.94499 0.00000
v -20.99763 16.13499 0.00000
v -21.00142 15.75501 3.10000
v -2.00237 15.56501 3.10000
v -1.99858 15.94499 3.10000
v -20.99763 16.13499 3.10000
f 9 10 11 12
f 13 16 15 14
f 9 13 14 10
f 10 14 15 11
f 11 15 16 12
f 12 16 13 9
o north_boundary_east
usemtl concrete
v 0.00433 15.53253 0.00000
v 21.00197 15.84752 0.00000
v 20.99567 16.26747 0.00000
v -0.00197 15.95248 0.00000
v 0.00433 15.53253 3.60000
v 21.00197 15.84752 3.60000
v 20.99567 16.26747 3.60000
v -0.00197 15.95248 3.60000
f 17 18 19 20
f 21 24 23 22
f 17 21 22 18
f 18 22 23 19
f 19 23 24 20
f 20 24 21 17
o south_boundary_west
usemtl concrete
v -20.99669 -16.24198 0.00000
v 1.00173 -15.97799 0.00000
v 0.99669 -15.55802 0.00000
v -21.00173 -15.82201 0.00000
v -20.99669 -16.24198 3.50000
v 1.00173 -15.97799 3.50000
v 0.99669 -15.55802 3.50000
v -21.00173 -15.82201 3.50000
f 25 26 27 28
f 29 32 31 30
f 25 29 30 26
f 26 30 31 27
f 27 31 32 28
f 28 32 29 25
o south_boundary_east
usemtl concrete
v 2.99804 -15.87798 0.00000
v 20.99512 -16.20196 0.00000
v 21.00196 -15.82202 0.00000
v 3.00488 -15.49804 0.00000
v 2.99804 -15.87798 3.00000
v 20.99512 -16.20196 3.00000
v 21.00196 -15.82202 3.00000
v 3.00488 -15.49804 3.00000
f 33 34 35 36
f 37 40 39 38
f 33 37 38 34
f 34 38 39 35
f 35 39 40 36
f 36 40 37 33
o west_boundary_north
usemtl concrete
v -21.29695 2.30557 0.00000
v -20.87703 2.29717 0.00000
v -20.60305 15.99443 0.00000
v -21.02297 16.00283 0.00000
v -21.29695 2.30557 3.40000
v -20.87703 2.29717 3.40000
v -20.60305 15.99443 3.40000
v -21.02297 16.00283 3.40000
f 41 42 43 44
f 45 48 47 46
f 41 45 46 42
f 42 46 47 43
f 43 47 48 44
f 44 48 45 41
o west_boundary_south
usemtl concrete
v -21.05723 -16.00238 0.00000
v -20.63728 -15.99608 0.00000
v -20.84277 -2.29762 0.00000
v -21.26272 -2.30392 0.00000
v -21.05723 -16.00238 3.40000
v -20.63728 -15.99608 3.40000
v -20.84277 -2.29762 3.40000
v -21.26272 -2.30392 3.40000
f 49 50 51 52
f 53 56 55 54
f 49 53 54 50
f 50 54 55 51
f 51 55 56 52
f 52 56 53 49
o east_boundary
usemtl concrete
v 20.58101 -15.89711 0.00000
v 21.00099 -15.90130 0.00000
v 21.31899 15.89711 0.00000
v 20.89901 15.90130 0.00000
v 20.58101 -15.89711 3.40000
v 21.00099 -15.90130 3.40000
v 21.31899 15.89711 3.40000
v 20.89901 15.90130 3.40000
f 57 58 59 60
f 61 64 63 62
f 57 61 62 58
f 58 62 63 59
f 59 63 64 60
f 60 64 61 57
o ground_corridor_g2_n1_left
usemtl concrete
v -13.63661 0.68543 0.00000
v -14.02134 2.83993 0.00000
v -14.29698 2.79071 0.00000
v -13.91225 0.63621 0.00000
v -13.63661 0.68543 3.15000
v -14.02134 2.83993 3.15000
v -14.29698 2.79071 3.15000
v -13.91225 0.63621 3.15000
f 65 66 67 68
f 69 72 71 70
f 65 69 70 66
f 66 70 71 67
f 67 71 72 68
f 68 72 69 65
o ground_corridor_g2_n1_right
usemtl concrete
v -10.70302 1.20929 0.00000
v -11.08775 3.36379 0.00000
v -11.36339 3.31457 0.00000
v -10.97866 1.16007 0.00000
v -10.70302 1.20929 3.15000
v -11.08775 3.36379 3.15000
v -11.36339 3.31457 3.15000
v -10.97866 1.16007 3.15000
f 73 74 75 76
f 77 80 79 78
f 73 77 78 74
f 74 78 79 75
f 75 79 80 76
f 76 80 77 73
o ground_corridor_n1_n2_left
usemtl concrete
v -14.40696 6.06830 0.00000
v -14.90219 7.10829 0.00000
v -15.15499 6.98791 0.00000
v -14.65976 5.94792 0.00000
v -14.40696 6.06830 2.75000
v -14.90219 7.10829 2.75000
v -15.15499 6.98791 2.75000
v -14.65976 5.94792 2.75000
f 81 82 83 84
f 85 88 87 86
f 81 85 86 82
f 82 86 87 83
f 83 87 88 84
f 84 88 85 81
o ground_corridor_n1_n2_right
usemtl concrete
v -12.84501 6.81209 0.00000
v -13.34024 7.85208 0.00000
v -13.59304 7.73170 0.00000
v -13.09781 6.69171 0.00000
v -12.84501 6.81209 2.75000
v -13.34024 7.85208 2.75000
v -13.59304 7.73170 2.75000
v -13.09781 6.69171 2.75000
f 89 90 91 92
f 93 96 95 94
f 89 93 94 90
f 90 94 95 91
f 91 95 96 92
f 92 96 93 89
o ground_corridor_n2_n3_left
usemtl concrete
v -14.86360 11.20599 0.00000
v -13.66836 12.57197 0.00000
v -13.87908 12.75635 0.00000
v -15.07432 11.39037 0.00000
v -14.86360 11.20599 3.15000
v -13.66836 12.57197 3.15000
v -13.87908 12.75635 3.15000
v -15.07432 11.39037 3.15000
f 97 98 99 100
f 101 104 103 102
f 97 101 102 98
f 98 102 103 99
f 99 103 104 100
f 100 104 101 97
o ground_corridor_n2_n3_right
usemtl concrete
v -12.62092 9.24365 0.00000
v -11.42568 10.60963 0.00000
v -11.63640 10.79401 0.00000
v -12.83164 9.42803 0.00000
v -12.62092 9.24365 3.15000
v -11.42568 10.60963 3.15000
v -11.63640 10.79401 3.15000
v -12.83164 9.42803 3.15000
f 105 106 107 108
f 109 112 111 110
f 105 109 110 106
f 106 110 111 107
f 107 111 112 108
f 108 112 109 105
o ground_corridor_n3_n4_left
usemtl concrete
v -9.61548 13.19157 0.00000
v -7.96787 12.69728 0.00000
v -7.88741 12.96547 0.00000
v -9.53502 13.45976 0.00000
v -9.61548 13.19157 2.75000
v -7.96787 12.69728 2.75000
v -7.88741 12.96547 2.75000
v -9.53502 13.45976 2.75000
f 113 114 115 116
f 117 120 119 118
f 113 117 118 114
f 114 118 119 115
f 115 119 120 116
f 116 120 117 113
o ground_corridor_n3_n4_right
usemtl concrete
v -10.11259 11.53453 0.00000
v -8.46498 11.04024 0.00000
v -8.38452 11.30843 0.00000
v -10.03213 11.80272 0.00000
v -10.11259 11.53453 2.75000
v -8.46498 11.04024 2.75000
v -8.38452 11.30843 2.75000
v -10.03213 11.80272 2.75000
f 121 122 123 124
f 125 128 127 126
f 121 125 126 122
f 122 126 127 123
f 123 127 128 124
f 124 128 125 121
o ground_corridor_n4_n5_left
usemtl concrete
v -5.11689 10.26647 0.00000
v -4.31664 8.82602 0.00000
v -4.07188 8.96200 0.00000
v -4.87212 10.40245 0.00000
v -5.11689 10.26647 2.75000
v -4.31664 8.82602 2.75000
v -4.07188 8.96200 2.75000
v -4.87212 10.40245 2.75000
f 129 130 131 132
f 133 136 135 134
f 129 133 134 130
f 130 134 135 131
f 131 135 136 132
f 132 136 133 129
o ground_corridor_n4_n5_right
usemtl concrete
v -6.42812 9.53800 0.00000
v -5.62788 8.09755 0.00000
v -5.38311 8.23353 0.00000
v -6.18336 9.67398 0.00000
v -6.42812 9.53800 2.75000
v -5.62788 8.09755 2.75000
v -5.38311 8.23353 2.75000
v -6.18336 9.67398 2.75000
f 137 138 139 140
f 141 144 143 142
f 137 141 142 138
f 138 142 143 139
f 139 143 144 140
f 140 144 141 137
o ground_corridor_g3_s1_left
usemtl concrete
v -6.99123 -1.36656 0.00000
v -7.35391 -3.32508 0.00000
v -7.07859 -3.37606 0.00000
v -6.71591 -1.41755 0.00000
v -6.99123 -1.36656 3.15000
v -7.35391 -3.32508 3.15000
v -7.07859 -3.37606 3.15000
v -6.71591 -1.41755 3.15000
f 145 146 147 148
f 149 152 151 150
f 145 149 150 146
f 146 150 151 147
f 147 151 152 148
f 148 152 149 145
o ground_corridor_g3_s1_right
usemtl concrete
v -9.92141 -0.82394 0.00000
v -10.28409 -2.78245 0.00000
v -10.00877 -2.83344 0.00000
v -9.64609 -0.87492 0.00000
v -9.92141 -0.82394 3.15000
v -10.28409 -2.78245 3.15000
v -10.00877 -2.83344 3.15000
v -9.64609 -0.87492 3.15000
f 153 154 155 156
f 157 160 159 158
f 153 157 158 154
f 154 158 159 155
f 155 159 160 156
f 156 160 157 153
o ground_corridor_s1_s2_left
usemtl concrete
v -10.63530 -6.50702 0.00000
v -11.67573 -7.06885 0.00000
v -11.54269 -7.31522 0.00000
v -10.50226 -6.75339 0.00000
v -10.63530 -6.50702 2.75000
v -11.67573 -7.06885 2.75000
v -11.54269 -7.31522 2.75000
v -10.50226 -6.75339 2.75000
f 161 162 163 164
f 165 168 167 166
f 161 165 166 162
f 162 166 167 163
f 163 167 168 164
f 164 168 165 161
o ground_corridor_s1_s2_right
usemtl concrete
v -11.45731 -4.98478 0.00000
v -12.49774 -5.54661 0.00000
v -12.36470 -5.79298 0.00000
v -11.32427 -5.23115 0.00000
v -11.45731 -4.98478 2.75000
v -12.49774 -5.54661 2.75000
v -12.36470 -5.79298 2.75000
v -11.32427 -5.23115 2.75000
f 169 170 171 172
f 173 176 175 174
f 169 173 174 170
f 170 174 175 171
f 171 175 176 172
f 172 176 173 169
o ground_corridor_s3_s4_left
usemtl concrete
v -13.16506 -11.52977 0.00000
v -9.62988 -12.03480 0.00000
v -9.59028 -11.75761 0.00000
v -13.12546 -11.25259 0.00000
v -13.16506 -11.52977 2.75000
v -9.62988 -12.03480 2.75000
v -9.59028 -11.75761 2.75000
v -13.12546 -11.25259 2.75000
f 177 178 179 180
f 181 184 183 182
f 177 181 182 178
f 178 182 183 179
f 179 183 184 180
f 180 184 181 177
o ground_corridor_s3_s4_right
usemtl concrete
v -13.40972 -13.24239 0.00000
v -9.87454 -13.74741 0.00000
v -9.83494 -13.47023 0.00000
v -13.37012 -12.96520 0.00000
v -13.40972 -13.24239 2.75000
v -9.87454 -13.74741 2.75000
v -9.83494 -13.47023 2.75000
v -13.37012 -12.96520 2.75000
f 185 186 187 188
f 189 192 191 190
f 185 189 190 186
f 186 190 191 187
f 187 191 192 188
f 188 192 189 185
o ground_corridor_s4_s5_left
usemtl concrete
v -6.75578 -11.62649 0.00000
v -4.32842 -10.30247 0.00000
v -4.46250 -10.05666 0.00000
v -6.88986 -11.38068 0.00000
v -6.75578 -11.62649 2.75000
v -4.32842 -10.30247 2.75000
v -4.46250 -10.05666 2.75000
v -6.88986 -11.38068 2.75000
f 193 194 195 196
f 197 200 199 198
f 193 197 198 194
f 194 198 199 195
f 195 199 200 196
f 196 200 197 193
o ground_corridor_s4_s5_right
usemtl concrete
v -6.03750 -12.94334 0.00000
v -3.61014 -11.61932 0.00000
v -3.74422 -11.37351 0.00000
v -6.17158 -12.69753 0.00000
v -6.03750 -12.94334 2.75000
v -3.61014 -11.61932 2.75000
v -3.74422 -11.37351 2.75000
v -6.17158 -12.69753 2.75000
f 201 202 203 204
f 205 208 207 206
f 201 205 206 202
f 202 206 207 203
f 203 207 208 204
f 204 208 205 201
o ground_corridor_g7_en1_left
usemtl concrete
v 10.83345 3.00730 0.00000
v 11.13092 3.82037 0.00000
v 10.86796 3.91657 0.00000
v 10.57050 3.10350 0.00000
v 10.83345 3.00730 3.15000
v 11.13092 3.82037 3.15000
v 10.86796 3.91657 3.15000
v 10.57050 3.10350 3.15000
f 209 210 211 212
f 213 216 215 214
f 209 213 214 210
f 210 214 215 211
f 211 215 216 212
f 212 216 213 209
o ground_corridor_g7_en1_right
usemtl concrete
v 13.63204 1.98343 0.00000
v 13.92950 2.79650 0.00000
v 13.66655 2.89270 0.00000
v 13.36908 2.07963 0.00000
v 13.63204 1.98343 3.15000
v 13.92950 2.79650 3.15000
v 13.66655 2.89270 3.15000
v 13.36908 2.07963 3.15000
f 217 218 219 220
f 221 224 223 222
f 217 221 222 218
f 218 222 223 219
f 219 223 224 220
f 220 224 221 217
o ground_corridor_en1_en2_left
usemtl concrete
v 14.24102 6.43108 0.00000
v 15.11052 6.86584 0.00000
v 14.98530 7.11628 0.00000
v 14.11580 6.68152 0.00000
v 14.24102 6.43108 2.75000
v 15.11052 6.86584 2.75000
v 14.98530 7.11628 2.75000
v 14.11580 6.68152 2.75000
f 225 226 227 228
f 229 232 231 230
f 225 229 230 226
f 226 230 231 227
f 227 231 232 228
f 228 232 229 225
o ground_corridor_en1_en2_right
usemtl concrete
v 15.01470 4.88372 0.00000
v 15.88420 5.31848 0.00000
v 15.75898 5.56892 0.00000
v 14.88948 5.13416 0.00000
v 15.01470 4.88372 2.75000
v 15.88420 5.31848 2.75000
v 15.75898 5.56892 2.75000
v 14.88948 5.13416 2.75000
f 233 234 235 236
f 237 240 239 238
f 233 237 238 234
f 234 238 239 235
f 235 239 240 236
f 236 240 237 233
o ground_corridor_en2_dead_ne_left
usemtl concrete
v 16.71289 8.83089 0.00000
v 17.08679 10.88735 0.00000
v 16.81131 10.93744 0.00000
v 16.43741 8.88098 0.00000
v 16.71289 8.83089 2.75000
v 17.08679 10.88735 2.75000
v 16.81131 10.93744 2.75000
v 16.43741 8.88098 2.75000
f 241 242 243 244
f 245 248 247 246
f 241 245 246 242
f 242 246 247 243
f 243 247 248 244
f 244 248 245 241
o ground_corridor_en2_dead_ne_right
usemtl concrete
v 18.18869 8.56256 0.00000
v 18.56259 10.61902 0.00000
v 18.28711 10.66911 0.00000
v 17.91321 8.61265 0.00000
v 18.18869 8.56256 2.75000
v 18.56259 10.61902 2.75000
v 18.28711 10.66911 2.75000
v 17.91321 8.61265 2.75000
f 249 250 251 252
f 253 256 255 254
f 249 253 254 250
f 250 254 255 251
f 251 255 256 252
f 252 256 253 249
o ground_corridor_g7_es1_left
usemtl concrete
v 13.13209 -0.59040 0.00000
v 13.52729 -2.84305 0.00000
v 13.80308 -2.79466 0.00000
v 13.40788 -0.54201 0.00000
v 13.13209 -0.59040 3.15000
v 13.52729 -2.84305 3.15000
v 13.80308 -2.79466 3.15000
v 13.40788 -0.54201 3.15000
f 257 258 259 260
f 261 264 263 262
f 257 261 262 258
f 258 262 263 259
f 259 263 264 260
f 260 264 261 257
o ground_corridor_g7_es1_right
usemtl concrete
v 10.19692 -1.10534 0.00000
v 10.59212 -3.35799 0.00000
v 10.86791 -3.30960 0.00000
v 10.47271 -1.05695 0.00000
v 10.19692 -1.10534 3.15000
v 10.59212 -3.35799 3.15000
v 10.86791 -3.30960 3.15000
v 10.47271 -1.05695 3.15000
f 265 266 267 268
f 269 272 271 270
f 265 269 270 266
f 266 270 271 267
f 267 271 272 268
f 268 272 269 265
o ground_corridor_es1_es2_left
usemtl concrete
v 14.22929 -5.57310 0.00000
v 15.32409 -6.73046 0.00000
v 15.52750 -6.53804 0.00000
v 14.43270 -5.38068 0.00000
v 14.22929 -5.57310 2.75000
v 15.32409 -6.73046 2.75000
v 15.52750 -6.53804 2.75000
v 14.43270 -5.38068 2.75000
f 273 274 275 276
f 277 280 279 278
f 273 277 278 274
f 274 278 279 275
f 275 279 280 276
f 276 280 277 273
o ground_corridor_es1_es2_right
usemtl concrete
v 12.97250 -6.76196 0.00000
v 14.06730 -7.91932 0.00000
v 14.27071 -7.72690 0.00000
v 13.17591 -6.56954 0.00000
v 12.97250 -6.76196 2.75000
v 14.06730 -7.91932 2.75000
v 14.27071 -7.72690 2.75000
v 13.17591 -6.56954 2.75000
f 281 282 283 284
f 285 288 287 286
f 281 285 286 282
f 282 286 287 283
f 283 287 288 284
f 284 288 285 281
o ground_corridor_es2_dead_se_left
usemtl concrete
v 18.09399 -9.20724 0.00000
v 19.15254 -10.79507 0.00000
v 19.38552 -10.63975 0.00000
v 18.32697 -9.05193 0.00000
v 18.09399 -9.20724 3.15000
v 19.15254 -10.79507 3.15000
v 19.38552 -10.63975 3.15000
v 18.32697 -9.05193 3.15000
f 289 290 291 292
f 293 296 295 294
f 289 293 294 290
f 290 294 295 291
f 291 295 296 292
f 292 296 293 289
o ground_corridor_es2_dead_se_right
usemtl concrete
v 15.61448 -10.86025 0.00000
v 16.67303 -12.44807 0.00000
v 16.90601 -12.29276 0.00000
v 15.84746 -10.70493 0.00000
v 15.61448 -10.86025 3.15000
v 16.67303 -12.44807 3.15000
v 16.90601 -12.29276 3.15000
v 15.84746 -10.70493 3.15000
f 297 298 299 300
f 301 304 303 302
f 297 301 302 298
f 298 302 303 299
f 299 303 304 300
f 300 304 301 297
o spine_broken_panel_00
usemtl concrete
v -18.60484 2.10008 0.00000
v -15.50484 2.00008 0.00000
v -15.49516 2.29992 0.00000
v -18.59516 2.39992 0.00000
v -18.60484 2.10008 2.60000
v -15.50484 2.00008 2.60000
v -15.49516 2.29992 2.60000
v -18.59516 2.39992 2.60000
f 305 306 307 308
f 309 312 311 310
f 305 309 310 306
f 306 310 311 307
f 307 311 312 308
f 308 312 309 305
o spine_broken_panel_02
usemtl concrete
v -9.18968 2.30036 0.00000
v -6.28968 2.50036 0.00000
v -6.31032 2.79964 0.00000
v -9.21032 2.59964 0.00000
v -9.18968 2.30036 3.10000
v -6.28968 2.50036 3.10000
v -6.31032 2.79964 3.10000
v -9.21032 2.59964 3.10000
f 313 314 315 316
f 317 320 319 318
f 313 317 318 314
f 314 318 319 315
f 315 319 320 316
f 316 320 317 313
o spine_broken_panel_04
usemtl concrete
v -0.41196 2.50048 0.00000
v 2.08804 2.30048 0.00000
v 2.11196 2.59952 0.00000
v -0.38804 2.79952 0.00000
v -0.41196 2.50048 2.85000
v 2.08804 2.30048 2.85000
v 2.11196 2.59952 2.85000
v -0.38804 2.79952 2.85000
f 321 322 323 324
f 325 328 327 326
f 321 325 326 322
f 322 326 327 323
f 323 327 328 324
f 324 328 325 321
o spine_broken_panel_05
usemtl concrete
v 3.81246 1.80052 0.00000
v 6.21246 2.00052 0.00000
v 6.18754 2.29948 0.00000
v 3.78754 2.09948 0.00000
v 3.81246 1.80052 3.10000
v 6.21246 2.00052 3.10000
v 6.18754 2.29948 3.10000
v 3.78754 2.09948 3.10000
f 329 330 331 332
f 333 336 335 334
f 329 333 334 330
f 330 334 335 331
f 331 335 336 332
f 332 336 333 329
o spine_broken_panel_06
usemtl concrete
v 7.68446 2.45081 0.00000
v 10.08446 2.20081 0.00000
v 10.11554 2.49919 0.00000
v 7.71554 2.74919 0.00000
v 7.68446 2.45081 2.60000
v 10.08446 2.20081 2.60000
v 10.11554 2.49919 2.60000
v 7.71554 2.74919 2.60000
f 337 338 339 340
f 341 344 343 342
f 337 341 342 338
f 338 342 343 339
f 339 343 344 340
f 340 344 341 337
o spine_broken_panel_07
usemtl concrete
v 12.80864 1.95025 0.00000
v 15.40864 2.10025 0.00000
v 15.39136 2.39975 0.00000
v 12.79136 2.24975 0.00000
v 12.80864 1.95025 2.85000
v 15.40864 2.10025 2.85000
v 15.39136 2.39975 2.85000
v 12.79136 2.24975 2.85000
f 345 346 347 348
f 349 352 351 350
f 345 349 350 346
f 346 350 351 347
f 347 351 352 348
f 348 352 349 345
o spine_broken_panel_08
usemtl concrete
v -18.29275 -2.44982 0.00000
v -15.19275 -2.29982 0.00000
v -15.20725 -2.00018 0.00000
v -18.30725 -2.15018 0.00000
v -18.29275 -2.44982 3.10000
v -15.19275 -2.29982 3.10000
v -15.20725 -2.00018 3.10000
v -18.30725 -2.15018 3.10000
f 353 354 355 356
f 357 360 359 358
f 353 357 358 354
f 354 358 359 355
f 355 359 360 356
f 356 360 357 353
o spine_broken_panel_09
usemtl concrete
v -13.48344 -2.89908 0.00000
v -10.78344 -2.59908 0.00000
v -10.81656 -2.30092 0.00000
v -13.51656 -2.60092 0.00000
v -13.48344 -2.89908 2.60000
v -10.78344 -2.59908 2.60000
v -10.81656 -2.30092 2.60000
v -13.51656 -2.60092 2.60000
f 361 362 363 364
f 365 368 367 366
f 361 365 366 362
f 362 366 367 363
f 363 367 368 364
f 364 368 365 361
o spine_broken_panel_11
usemtl concrete
v -4.68617 -2.94936 0.00000
v -1.98617 -2.69936 0.00000
v -2.01383 -2.40064 0.00000
v -4.71383 -2.65064 0.00000
v -4.68617 -2.94936 3.10000
v -1.98617 -2.69936 3.10000
v -2.01383 -2.40064 3.10000
v -4.71383 -2.65064 3.10000
f 369 370 371 372
f 373 376 375 374
f 369 373 374 370
f 370 374 375 371
f 371 375 376 372
f 372 376 373 369
o spine_broken_panel_13
usemtl concrete
v 4.01719 -2.89901 0.00000
v 6.61719 -2.59901 0.00000
v 6.58281 -2.30099 0.00000
v 3.98281 -2.60099 0.00000
v 4.01719 -2.89901 2.85000
v 6.61719 -2.59901 2.85000
v 6.58281 -2.30099 2.85000
v 3.98281 -2.60099 2.85000
f 377 378 379 380
f 381 384 383 382
f 377 381 382 378
f 378 382 383 379
f 379 383 384 380
f 380 384 381 377
o spine_broken_panel_14
usemtl concrete
v 7.99064 -1.74971 0.00000
v 10.39064 -1.89971 0.00000
v 10.40936 -1.60029 0.00000
v 8.00936 -1.45029 0.00000
v 7.99064 -1.74971 3.10000
v 10.39064 -1.89971 3.10000
v 10.40936 -1.60029 3.10000
v 8.00936 -1.45029 3.10000
f 385 386 387 388
f 389 392 391 390
f 385 389 390 386
f 386 390 391 387
f 387 391 392 388
f 388 392 389 385
o spine_broken_panel_15
usemtl concrete
v 13.01246 -2.69948 0.00000
v 16.01246 -2.44948 0.00000
v 15.98754 -2.15052 0.00000
v 12.98754 -2.40052 0.00000
v 13.01246 -2.69948 2.60000
v 16.01246 -2.44948 2.60000
v 15.98754 -2.15052 2.60000
v 12.98754 -2.40052 2.60000
f 393 394 395 396
f 397 400 399 398
f 393 397 398 394
f 394 398 399 395
f 395 399 400 396
f 396 400 397 393
o utility_ceiling_01
usemtl dark_concrete
v -17.37890 8.06297 2.58000
v -11.52600 5.23569 2.58000
v -10.22110 7.93703 2.58000
v -16.07400 10.76431 2.58000
v -17.37890 8.06297 2.86000
v -11.52600 5.23569 2.86000
v -10.22110 7.93703 2.86000
v -16.07400 10.76431 2.86000
f 401 402 403 404
f 405 408 407 406
f 401 405 406 402
f 402 406 407 403
f 403 407 408 404
f 404 408 405 401
o utility_ceiling_02
usemtl dark_concrete
v -12.76190 11.54152 2.49000
v -7.95662 10.15974 2.49000
v -7.23810 12.65848 2.49000
v -12.04338 14.04026 2.49000
v -12.76190 11.54152 2.75000
v -7.95662 10.15974 2.75000
v -7.23810 12.65848 2.75000
v -12.04338 14.04026 2.75000
f 409 410 411 412
f 413 416 415 414
f 409 413 414 410
f 410 414 415 411
f 411 415 416 412
f 412 416 413 409
o fixed_column_00
usemtl concrete_light
v -17.51000 5.69000 0.00000
v -16.89000 5.69000 0.00000
v -16.89000 6.31000 0.00000
v -17.51000 6.31000 0.00000
v -17.51000 5.69000 3.50000
v -16.89000 5.69000 3.50000
v -16.89000 6.31000 3.50000
v -17.51000 6.31000 3.50000
f 417 418 419 420
f 421 424 423 422
f 417 421 422 418
f 418 422 423 419
f 419 423 424 420
f 420 424 421 417
o fixed_column_01
usemtl concrete_light
v -17.51000 8.09000 0.00000
v -16.89000 8.09000 0.00000
v -16.89000 8.71000 0.00000
v -17.51000 8.71000 0.00000
v -17.51000 8.09000 3.50000
v -16.89000 8.09000 3.50000
v -16.89000 8.71000 3.50000
v -17.51000 8.71000 3.50000
f 425 426 427 428
f 429 432 431 430
f 425 429 430 426
f 426 430 431 427
f 427 431 432 428
f 428 432 429 425
o fixed_column_03
usemtl concrete_light
v 8.29000 5.69000 0.00000
v 8.91000 5.69000 0.00000
v 8.91000 6.31000 0.00000
v 8.29000 6.31000 0.00000
v 8.29000 5.69000 3.50000
v 8.91000 5.69000 3.50000
v 8.91000 6.31000 3.50000
v 8.29000 6.31000 3.50000
f 433 434 435 436
f 437 440 439 438
f 433 437 438 434
f 434 438 439 435
f 435 439 440 436
f 436 440 437 433
o fixed_column_07
usemtl concrete_light
v 10.69000 8.69000 0.00000
v 11.31000 8.69000 0.00000
v 11.31000 9.31000 0.00000
v 10.69000 9.31000 0.00000
v 10.69000 8.69000 3.50000
v 11.31000 8.69000 3.50000
v 11.31000 9.31000 3.50000
v 10.69000 9.31000 3.50000
f 441 442 443 444
f 445 448 447 446
f 441 445 446 442
f 442 446 447 443
f 443 447 448 444
f 444 448 445 441
o fixed_column_08
usemtl concrete_light
v 13.09000 8.69000 0.00000
v 13.71000 8.69000 0.00000
v 13.71000 9.31000 0.00000
v 13.09000 9.31000 0.00000
v 13.09000 8.69000 3.50000
v 13.71000 8.69000 3.50000
v 13.71000 9.31000 3.50000
v 13.09000 9.31000 3.50000
f 449 450 451 452
f 453 456 455 454
f 449 453 454 450
f 450 454 455 451
f 451 455 456 452
f 452 456 453 449
o fixed_column_09
usemtl concrete_light
v -1.31000 -13.11000 0.00000
v -0.69000 -13.11000 0.00000
v -0.69000 -12.49000 0.00000
v -1.31000 -12.49000 0.00000
v -1.31000 -13.11000 3.50000
v -0.69000 -13.11000 3.50000
v -0.69000 -12.49000 3.50000
v -1.31000 -12.49000 3.50000
f 457 458 459 460
f 461 464 463 462
f 457 461 462 458
f 458 462 463 459
f 459 463 464 460
f 460 464 461 457
o fixed_column_10
usemtl concrete_light
v 2.69000 -10.81000 0.00000
v 3.31000 -10.81000 0.00000
v 3.31000 -10.19000 0.00000
v 2.69000 -10.19000 0.00000
v 2.69000 -10.81000 3.50000
v 3.31000 -10.81000 3.50000
v 3.31000 -10.19000 3.50000
v 2.69000 -10.19000 3.50000
f 465 466 467 468
f 469 472 471 470
f 465 469 470 466
f 466 470 471 467
f 467 471 472 468
f 468 472 469 465
o fixed_column_11
usemtl concrete_light
v 8.19000 -12.11000 0.00000
v 8.81000 -12.11000 0.00000
v 8.81000 -11.49000 0.00000
v 8.19000 -11.49000 0.00000
v 8.19000 -12.11000 3.50000
v 8.81000 -12.11000 3.50000
v 8.81000 -11.49000 3.50000
v 8.19000 -11.49000 3.50000
f 473 474 475 476
f 477 480 479 478
f 473 477 478 474
f 474 478 479 475
f 475 479 480 476
f 476 480 477 473
o overflight_rubble_gate
usemtl rubble
v -1.97670 -0.60247 -0.09098
v -0.74911 -0.82586 -0.01603
v -0.36222 1.33708 0.09373
v -1.58981 1.56046 0.01877
v -2.03778 -0.63708 0.80627
v -0.81019 -0.86046 0.88123
v -0.42330 1.30247 0.99098
v -1.65089 1.52586 0.91603
f 481 482 483 484
f 485 488 487 486
f 481 485 486 482
f 482 486 487 483
f 483 487 488 484
f 484 488 485 481
o underflight_hanging_gate
usemtl dark_concrete
v 3.13413 -0.81933 2.12288
v 4.30645 -1.05697 2.02698
v 4.77536 1.29483 1.93132
v 3.60304 1.53247 2.02721
v 3.22464 -0.79483 3.16868
v 4.39696 -1.03247 3.07279
v 4.86587 1.31933 2.97712
v 3.69355 1.55697 3.07302
f 489 490 491 492
f 493 496 495 494
f 489 493 494 490
f 490 494 495 491
f 491 495 496 492
f 492 496 493 489
o east_slanted_beam
usemtl rust
v 6.89008 -0.14074 2.92045
v 11.55099 0.90153 2.44125
v 11.47679 1.23333 2.44125
v 6.81589 0.19106 2.92045
v 6.92321 -0.13333 3.25875
v 11.58411 0.90894 2.77955
v 11.50992 1.24074 2.77955
v 6.84901 0.19847 3.25875
f 497 498 499 500
f 501 504 503 502
f 497 501 502 498
f 498 502 503 499
f 499 503 504 500
f 500 504 501 497
o upper_walkway_ua_u1
usemtl dark_concrete
v -2.43732 6.59858 3.24000
v 0.84230 8.89431 3.24000
v -0.56268 10.90142 3.24000
v -3.84230 8.60569 3.24000
v -2.43732 6.59858 3.48000
v 0.84230 8.89431 3.48000
v -0.56268 10.90142 3.48000
v -3.84230 8.60569 3.48000
f 505 506 507 508
f 509 512 511 510
f 505 509 510 506
f 506 510 511 507
f 507 511 512 508
f 508 512 509 505
o upper_corridor_ua_u1_left
usemtl concrete_light
v -2.88380 9.15458 3.38000
v -1.40649 10.18869 3.38000
v -1.53266 10.36892 3.38000
v -3.00996 9.33481 3.38000
v -2.88380 9.15458 5.38000
v -1.40649 10.18869 5.38000
v -1.53266 10.36892 5.38000
v -3.00996 9.33481 5.38000
f 513 514 515 516
f 517 520 519 518
f 513 517 518 514
f 514 518 519 515
f 515 519 520 516
f 516 520 517 513
o upper_corridor_ua_u1_right
usemtl concrete_light
v -1.46734 7.13108 3.38000
v 0.00996 8.16519 3.38000
v -0.11620 8.34542 3.38000
v -1.59351 7.31131 3.38000
v -1.46734 7.13108 5.38000
v 0.00996 8.16519 5.38000
v -0.11620 8.34542 5.38000
v -1.59351 7.31131 5.38000
f 521 522 523 524
f 525 528 527 526
f 521 525 526 522
f 522 526 527 523
f 523 527 528 524
f 524 528 525 521
o upper_walkway_u1_u2
usemtl dark_concrete
v 2.14810 9.36643 3.24000
v 6.05536 9.69203 3.24000
v 5.85190 12.13357 3.24000
v 1.94464 11.80797 3.24000
v 2.14810 9.36643 3.48000
v 6.05536 9.69203 3.48000
v 5.85190 12.13357 3.48000
v 1.94464 11.80797 3.48000
f 529 530 531 532
f 533 536 535 534
f 529 533 534 530
f 530 534 535 531
f 531 535 536 532
f 532 536 533 529
o upper_corridor_u1_u2_left
usemtl concrete_light
v 2.25191 11.73323 3.38000
v 5.56124 12.00900 3.38000
v 5.54297 12.22824 3.38000
v 2.23364 11.95247 3.38000
v 2.25191 11.73323 5.38000
v 5.56124 12.00900 5.38000
v 5.54297 12.22824 5.38000
v 2.23364 11.95247 5.38000
f 537 538 539 540
f 541 544 543 542
f 537 541 542 538
f 538 542 543 539
f 539 543 544 540
f 540 544 541 537
o upper_corridor_u1_u2_right
usemtl concrete_light
v 2.45703 9.27176 3.38000
v 5.76636 9.54753 3.38000
v 5.74809 9.76677 3.38000
v 2.43876 9.49100 3.38000
v 2.45703 9.27176 5.38000
v 5.76636 9.54753 5.38000
v 5.74809 9.76677 5.38000
v 2.43876 9.49100 5.38000
f 545 546 547 548
f 549 552 551 550
f 545 549 550 546
f 546 550 551 547
f 547 551 552 548
f 548 552 549 545
o upper_walkway_u2_u3
usemtl dark_concrete
v 6.98354 9.38666 3.24000
v 9.40313 7.26952 3.24000
v 11.01646 9.11334 3.24000
v 8.59687 11.23048 3.24000
v 6.98354 9.38666 3.48000
v 9.40313 7.26952 3.48000
v 11.01646 9.11334 3.48000
v 8.59687 11.23048 3.48000
f 553 554 555 556
f 557 560 559 558
f 553 557 558 554
f 554 558 559 555
f 555 559 560 556
f 556 560 557 553
o upper_corridor_u2_u3_left
usemtl concrete_light
v 9.35886 10.43086 3.38000
v 10.12278 9.76243 3.38000
v 10.26765 9.92800 3.38000
v 9.50373 10.59643 3.38000
v 9.35886 10.43086 5.38000
v 10.12278 9.76243 5.38000
v 10.26765 9.92800 5.38000
v 9.50373 10.59643 5.38000
f 561 562 563 564
f 565 568 567 566
f 561 565 566 562
f 562 566 567 563
f 563 567 568 564
f 564 568 565 561
o upper_corridor_u2_u3_right
usemtl concrete_light
v 7.73235 8.57200 3.38000
v 8.49627 7.90357 3.38000
v 8.64114 8.06914 3.38000
v 7.87722 8.73757 3.38000
v 7.73235 8.57200 5.38000
v 8.49627 7.90357 5.38000
v 8.64114 8.06914 5.38000
v 7.87722 8.73757 5.38000
f 569 570 571 572
f 573 576 575 574
f 569 573 574 570
f 570 574 575 571
f 571 575 576 572
f 572 576 573 569
o upper_walkway_u3_u4
usemtl dark_concrete
v 9.45414 7.03802 3.24000
v 8.30703 4.45702 3.24000
v 10.54586 3.46198 3.24000
v 11.69297 6.04298 3.24000
v 9.45414 7.03802 3.48000
v 8.30703 4.45702 3.48000
v 10.54586 3.46198 3.48000
v 11.69297 6.04298 3.48000
f 577 578 579 580
f 581 584 583 582
f 577 581 582 578
f 578 582 583 579
f 579 583 584 580
f 580 584 581 577
o upper_corridor_u3_u4_left
usemtl concrete_light
v 11.15484 5.07840 3.38000
v 10.90124 4.50779 3.38000
v 11.10227 4.41844 3.38000
v 11.35588 4.98905 3.38000
v 11.15484 5.07840 5.38000
v 10.90124 4.50779 5.38000
v 11.10227 4.41844 5.38000
v 11.35588 4.98905 5.38000
f 585 586 587 588
f 589 592 591 590
f 585 589 590 586
f 586 590 591 587
f 587 591 592 588
f 588 592 589 585
o upper_corridor_u3_u4_right
usemtl concrete_light
v 8.89773 6.08156 3.38000
v 8.64412 5.51095 3.38000
v 8.84516 5.42160 3.38000
v 9.09876 5.99221 3.38000
v 8.89773 6.08156 5.38000
v 8.64412 5.51095 5.38000
v 8.84516 5.42160 5.38000
v 9.09876 5.99221 5.38000
f 593 594 595 596
f 597 600 599 598
f 593 597 598 594
f 594 598 599 595
f 595 599 600 596
f 596 600 597 593
o upper_walkway_u4_uc
usemtl dark_concrete
v 7.64765 3.87992 3.24000
v 2.16274 2.27102 3.24000
v 2.85235 -0.07992 3.24000
v 8.33726 1.52898 3.24000
v 7.64765 3.87992 3.48000
v 2.16274 2.27102 3.48000
v 2.85235 -0.07992 3.48000
v 8.33726 1.52898 3.48000
f 601 602 603 604
f 605 608 607 606
f 601 605 606 602
f 602 606 607 603
f 603 607 608 604
f 604 608 605 601
o upper_corridor_u4_uc_left
usemtl concrete_light
v 7.25358 1.31532 3.38000
v 3.87973 0.32565 3.38000
v 3.94166 0.11455 3.38000
v 7.31551 1.10421 3.38000
v 7.25358 1.31532 5.38000
v 3.87973 0.32565 5.38000
v 3.94166 0.11455 5.38000
v 7.31551 1.10421 5.38000
f 609 610 611 612
f 613 616 615 614
f 609 613 614 610
f 610 614 615 611
f 611 615 616 612
f 612 616 613 609
o upper_corridor_u4_uc_right
usemtl concrete_light
v 6.55834 3.68545 3.38000
v 3.18449 2.69579 3.38000
v 3.24642 2.48468 3.38000
v 6.62027 3.47435 3.38000
v 6.55834 3.68545 5.38000
v 3.18449 2.69579 5.38000
v 3.24642 2.48468 5.38000
v 6.62027 3.47435 5.38000
f 617 618 619 620
f 621 624 623 622
f 617 621 622 618
f 618 622 623 619
f 619 623 624 620
f 620 624 621 617
o upper_walkway_uc_ua
usemtl dark_concrete
v 1.71960 2.39841 3.24000
v -2.38681 7.02745 3.24000
v -4.21960 5.40159 3.24000
v -0.11319 0.77255 3.24000
v 1.71960 2.39841 3.48000
v -2.38681 7.02745 3.48000
v -4.21960 5.40159 3.48000
v -0.11319 0.77255 3.48000
f 625 626 627 628
f 629 632 631 630
f 625 629 630 626
f 626 630 631 627
f 627 631 632 628
f 628 632 629 625
o upper_corridor_uc_ua_left
usemtl concrete_light
v -0.76836 1.66179 3.38000
v -3.41481 4.64507 3.38000
v -3.57939 4.49908 3.38000
v -0.93293 1.51580 3.38000
v -0.76836 1.66179 5.38000
v -3.41481 4.64507 5.38000
v -3.57939 4.49908 5.38000
v -0.93293 1.51580 5.38000
f 633 634 635 636
f 637 640 639 638
f 633 637 638 634
f 634 638 639 635
f 635 639 640 636
f 636 640 637 633
o upper_corridor_uc_ua_right
usemtl concrete_light
v 1.07939 3.30092 3.38000
v -1.56707 6.28420 3.38000
v -1.73164 6.13821 3.38000
v 0.91481 3.15493 3.38000
v 1.07939 3.30092 5.38000
v -1.56707 6.28420 5.38000
v -1.73164 6.13821 5.38000
v 0.91481 3.15493 5.38000
f 641 642 643 644
f 645 648 647 646
f 641 645 646 642
f 642 646 647 643
f 643 647 648 644
f 644 648 645 641
o upper_walkway_uc_u5
usemtl dark_concrete
v 1.51188 -0.81338 3.24000
v 4.40742 -3.25850 3.24000
v 5.98812 -1.38662 3.24000
v 3.09258 1.05850 3.24000
v 1.51188 -0.81338 3.48000
v 4.40742 -3.25850 3.48000
v 5.98812 -1.38662 3.48000
v 3.09258 1.05850 3.48000
f 649 650 651 652
f 653 656 655 654
f 649 653 654 650
f 650 654 655 651
f 651 655 656 652
f 652 656 653 649
o upper_corridor_uc_u5_left
usemtl concrete_light
v 3.86849 0.27239 3.38000
v 5.08316 -0.75333 3.38000
v 5.22510 -0.58524 3.38000
v 4.01043 0.44048 3.38000
v 3.86849 0.27239 5.38000
v 5.08316 -0.75333 5.38000
v 5.22510 -0.58524 5.38000
v 4.01043 0.44048 5.38000
f 657 658 659 660
f 661 664 663 662
f 657 661 662 658
f 658 662 663 659
f 659 663 664 660
f 660 664 661 657
o upper_corridor_uc_u5_right
usemtl concrete_light
v 2.27490 -1.61476 3.38000
v 3.48957 -2.64048 3.38000
v 3.63151 -2.47239 3.38000
v 2.41684 -1.44667 3.38000
v 2.27490 -1.61476 5.38000
v 3.48957 -2.64048 5.38000
v 3.63151 -2.47239 5.38000
v 2.41684 -1.44667 5.38000
f 665 666 667 668
f 669 672 671 670
f 665 669 670 666
f 666 670 671 667
f 667 671 672 668
f 668 672 669 665
o upper_walkway_u5_u6
usemtl dark_concrete
v 6.39131 -4.56525 3.24000
v 9.51301 -6.12610 3.24000
v 10.60869 -3.93475 3.24000
v 7.48699 -2.37390 3.24000
v 6.39131 -4.56525 3.48000
v 9.51301 -6.12610 3.48000
v 10.60869 -3.93475 3.48000
v 7.48699 -2.37390 3.48000
f 673 674 675 676
f 677 680 679 678
f 673 677 678 674
f 674 678 679 675
f 675 679 680 676
f 676 680 677 673
o upper_corridor_u5_u6_left
usemtl concrete_light
v 7.71059 -2.59751 3.38000
v 10.29564 -3.89003 3.38000
v 10.39403 -3.69326 3.38000
v 7.80898 -2.40073 3.38000
v 7.71059 -2.59751 5.38000
v 10.29564 -3.89003 5.38000
v 10.39403 -3.69326 5.38000
v 7.80898 -2.40073 5.38000
f 681 682 683 684
f 685 688 687 686
f 681 685 686 682
f 682 686 687 683
f 683 687 688 684
f 684 688 685 681
o upper_corridor_u5_u6_right
usemtl concrete_light
v 6.60597 -4.80674 3.38000
v 9.19102 -6.09927 3.38000
v 9.28941 -5.90249 3.38000
v 6.70436 -4.60997 3.38000
v 6.60597 -4.80674 5.38000
v 9.19102 -6.09927 5.38000
v 9.28941 -5.90249 5.38000
v 6.70436 -4.60997 5.38000
f 689 690 691 692
f 693 696 695 694
f 689 693 694 690
f 690 694 695 691
f 691 695 696 692
f 692 696 693 689
o upper_walkway_u6_ub
usemtl dark_concrete
v 11.27011 -7.09065 3.24000
v 14.46938 -9.01021 3.24000
v 15.72989 -6.90935 3.24000
v 12.53062 -4.98979 3.24000
v 11.27011 -7.09065 3.48000
v 14.46938 -9.01021 3.48000
v 15.72989 -6.90935 3.48000
v 12.53062 -4.98979 3.48000
f 697 698 699 700
f 701 704 703 702
f 697 701 702 698
f 698 702 703 699
f 699 703 704 700
f 700 704 701 697
o upper_corridor_u6_ub_left
usemtl concrete_light
v 12.73642 -5.22989 3.38000
v 15.42119 -6.84075 3.38000
v 15.53438 -6.65210 3.38000
v 12.84961 -5.04124 3.38000
v 12.73642 -5.22989 5.38000
v 15.42119 -6.84075 5.38000
v 15.53438 -6.65210 5.38000
v 12.84961 -5.04124 5.38000
f 705 706 707 708
f 709 712 711 710
f 705 709 710 706
f 706 710 711 707
f 707 711 712 708
f 708 712 709 705
o upper_corridor_u6_ub_right
usemtl concrete_light
v 11.46562 -7.34790 3.38000
v 14.15039 -8.95876 3.38000
v 14.26358 -8.77011 3.38000
v 11.57881 -7.15925 3.38000
v 11.46562 -7.34790 5.38000
v 14.15039 -8.95876 5.38000
v 14.26358 -8.77011 5.38000
v 11.57881 -7.15925 5.38000
f 713 714 715 716
f 717 720 719 718
f 713 717 718 714
f 714 718 719 715
f 715 719 720 716
f 716 720 717 713
o upper_walkway_u3_upper_dead
usemtl dark_concrete
v 10.96098 5.88705 3.24000
v 14.40006 2.79188 3.24000
v 16.03902 4.61295 3.24000
v 12.59994 7.70812 3.24000
v 10.96098 5.88705 3.48000
v 14.40006 2.79188 3.48000
v 16.03902 4.61295 3.48000
v 12.59994 7.70812 3.48000
f 721 722 723 724
f 725 728 727 726
f 721 725 726 722
f 722 726 727 723
f 723 727 728 724
f 724 728 725 721
o upper_corridor_u3_upper_dead_left
usemtl concrete_light
v 13.35067 6.89793 3.38000
v 15.15450 5.27448 3.38000
v 15.30168 5.43800 3.38000
v 13.49784 7.06146 3.38000
v 13.35067 6.89793 5.38000
v 15.15450 5.27448 5.38000
v 15.30168 5.43800 5.38000
v 13.49784 7.06146 5.38000
f 729 730 731 732
f 733 736 735 734
f 729 733 734 730
f 730 734 735 731
f 731 735 736 732
f 732 736 733 729
o upper_corridor_u3_upper_dead_right
usemtl concrete_light
v 11.69832 5.06200 3.38000
v 13.50216 3.43854 3.38000
v 13.64933 3.60207 3.38000
v 11.84550 5.22552 3.38000
v 11.69832 5.06200 5.38000
v 13.50216 3.43854 5.38000
v 13.64933 3.60207 5.38000
v 11.84550 5.22552 5.38000
f 737 738 739 740
f 741 744 743 742
f 737 741 742 738
f 738 742 743 739
f 739 743 744 740
f 740 744 741 737
o upper_node_platform_u1
usemtl dark_concrete
v -0.25000 9.25000 3.24000
v 2.25000 9.25000 3.24000
v 2.25000 11.75000 3.24000
v -0.25000 11.75000 3.24000
v -0.25000 9.25000 3.48000
v 2.25000 9.25000 3.48000
v 2.25000 11.75000 3.48000
v -0.25000 11.75000 3.48000
f 745 746 747 748
f 749 752 751 750
f 745 749 750 746
f 746 750 751 747
f 747 751 752 748
f 748 752 749 745
o upper_node_platform_u2
usemtl dark_concrete
v 5.75000 9.75000 3.24000
v 8.25000 9.75000 3.24000
v 8.25000 12.25000 3.24000
v 5.75000 12.25000 3.24000
v 5.75000 9.75000 3.48000
v 8.25000 9.75000 3.48000
v 8.25000 12.25000 3.48000
v 5.75000 12.25000 3.48000
f 753 754 755 756
f 757 760 759 758
f 753 757 758 754
f 754 758 759 755
f 755 759 760 756
f 756 760 757 753
o upper_node_platform_u3
usemtl dark_concrete
v 9.75000 6.25000 3.24000
v 12.25000 6.25000 3.24000
v 12.25000 8.75000 3.24000
v 9.75000 8.75000 3.24000
v 9.75000 6.25000 3.48000
v 12.25000 6.25000 3.48000
v 12.25000 8.75000 3.48000
v 9.75000 8.75000 3.48000
f 761 762 763 764
f 765 768 767 766
f 761 765 766 762
f 762 766 767 763
f 763 767 768 764
f 764 768 765 761
o upper_node_platform_u4
usemtl dark_concrete
v 7.75000 1.75000 3.24000
v 10.25000 1.75000 3.24000
v 10.25000 4.25000 3.24000
v 7.75000 4.25000 3.24000
v 7.75000 1.75000 3.48000
v 10.25000 1.75000 3.48000
v 10.25000 4.25000 3.48000
v 7.75000 4.25000 3.48000
f 769 770 771 772
f 773 776 775 774
f 769 773 774 770
f 770 774 775 771
f 771 775 776 772
f 772 776 773 769
o upper_node_platform_u5
usemtl dark_concrete
v 4.75000 -4.25000 3.24000
v 7.25000 -4.25000 3.24000
v 7.25000 -1.75000 3.24000
v 4.75000 -1.75000 3.24000
v 4.75000 -4.25000 3.48000
v 7.25000 -4.25000 3.48000
v 7.25000 -1.75000 3.48000
v 4.75000 -1.75000 3.48000
f 777 778 779 780
f 781 784 783 782
f 777 781 782 778
f 778 782 783 779
f 779 783 784 780
f 780 784 781 777
o upper_node_platform_u6
usemtl dark_concrete
v 9.75000 -6.75000 3.24000
v 12.25000 -6.75000 3.24000
v 12.25000 -4.25000 3.24000
v 9.75000 -4.25000 3.24000
v 9.75000 -6.75000 3.48000
v 12.25000 -6.75000 3.48000
v 12.25000 -4.25000 3.48000
v 9.75000 -4.25000 3.48000
f 785 786 787 788
f 789 792 791 790
f 785 789 790 786
f 786 790 791 787
f 787 791 792 788
f 788 792 789 785
o upper_node_platform_upper_dead
usemtl dark_concrete
v 14.75000 1.75000 3.24000
v 17.25000 1.75000 3.24000
v 17.25000 4.25000 3.24000
v 14.75000 4.25000 3.24000
v 14.75000 1.75000 3.48000
v 17.25000 1.75000 3.48000
v 17.25000 4.25000 3.48000
v 14.75000 4.25000 3.48000
f 793 794 795 796
f 797 800 799 798
f 793 797 798 794
f 794 798 799 795
f 795 799 800 796
f 796 800 797 793
o connector_01_frame_0
usemtl rust
v -5.46000 5.65000 3.34000
v -5.24000 5.65000 3.34000
v -5.24000 8.35000 3.34000
v -5.46000 8.35000 3.34000
v -5.46000 5.65000 3.76000
v -5.24000 5.65000 3.76000
v -5.24000 8.35000 3.76000
v -5.46000 8.35000 3.76000
f 801 802 803 804
f 805 808 807 806
f 801 805 806 802
f 802 806 807 803
f 803 807 808 804
f 804 808 805 801
o connector_01_frame_1
usemtl rust
v -2.76000 5.65000 3.34000
v -2.54000 5.65000 3.34000
v -2.54000 8.35000 3.34000
v -2.76000 8.35000 3.34000
v -2.76000 5.65000 3.76000
v -2.54000 5.65000 3.76000
v -2.54000 8.35000 3.76000
v -2.76000 8.35000 3.76000
f 809 810 811 812
f 813 816 815 814
f 809 813 814 810
f 810 814 815 811
f 811 815 816 812
f 812 816 813 809
o connector_01_frame_3
usemtl rust
v -5.35000 8.24000 3.34000
v -2.65000 8.24000 3.34000
v -2.65000 8.46000 3.34000
v -5.35000 8.46000 3.34000
v -5.35000 8.24000 3.76000
v -2.65000 8.24000 3.76000
v -2.65000 8.46000 3.76000
v -5.35000 8.46000 3.76000
f 817 818 819 820
f 821 824 823 822
f 817 821 822 818
f 818 822 823 819
f 819 823 824 820
f 820 824 821 817
o connector_02_frame_0
usemtl rust
v 0.04000 -0.55000 3.34000
v 0.26000 -0.55000 3.34000
v 0.26000 2.15000 3.34000
v 0.04000 2.15000 3.34000
v 0.04000 -0.55000 3.76000
v 0.26000 -0.55000 3.76000
v 0.26000 2.15000 3.76000
v 0.04000 2.15000 3.76000
f 825 826 827 828
f 829 832 831 830
f 825 829 830 826
f 826 830 831 827
f 827 831 832 828
f 828 832 829 825
o connector_02_frame_1
usemtl rust
v 2.74000 -0.55000 3.34000
v 2.96000 -0.55000 3.34000
v 2.96000 2.15000 3.34000
v 2.74000 2.15000 3.34000
v 2.74000 -0.55000 3.76000
v 2.96000 -0.55000 3.76000
v 2.96000 2.15000 3.76000
v 2.74000 2.15000 3.76000
f 833 834 835 836
f 837 840 839 838
f 833 837 838 834
f 834 838 839 835
f 835 839 840 836
f 836 840 837 833
o connector_02_frame_3
usemtl rust
v 0.15000 2.04000 3.34000
v 2.85000 2.04000 3.34000
v 2.85000 2.26000 3.34000
v 0.15000 2.26000 3.34000
v 0.15000 2.04000 3.76000
v 2.85000 2.04000 3.76000
v 2.85000 2.26000 3.76000
v 0.15000 2.26000 3.76000
f 841 842 843 844
f 845 848 847 846
f 841 845 846 842
f 842 846 847 843
f 843 847 848 844
f 844 848 845 841
o connector_03_frame_0
usemtl rust
v 14.54000 -9.85000 3.34000
v 14.76000 -9.85000 3.34000
v 14.76000 -7.15000 3.34000
v 14.54000 -7.15000 3.34000
v 14.54000 -9.85000 3.76000
v 14.76000 -9.85000 3.76000
v 14.76000 -7.15000 3.76000
v 14.54000 -7.15000 3.76000
f 849 850 851 852
f 853 856 855 854
f 849 853 854 850
f 850 854 855 851
f 851 855 856 852
f 852 856 853 849
o connector_03_frame_1
usemtl rust
v 17.24000 -9.85000 3.34000
v 17.46000 -9.85000 3.34000
v 17.46000 -7.15000 3.34000
v 17.24000 -7.15000 3.34000
v 17.24000 -9.85000 3.76000
v 17.46000 -9.85000 3.76000
v 17.46000 -7.15000 3.76000
v 17.24000 -7.15000 3.76000
f 857 858 859 860
f 861 864 863 862
f 857 861 862 858
f 858 862 863 859
f 859 863 864 860
f 860 864 861 857
o connector_03_frame_3
usemtl rust
v 14.65000 -7.26000 3.34000
v 17.35000 -7.26000 3.34000
v 17.35000 -7.04000 3.34000
v 14.65000 -7.04000 3.34000
v 14.65000 -7.26000 3.76000
v 17.35000 -7.26000 3.76000
v 17.35000 -7.04000 3.76000
v 14.65000 -7.04000 3.76000
f 865 866 867 868
f 869 872 871 870
f 865 869 870 866
f 866 870 871 867
f 867 871 872 868
f 868 872 869 865
o complex_random_column_00
usemtl concrete
v -16.55871 -11.12694 0.00000
v -16.07851 -11.12694 0.00000
v -16.07851 -10.67484 0.00000
v -16.55871 -10.67484 0.00000
v -16.55871 -11.12694 3.81018
v -16.07851 -11.12694 3.81018
v -16.07851 -10.67484 3.81018
v -16.55871 -10.67484 3.81018
f 873 874 875 876
f 877 880 879 878
f 873 877 878 874
f 874 878 879 875
f 875 879 880 876
f 876 880 877 873
o complex_random_column_01
usemtl concrete
v -7.60166 -6.91603 0.00000
v -6.81737 -6.91603 0.00000
v -6.81737 -6.43264 0.00000
v -7.60166 -6.43264 0.00000
v -7.60166 -6.91603 3.59988
v -6.81737 -6.91603 3.59988
v -6.81737 -6.43264 3.59988
v -7.60166 -6.43264 3.59988
f 881 882 883 884
f 885 888 887 886
f 881 885 886 882
f 882 886 887 883
f 883 887 888 884
f 884 888 885 881
o complex_random_column_02
usemtl concrete
v 7.72229 6.02832 0.00000
v 8.23486 6.02832 0.00000
v 8.23486 6.61639 0.00000
v 7.72229 6.61639 0.00000
v 7.72229 6.02832 3.05727
v 8.23486 6.02832 3.05727
v 8.23486 6.61639 3.05727
v 7.72229 6.61639 3.05727
f 889 890 891 892
f 893 896 895 894
f 889 893 894 890
f 890 894 895 891
f 891 895 896 892
f 892 896 893 889
o complex_random_column_03
usemtl concrete
v 11.63729 -12.36468 0.00000
v 12.32706 -12.36468 0.00000
v 12.32706 -11.83673 0.00000
v 11.63729 -11.83673 0.00000
v 11.63729 -12.36468 3.62745
v 12.32706 -12.36468 3.62745
v 12.32706 -11.83673 3.62745
v 11.63729 -11.83673 3.62745
f 897 898 899 900
f 901 904 903 902
f 897 901 902 898
f 898 902 903 899
f 899 903 904 900
f 900 904 901 897
o complex_random_column_04
usemtl concrete
v 10.71993 -9.91670 0.00000
v 11.47572 -9.91670 0.00000
v 11.47572 -9.28432 0.00000
v 10.71993 -9.28432 0.00000
v 10.71993 -9.91670 3.49127
v 11.47572 -9.91670 3.49127
v 11.47572 -9.28432 3.49127
v 10.71993 -9.28432 3.49127
f 905 906 907 908
f 909 912 911 910
f 905 909 910 906
f 906 910 911 907
f 907 911 912 908
f 908 912 909 905
o complex_random_column_05
usemtl concrete
v -11.64951 -10.98344 0.00000
v -10.85642 -10.98344 0.00000
v -10.85642 -10.13811 0.00000
v -11.64951 -10.13811 0.00000
v -11.64951 -10.98344 3.64828
v -10.85642 -10.98344 3.64828
v -10.85642 -10.13811 3.64828
v -11.64951 -10.13811 3.64828
f 913 914 915 916
f 917 920 919 918
f 913 917 918 914
f 914 918 919 915
f 915 919 920 916
f 916 920 917 913
o complex_random_column_06
usemtl concrete
v -12.41407 -8.17611 0.00000
v -11.64964 -8.17611 0.00000
v -11.64964 -7.58806 0.00000
v -12.41407 -7.58806 0.00000
v -12.41407 -8.17611 2.68007
v -11.64964 -8.17611 2.68007
v -11.64964 -7.58806 2.68007
v -12.41407 -7.58806 2.68007
f 921 922 923 924
f 925 928 927 926
f 921 925 926 922
f 922 926 927 923
f 923 927 928 924
f 924 928 925 921
o complex_random_column_07
usemtl concrete
v 15.71029 -1.98444 0.00000
v 16.17512 -1.98444 0.00000
v 16.17512 -1.11628 0.00000
v 15.71029 -1.11628 0.00000
v 15.71029 -1.98444 3.58084
v 16.17512 -1.98444 3.58084
v 16.17512 -1.11628 3.58084
v 15.71029 -1.11628 3.58084
f 929 930 931 932
f 933 936 935 934
f 929 933 934 930
f 930 934 935 931
f 931 935 936 932
f 932 936 933 929
o complex_random_column_08
usemtl concrete
v 10.41767 -3.47119 0.00000
v 11.17595 -3.47119 0.00000
v 11.17595 -2.63008 0.00000
v 10.41767 -2.63008 0.00000
v 10.41767 -3.47119 2.64890
v 11.17595 -3.47119 2.64890
v 11.17595 -2.63008 2.64890
v 10.41767 -2.63008 2.64890
f 937 938 939 940
f 941 944 943 942
f 937 941 942 938
f 938 942 943 939
f 939 943 944 940
f 940 944 941 937
o complex_random_column_09
usemtl concrete
v 0.12316 8.10135 0.00000
v 0.94460 8.10135 0.00000
v 0.94460 8.97783 0.00000
v 0.12316 8.97783 0.00000
v 0.12316 8.10135 3.26475
v 0.94460 8.10135 3.26475
v 0.94460 8.97783 3.26475
v 0.12316 8.97783 3.26475
f 945 946 947 948
f 949 952 951 950
f 945 949 950 946
f 946 950 951 947
f 947 951 952 948
f 948 952 949 945
o complex_random_column_10
usemtl concrete
v 2.52629 -8.01189 0.00000
v 3.33232 -8.01189 0.00000
v 3.33232 -7.21928 0.00000
v 2.52629 -7.21928 0.00000
v 2.52629 -8.01189 2.47398
v 3.33232 -8.01189 2.47398
v 3.33232 -7.21928 2.47398
v 2.52629 -7.21928 2.47398
f 953 954 955 956
f 957 960 959 958
f 953 957 958 954
f 954 958 959 955
f 955 959 960 956
f 956 960 957 953
o complex_random_column_11
usemtl concrete
v -7.62138 7.53531 0.00000
v -6.84149 7.53531 0.00000
v -6.84149 8.28327 0.00000
v -7.62138 8.28327 0.00000
v -7.62138 7.53531 2.44261
v -6.84149 7.53531 2.44261
v -6.84149 8.28327 2.44261
v -7.62138 8.28327 2.44261
f 961 962 963 964
f 965 968 967 966
f 961 965 966 962
f 962 966 967 963
f 963 967 968 964
f 964 968 965 961
o complex_random_column_12
usemtl concrete
v 3.80984 8.54658 0.00000
v 4.54108 8.54658 0.00000
v 4.54108 9.33953 0.00000
v 3.80984 9.33953 0.00000
v 3.80984 8.54658 3.46498
v 4.54108 8.54658 3.46498
v 4.54108 9.33953 3.46498
v 3.80984 9.33953 3.46498
f 969 970 971 972
f 973 976 975 974
f 969 973 974 970
f 970 974 975 971
f 971 975 976 972
f 972 976 973 969
o complex_random_column_13
usemtl concrete
v -18.51643 -3.07962 0.00000
v -17.72749 -3.07962 0.00000
v -17.72749 -2.19647 0.00000
v -18.51643 -2.19647 0.00000
v -18.51643 -3.07962 2.66618
v -17.72749 -3.07962 2.66618
v -17.72749 -2.19647 2.66618
v -18.51643 -2.19647 2.66618
f 977 978 979 980
f 981 984 983 982
f 977 981 982 978
f 978 982 983 979
f 979 983 984 980
f 980 984 981 977
o complex_rubble_000
usemtl brick
v 4.36316 5.07932 0.03211
v 3.94080 5.90365 -0.06728
v 2.94191 5.39623 -0.03092
v 3.36427 4.57190 0.06847
v 4.35944 5.10018 0.22093
v 3.93707 5.92451 0.12154
v 2.93818 5.41709 0.15790
v 3.36054 4.59276 0.25729
f 985 986 987 988
f 989 992 991 990
f 985 989 990 986
f 986 990 991 987
f 987 991 992 988
f 988 992 989 985
o complex_rubble_001
usemtl rubble
v 4.27566 -9.17662 -0.03152
v 4.69778 -8.48049 0.05587
v 4.40597 -8.30132 0.03814
v 3.98385 -8.99744 -0.04925
v 4.18213 -9.23680 0.89952
v 4.60426 -8.54067 0.98692
v 4.31245 -8.36149 0.96919
v 3.89033 -9.05762 0.88179
f 993 994 995 996
f 997 1000 999 998
f 993 997 998 994
f 994 998 999 995
f 995 999 1000 996
f 996 1000 997 993
o complex_rubble_002
usemtl rubble
v 15.35516 -4.76236 0.05990
v 15.43998 -4.16174 -0.03820
v 15.01010 -4.10286 -0.04933
v 14.92529 -4.70347 0.04877
v 15.35243 -4.63242 0.85312
v 15.43724 -4.03180 0.75502
v 15.00737 -3.97291 0.74389
v 14.92255 -4.57353 0.84199
f 1001 1002 1003 1004
f 1005 1008 1007 1006
f 1001 1005 1006 1002
f 1002 1006 1007 1003
f 1003 1007 1008 1004
f 1004 1008 1005 1001
o complex_rubble_003
usemtl rubble
v 16.18717 -6.21828 0.08221
v 15.74964 -5.66096 -0.01790
v 15.21703 -6.08858 -0.07073
v 15.65455 -6.64590 0.02938
v 16.05545 -6.16320 0.96449
v 15.61792 -5.60588 0.86438
v 15.08530 -6.03351 0.81156
v 15.52283 -6.59082 0.91167
f 1009 1010 1011 1012
f 1013 1016 1015 1014
f 1009 1013 1014 1010
f 1010 1014 1015 1011
f 1011 1015 1016 1012
f 1012 1016 1013 1009
o complex_rubble_004
usemtl brick
v -9.00189 10.63189 0.03757
v -9.00738 11.36003 -0.05269
v -9.41257 11.35957 -0.03178
v -9.40709 10.63144 0.05848
v -8.96883 10.71178 0.67999
v -8.97431 11.43992 0.58973
v -9.37951 11.43946 0.61064
v -9.37403 10.71132 0.70090
f 1017 1018 1019 1020
f 1021 1024 1023 1022
f 1017 1021 1022 1018
f 1018 1022 1023 1019
f 1019 1023 1024 1020
f 1020 1024 1021 1017
o complex_rubble_005
usemtl rubble
v -18.23719 8.94190 -0.06143
v -17.90202 9.12779 -0.06878
v -18.49568 10.20343 0.06523
v -18.83085 10.01753 0.07257
v -18.19397 8.88847 0.55883
v -17.85880 9.07437 0.55148
v -18.45246 10.15001 0.68549
v -18.78763 9.96411 0.69284
f 1025 1026 1027 1028
f 1029 1032 1031 1030
f 1025 1029 1030 1026
f 1026 1030 1031 1027
f 1027 1031 1032 1028
f 1028 1032 1029 1025
o complex_rubble_006
usemtl rubble
v 18.71609 -1.05454 -0.02886
v 19.19557 -1.01856 -0.04698
v 19.10780 0.19024 0.03130
v 18.62833 0.15425 0.04943
v 18.75317 -1.10844 0.84502
v 19.23264 -1.07246 0.82689
v 19.14488 0.13634 0.90517
v 18.66541 0.10035 0.92330
f 1033 1034 1035 1036
f 1037 1040 1039 1038
f 1033 1037 1038 1034
f 1034 1038 1039 1035
f 1035 1039 1040 1036
f 1036 1040 1037 1033
o complex_rubble_007
usemtl soil
v -3.13173 10.16351 0.03775
v -3.07695 10.59942 0.04280
v -3.59652 10.66554 -0.02866
v -3.65129 10.22963 -0.03371
v -3.26493 10.16898 1.01131
v -3.21015 10.60489 1.01635
v -3.72972 10.67100 0.94489
v -3.78450 10.23509 0.93985
f 1041 1042 1043 1044
f 1045 1048 1047 1046
f 1041 1045 1046 1042
f 1042 1046 1047 1043
f 1043 1047 1048 1044
f 1044 1048 1045 1041
o complex_rubble_008
usemtl brick
v -2.21852 -4.93855 0.00249
v -2.63175 -4.64119 -0.01778
v -2.90889 -5.02519 -0.00111
v -2.49566 -5.32255 0.01916
v -2.22998 -4.88788 0.97959
v -2.64321 -4.59052 0.95932
v -2.92035 -4.97452 0.97599
v -2.50712 -5.27187 0.99625
f 1049 1050 1051 1052
f 1053 1056 1055 1054
f 1049 1053 1054 1050
f 1050 1054 1055 1051
f 1051 1055 1056 1052
f 1052 1056 1053 1049
o complex_rubble_009
usemtl rubble
v 13.62334 -12.55151 0.10525
v 13.83465 -11.27110 -0.06528
v 13.51343 -11.22263 -0.09939
v 13.30212 -12.50304 0.07114
v 13.58877 -12.49101 0.51669
v 13.80008 -11.21060 0.34616
v 13.47886 -11.16213 0.31205
v 13.26755 -12.44254 0.48258
f 1057 1058 1059 1060
f 1061 1064 1063 1062
f 1057 1061 1062 1058
f 1058 1062 1063 1059
f 1059 1063 1064 1060
f 1060 1064 1061 1057
o complex_rubble_010
usemtl rubble
v 12.87179 10.45521 0.02720
v 12.26404 10.76732 -0.00876
v 11.73309 9.73144 -0.02597
v 12.34084 9.41934 0.00999
v 12.82772 10.46414 0.84968
v 12.21996 10.77625 0.81373
v 11.68902 9.74037 0.79652
v 12.29677 9.42827 0.83248
f 1065 1066 1067 1068
f 1069 1072 1071 1070
f 1065 1069 1070 1066
f 1066 1070 1071 1067
f 1067 1071 1072 1068
f 1068 1072 1069 1065
o complex_rubble_011
usemtl rubble
v 12.33619 -12.88923 -0.06146
v 12.71253 -12.30875 0.02561
v 12.31477 -12.05842 0.07589
v 11.93843 -12.63890 -0.01119
v 12.36006 -13.06222 0.98867
v 12.73639 -12.48174 1.07574
v 12.33863 -12.23141 1.12602
v 11.96230 -12.81189 1.03894
f 1073 1074 1075 1076
f 1077 1080 1079 1078
f 1073 1077 1078 1074
f 1074 1078 1079 1075
f 1075 1079 1080 1076
f 1076 1080 1077 1073
o complex_rubble_012
usemtl brick
v -6.71138 10.47267 -0.01317
v -6.97783 10.88074 -0.04060
v -7.28455 10.68450 0.01953
v -7.01810 10.27643 0.04696
v -6.66619 10.53031 0.40549
v -6.93265 10.93838 0.37806
v -7.23937 10.74215 0.43818
v -6.97291 10.33408 0.46561
f 1081 1082 1083 1084
f 1085 1088 1087 1086
f 1081 1085 1086 1082
f 1082 1086 1087 1083
f 1083 1087 1088 1084
f 1084 1088 1085 1081
o complex_rubble_013
usemtl rubble
v -12.10803 -4.36239 0.01949
v -12.79618 -3.30941 0.06752
v -13.58848 -3.82333 -0.01742
v -12.90033 -4.87631 -0.06546
v -12.13164 -4.39758 0.45260
v -12.81979 -3.34460 0.50064
v -13.61209 -3.85852 0.41569
v -12.92394 -4.91149 0.36766
f 1089 1090 1091 1092
f 1093 1096 1095 1094
f 1089 1093 1094 1090
f 1090 1094 1095 1091
f 1091 1095 1096 1092
f 1092 1096 1093 1089
o complex_rubble_014
usemtl soil
v -0.64896 7.13300 -0.04708
v -1.08265 7.23507 -0.01259
v -1.18636 6.76988 0.05993
v -0.75267 6.66782 0.02544
v -0.55182 7.24848 0.83256
v -0.98551 7.35054 0.86705
v -1.08922 6.88536 0.93957
v -0.65553 6.78329 0.90508
f 1097 1098 1099 1100
f 1101 1104 1103 1102
f 1097 1101 1102 1098
f 1098 1102 1103 1099
f 1099 1103 1104 1100
f 1100 1104 1101 1097
o complex_rubble_015
usemtl rubble
v 13.48676 7.77271 0.08071
v 14.09588 8.13703 -0.02842
v 13.78157 8.64914 -0.07313
v 13.17245 8.28481 0.03600
v 13.53495 7.84759 0.59971
v 14.14407 8.21192 0.49058
v 13.82976 8.72403 0.44588
v 13.22064 8.35970 0.55501
f 1105 1106 1107 1108
f 1109 1112 1111 1110
f 1105 1109 1110 1106
f 1106 1110 1111 1107
f 1107 1111 1112 1108
f 1108 1112 1109 1105
o complex_rubble_016
usemtl brick
v 15.31009 -4.17893 -0.10753
v 15.18679 -3.35994 0.04148
v 13.90681 -3.56605 0.11520
v 14.03011 -4.38504 -0.03381
v 15.34676 -4.25205 0.32468
v 15.22346 -3.43306 0.47369
v 13.94348 -3.63917 0.54740
v 14.06678 -4.45816 0.39839
f 1113 1114 1115 1116
f 1117 1120 1119 1118
f 1113 1117 1118 1114
f 1114 1118 1119 1115
f 1115 1119 1120 1116
f 1116 1120 1117 1113
o complex_rubble_017
usemtl rubble
v -3.82220 11.71822 -0.00311
v -2.79665 12.14494 0.04926
v -2.94881 12.51573 0.00780
v -3.97437 12.08901 -0.04457
v -3.88264 11.77450 0.72200
v -2.85709 12.20121 0.77436
v -3.00925 12.57201 0.73290
v -4.03481 12.14529 0.68053
f 1121 1122 1123 1124
f 1125 1128 1127 1126
f 1121 1125 1126 1122
f 1122 1126 1127 1123
f 1123 1127 1128 1124
f 1124 1128 1125 1121
o complex_rubble_018
usemtl rubble
v -6.88024 2.16106 -0.01021
v -6.54987 2.83897 -0.10342
v -7.71434 3.42374 0.02225
v -8.04471 2.74583 0.11546
v -6.74169 2.22752 0.96427
v -6.41132 2.90543 0.87106
v -7.57580 3.49020 0.99673
v -7.90617 2.81230 1.08994
f 1129 1130 1131 1132
f 1133 1136 1135 1134
f 1129 1133 1134 1130
f 1130 1134 1135 1131
f 1131 1135 1136 1132
f 1132 1136 1133 1129
o complex_rubble_019
usemtl rubble
v 3.06769 -10.73434 0.01678
v 1.45014 -10.64655 0.04479
v 1.42508 -11.09095 -0.00981
v 3.04263 -11.17874 -0.03782
v 3.07736 -10.84682 0.92788
v 1.45981 -10.75903 0.95589
v 1.43475 -11.20344 0.90129
v 3.05230 -11.29122 0.87328
f 1137 1138 1139 1140
f 1141 1144 1143 1142
f 1137 1141 1142 1138
f 1138 1142 1143 1139
f 1139 1143 1144 1140
f 1140 1144 1141 1137
o complex_rubble_020
usemtl brick
v 12.07215 13.48771 0.07607
v 12.25818 13.79333 0.08821
v 11.33547 14.36107 -0.06473
v 11.14944 14.05545 -0.07686
v 11.92275 13.53578 1.15588
v 12.10878 13.84140 1.16802
v 11.18607 14.40914 1.01508
v 11.00004 14.10352 1.00295
f 1145 1146 1147 1148
f 1149 1152 1151 1150
f 1145 1149 1150 1146
f 1146 1150 1151 1147
f 1147 1151 1152 1148
f 1148 1152 1149 1145
o complex_rubble_021
usemtl soil
v -0.19757 -1.84440 -0.03439
v -0.45258 -1.21572 0.01395
v -0.73847 -1.33353 0.03806
v -0.48346 -1.96221 -0.01028
v -0.13236 -1.86840 0.62173
v -0.38737 -1.23972 0.67007
v -0.67325 -1.35753 0.69418
v -0.41824 -1.98621 0.64583
f 1153 1154 1155 1156
f 1157 1160 1159 1158
f 1153 1157 1158 1154
f 1154 1158 1159 1155
f 1155 1159 1160 1156
f 1156 1160 1157 1153
o complex_rubble_022
usemtl rubble
v -4.46342 -5.67505 0.07464
v -3.73773 -4.99087 -0.10648
v -4.63494 -4.02725 -0.06121
v -5.36062 -4.71144 0.11992
v -4.33956 -5.59691 0.86608
v -3.61387 -4.91272 0.68495
v -4.51108 -3.94911 0.73023
v -5.23676 -4.63329 0.91135
f 1161 1162 1163 1164
f 1165 1168 1167 1166
f 1161 1165 1166 1162
f 1162 1166 1167 1163
f 1163 1167 1168 1164
f 1164 1168 1165 1161
o complex_rubble_023
usemtl rubble
v -16.11692 -0.87219 0.07476
v -16.50251 -0.62864 0.07965
v -17.14721 -1.64637 -0.06776
v -16.76162 -1.88992 -0.07264
v -16.16938 -0.97393 1.00665
v -16.55497 -0.73038 1.01154
v -17.19967 -1.74812 0.86413
v -16.81408 -1.99167 0.85924
f 1169 1170 1171 1172
f 1173 1176 1175 1174
f 1169 1173 1174 1170
f 1170 1174 1175 1171
f 1171 1175 1176 1172
f 1172 1176 1173 1169
o complex_rubble_024
usemtl brick
v 1.26902 4.43236 0.03233
v 0.66450 5.02534 0.07806
v 0.27467 4.63545 -0.01953
v 0.87918 4.04247 -0.06525
v 1.20470 4.30896 0.78228
v 0.60019 4.90194 0.82801
v 0.21035 4.51205 0.73042
v 0.81486 3.91907 0.68470
f 1177 1178 1179 1180
f 1181 1184 1183 1182
f 1177 1181 1182 1178
f 1178 1182 1183 1179
f 1179 1183 1184 1180
f 1180 1184 1181 1177
o complex_rubble_025
usemtl rubble
v -4.99595 13.20863 0.02859
v -5.26503 13.70664 -0.07356
v -5.60428 13.53354 -0.02382
v -5.33520 13.03553 0.07833
v -4.98969 13.25103 0.21883
v -5.25877 13.74904 0.11669
v -5.59802 13.57594 0.16643
v -5.32894 13.07793 0.26857
f 1185 1186 1187 1188
f 1189 1192 1191 1190
f 1185 1189 1190 1186
f 1186 1190 1191 1187
f 1187 1191 1192 1188
f 1188 1192 1189 1185
o complex_rubble_026
usemtl rubble
v -15.80661 -12.43362 -0.10223
v -15.98188 -11.51861 -0.02274
v -16.82591 -11.69168 0.10842
v -16.65064 -12.60668 0.02893
v -15.73910 -12.45587 0.30279
v -15.91437 -11.54087 0.38229
v -16.75840 -11.71394 0.51345
v -16.58313 -12.62894 0.43395
f 1193 1194 1195 1196
f 1197 1200 1199 1198
f 1193 1197 1198 1194
f 1194 1198 1199 1195
f 1195 1199 1200 1196
f 1196 1200 1197 1193
o complex_rubble_027
usemtl rubble
v -3.65190 -13.52336 -0.05594
v -3.54803 -13.07546 0.01862
v -4.05587 -12.96572 0.06685
v -4.15973 -13.41361 -0.00771
v -3.61694 -13.63503 0.56624
v -3.51308 -13.18714 0.64079
v -4.02091 -13.07740 0.68902
v -4.12478 -13.52529 0.61446
f 1201 1202 1203 1204
f 1205 1208 1207 1206
f 1201 1205 1206 1202
f 1202 1206 1207 1203
f 1203 1207 1208 1204
f 1204 1208 1205 1201
o complex_rubble_028
usemtl brick
v 16.95178 10.82732 0.04805
v 16.41931 11.63249 -0.03229
v 15.96410 11.32998 -0.04700
v 16.49657 10.52481 0.03335
v 16.93292 10.84231 0.32335
v 16.40045 11.64749 0.24300
v 15.94524 11.34498 0.22830
v 16.47771 10.53981 0.30864
f 1209 1210 1211 1212
f 1213 1216 1215 1214
f 1209 1213 1214 1210
f 1210 1214 1215 1211
f 1211 1215 1216 1212
f 1212 1216 1213 1209
o complex_rubble_029
usemtl rubble
v 15.15217 10.51096 0.05617
v 15.15118 10.97749 -0.02294
v 14.49498 10.97102 -0.05288
v 14.49596 10.50450 0.02622
v 15.14204 10.54724 0.27025
v 15.14106 11.01376 0.19114
v 14.48485 11.00730 0.16120
v 14.48583 10.54078 0.24030
f 1217 1218 1219 1220
f 1221 1224 1223 1222
f 1217 1221 1222 1218
f 1218 1222 1223 1219
f 1219 1223 1224 1220
f 1220 1224 1221 1217
o complex_rubble_030
usemtl rubble
v -9.81703 8.31458 -0.07669
v -10.24630 8.55558 -0.06546
v -10.73094 7.68532 0.08538
v -10.30167 7.44432 0.07415
v -9.74698 8.40465 0.66798
v -10.17625 8.64565 0.67921
v -10.66089 7.77538 0.83006
v -10.23162 7.53438 0.81883
f 1225 1226 1227 1228
f 1229 1232 1231 1230
f 1225 1229 1230 1226
f 1226 1230 1231 1227
f 1227 1231 1232 1228
f 1228 1232 1229 1225
o complex_rubble_031
usemtl rubble
v 5.36412 -9.61114 -0.09760
v 4.61026 -8.47036 -0.12556
v 3.50998 -9.19178 0.10656
v 4.26384 -10.33255 0.13452
v 5.44190 -9.54573 0.47434
v 4.68803 -8.40495 0.44638
v 3.58775 -9.12637 0.67850
v 4.34161 -10.26714 0.70645
f 1233 1234 1235 1236
f 1237 1240 1239 1238
f 1233 1237 1238 1234
f 1234 1238 1239 1235
f 1235 1239 1240 1236
f 1236 1240 1237 1233
o complex_rubble_032
usemtl brick
v 4.00944 -13.34761 0.02757
v 4.14150 -12.95502 0.05787
v 3.61438 -12.77157 -0.02166
v 3.48232 -13.16416 -0.05196
v 3.93623 -13.35850 0.48767
v 4.06829 -12.96591 0.51797
v 3.54117 -12.78245 0.43844
v 3.40911 -13.17505 0.40814
f 1241 1242 1243 1244
f 1245 1248 1247 1246
f 1241 1245 1246 1242
f 1242 1246 1247 1243
f 1243 1247 1248 1244
f 1244 1248 1245 1241
o complex_rubble_033
usemtl rubble
v 2.11832 -12.95652 -0.07218
v 2.16165 -11.72414 0.11773
v 1.69464 -11.70236 0.08293
v 1.65132 -12.93474 -0.10697
v 2.05844 -13.06756 0.66206
v 2.10177 -11.83518 0.85196
v 1.63476 -11.81340 0.81717
v 1.59143 -13.04578 0.62727
f 1249 1250 1251 1252
f 1253 1256 1255 1254
f 1249 1253 1254 1250
f 1250 1254 1255 1251
f 1251 1255 1256 1252
f 1252 1256 1253 1249
o complex_rubble_034
usemtl rubble
v 14.23523 -13.70745 0.00759
v 14.07973 -13.34402 -0.06029
v 13.59764 -13.53689 0.01142
v 13.75314 -13.90032 0.07931
v 14.28418 -13.54189 0.78182
v 14.12868 -13.17846 0.71394
v 13.64658 -13.37134 0.78565
v 13.80208 -13.73477 0.85354
f 1257 1258 1259 1260
f 1261 1264 1263 1262
f 1257 1261 1262 1258
f 1258 1262 1263 1259
f 1259 1263 1264 1260
f 1260 1264 1261 1257
o complex_rubble_035
usemtl soil
v -3.49239 12.81411 0.13243
v -3.71656 13.53799 0.03459
v -4.67357 13.22008 -0.12476
v -4.44939 12.49620 -0.02692
v -3.56230 12.84175 0.49714
v -3.78647 13.56563 0.39930
v -4.74348 13.24772 0.23995
v -4.51930 12.52384 0.33779
f 1265 1266 1267 1268
f 1269 1272 1271 1270
f 1265 1269 1270 1266
f 1266 1270 1271 1267
f 1267 1271 1272 1268
f 1268 1272 1269 1265
o complex_rubble_036
usemtl brick
v -1.35188 -7.57055 -0.02672
v -1.77379 -7.40071 -0.01882
v -2.09327 -8.19650 0.02806
v -1.67136 -8.36635 0.02016
v -1.32205 -7.53444 0.78953
v -1.74396 -7.36459 0.79743
v -2.06344 -8.16039 0.84431
v -1.64153 -8.33024 0.83641
f 1273 1274 1275 1276
f 1277 1280 1279 1278
f 1273 1277 1278 1274
f 1274 1278 1279 1275
f 1275 1279 1280 1276
f 1276 1280 1277 1273
o complex_rubble_037
usemtl rubble
v -7.27954 10.11005 -0.04486
v -7.83780 10.65502 0.00965
v -8.61599 9.85408 0.04731
v -8.05773 9.30911 -0.00721
v -7.21977 10.09012 0.76651
v -7.77803 10.63508 0.82103
v -8.55621 9.83414 0.85868
v -7.99796 9.28918 0.80416
f 1281 1282 1283 1284
f 1285 1288 1287 1286
f 1281 1285 1286 1282
f 1282 1286 1287 1283
f 1283 1287 1288 1284
f 1284 1288 1285 1281
o complex_rubble_038
usemtl rubble
v 18.38942 5.25065 -0.02937
v 18.79868 5.44809 -0.09480
v 18.38399 6.35293 0.04178
v 17.97473 6.15549 0.10721
v 18.50782 5.21112 0.59200
v 18.91709 5.40856 0.52658
v 18.50240 6.31341 0.66316
v 18.09313 6.11597 0.72858
f 1289 1290 1291 1292
f 1293 1296 1295 1294
f 1289 1293 1294 1290
f 1290 1294 1295 1291
f 1291 1295 1296 1292
f 1292 1296 1293 1289
o complex_rubble_039
usemtl rubble
v 1.97514 -13.72959 -0.10621
v 1.26664 -12.89360 0.08304
v 0.44056 -13.60064 0.11374
v 1.14906 -14.43664 -0.07551
v 2.04133 -13.78546 0.38835
v 1.33283 -12.94946 0.57760
v 0.50675 -13.65650 0.60830
v 1.21525 -14.49250 0.41905
f 1297 1298 1299 1300
f 1301 1304 1303 1302
f 1297 1301 1302 1298
f 1298 1302 1303 1299
f 1299 1303 1304 1300
f 1300 1304 1301 1297
o complex_rubble_040
usemtl brick
v -9.99946 -10.79976 -0.03390
v -9.89412 -9.75126 -0.09663
v -10.80543 -9.65131 0.04371
v -10.91077 -10.69981 0.10643
v -9.88399 -10.76786 0.69322
v -9.77865 -9.71936 0.63049
v -10.68996 -9.61941 0.77083
v -10.79530 -10.66791 0.83355
f 1305 1306 1307 1308
f 1309 1312 1311 1310
f 1305 1309 1310 1306
f 1306 1310 1311 1307
f 1307 1311 1312 1308
f 1308 1312 1309 1305
o complex_rubble_041
usemtl rubble
v 4.89113 -11.53434 -0.04678
v 3.85546 -10.68718 0.12784
v 3.30242 -11.34714 0.04953
v 4.33809 -12.19430 -0.12510
v 4.90030 -11.56765 0.16919
v 3.86462 -10.72049 0.34381
v 3.31158 -11.38046 0.26549
v 4.34726 -12.22761 0.09087
f 1313 1314 1315 1316
f 1317 1320 1319 1318
f 1313 1317 1318 1314
f 1314 1318 1319 1315
f 1315 1319 1320 1316
f 1316 1320 1317 1313
o complex_rubble_042
usemtl soil
v -1.92092 -13.59517 -0.07934
v -1.62228 -13.41202 -0.07368
v -2.21392 -12.45221 0.08454
v -2.51256 -12.63537 0.07889
v -1.88968 -13.66230 0.44470
v -1.59103 -13.47915 0.45036
v -2.18267 -12.51934 0.60858
v -2.48132 -12.70250 0.60293
f 1321 1322 1323 1324
f 1325 1328 1327 1326
f 1321 1325 1326 1322
f 1322 1326 1327 1323
f 1323 1327 1328 1324
f 1324 1328 1325 1321
o complex_rubble_043
usemtl rubble
v -15.03083 -7.26157 0.15657
v -15.48960 -5.73101 -0.10588
v -15.82217 -5.83688 -0.14195
v -15.36340 -7.36744 0.12050
v -15.14577 -7.16361 0.92877
v -15.60454 -5.63305 0.66632
v -15.93711 -5.73892 0.63025
v -15.47834 -7.26948 0.89270
f 1329 1330 1331 1332
f 1333 1336 1335 1334
f 1329 1333 1334 1330
f 1330 1334 1335 1331
f 1331 1335 1336 1332
f 1332 1336 1333 1329
o complex_rubble_044
usemtl brick
v -6.70532 3.04551 0.00543
v -5.94809 3.46549 0.01203
v -6.45819 4.38549 -0.00537
v -7.21543 3.96551 -0.01197
v -6.71067 3.04943 0.36934
v -5.95343 3.46941 0.37593
v -6.46353 4.38941 0.35854
v -7.22077 3.96943 0.35194
f 1337 1338 1339 1340
f 1341 1344 1343 1342
f 1337 1341 1342 1338
f 1338 1342 1343 1339
f 1339 1343 1344 1340
f 1340 1344 1341 1337
o complex_rubble_045
usemtl rubble
v -0.56720 6.98986 0.07386
v -2.08270 6.99418 0.14882
v -2.09642 5.79658 -0.05936
v -0.58092 5.79226 -0.13433
v -0.52359 6.83451 0.96463
v -2.03908 6.83883 1.03959
v -2.05280 5.64123 0.83140
v -0.53730 5.63691 0.75644
f 1345 1346 1347 1348
f 1349 1352 1351 1350
f 1345 1349 1350 1346
f 1346 1350 1351 1347
f 1347 1351 1352 1348
f 1348 1352 1349 1345
o complex_rubble_046
usemtl rubble
v 13.15590 -12.73728 -0.06236
v 13.27526 -12.06561 -0.02690
v 12.03844 -11.85075 0.06638
v 11.91908 -12.52242 0.03092
v 13.21861 -12.79994 0.91336
v 13.33797 -12.12826 0.94882
v 12.10115 -11.91340 1.04211
v 11.98179 -12.58507 1.00665
f 1353 1354 1355 1356
f 1357 1360 1359 1358
f 1353 1357 1358 1354
f 1354 1358 1359 1355
f 1355 1359 1360 1356
f 1356 1360 1357 1353
o complex_rubble_047
usemtl rubble
v 11.19668 12.80482 0.13153
v 12.71443 13.02779 -0.11966
v 12.57185 13.99571 -0.12201
v 11.05410 13.77274 0.12918
v 11.31221 12.82357 0.84623
v 12.82996 13.04654 0.59505
v 12.68738 14.01446 0.59270
v 11.16962 13.79150 0.84389
f 1361 1362 1363 1364
f 1365 1368 1367 1366
f 1361 1365 1366 1362
f 1362 1366 1367 1363
f 1363 1367 1368 1364
f 1364 1368 1365 1361
o complex_rubble_048
usemtl brick
v 0.02160 -12.56387 -0.05943
v 0.15310 -11.97130 -0.05029
v -0.58984 -11.80825 0.06738
v -0.72134 -12.40082 0.05825
v 0.11945 -12.59579 0.60254
v 0.25094 -12.00322 0.61167
v -0.49200 -11.84018 0.72935
v -0.62349 -12.43275 0.72021
f 1369 1370 1371 1372
f 1373 1376 1375 1374
f 1369 1373 1374 1370
f 1370 1374 1375 1371
f 1371 1375 1376 1372
f 1372 1376 1373 1369
o complex_rubble_049
usemtl soil
v 0.01939 12.86002 0.05923
v -0.78994 13.18189 0.05352
v -1.22758 12.07951 -0.05698
v -0.41825 11.75764 -0.05126
v -0.00161 12.81642 0.57740
v -0.81094 13.13829 0.57169
v -1.24858 12.03591 0.46119
v -0.43925 11.71404 0.46691
f 1377 1378 1379 1380
f 1381 1384 1383 1382
f 1377 1381 1382 1378
f 1378 1382 1383 1379
f 1379 1383 1384 1380
f 1380 1384 1381 1377
o complex_rubble_050
usemtl rubble
v -13.97441 -1.39648 -0.11633
v -14.30092 -0.91083 -0.02080
v -15.10145 -1.48014 0.13739
v -14.77494 -1.96580 0.04185
v -13.79399 -1.43063 0.67384
v -14.12050 -0.94497 0.76937
v -14.92103 -1.51429 0.92756
v -14.59452 -1.99994 0.83202
f 1385 1386 1387 1388
f 1389 1392 1391 1390
f 1385 1389 1390 1386
f 1386 1390 1391 1387
f 1387 1391 1392 1388
f 1388 1392 1389 1385
o complex_rubble_051
usemtl rubble
v -4.80586 -7.22919 0.03301
v -4.81008 -6.49199 0.02175
v -5.42579 -6.49631 -0.03072
v -5.42157 -7.23351 -0.01946
v -4.85821 -7.22011 0.64665
v -4.86243 -6.48291 0.63539
v -5.47814 -6.48724 0.58292
v -5.47392 -7.22444 0.59418
f 1393 1394 1395 1396
f 1397 1400 1399 1398
f 1393 1397 1398 1394
f 1394 1398 1399 1395
f 1395 1399 1400 1396
f 1396 1400 1397 1393
o complex_rubble_052
usemtl brick
v -1.25715 -14.16469 -0.10383
v -1.95656 -13.05042 0.04572
v -2.30919 -13.28124 0.11631
v -1.60977 -14.39551 -0.03324
v -1.13372 -14.16836 0.50072
v -1.83314 -13.05409 0.65027
v -2.18577 -13.28491 0.72087
v -1.48635 -14.39918 0.57131
f 1401 1402 1403 1404
f 1405 1408 1407 1406
f 1401 1405 1406 1402
f 1402 1406 1407 1403
f 1403 1407 1408 1404
f 1404 1408 1405 1401
o complex_rubble_053
usemtl rubble
v 15.06224 7.52809 0.01290
v 14.61355 8.35016 -0.10846
v 13.43073 7.72038 -0.00128
v 13.87943 6.89831 0.12008
v 15.07153 7.68051 1.01103
v 14.62284 8.50258 0.88967
v 13.44002 7.87281 0.99685
v 13.88872 7.05074 1.11821
f 1409 1410 1411 1412
f 1413 1416 1415 1414
f 1409 1413 1414 1410
f 1410 1414 1415 1411
f 1411 1415 1416 1412
f 1412 1416 1413 1409
o complex_rubble_054
usemtl rubble
v 10.35707 -12.23036 -0.01003
v 9.99496 -12.18875 0.00398
v 9.94658 -12.61201 0.01063
v 10.30868 -12.65362 -0.00338
v 10.38496 -12.22258 0.68804
v 10.02286 -12.18097 0.70205
v 9.97448 -12.60422 0.70870
v 10.33658 -12.64583 0.69469
f 1417 1418 1419 1420
f 1421 1424 1423 1422
f 1417 1421 1422 1418
f 1418 1422 1423 1419
f 1419 1423 1424 1420
f 1420 1424 1421 1417
o complex_rubble_055
usemtl rubble
v 6.60280 -5.10086 -0.00372
v 5.06394 -4.57388 0.03685
v 4.95640 -4.88565 0.00726
v 6.49525 -5.41263 -0.03331
v 6.59831 -5.17683 0.81299
v 5.05945 -4.64986 0.85356
v 4.95191 -4.96163 0.82396
v 6.49076 -5.48861 0.78340
f 1425 1426 1427 1428
f 1429 1432 1431 1430
f 1425 1429 1430 1426
f 1426 1430 1431 1427
f 1427 1431 1432 1428
f 1428 1432 1429 1425
o complex_rubble_056
usemtl brick
v 2.84498 7.22271 -0.06936
v 2.66220 8.21136 0.07698
v 1.50134 7.99613 0.08105
v 1.68412 7.00749 -0.06528
v 2.87817 7.06470 1.03961
v 2.69539 8.05335 1.18594
v 1.53453 7.83812 1.19002
v 1.71731 6.84948 1.04369
f 1433 1434 1435 1436
f 1437 1440 1439 1438
f 1433 1437 1438 1434
f 1434 1438 1439 1435
f 1435 1439 1440 1436
f 1436 1440 1437 1433
o complex_rubble_057
usemtl rubble
v -12.00884 -3.52555 -0.03263
v -13.60922 -3.40842 0.17908
v -13.71627 -4.61769 0.03887
v -12.11589 -4.73482 -0.17283
v -11.95926 -3.57668 0.37047
v -13.55964 -3.45955 0.58218
v -13.66669 -4.66881 0.44197
v -12.06631 -4.78594 0.23027
f 1441 1442 1443 1444
f 1445 1448 1447 1446
f 1441 1445 1446 1442
f 1442 1446 1447 1443
f 1443 1447 1448 1444
f 1444 1448 1445 1441
o complex_rubble_058
usemtl rubble
v -2.62929 13.44322 0.05533
v -1.51997 13.77844 -0.09645
v -1.63761 14.19037 -0.04646
v -2.74694 13.85514 0.10532
v -2.53789 13.39986 0.62767
v -1.42856 13.73509 0.47589
v -1.54620 14.14702 0.52588
v -2.65553 13.81179 0.67766
f 1449 1450 1451 1452
f 1453 1456 1455 1454
f 1449 1453 1454 1450
f 1450 1454 1455 1451
f 1451 1455 1456 1452
f 1452 1456 1453 1449
o complex_rubble_059
usemtl rubble
v -2.98500 -2.18317 -0.05653
v -3.05159 -1.57011 0.03394
v -3.49705 -1.62351 0.06791
v -3.43046 -2.23657 -0.02257
v -2.90778 -2.29768 0.77617
v -2.97437 -1.68462 0.86665
v -3.41984 -1.73802 0.90062
v -3.35324 -2.35108 0.81014
f 1457 1458 1459 1460
f 1461 1464 1463 1462
f 1457 1461 1462 1458
f 1458 1462 1463 1459
f 1459 1463 1464 1460
f 1460 1464 1461 1457
o complex_rubble_060
usemtl brick
v 5.42137 8.10715 -0.12045
v 4.21186 8.60145 -0.01674
v 3.80841 7.58389 0.12804
v 5.01793 7.08958 0.02433
v 5.50008 8.16637 0.51516
v 4.29056 8.66068 0.61886
v 3.88712 7.64312 0.76364
v 5.09663 7.14881 0.65994
f 1465 1466 1467 1468
f 1469 1472 1471 1470
f 1465 1469 1470 1466
f 1466 1470 1471 1467
f 1467 1471 1472 1468
f 1468 1472 1469 1465
o complex_rubble_061
usemtl rubble
v 5.39024 5.30672 -0.06873
v 5.02447 5.50159 -0.10613
v 4.41789 4.39906 0.08136
v 4.78366 4.20418 0.11875
v 5.38278 5.45172 0.75986
v 5.01701 5.64660 0.72246
v 4.41043 4.54406 0.90995
v 4.77620 4.34919 0.94734
f 1473 1474 1475 1476
f 1477 1480 1479 1478
f 1473 1477 1478 1474
f 1474 1478 1479 1475
f 1475 1479 1480 1476
f 1476 1480 1477 1473
o complex_rubble_062
usemtl rubble
v 3.78514 -11.18746 -0.02997
v 4.41125 -10.61912 -0.02195
v 3.58275 -9.70714 0.03074
v 2.95664 -10.27547 0.02273
v 3.80273 -11.21824 0.77937
v 4.42884 -10.64991 0.78738
v 3.60034 -9.73792 0.84008
v 2.97423 -10.30626 0.83206
f 1481 1482 1483 1484
f 1485 1488 1487 1486
f 1481 1485 1486 1482
f 1482 1486 1487 1483
f 1483 1487 1488 1484
f 1484 1488 1485 1481
o complex_rubble_063
usemtl soil
v -18.33055 -3.79870 -0.06550
v -18.59467 -2.91869 -0.04686
v -19.22776 -3.11122 0.07197
v -18.96364 -3.99123 0.05333
v -18.25959 -3.78585 0.33335
v -18.52371 -2.90584 0.35199
v -19.15681 -3.09837 0.47082
v -18.89268 -3.97838 0.45218
f 1489 1490 1491 1492
f 1493 1496 1495 1494
f 1489 1493 1494 1490
f 1490 1494 1495 1491
f 1491 1495 1496 1492
f 1492 1496 1493 1489
o complex_rubble_064
usemtl brick
v 5.22411 13.19213 -0.03850
v 5.08243 13.61491 -0.07035
v 4.15802 13.31357 0.04184
v 4.29970 12.89080 0.07369
v 5.25566 13.22994 0.32300
v 5.11398 13.65271 0.29115
v 4.18957 13.35138 0.40334
v 4.33125 12.92860 0.43519
f 1497 1498 1499 1500
f 1501 1504 1503 1502
f 1497 1501 1502 1498
f 1498 1502 1503 1499
f 1499 1503 1504 1500
f 1500 1504 1501 1497
o complex_rubble_065
usemtl rubble
v -9.16041 -10.26111 0.09629
v -8.51964 -9.04432 0.06277
v -9.53697 -8.51279 -0.08952
v -10.17774 -9.72958 -0.05600
v -9.23967 -10.19879 0.84329
v -8.59890 -8.98200 0.80977
v -9.61623 -8.45047 0.65748
v -10.25700 -9.66726 0.69100
f 1505 1506 1507 1508
f 1509 1512 1511 1510
f 1505 1509 1510 1506
f 1506 1510 1511 1507
f 1507 1511 1512 1508
f 1508 1512 1509 1505
o complex_rubble_066
usemtl rubble
v 6.29704 -5.05805 0.04776
v 5.87928 -4.79266 -0.03941
v 5.68138 -5.10491 -0.04162
v 6.09915 -5.37030 0.04555
v 6.23652 -5.02251 0.44595
v 5.81876 -4.75713 0.35877
v 5.62087 -5.06937 0.35657
v 6.03863 -5.33476 0.44374
f 1513 1514 1515 1516
f 1517 1520 1519 1518
f 1513 1517 1518 1514
f 1514 1518 1519 1515
f 1515 1519 1520 1516
f 1516 1520 1517 1513
o complex_rubble_067
usemtl rubble
v 3.29550 8.17316 -0.00256
v 4.01179 9.15479 -0.01707
v 3.48942 9.53627 0.00305
v 2.77312 8.55463 0.01755
v 3.32362 8.16556 0.87189
v 4.03992 9.14719 0.85739
v 3.51754 9.52866 0.87751
v 2.80125 8.54703 0.89201
f 1521 1522 1523 1524
f 1525 1528 1527 1526
f 1521 1525 1526 1522
f 1522 1526 1527 1523
f 1523 1527 1528 1524
f 1524 1528 1525 1521
o complex_rubble_068
usemtl brick
v -14.79591 3.39188 0.08409
v -15.83030 4.10288 -0.13056
v -16.11749 3.70397 -0.06795
v -15.08311 2.99296 0.14670
v -14.84275 3.53589 0.78681
v -15.87713 4.24690 0.57216
v -16.16432 3.84798 0.63478
v -15.12994 3.13698 0.84943
f 1529 1530 1531 1532
f 1533 1536 1535 1534
f 1529 1533 1534 1530
f 1530 1534 1535 1531
f 1531 1535 1536 1532
f 1532 1536 1533 1529
o complex_rubble_069
usemtl rubble
v 3.41273 -5.62348 0.10416
v 4.29520 -4.71807 -0.10671
v 4.01525 -4.44095 -0.08839
v 3.13278 -5.34636 0.12248
v 3.57174 -5.53264 1.15963
v 4.45421 -4.62723 0.94875
v 4.17426 -4.35010 0.96707
v 3.29179 -5.25551 1.17795
f 1537 1538 1539 1540
f 1541 1544 1543 1542
f 1537 1541 1542 1538
f 1538 1542 1543 1539
f 1539 1543 1544 1540
f 1540 1544 1541 1537
o complex_rubble_070
usemtl soil
v 15.53909 11.52325 -0.02638
v 15.87552 11.95673 0.04648
v 15.46765 12.27578 0.03161
v 15.13122 11.84231 -0.04125
v 15.47968 11.47381 0.54206
v 15.81612 11.90729 0.61492
v 15.40824 12.22635 0.60004
v 15.07181 11.79287 0.52718
f 1545 1546 1547 1548
f 1549 1552 1551 1550
f 1545 1549 1550 1546
f 1546 1550 1551 1547
f 1547 1551 1552 1548
f 1548 1552 1549 1545
o complex_rubble_071
usemtl rubble
v -2.53834 -12.64942 0.16166
v -1.08877 -12.57926 -0.10181
v -1.13135 -11.89172 -0.15300
v -2.58092 -11.96187 0.11047
v -2.45842 -12.61097 0.61160
v -1.00885 -12.54081 0.34813
v -1.05143 -11.85327 0.29693
v -2.50100 -11.92342 0.56040
f 1553 1554 1555 1556
f 1557 1560 1559 1558
f 1553 1557 1558 1554
f 1554 1558 1559 1555
f 1555 1559 1560 1556
f 1556 1560 1557 1553
o complex_rubble_072
usemtl brick
v 2.93079 2.29086 0.03353
v 2.35546 2.91168 0.01298
v 2.13490 2.70581 -0.03118
v 2.71023 2.08500 -0.01063
v 2.90422 2.27334 0.24793
v 2.32889 2.89415 0.22739
v 2.10833 2.68829 0.18323
v 2.68366 2.06748 0.20377
f 1561 1562 1563 1564
f 1565 1568 1567 1566
f 1561 1565 1566 1562
f 1562 1566 1567 1563
f 1563 1567 1568 1564
f 1564 1568 1565 1561
o complex_rubble_073
usemtl rubble
v -14.19077 4.29137 0.03186
v -14.30859 5.25115 -0.05457
v -15.31106 5.13051 -0.02766
v -15.19324 4.17073 0.05877
v -14.17552 4.38026 0.99810
v -14.29334 5.34004 0.91167
v -15.29582 5.21940 0.93858
v -15.17800 4.25962 1.02502
f 1569 1570 1571 1572
f 1573 1576 1575 1574
f 1569 1573 1574 1570
f 1570 1574 1575 1571
f 1571 1575 1576 1572
f 1572 1576 1573 1569
o complex_rubble_074
usemtl rubble
v 5.85984 -6.06290 -0.01060
v 6.24249 -6.00400 -0.04795
v 6.06081 -4.78497 0.01301
v 5.67816 -4.84387 0.05037
v 5.90212 -6.07714 0.40006
v 6.28477 -6.01824 0.36270
v 6.10309 -4.79921 0.42366
v 5.72044 -4.85810 0.46102
f 1577 1578 1579 1580
f 1581 1584 1583 1582
f 1577 1581 1582 1578
f 1578 1582 1583 1579
f 1579 1583 1584 1580
f 1580 1584 1581 1577
o complex_rubble_075
usemtl rubble
v 7.14667 12.82249 0.03748
v 8.04833 13.41374 -0.04779
v 7.55455 14.16874 -0.03405
v 6.65289 13.57749 0.05122
v 7.22563 12.85485 1.09689
v 8.12729 13.44611 1.01163
v 7.63351 14.20110 1.02537
v 6.73185 13.60985 1.11063
f 1585 1586 1587 1588
f 1589 1592 1591 1590
f 1585 1589 1590 1586
f 1586 1590 1591 1587
f 1587 1591 1592 1588
f 1588 1592 1589 1585
o complex_rubble_076
usemtl brick
v -17.56051 9.99368 0.00948
v -18.16001 10.13841 -0.09850
v -18.40495 9.19878 0.00195
v -17.80544 9.05405 0.10993
v -17.64029 10.07323 0.55905
v -18.23980 10.21796 0.45107
v -18.48473 9.27832 0.55151
v -17.88523 9.13359 0.65949
f 1593 1594 1595 1596
f 1597 1600 1599 1598
f 1593 1597 1598 1594
f 1594 1598 1599 1595
f 1595 1599 1600 1596
f 1596 1600 1597 1593
o complex_rubble_077
usemtl soil
v -4.03558 -8.34058 -0.07382
v -4.43668 -6.79213 0.09882
v -4.89061 -6.90757 0.07964
v -4.48951 -8.45602 -0.09300
v -4.04699 -8.44109 0.80119
v -4.44809 -6.89264 0.97383
v -4.90202 -7.00808 0.95465
v -4.50092 -8.55653 0.78201
f 1601 1602 1603 1604
f 1605 1608 1607 1606
f 1601 1605 1606 1602
f 1602 1606 1607 1603
f 1603 1607 1608 1604
f 1604 1608 1605 1601
o complex_collapsed_wall_00
usemtl rubble
v 8.24008 11.29093 0.42356
v 11.11190 11.65014 0.04552
v 11.05935 12.07098 0.04624
v 8.18754 11.71177 0.42428
v 8.29006 11.29650 0.80850
v 11.16187 11.65571 0.43046
v 11.10933 12.07656 0.43118
v 8.23751 11.71735 0.80923
f 1609 1610 1611 1612
f 1613 1616 1615 1614
f 1609 1613 1614 1610
f 1610 1614 1615 1611
f 1611 1615 1616 1612
f 1612 1616 1613 1609
o complex_collapsed_wall_01
usemtl rubble
v -11.59199 8.58331 0.20057
v -7.22901 8.89303 0.10568
v -7.25771 9.28741 0.07296
v -11.62070 8.97769 0.16785
v -11.58484 8.62142 0.65369
v -7.22186 8.93114 0.55880
v -7.25056 9.32552 0.52608
v -11.61355 9.01579 0.62098
f 1617 1618 1619 1620
f 1621 1624 1623 1622
f 1617 1621 1622 1618
f 1618 1622 1623 1619
f 1619 1623 1624 1620
f 1620 1624 1621 1617
o complex_collapsed_wall_02
usemtl rubble
v -8.11455 2.56689 -0.23818
v -6.92352 6.77371 0.35878
v -7.41712 6.90901 0.39012
v -8.60815 2.70219 -0.20683
v -8.10353 2.49532 0.24423
v -6.91250 6.70213 0.84118
v -7.40611 6.83744 0.87253
v -8.59714 2.63062 0.27557
f 1625 1626 1627 1628
f 1629 1632 1631 1630
f 1625 1629 1630 1626
f 1626 1630 1631 1627
f 1627 1631 1632 1628
f 1628 1632 1629 1625
o complex_collapsed_wall_03
usemtl rubble
v -11.94585 7.69041 0.27568
v -7.61085 8.45280 0.02662
v -7.69181 8.91312 0.02645
v -12.02682 8.15073 0.27550
v -11.91776 7.69554 0.78033
v -7.58275 8.45793 0.53127
v -7.66372 8.91825 0.53110
v -11.99873 8.15586 0.78015
f 1633 1634 1635 1636
f 1637 1640 1639 1638
f 1633 1637 1638 1634
f 1634 1638 1639 1635
f 1635 1639 1640 1636
f 1636 1640 1637 1633
o complex_collapsed_wall_04
usemtl rubble
v -2.83903 -2.06545 0.01669
v -4.90252 -1.95680 0.01536
v -4.92710 -2.42302 0.06575
v -2.86361 -2.53167 0.06708
v -2.83614 -2.00359 0.59053
v -4.89963 -1.89494 0.58920
v -4.92421 -2.36116 0.63959
v -2.86072 -2.46981 0.64092
f 1641 1642 1643 1644
f 1645 1648 1647 1646
f 1641 1645 1646 1642
f 1642 1646 1647 1643
f 1643 1647 1648 1644
f 1644 1648 1645 1641
o complex_collapsed_wall_05
usemtl rubble
v 5.43858 -12.28575 -0.03597
v 6.59036 -10.39376 0.29789
v 6.21402 -10.16059 0.27485
v 5.06224 -12.05258 -0.05901
v 5.34403 -12.36292 0.72753
v 6.49581 -10.47093 1.06139
v 6.11947 -10.23776 1.03835
v 4.96769 -12.12975 0.70449
f 1649 1650 1651 1652
f 1653 1656 1655 1654
f 1649 1653 1654 1650
f 1650 1654 1655 1651
f 1651 1655 1656 1652
f 1652 1656 1653 1649
o complex_collapsed_wall_06
usemtl rubble
v -5.49097 -6.84196 -0.16177
v -4.73029 -4.44607 0.27811
v -5.19018 -4.29393 0.24472
v -5.95087 -6.68982 -0.19515
v -5.53675 -6.89708 0.21763
v -4.77606 -4.50119 0.65750
v -5.23595 -4.34905 0.62412
v -5.99664 -6.74494 0.18425
f 1657 1658 1659 1660
f 1661 1664 1663 1662
f 1657 1661 1662 1658
f 1658 1662 1663 1659
f 1659 1663 1664 1660
f 1660 1664 1661 1657
o complex_collapsed_wall_07
usemtl rubble
v -5.05234 -3.49473 0.34806
v -7.22400 -1.18636 -0.13491
v -7.49128 -1.43750 -0.13340
v -5.31963 -3.74587 0.34957
v -5.10779 -3.43243 0.89514
v -7.27945 -1.12406 0.41217
v -7.54673 -1.37521 0.41367
v -5.37507 -3.68357 0.89665
f 1665 1666 1667 1668
f 1669 1672 1671 1670
f 1665 1669 1670 1666
f 1666 1670 1671 1667
f 1667 1671 1672 1668
f 1668 1672 1669 1665
o complex_collapsed_wall_08
usemtl rubble
v -15.34689 2.33851 0.03956
v -16.28741 4.30921 0.15446
v -16.78307 4.07329 0.14364
v -15.84256 2.10258 0.02874
v -15.34493 2.31572 0.44645
v -16.28544 4.28643 0.56136
v -16.78111 4.05050 0.55054
v -15.84059 2.07979 0.43564
f 1673 1674 1675 1676
f 1677 1680 1679 1678
f 1673 1677 1678 1674
f 1674 1678 1679 1675
f 1675 1679 1680 1676
f 1676 1680 1677 1673
o complex_collapsed_wall_09
usemtl rubble
v 16.37449 -4.65699 -0.09453
v 17.26440 -2.27526 0.32943
v 16.94009 -2.16315 0.38036
v 16.05019 -4.54488 -0.04359
v 16.43976 -4.81869 0.67692
v 17.32966 -2.43696 1.10088
v 17.00536 -2.32486 1.15181
v 16.11545 -4.70659 0.72786
f 1681 1682 1683 1684
f 1685 1688 1687 1686
f 1681 1685 1686 1682
f 1682 1686 1687 1683
f 1683 1687 1688 1684
f 1684 1688 1685 1681
o complex_collapsed_wall_10
usemtl rubble
v 5.93012 -13.78310 0.38155
v 5.13481 -10.28499 -0.06745
v 4.70524 -10.38487 -0.08475
v 5.50056 -13.88298 0.36425
v 5.90309 -13.73714 0.78747
v 5.10778 -10.23903 0.33846
v 4.67821 -10.33892 0.32117
v 5.47352 -13.83703 0.77017
f 1689 1690 1691 1692
f 1693 1696 1695 1694
f 1689 1693 1694 1690
f 1690 1694 1695 1691
f 1691 1695 1696 1692
f 1692 1696 1693 1689
o complex_collapsed_wall_11
usemtl rubble
v 3.43244 -10.07914 0.37987
v 1.97061 -7.29979 -0.01658
v 1.63089 -7.48480 -0.06102
v 3.09272 -10.26416 0.33542
v 3.31267 -10.03673 1.11880
v 1.85084 -7.25738 0.72236
v 1.51112 -7.44240 0.67792
v 2.97295 -10.22175 1.07436
f 1697 1698 1699 1700
f 1701 1704 1703 1702
f 1697 1701 1702 1698
f 1698 1702 1703 1699
f 1699 1703 1704 1700
f 1700 1704 1701 1697
o complex_collapsed_wall_12
usemtl rubble
v -1.01521 -7.58063 0.18738
v -2.02033 -5.52616 -0.08729
v -2.47648 -5.74493 -0.05441
v -1.47136 -7.79940 0.22025
v -1.01109 -7.49298 0.82792
v -2.01621 -5.43851 0.55325
v -2.47235 -5.65728 0.58613
v -1.46723 -7.71175 0.86079
f 1705 1706 1707 1708
f 1709 1712 1711 1710
f 1705 1709 1710 1706
f 1706 1710 1711 1707
f 1707 1711 1712 1708
f 1708 1712 1709 1705
o complex_collapsed_wall_13
usemtl rubble
v -0.53201 -11.79652 0.27444
v 2.69566 -9.46070 0.17970
v 2.47037 -9.14762 0.22339
v -0.75730 -11.48344 0.31813
v -0.49983 -11.82577 0.64997
v 2.72784 -9.48994 0.55522
v 2.50255 -9.17686 0.59891
v -0.72512 -11.51269 0.69365
f 1713 1714 1715 1716
f 1717 1720 1719 1718
f 1713 1717 1718 1714
f 1714 1718 1719 1715
f 1715 1719 1720 1716
f 1716 1720 1717 1713
o complex_collapsed_wall_14
usemtl rubble
v 4.40737 4.37336 0.38713
v 2.37188 7.45579 -0.05422
v 2.08225 7.26660 -0.03974
v 4.11774 4.18417 0.40161
v 4.38399 4.46808 1.15650
v 2.34850 7.55051 0.71515
v 2.05886 7.36132 0.72963
v 4.09435 4.27889 1.17098
f 1721 1722 1723 1724
f 1725 1728 1727 1726
f 1721 1725 1726 1722
f 1722 1726 1727 1723
f 1723 1727 1728 1724
f 1724 1728 1725 1721
o complex_collapsed_wall_15
usemtl rubble
v -8.46688 3.59052 -0.27525
v -6.53068 7.78191 0.42218
v -6.83333 7.92616 0.39553
v -8.76953 3.73477 -0.30190
v -8.54304 3.53332 0.27997
v -6.60684 7.72471 0.97740
v -6.90949 7.86895 0.95075
v -8.84569 3.67756 0.25332
f 1729 1730 1731 1732
f 1733 1736 1735 1734
f 1729 1733 1734 1730
f 1730 1734 1735 1731
f 1731 1735 1736 1732
f 1732 1736 1733 1729
o complex_collapsed_wall_16
usemtl rubble
v 1.29669 7.64797 -0.11124
v 5.16003 7.70416 0.44606
v 5.14836 8.03602 0.49347
v 1.28503 7.97983 -0.06383
v 1.23358 7.58230 0.33287
v 5.09692 7.63850 0.89017
v 5.08525 7.97036 0.93758
v 1.22192 7.91417 0.38027
f 1737 1738 1739 1740
f 1741 1744 1743 1742
f 1737 1741 1742 1738
f 1738 1742 1743 1739
f 1739 1743 1744 1740
f 1740 1744 1741 1737
o complex_collapsed_wall_17
usemtl rubble
v 11.20714 -10.80374 0.26838
v 13.92246 -8.84783 0.12397
v 13.67933 -8.51262 0.09266
v 10.96401 -10.46853 0.23706
v 11.19992 -10.73627 1.04662
v 13.91525 -8.78036 0.90222
v 13.67212 -8.44514 0.87090
v 10.95680 -10.40105 1.01531
f 1745 1746 1747 1748
f 1749 1752 1751 1750
f 1745 1749 1750 1746
f 1746 1750 1751 1747
f 1747 1751 1752 1748
f 1748 1752 1749 1745
o complex_collapsed_wall_18
usemtl rubble
v 9.94837 -13.25667 0.06825
v 9.17622 -9.98327 0.20484
v 8.78893 -10.07514 0.21699
v 9.56108 -13.34854 0.08041
v 9.97802 -13.28132 0.82652
v 9.20587 -10.00792 0.96310
v 8.81858 -10.09978 0.97526
v 9.59073 -13.37318 0.83867
f 1753 1754 1755 1756
f 1757 1760 1759 1758
f 1753 1757 1758 1754
f 1754 1758 1759 1755
f 1755 1759 1760 1756
f 1756 1760 1757 1753
o complex_collapsed_wall_19
usemtl rubble
v -10.26510 1.38286 0.23305
v -8.51180 2.45336 0.19827
v -8.77277 2.87936 0.15435
v -10.52607 1.80886 0.18913
v -10.28998 1.44935 1.02571
v -8.53667 2.51985 0.99093
v -8.79764 2.94585 0.94701
v -10.55095 1.87535 0.98179
f 1761 1762 1763 1764
f 1765 1768 1767 1766
f 1761 1765 1766 1762
f 1762 1766 1767 1763
f 1763 1767 1768 1764
f 1764 1768 1765 1761
o complex_collapsed_wall_20
usemtl rubble
v 0.69661 3.76713 0.28351
v 3.72963 6.00252 -0.27429
v 3.53242 6.27408 -0.25829
v 0.49941 4.03869 0.29951
v 0.80859 3.80389 1.03966
v 3.84160 6.03928 0.48186
v 3.64440 6.31084 0.49786
v 0.61138 4.07545 1.05566
f 1769 1770 1771 1772
f 1773 1776 1775 1774
f 1769 1773 1774 1770
f 1770 1774 1775 1771
f 1771 1775 1776 1772
f 1772 1776 1773 1769
o complex_collapsed_wall_21
usemtl rubble
v -9.81658 7.28840 0.29537
v -10.51347 11.27730 0.08617
v -10.86249 11.21478 0.05663
v -10.16559 7.22587 0.26582
v -9.87956 7.31361 0.98596
v -10.57645 11.30252 0.77676
v -10.92547 11.23999 0.74721
v -10.22857 7.25109 0.95641
f 1777 1778 1779 1780
f 1781 1784 1783 1782
f 1777 1781 1782 1778
f 1778 1782 1783 1779
f 1779 1783 1784 1780
f 1780 1784 1781 1777
o complex_collapsed_wall_22
usemtl rubble
v -8.12954 7.57638 0.17020
v -10.86846 8.48035 0.11977
v -10.97913 8.14514 0.12185
v -8.24021 7.24118 0.17228
v -8.14127 7.58517 0.96451
v -10.88019 8.48914 0.91408
v -10.99086 8.15393 0.91616
v -8.25194 7.24997 0.96659
f 1785 1786 1787 1788
f 1789 1792 1791 1790
f 1785 1789 1790 1786
f 1786 1790 1791 1787
f 1787 1791 1792 1788
f 1788 1792 1789 1785
o complex_collapsed_wall_23
usemtl rubble
v 5.00945 6.05247 0.11857
v 0.92744 8.54034 0.16184
v 0.65470 8.09162 0.23125
v 4.73670 5.60375 0.18797
v 5.06675 6.13347 0.86745
v 0.98475 8.62134 0.91073
v 0.71200 8.17261 0.98013
v 4.79401 5.68475 0.93685
f 1793 1794 1795 1796
f 1797 1800 1799 1798
f 1793 1797 1798 1794
f 1794 1798 1799 1795
f 1795 1799 1800 1796
f 1796 1800 1797 1793
o complex_broken_upper_slab_01
usemtl rubble
v 1.26443 11.04251 4.97968
v 5.91506 11.60328 6.02718
v 5.80574 12.39332 6.08957
v 1.15512 11.83255 5.04207
v 1.19426 11.00668 5.31043
v 5.84488 11.56745 6.35793
v 5.73557 12.35749 6.42032
v 1.08494 11.79672 5.37282
f 1801 1802 1803 1804
f 1805 1808 1807 1806
f 1801 1805 1806 1802
f 1802 1806 1807 1803
f 1803 1807 1808 1804
f 1804 1808 1805 1801
o complex_broken_upper_slab_02
usemtl rubble
v 8.39930 4.13996 5.71225
v 11.66155 2.76070 5.06774
v 11.93981 3.45327 4.99407
v 8.67756 4.83252 5.63858
v 8.46019 4.14673 6.00593
v 11.72244 2.76748 5.36142
v 12.00070 3.46004 5.28775
v 8.73845 4.83930 5.93226
f 1809 1810 1811 1812
f 1813 1816 1815 1814
f 1809 1813 1814 1810
f 1810 1814 1815 1811
f 1811 1815 1816 1812
f 1812 1816 1813 1809
o complex_narrow_deflector_01
usemtl concrete
v -5.97067 -5.33689 0.30000
v -3.17067 -4.73689 0.30000
v -3.22933 -4.46311 0.30000
v -6.02933 -5.06311 0.30000
v -5.97067 -5.33689 2.90000
v -3.17067 -4.73689 2.90000
v -3.22933 -4.46311 2.90000
v -6.02933 -5.06311 2.90000
f 1817 1818 1819 1820
f 1821 1824 1823 1822
f 1817 1821 1822 1818
f 1818 1822 1823 1819
f 1819 1823 1824 1820
f 1820 1824 1821 1817
o complex_narrow_deflector_02
usemtl concrete
v 6.89899 3.80101 0.35000
v 8.79899 5.70101 0.35000
v 8.60101 5.89899 0.35000
v 6.70101 3.99899 0.35000
v 6.89899 3.80101 2.85000
v 8.79899 5.70101 2.85000
v 8.60101 5.89899 2.85000
v 6.70101 3.99899 2.85000
f 1825 1826 1827 1828
f 1829 1832 1831 1830
f 1825 1829 1830 1826
f 1826 1830 1831 1827
f 1827 1831 1832 1828
f 1828 1832 1829 1825
o complex_dead_end_internal_01
usemtl concrete
v 2.78094 4.64114 0.10000
v 5.28094 4.34114 0.10000
v 5.31906 4.65886 0.10000
v 2.81906 4.95886 0.10000
v 2.78094 4.64114 3.10000
v 5.28094 4.34114 3.10000
v 5.31906 4.65886 3.10000
v 2.81906 4.95886 3.10000
f 1833 1834 1835 1836
f 1837 1840 1839 1838
f 1833 1837 1838 1834
f 1834 1838 1839 1835
f 1835 1839 1840 1836
f 1836 1840 1837 1833
o complex_dead_end_internal_02
usemtl concrete
v 5.45956 4.48818 0.20000
v 5.65956 7.18818 0.20000
v 5.34044 7.21182 0.20000
v 5.14044 4.51182 0.20000
v 5.45956 4.48818 3.00000
v 5.65956 7.18818 3.00000
v 5.34044 7.21182 3.00000
v 5.14044 4.51182 3.00000
f 1841 1842 1843 1844
f 1845 1848 1847 1846
f 1841 1845 1846 1842
f 1842 1846 1847 1843
f 1843 1847 1848 1844
f 1844 1848 1845 1841
o complex_lower_chicane_01
usemtl concrete
v -18.02461 -5.13782 0.25000
v -15.22461 -5.63782 0.25000
v -15.17539 -5.36218 0.25000
v -17.97539 -4.86218 0.25000
v -18.02461 -5.13782 2.95000
v -15.22461 -5.63782 2.95000
v -15.17539 -5.36218 2.95000
v -17.97539 -4.86218 2.95000
f 1849 1850 1851 1852
f 1853 1856 1855 1854
f 1849 1853 1854 1850
f 1850 1854 1855 1851
f 1851 1855 1856 1852
f 1852 1856 1853 1849
o complex_lower_chicane_02
usemtl concrete
v -12.82302 -10.13810 0.25000
v -9.22302 -10.73810 0.25000
v -9.17698 -10.46190 0.25000
v -12.77698 -9.86190 0.25000
v -12.82302 -10.13810 2.95000
v -9.22302 -10.73810 2.95000
v -9.17698 -10.46190 2.95000
v -12.77698 -9.86190 2.95000
f 1857 1858 1859 1860
f 1861 1864 1863 1862
f 1857 1861 1862 1858
f 1858 1862 1863 1859
f 1859 1863 1864 1860
f 1860 1864 1861 1857
o complex_hanging_beam_02
usemtl rust
v -16.83586 8.40456 5.02879
v -17.82154 9.22700 5.07725
v -17.97416 9.04215 5.11015
v -16.98848 8.21971 5.06169
v -16.82159 8.41448 5.15069
v -17.80727 9.23692 5.19914
v -17.95989 9.05207 5.23205
v -16.97421 8.22963 5.18359
f 1865 1866 1867 1868
f 1869 1872 1871 1870
f 1865 1869 1870 1866
f 1866 1870 1871 1867
f 1867 1871 1872 1868
f 1868 1872 1869 1865
o complex_hanging_beam_07
usemtl rust
v 4.90218 -12.62511 2.61179
v 7.79331 -10.83292 2.56091
v 7.65863 -10.61594 2.55123
v 4.76750 -12.40813 2.60211
v 4.90037 -12.61513 2.86056
v 7.79150 -10.82295 2.80968
v 7.65683 -10.60596 2.80000
v 4.76569 -12.39815 2.85088
f 1873 1874 1875 1876
f 1877 1880 1879 1878
f 1873 1877 1878 1874
f 1874 1878 1879 1875
f 1875 1879 1880 1876
f 1876 1880 1877 1873
o complex_hanging_beam_10
usemtl rust
v 17.45369 1.28610 2.48738
v 17.73353 3.32908 2.55107
v 17.51667 3.35790 2.57943
v 17.23683 1.31492 2.51574
v 17.47790 1.27671 2.68211
v 17.75774 3.31970 2.74580
v 17.54088 3.34852 2.77415
v 17.26104 1.30553 2.71047
f 1881 1882 1883 1884
f 1885 1888 1887 1886
f 1881 1885 1886 1882
f 1882 1886 1887 1883
f 1883 1887 1888 1884
f 1884 1888 1885 1881
o complex_hanging_beam_11
usemtl rust
v 12.89877 -10.48016 4.86250
v 12.07539 -8.79220 4.27483
v 11.90728 -8.88114 4.25491
v 12.73066 -10.56910 4.84258
v 12.84504 -10.42863 5.08580
v 12.02167 -8.74067 4.49813
v 11.85356 -8.82961 4.47820
v 12.67693 -10.51757 5.06587
f 1889 1890 1891 1892
f 1893 1896 1895 1894
f 1889 1893 1894 1890
f 1890 1894 1895 1891
f 1891 1895 1896 1892
f 1892 1896 1893 1889
o complex_hanging_beam_13
usemtl rust
v 3.32916 3.58996 4.49463
v 1.60818 6.42033 3.40884
v 1.47916 6.33338 3.38668
v 3.20014 3.50301 4.47247
v 3.28541 3.61836 4.63798
v 1.56443 6.44872 3.55220
v 1.43541 6.36177 3.53004
v 3.15639 3.53140 4.61583
f 1897 1898 1899 1900
f 1901 1904 1903 1902
f 1897 1901 1902 1898
f 1898 1902 1903 1899
f 1899 1903 1904 1900
f 1900 1904 1901 1897
o complex_rebar_01
usemtl rebar
v -11.64711 -8.54986 1.43259
v -11.28719 -7.42262 1.25177
v -11.35830 -7.40507 1.21959
v -11.71822 -8.53232 1.40041
v -11.67476 -8.52945 1.50483
v -11.31484 -7.40220 1.32401
v -11.38596 -7.38466 1.29183
v -11.74588 -8.51190 1.47265
f 1905 1906 1907 1908
f 1909 1912 1911 1910
f 1905 1909 1910 1906
f 1906 1910 1911 1907
f 1907 1911 1912 1908
f 1908 1912 1909 1905
o complex_rebar_02
usemtl rebar
v 15.62150 -4.14070 0.79813
v 17.35935 -2.13838 1.24712
v 17.29834 -2.08731 1.25549
v 15.56049 -4.08963 0.80650
v 15.61921 -4.15630 0.87656
v 17.35706 -2.15398 1.32555
v 17.29605 -2.10291 1.33392
v 15.55820 -4.10523 0.88493
f 1913 1914 1915 1916
f 1917 1920 1919 1918
f 1913 1917 1918 1914
f 1914 1918 1919 1915
f 1915 1919 1920 1916
f 1916 1920 1917 1913
o complex_rebar_03
usemtl rebar
v 9.70943 -9.98599 0.46639
v 9.11254 -7.92053 1.22567
v 9.04323 -7.95034 1.25228
v 9.64012 -10.01580 0.49299
v 9.74345 -10.00210 0.53697
v 9.14657 -7.93665 1.29626
v 9.07726 -7.96646 1.32286
v 9.67414 -10.03191 0.56358
f 1921 1922 1923 1924
f 1925 1928 1927 1926
f 1921 1925 1926 1922
f 1922 1926 1927 1923
f 1923 1927 1928 1924
f 1924 1928 1925 1921
o complex_rebar_04
usemtl rebar
v 5.26206 12.43772 2.09320
v 7.17176 12.82362 1.11953
v 7.16864 12.89985 1.14361
v 5.25893 12.51395 2.11728
v 5.30040 12.41801 2.16059
v 7.21011 12.80391 1.18692
v 7.20698 12.88014 1.21100
v 5.29727 12.49424 2.18467
f 1929 1930 1931 1932
f 1933 1936 1935 1934
f 1929 1933 1934 1930
f 1930 1934 1935 1931
f 1931 1935 1936 1932
f 1932 1936 1933 1929
o complex_rebar_05
usemtl rebar
v -12.34138 6.31908 1.03779
v -11.59765 7.00963 0.65965
v -11.65539 7.06207 0.64185
v -12.39911 6.37152 1.01999
v -12.33442 6.35147 1.11062
v -11.59070 7.04202 0.73247
v -11.64843 7.09445 0.71467
v -12.39215 6.40390 1.09282
f 1937 1938 1939 1940
f 1941 1944 1943 1942
f 1937 1941 1942 1938
f 1938 1942 1943 1939
f 1939 1943 1944 1940
f 1940 1944 1941 1937
o complex_rebar_06
usemtl rebar
v 0.15098 12.09517 1.61240
v 1.01648 12.55914 1.07721
v 0.98308 12.63133 1.08578
v 0.11758 12.16735 1.62097
v 0.18908 12.10452 1.68212
v 1.05458 12.56849 1.14693
v 1.02118 12.64068 1.15550
v 0.15568 12.17670 1.69069
f 1945 1946 1947 1948
f 1949 1952 1951 1950
f 1945 1949 1950 1946
f 1946 1950 1951 1947
f 1947 1951 1952 1948
f 1948 1952 1949 1945
o complex_rebar_10
usemtl rebar
v 13.92857 1.34892 0.81297
v 13.39823 2.98456 1.31142
v 13.33127 2.95346 1.34222
v 13.86161 1.31782 0.84377
v 13.96537 1.33940 0.88336
v 13.43503 2.97504 1.38182
v 13.36806 2.94394 1.41262
v 13.89840 1.30830 0.91416
f 1953 1954 1955 1956
f 1957 1960 1959 1958
f 1953 1957 1958 1954
f 1954 1958 1959 1955
f 1955 1959 1960 1956
f 1956 1960 1957 1953
o complex_rebar_11
usemtl rebar
v -1.82648 -2.86039 0.73441
v -1.48532 -1.89817 0.80329
v -1.55686 -1.87475 0.83037
v -1.89802 -2.83697 0.76149
v -1.80259 -2.87424 0.80949
v -1.46143 -1.91202 0.87837
v -1.53297 -1.88859 0.90545
v -1.87413 -2.85081 0.83657
f 1961 1962 1963 1964
f 1965 1968 1967 1966
f 1961 1965 1966 1962
f 1962 1966 1967 1963
f 1963 1967 1968 1964
f 1964 1968 1965 1961
o complex_rebar_13
usemtl rebar
v -14.65781 12.92564 1.35604
v -16.83055 14.01043 1.81233
v -16.86818 13.94154 1.79692
v -14.69544 12.85674 1.34064
v -14.65185 12.90514 1.43314
v -16.82459 13.98994 1.88943
v -16.86222 13.92104 1.87402
v -14.68948 12.83625 1.41774
f 1969 1970 1971 1972
f 1973 1976 1975 1974
f 1969 1973 1974 1970
f 1970 1974 1975 1971
f 1971 1975 1976 1972
f 1972 1976 1973 1969
o complex_rebar_15
usemtl rebar
v 5.84598 5.61903 0.54061
v 5.23306 7.07549 1.18224
v 5.16796 7.03676 1.20797
v 5.78088 5.58030 0.56634
v 5.88252 5.60379 0.61013
v 5.26960 7.06025 1.25176
v 5.20450 7.02152 1.27749
v 5.81743 5.56506 0.63586
f 1977 1978 1979 1980
f 1981 1984 1983 1982
f 1977 1981 1982 1978
f 1978 1982 1983 1979
f 1979 1983 1984 1980
f 1980 1984 1981 1977
