mtllib ruins_urban_01.mtl
o main_floor_slab
usemtl dark_concrete
v -21.00000 -16.00000 -0.20000
v 21.00000 -16.00000 -0.20000
v 21.00000 16.00000 -0.20000
v -21.00000 16.00000 -0.20000
v -21.00000 -16.00000 0.00000
v 21.00000 -16.00000 0.00000
v 21.00000 16.00000 0.00000
v -21.00000 16.00000 0.00000
f 1 2 3 4
f 5 8 7 6
f 1 5 6 2
f 2 6 7 3
f 3 7 8 4
f 4 8 5 1
o main_envelope_north
usemtl concrete
v -20.80000 15.47000 0.00000
v 20.80000 15.47000 0.00000
v 20.80000 15.93000 0.00000
v -20.80000 15.93000 0.00000
v -20.80000 15.47000 6.80000
v 20.80000 15.47000 6.80000
v 20.80000 15.93000 6.80000
v -20.80000 15.93000 6.80000
f 9 10 11 12
f 13 16 15 14
f 9 13 14 10
f 10 14 15 11
f 11 15 16 12
f 12 16 13 9
o main_envelope_south
usemtl concrete
v -20.80000 -15.93000 0.00000
v 20.80000 -15.93000 0.00000
v 20.80000 -15.47000 0.00000
v -20.80000 -15.47000 0.00000
v -20.80000 -15.93000 6.80000
v 20.80000 -15.93000 6.80000
v 20.80000 -15.47000 6.80000
v -20.80000 -15.47000 6.80000
f 17 18 19 20
f 21 24 23 22
f 17 21 22 18
f 18 22 23 19
f 19 23 24 20
f 20 24 21 17
o main_envelope_west_n
usemtl concrete
v -21.03000 15.70000 0.00000
v -21.03000 2.30000 0.00000
v -20.57000 2.30000 0.00000
v -20.57000 15.70000 0.00000
v -21.03000 15.70000 6.80000
v -21.03000 2.30000 6.80000
v -20.57000 2.30000 6.80000
v -20.57000 15.70000 6.80000
f 25 26 27 28
f 29 32 31 30
f 25 29 30 26
f 26 30 31 27
f 27 31 32 28
f 28 32 29 25
o main_envelope_west_s
usemtl concrete
v -21.03000 -2.30000 0.00000
v -21.03000 -15.70000 0.00000
v -20.57000 -15.70000 0.00000
v -20.57000 -2.30000 0.00000
v -21.03000 -2.30000 6.80000
v -21.03000 -15.70000 6.80000
v -20.57000 -15.70000 6.80000
v -20.57000 -2.30000 6.80000
f 33 34 35 36
f 37 40 39 38
f 33 37 38 34
f 34 38 39 35
f 35 39 40 36
f 36 40 37 33
o main_envelope_east
usemtl concrete
v 21.03000 -15.70000 0.00000
v 21.03000 15.70000 0.00000
v 20.57000 15.70000 0.00000
v 20.57000 -15.70000 0.00000
v 21.03000 -15.70000 6.80000
v 21.03000 15.70000 6.80000
v 20.57000 15.70000 6.80000
v 20.57000 -15.70000 6.80000
f 41 42 43 44
f 45 48 47 46
f 41 45 46 42
f 42 46 47 43
f 43 47 48 44
f 44 48 45 41
o main_shell_northwest_a
usemtl concrete_light
v -18.70000 12.85000 0.00000
v -13.20000 12.85000 0.00000
v -13.20000 13.15000 0.00000
v -18.70000 13.15000 0.00000
v -18.70000 12.85000 3.10000
v -13.20000 12.85000 3.10000
v -13.20000 13.15000 3.10000
v -18.70000 13.15000 3.10000
f 49 50 51 52
f 53 56 55 54
f 49 53 54 50
f 50 54 55 51
f 51 55 56 52
f 52 56 53 49
o main_shell_northwest_b
usemtl concrete
v -12.40000 12.85000 0.00000
v -8.60000 12.85000 0.00000
v -8.60000 13.15000 0.00000
v -12.40000 13.15000 0.00000
v -12.40000 12.85000 3.10000
v -8.60000 12.85000 3.10000
v -8.60000 13.15000 3.10000
v -12.40000 13.15000 3.10000
f 57 58 59 60
f 61 64 63 62
f 57 61 62 58
f 58 62 63 59
f 59 63 64 60
f 60 64 61 57
o main_shell_north_service
usemtl concrete
v -6.00000 12.65000 0.00000
v -1.20000 12.65000 0.00000
v -1.20000 12.95000 0.00000
v -6.00000 12.95000 0.00000
v -6.00000 12.65000 3.10000
v -1.20000 12.65000 3.10000
v -1.20000 12.95000 3.10000
v -6.00000 12.95000 3.10000
f 65 66 67 68
f 69 72 71 70
f 65 69 70 66
f 66 70 71 67
f 67 71 72 68
f 68 72 69 65
o main_shell_east_north_a
usemtl concrete_light
v 7.00000 12.45000 0.00000
v 11.50000 12.45000 0.00000
v 11.50000 12.75000 0.00000
v 7.00000 12.75000 0.00000
v 7.00000 12.45000 3.10000
v 11.50000 12.45000 3.10000
v 11.50000 12.75000 3.10000
v 7.00000 12.75000 3.10000
f 73 74 75 76
f 77 80 79 78
f 73 77 78 74
f 74 78 79 75
f 75 79 80 76
f 76 80 77 73
o main_shell_east_north_b
usemtl concrete
v 14.00000 12.45000 0.00000
v 18.80000 12.45000 0.00000
v 18.80000 12.75000 0.00000
v 14.00000 12.75000 0.00000
v 14.00000 12.45000 3.10000
v 18.80000 12.45000 3.10000
v 18.80000 12.75000 3.10000
v 14.00000 12.75000 3.10000
f 81 82 83 84
f 85 88 87 86
f 81 85 86 82
f 82 86 87 83
f 83 87 88 84
f 84 88 85 81
o main_shell_southwest_a
usemtl concrete_light
v -18.80000 -12.95000 0.00000
v -13.00000 -12.95000 0.00000
v -13.00000 -12.65000 0.00000
v -18.80000 -12.65000 0.00000
v -18.80000 -12.95000 3.10000
v -13.00000 -12.95000 3.10000
v -13.00000 -12.65000 3.10000
v -18.80000 -12.65000 3.10000
f 89 90 91 92
f 93 96 95 94
f 89 93 94 90
f 90 94 95 91
f 91 95 96 92
f 92 96 93 89
o main_shell_southwest_b
usemtl concrete
v -10.30000 -12.95000 0.00000
v -6.00000 -12.95000 0.00000
v -6.00000 -12.65000 0.00000
v -10.30000 -12.65000 0.00000
v -10.30000 -12.95000 3.10000
v -6.00000 -12.95000 3.10000
v -6.00000 -12.65000 3.10000
v -10.30000 -12.65000 3.10000
f 97 98 99 100
f 101 104 103 102
f 97 101 102 98
f 98 102 103 99
f 99 103 104 100
f 100 104 101 97
o main_shell_south_service
usemtl concrete_light
v -1.20000 -12.75000 0.00000
v 4.60000 -12.75000 0.00000
v 4.60000 -12.45000 0.00000
v -1.20000 -12.45000 0.00000
v -1.20000 -12.75000 3.10000
v 4.60000 -12.75000 3.10000
v 4.60000 -12.45000 3.10000
v -1.20000 -12.45000 3.10000
f 105 106 107 108
f 109 112 111 110
f 105 109 110 106
f 106 110 111 107
f 107 111 112 108
f 108 112 109 105
o main_shell_east_south_a
usemtl concrete
v 7.50000 -12.95000 0.00000
v 11.80000 -12.95000 0.00000
v 11.80000 -12.65000 0.00000
v 7.50000 -12.65000 0.00000
v 7.50000 -12.95000 3.10000
v 11.80000 -12.95000 3.10000
v 11.80000 -12.65000 3.10000
v 7.50000 -12.65000 3.10000
f 113 114 115 116
f 117 120 119 118
f 113 117 118 114
f 114 118 119 115
f 115 119 120 116
f 116 120 117 113
o main_shell_east_south_b
usemtl concrete_light
v 14.20000 -12.95000 0.00000
v 18.80000 -12.95000 0.00000
v 18.80000 -12.65000 0.00000
v 14.20000 -12.65000 0.00000
v 14.20000 -12.95000 3.10000
v 18.80000 -12.95000 3.10000
v 18.80000 -12.65000 3.10000
v 14.20000 -12.65000 3.10000
f 121 122 123 124
f 125 128 127 126
f 121 125 126 122
f 122 126 127 123
f 123 127 128 124
f 124 128 125 121
o main_shell_east_inner_n
usemtl concrete
v 16.95000 5.20000 0.00000
v 16.95000 9.20000 0.00000
v 16.65000 9.20000 0.00000
v 16.65000 5.20000 0.00000
v 16.95000 5.20000 3.10000
v 16.95000 9.20000 3.10000
v 16.65000 9.20000 3.10000
v 16.65000 5.20000 3.10000
f 129 130 131 132
f 133 136 135 134
f 129 133 134 130
f 130 134 135 131
f 131 135 136 132
f 132 136 133 129
o main_shell_east_inner_s
usemtl concrete_light
v 16.95000 -9.40000 0.00000
v 16.95000 -5.00000 0.00000
v 16.65000 -5.00000 0.00000
v 16.65000 -9.40000 0.00000
v 16.95000 -9.40000 3.10000
v 16.95000 -5.00000 3.10000
v 16.65000 -5.00000 3.10000
v 16.65000 -9.40000 3.10000
f 137 138 139 140
f 141 144 143 142
f 137 141 142 138
f 138 142 143 139
f 139 143 144 140
f 140 144 141 137
o main_atrium_column_01
usemtl concrete
v -5.49000 5.91000 0.00000
v -4.91000 5.91000 0.00000
v -4.91000 6.49000 0.00000
v -5.49000 6.49000 0.00000
v -5.49000 5.91000 6.30000
v -4.91000 5.91000 6.30000
v -4.91000 6.49000 6.30000
v -5.49000 6.49000 6.30000
f 145 146 147 148
f 149 152 151 150
f 145 149 150 146
f 146 150 151 147
f 147 151 152 148
f 148 152 149 145
o main_atrium_column_02
usemtl concrete
v 0.41000 5.91000 0.00000
v 0.99000 5.91000 0.00000
v 0.99000 6.49000 0.00000
v 0.41000 6.49000 0.00000
v 0.41000 5.91000 6.30000
v 0.99000 5.91000 6.30000
v 0.99000 6.49000 6.30000
v 0.41000 6.49000 6.30000
f 153 154 155 156
f 157 160 159 158
f 153 157 158 154
f 154 158 159 155
f 155 159 160 156
f 156 160 157 153
o main_atrium_column_05
usemtl concrete
v 0.41000 -6.49000 0.00000
v 0.99000 -6.49000 0.00000
v 0.99000 -5.91000 0.00000
v 0.41000 -5.91000 0.00000
v 0.41000 -6.49000 6.30000
v 0.99000 -6.49000 6.30000
v 0.99000 -5.91000 6.30000
v 0.41000 -5.91000 6.30000
f 161 162 163 164
f 165 168 167 166
f 161 165 166 162
f 162 166 167 163
f 163 167 168 164
f 164 168 165 161
o main_overhead_northwest
usemtl dark_concrete
v -17.91762 7.38163 3.39000
v -11.92242 7.62157 3.39000
v -12.08238 11.61837 3.39000
v -18.07758 11.37843 3.39000
v -17.91762 7.38163 3.71000
v -11.92242 7.62157 3.71000
v -12.08238 11.61837 3.71000
v -18.07758 11.37843 3.71000
f 169 170 171 172
f 173 176 175 174
f 169 173 174 170
f 170 174 175 171
f 171 175 176 172
f 172 176 173 169
o main_overhead_north_service
usemtl dark_concrete
v -7.68782 9.89123 3.20000
v -2.19222 10.11117 3.20000
v -2.31218 13.10877 3.20000
v -7.80778 12.88883 3.20000
v -7.68782 9.89123 3.50000
v -2.19222 10.11117 3.50000
v -2.31218 13.10877 3.50000
v -7.80778 12.88883 3.50000
f 177 178 179 180
f 181 184 183 182
f 177 181 182 178
f 178 182 183 179
f 179 183 184 180
f 180 184 181 177
o main_overhead_southwest
usemtl dark_concrete
v -17.67750 -11.37443 3.30000
v -11.48246 -11.62237 3.30000
v -11.32250 -7.62557 3.30000
v -17.51754 -7.37763 3.30000
v -17.67750 -11.37443 3.60000
v -11.48246 -11.62237 3.60000
v -11.32250 -7.62557 3.60000
v -17.51754 -7.37763 3.60000
f 185 186 187 188
f 189 192 191 190
f 185 189 190 186
f 186 190 191 187
f 187 191 192 188
f 188 192 189 185
o main_overhead_southeast
usemtl dark_concrete
v 11.40643 -11.27811 3.49000
v 17.40163 -11.51805 3.49000
v 17.59357 -6.72189 3.49000
v 11.59837 -6.48195 3.49000
v 11.40643 -11.27811 3.81000
v 17.40163 -11.51805 3.81000
v 17.59357 -6.72189 3.81000
v 11.59837 -6.48195 3.81000
f 193 194 195 196
f 197 200 199 198
f 193 197 198 194
f 194 198 199 195
f 195 199 200 196
f 196 200 197 193
o main_collapse_0_00
usemtl brick
v -15.82874 -7.08848 0.03152
v -15.53655 -6.74207 0.05431
v -15.99204 -6.35271 -0.02410
v -16.28423 -6.69911 -0.04689
v -15.92899 -7.05362 0.78703
v -15.63679 -6.70721 0.80982
v -16.09228 -6.31785 0.73142
v -16.38448 -6.66425 0.70863
f 201 202 203 204
f 205 208 207 206
f 201 205 206 202
f 202 206 207 203
f 203 207 208 204
f 204 208 205 201
o main_collapse_0_01
usemtl rubble
v -14.57385 -9.56558 0.01331
v -14.61232 -8.97596 0.02938
v -15.59644 -9.03903 -0.01239
v -15.55796 -9.62866 -0.02846
v -14.60337 -9.58735 0.74178
v -14.64184 -8.99773 0.75784
v -15.62596 -9.06081 0.71607
v -15.58748 -9.65043 0.70001
f 209 210 211 212
f 213 216 215 214
f 209 213 214 210
f 210 214 215 211
f 211 215 216 212
f 212 216 213 209
o main_collapse_0_02
usemtl rubble
v -14.05481 -10.54094 -0.07972
v -13.72228 -10.01923 -0.01886
v -14.21881 -9.71489 0.08513
v -14.55133 -10.23660 0.02426
v -14.02912 -10.58753 0.17930
v -13.69660 -10.06581 0.24016
v -14.19312 -9.76148 0.34414
v -14.52565 -10.28319 0.28328
f 217 218 219 220
f 221 224 223 222
f 217 221 222 218
f 218 222 223 219
f 219 223 224 220
f 220 224 221 217
o main_collapse_0_03
usemtl rubble
v -14.09625 -9.17135 -0.04265
v -13.19619 -9.06722 0.08308
v -13.28797 -8.22970 0.04649
v -14.18804 -8.33383 -0.07924
v -14.14824 -9.16115 0.32111
v -13.24818 -9.05702 0.44683
v -13.33996 -8.21951 0.41025
v -14.24003 -8.32364 0.28452
f 225 226 227 228
f 229 232 231 230
f 225 229 230 226
f 226 230 231 227
f 227 231 232 228
f 228 232 229 225
o main_collapse_0_04
usemtl brick
v -17.87563 -10.04571 -0.04890
v -18.23785 -9.40976 -0.08121
v -18.88890 -9.77366 0.05509
v -18.52668 -10.40961 0.08740
v -17.82730 -10.00029 0.30322
v -18.18952 -9.36434 0.27091
v -18.84058 -9.72824 0.40720
v -18.47835 -10.36419 0.43952
f 233 234 235 236
f 237 240 239 238
f 233 237 238 234
f 234 238 239 235
f 235 239 240 236
f 236 240 237 233
o main_collapse_0_05
usemtl rubble
v -15.08458 -7.56877 0.00357
v -14.98887 -6.69399 0.05239
v -15.95988 -6.58474 -0.00155
v -16.05560 -7.45952 -0.05037
v -15.12471 -7.60105 0.66065
v -15.02900 -6.72627 0.70947
v -16.00002 -6.61702 0.65553
v -16.09573 -7.49180 0.60671
f 241 242 243 244
f 245 248 247 246
f 241 245 246 242
f 242 246 247 243
f 243 247 248 244
f 244 248 245 241
o main_collapse_0_06
usemtl rubble
v -14.20894 -5.43234 0.06320
v -15.00245 -4.84891 0.00455
v -15.27277 -5.22285 -0.05791
v -14.47927 -5.80628 0.00075
v -14.27107 -5.46821 0.54687
v -15.06457 -4.88478 0.48822
v -15.33490 -5.25872 0.42577
v -14.54140 -5.84215 0.48442
f 249 250 251 252
f 253 256 255 254
f 249 253 254 250
f 250 254 255 251
f 251 255 256 252
f 252 256 253 249
o main_collapse_0_07
usemtl rubble
v -17.11979 -5.52348 -0.05858
v -17.81755 -5.39146 0.04445
v -17.98142 -6.27380 0.06528
v -17.28367 -6.40583 -0.03775
v -17.02813 -5.52579 0.56516
v -17.72588 -5.39376 0.66819
v -17.88976 -6.27610 0.68902
v -17.19200 -6.40813 0.58599
f 257 258 259 260
f 261 264 263 262
f 257 261 262 258
f 258 262 263 259
f 259 263 264 260
f 260 264 261 257
o main_collapse_0_08
usemtl brick
v -15.30095 -8.64131 0.01550
v -15.43565 -7.92287 -0.11909
v -16.07248 -8.01872 0.00661
v -15.93777 -8.73716 0.14120
v -15.20172 -8.50973 0.61855
v -15.33642 -7.79129 0.48396
v -15.97324 -7.88715 0.60966
v -15.83854 -8.60558 0.74425
f 265 266 267 268
f 269 272 271 270
f 265 269 270 266
f 266 270 271 267
f 267 271 272 268
f 268 272 269 265
o main_collapse_0_09
usemtl rubble
v -17.15519 -8.28418 -0.09665
v -16.95167 -7.22401 -0.02387
v -17.73457 -7.08258 0.10520
v -17.93809 -8.14275 0.03242
v -17.07360 -8.33786 0.45710
v -16.87008 -7.27769 0.52988
v -17.65298 -7.13626 0.65894
v -17.85650 -8.19643 0.58616
f 273 274 275 276
f 277 280 279 278
f 273 277 278 274
f 274 278 279 275
f 275 279 280 276
f 276 280 277 273
o main_collapse_0_10
usemtl rubble
v -17.58502 -8.26877 0.01778
v -18.48310 -7.67171 0.00636
v -18.85200 -8.22704 -0.01750
v -17.95392 -8.82410 -0.00608
v -17.59658 -8.27844 0.42132
v -18.49465 -7.68137 0.40991
v -18.86355 -8.23670 0.38605
v -17.96548 -8.83377 0.39746
f 281 282 283 284
f 285 288 287 286
f 281 285 286 282
f 282 286 287 283
f 283 287 288 284
f 284 288 285 281
o main_collapse_0_11
usemtl rubble
v -14.92367 -5.53169 -0.06938
v -14.43689 -5.37946 -0.01461
v -14.64993 -4.73084 0.07593
v -15.13671 -4.88308 0.02116
v -14.95156 -5.60319 0.37721
v -14.46479 -5.45096 0.43199
v -14.67782 -4.80235 0.52253
v -15.16460 -4.95458 0.46775
f 289 290 291 292
f 293 296 295 294
f 289 293 294 290
f 290 294 295 291
f 291 295 296 292
f 292 296 293 289
o main_collapse_0_12
usemtl brick
v -17.57628 -7.67258 0.04671
v -18.05076 -7.51700 0.06770
v -18.23650 -8.06894 -0.03998
v -17.76202 -8.22452 -0.06097
v -17.58297 -7.74378 0.42321
v -18.05745 -7.58820 0.44420
v -18.24319 -8.14014 0.33652
v -17.76871 -8.29572 0.31553
f 297 298 299 300
f 301 304 303 302
f 297 301 302 298
f 298 302 303 299
f 299 303 304 300
f 300 304 301 297
o main_collapse_0_13
usemtl rubble
v -14.57525 -8.66234 0.10328
v -13.68871 -8.42007 -0.06565
v -13.84343 -7.87232 -0.09206
v -14.72997 -8.11459 0.07687
v -14.47196 -8.60292 0.73059
v -13.58542 -8.36065 0.56166
v -13.74014 -7.81290 0.53524
v -14.62668 -8.05517 0.70418
f 305 306 307 308
f 309 312 311 310
f 305 309 310 306
f 306 310 311 307
f 307 311 312 308
f 308 312 309 305
o main_collapse_facade_0_1
usemtl concrete_light
v -14.75037 -10.06305 0.09352
v -14.85924 -7.22938 -0.04519
v -15.17714 -7.24325 -0.07908
v -15.06827 -10.07692 0.05963
v -14.97851 -9.96894 2.19509
v -15.08738 -7.13527 2.05638
v -15.40528 -7.14914 2.02249
v -15.29641 -9.98281 2.16120
f 313 314 315 316
f 317 320 319 318
f 313 317 318 314
f 314 318 319 315
f 315 319 320 316
f 316 320 317 313
o main_collapse_1_14
usemtl rubble
v -10.41178 8.10347 0.00376
v -10.07341 8.46893 0.02615
v -10.47433 8.84190 -0.00265
v -10.81270 8.47643 -0.02505
v -10.44365 8.10476 0.46413
v -10.10528 8.47023 0.48652
v -10.50620 8.84319 0.45772
v -10.84457 8.47773 0.43532
f 321 322 323 324
f 325 328 327 326
f 321 325 326 322
f 322 326 327 323
f 323 327 328 324
f 324 328 325 321
o main_collapse_1_15
usemtl rubble
v -12.16256 8.90538 -0.02729
v -11.03920 8.92678 0.07506
v -11.04230 9.28620 0.03392
v -12.16566 9.26480 -0.06842
v -12.22014 8.97555 0.59007
v -11.09678 8.99694 0.69241
v -11.09988 9.35636 0.65127
v -12.22324 9.33497 0.54893
f 329 330 331 332
f 333 336 335 334
f 329 333 334 330
f 330 334 335 331
f 331 335 336 332
f 332 336 333 329
o main_collapse_1_16
usemtl brick
v -10.61685 8.13920 0.09175
v -11.40969 8.62319 -0.06268
v -11.60288 8.30136 -0.07949
v -10.81004 7.81737 0.07494
v -10.75457 8.17850 0.92194
v -11.54741 8.66248 0.76751
v -11.74059 8.34065 0.75070
v -10.94776 7.85667 0.90513
f 337 338 339 340
f 341 344 343 342
f 337 341 342 338
f 338 342 343 339
f 339 343 344 340
f 340 344 341 337
o main_collapse_1_17
usemtl rubble
v -12.61856 8.02561 -0.00371
v -13.52954 8.11536 -0.09758
v -13.61948 7.31435 0.00945
v -12.70850 7.22460 0.10331
v -12.65457 8.08378 0.40138
v -13.56555 8.17353 0.30751
v -13.65549 7.37252 0.41454
v -12.74451 7.28277 0.50841
f 345 346 347 348
f 349 352 351 350
f 345 349 350 346
f 346 350 351 347
f 347 351 352 348
f 348 352 349 345
o main_collapse_1_18
usemtl rubble
v -12.49166 12.26143 0.00790
v -12.20762 12.57626 0.00636
v -12.58612 12.91768 -0.00760
v -12.87015 12.60285 -0.00606
v -12.50579 12.27806 0.79790
v -12.22176 12.59288 0.79636
v -12.60025 12.93430 0.78240
v -12.88429 12.61948 0.78394
f 353 354 355 356
f 357 360 359 358
f 353 357 358 354
f 354 358 359 355
f 355 359 360 356
f 356 360 357 353
o main_collapse_1_19
usemtl rubble
v -12.04278 10.05798 0.09943
v -12.10698 10.86889 -0.03917
v -12.52830 10.82684 -0.09003
v -12.46411 10.01593 0.04857
v -12.10140 10.12663 0.52824
v -12.16560 10.93754 0.38965
v -12.58692 10.89549 0.33879
v -12.52272 10.08458 0.47739
f 361 362 363 364
f 365 368 367 366
f 361 365 366 362
f 362 366 367 363
f 363 367 368 364
f 364 368 365 361
o main_collapse_1_20
usemtl brick
v -12.09565 11.01193 -0.01408
v -11.56546 11.07072 -0.05980
v -11.64591 11.85557 0.01647
v -12.17610 11.79677 0.06220
v -12.06823 10.98696 0.27174
v -11.53804 11.04575 0.22602
v -11.61849 11.83060 0.30230
v -12.14868 11.77181 0.34802
f 369 370 371 372
f 373 376 375 374
f 369 373 374 370
f 370 374 375 371
f 371 375 376 372
f 372 376 373 369
o main_collapse_1_21
usemtl rubble
v -12.20674 8.96443 0.06499
v -11.11742 9.17918 0.09680
v -11.27584 10.00595 -0.06002
v -12.36516 9.79120 -0.09182
v -12.22485 9.01446 0.34710
v -11.13553 9.22921 0.37890
v -11.29394 10.05599 0.22209
v -12.38326 9.84123 0.19029
f 377 378 379 380
f 381 384 383 382
f 377 381 382 378
f 378 382 383 379
f 379 383 384 380
f 380 384 381 377
o main_collapse_1_22
usemtl rubble
v -12.39418 9.62387 0.00284
v -11.52223 9.76472 -0.09834
v -11.62888 10.49660 0.00141
v -12.50082 10.35575 0.10259
v -12.35779 9.59241 0.27261
v -11.48585 9.73326 0.17142
v -11.59249 10.46513 0.27117
v -12.46444 10.32429 0.37236
f 385 386 387 388
f 389 392 391 390
f 385 389 390 386
f 386 390 391 387
f 387 391 392 388
f 388 392 389 385
o main_collapse_1_23
usemtl rubble
v -12.84777 9.11779 0.00519
v -11.92962 9.37500 0.06018
v -12.16515 10.22936 -0.00362
v -13.08330 9.97214 -0.05861
v -12.87548 9.13773 0.37455
v -11.95733 9.39495 0.42954
v -12.19285 10.24930 0.36574
v -13.11100 9.99208 0.31075
f 393 394 395 396
f 397 400 399 398
f 393 397 398 394
f 394 398 399 395
f 395 399 400 396
f 396 400 397 393
o main_collapse_1_24
usemtl brick
v -10.97931 9.23658 0.02197
v -11.08951 9.97209 -0.03773
v -11.79985 9.86719 -0.01896
v -11.68965 9.13168 0.04074
v -10.96739 9.30691 0.86641
v -11.07758 10.04242 0.80671
v -11.78793 9.93752 0.82548
v -11.67773 9.20201 0.88518
f 401 402 403 404
f 405 408 407 406
f 401 405 406 402
f 402 406 407 403
f 403 407 408 404
f 404 408 405 401
o main_collapse_1_25
usemtl rubble
v -14.46484 7.71627 0.00772
v -14.28077 8.25763 0.02300
v -15.11688 8.54279 -0.00742
v -15.30096 8.00143 -0.02271
v -14.47776 7.71182 0.32089
v -14.29368 8.25318 0.33618
v -15.12980 8.53834 0.30575
v -15.31387 7.99698 0.29047
f 409 410 411 412
f 413 416 415 414
f 409 413 414 410
f 410 414 415 411
f 411 415 416 412
f 412 416 413 409
o main_collapse_1_26
usemtl rubble
v -10.27840 11.16756 -0.00598
v -10.83279 11.73066 0.07888
v -11.42349 11.15970 0.00848
v -10.86910 10.59660 -0.07638
v -10.27482 11.13137 0.25752
v -10.82921 11.69447 0.34238
v -11.41991 11.12351 0.27199
v -10.86552 10.56041 0.18713
f 417 418 419 420
f 421 424 423 422
f 417 421 422 418
f 418 422 423 419
f 419 423 424 420
f 420 424 421 417
o main_collapse_1_27
usemtl rubble
v -13.78978 8.07562 0.03945
v -14.18378 8.96020 0.08650
v -14.99694 8.60428 -0.03136
v -14.60294 7.71970 -0.07841
v -13.87232 7.99573 0.85012
v -14.26632 8.88032 0.89717
v -15.07947 8.52440 0.77931
v -14.68547 7.63982 0.73226
f 425 426 427 428
f 429 432 431 430
f 425 429 430 426
f 426 430 431 427
f 427 431 432 428
f 428 432 429 425
o main_collapse_2_28
usemtl brick
v 14.68779 9.31969 -0.02133
v 14.48541 9.88035 -0.05507
v 13.85674 9.65847 0.02882
v 14.05912 9.09781 0.06256
v 14.76605 9.39526 0.76498
v 14.56367 9.95592 0.73124
v 13.93500 9.73404 0.81514
v 14.13738 9.17338 0.84887
f 433 434 435 436
f 437 440 439 438
f 433 437 438 434
f 434 438 439 435
f 435 439 440 436
f 436 440 437 433
o main_collapse_2_29
usemtl rubble
v 15.27235 5.24605 0.10341
v 15.17222 6.22986 -0.06134
v 14.48323 6.15401 -0.09554
v 14.58336 5.17019 0.06920
v 15.23717 5.32998 0.62600
v 15.13703 6.31379 0.46125
v 14.44804 6.23794 0.42704
v 14.54818 5.25412 0.59179
f 441 442 443 444
f 445 448 447 446
f 441 445 446 442
f 442 446 447 443
f 443 447 448 444
f 444 448 445 441
o main_collapse_2_30
usemtl rubble
v 14.47192 7.40361 -0.04015
v 14.55589 7.92131 -0.10988
v 13.65708 8.08897 0.05250
v 13.57311 7.57128 0.12222
v 14.57108 7.45439 0.45631
v 14.65505 7.97209 0.38659
v 13.75624 8.13975 0.54896
v 13.67227 7.62206 0.61869
f 449 450 451 452
f 453 456 455 454
f 449 453 454 450
f 450 454 455 451
f 451 455 456 452
f 452 456 453 449
o main_collapse_2_31
usemtl rubble
v 11.08482 5.89128 0.00052
v 11.77897 6.62303 0.00834
v 11.35843 7.02207 -0.00042
v 10.66427 6.29032 -0.00824
v 11.07314 5.89470 0.71689
v 11.76730 6.62645 0.72471
v 11.34675 7.02548 0.71595
v 10.65259 6.29373 0.70813
f 457 458 459 460
f 461 464 463 462
f 457 461 462 458
f 458 462 463 459
f 459 463 464 460
f 460 464 461 457
o main_collapse_2_32
usemtl brick
v 12.99681 9.22513 0.10756
v 12.30721 9.95433 0.00410
v 11.79635 9.45630 -0.10096
v 12.48595 8.72710 0.00250
v 12.92422 9.21403 0.51316
v 12.23461 9.94323 0.40970
v 11.72376 9.44520 0.30464
v 12.41336 8.71600 0.40810
f 465 466 467 468
f 469 472 471 470
f 465 469 470 466
f 466 470 471 467
f 467 471 472 468
f 468 472 469 465
o main_collapse_2_33
usemtl rubble
v 16.89830 5.86528 0.02495
v 16.84291 6.83129 -0.07417
v 16.42987 6.81391 -0.01268
v 16.48526 5.84791 0.08643
v 17.00612 5.94818 0.77264
v 16.95073 6.91418 0.67353
v 16.53769 6.89681 0.73502
v 16.59308 5.93080 0.83413
f 473 474 475 476
f 477 480 479 478
f 473 477 478 474
f 474 478 479 475
f 475 479 480 476
f 476 480 477 473
o main_collapse_2_34
usemtl rubble
v 12.74805 5.90897 0.04574
v 13.71425 6.51247 0.04230
v 13.42492 6.97523 -0.03872
v 12.45872 6.37174 -0.03528
v 12.69934 5.99061 0.68602
v 13.66554 6.59410 0.68259
v 13.37621 7.05687 0.60157
v 12.41000 6.45338 0.60500
f 481 482 483 484
f 485 488 487 486
f 481 485 486 482
f 482 486 487 483
f 483 487 488 484
f 484 488 485 481
o main_collapse_2_35
usemtl rubble
v 13.18416 8.25747 -0.00661
v 14.11486 8.52902 0.05795
v 13.91168 9.23721 0.00828
v 12.98097 8.96566 -0.05627
v 13.15335 8.27470 0.36509
v 14.08405 8.54625 0.42965
v 13.88087 9.25444 0.37998
v 12.95017 8.98289 0.31543
f 489 490 491 492
f 493 496 495 494
f 489 493 494 490
f 490 494 495 491
f 491 495 496 492
f 492 496 493 489
o main_collapse_2_36
usemtl brick
v 13.77775 7.94932 0.09176
v 12.93666 8.46569 -0.00250
v 12.66419 8.00697 -0.08409
v 13.50528 7.49061 0.01016
v 13.70165 7.91104 0.56112
v 12.86056 8.42740 0.46687
v 12.58809 7.96869 0.38528
v 13.42918 7.45232 0.47953
f 497 498 499 500
f 501 504 503 502
f 497 501 502 498
f 498 502 503 499
f 499 503 504 500
f 500 504 501 497
o main_collapse_2_37
usemtl rubble
v 13.31933 10.41943 0.07093
v 12.42829 11.09182 -0.09140
v 12.12561 10.69671 -0.06655
v 13.01664 10.02432 0.09578
v 13.28765 10.46703 0.44195
v 12.39661 11.13942 0.27961
v 12.09393 10.74431 0.30446
v 12.98497 10.07192 0.46680
f 505 506 507 508
f 509 512 511 510
f 505 509 510 506
f 506 510 511 507
f 507 511 512 508
f 508 512 509 505
o main_collapse_2_38
usemtl rubble
v 15.05162 9.54121 0.03460
v 15.60230 10.48160 -0.05292
v 15.07149 10.79444 -0.03149
v 14.52081 9.85405 0.05603
v 15.10901 9.58306 0.84537
v 15.65970 10.52345 0.75786
v 15.12888 10.83628 0.77928
v 14.57820 9.89589 0.86680
f 513 514 515 516
f 517 520 519 518
f 513 517 518 514
f 514 518 519 515
f 515 519 520 516
f 516 520 517 513
o main_collapse_2_39
usemtl rubble
v 14.75267 6.16737 0.08612
v 15.57076 6.83216 0.03793
v 14.99554 7.53160 -0.07844
v 14.17744 6.86681 -0.03025
v 14.71488 6.27379 0.91250
v 15.53297 6.93858 0.86431
v 14.95775 7.63801 0.74794
v 14.13966 6.97322 0.79613
f 521 522 523 524
f 525 528 527 526
f 521 525 526 522
f 522 526 527 523
f 523 527 528 524
f 524 528 525 521
o main_collapse_2_40
usemtl brick
v 12.39095 8.47730 0.02185
v 11.96598 8.84854 0.09740
v 11.58907 8.43926 -0.01154
v 12.01404 8.06802 -0.08710
v 12.37996 8.39099 0.38409
v 11.95499 8.76223 0.45965
v 11.57809 8.35295 0.35070
v 12.00305 7.98171 0.27514
f 529 530 531 532
f 533 536 535 534
f 529 533 534 530
f 530 534 535 531
f 531 535 536 532
f 532 536 533 529
o main_collapse_2_41
usemtl rubble
v 14.19551 10.25116 -0.03875
v 13.36011 10.42398 -0.05611
v 13.20407 9.67955 0.04196
v 14.03947 9.50672 0.05933
v 14.19786 10.30053 0.33976
v 13.36245 10.47335 0.32240
v 13.20641 9.72892 0.42048
v 14.04182 9.55610 0.43784
f 537 538 539 540
f 541 544 543 542
f 537 541 542 538
f 538 542 543 539
f 539 543 544 540
f 540 544 541 537
o main_collapse_facade_2_0
usemtl concrete_light
v 13.11360 6.64986 0.17353
v 15.61899 9.07445 -0.16213
v 15.39642 9.30437 -0.16258
v 12.89103 6.87978 0.17308
v 13.27503 6.81075 2.54062
v 15.78042 9.23534 2.20495
v 15.55785 9.46526 2.20451
v 13.05246 7.04067 2.54017
f 545 546 547 548
f 549 552 551 550
f 545 549 550 546
f 546 550 551 547
f 547 551 552 548
f 548 552 549 545
o main_partition_01
usemtl concrete_light
v -13.85000 -12.30000 0.00000
v -13.85000 -9.30000 0.00000
v -14.15000 -9.30000 0.00000
v -14.15000 -12.30000 0.00000
v -13.85000 -12.30000 2.70000
v -13.85000 -9.30000 2.70000
v -14.15000 -9.30000 2.70000
v -14.15000 -12.30000 2.70000
f 553 554 555 556
f 557 560 559 558
f 553 557 558 554
f 554 558 559 555
f 555 559 560 556
f 556 560 557 553
o main_partition_02
usemtl concrete_light
v -8.85000 10.65000 0.00000
v -8.85000 13.35000 0.00000
v -9.15000 13.35000 0.00000
v -9.15000 10.65000 0.00000
v -8.85000 10.65000 2.70000
v -8.85000 13.35000 2.70000
v -9.15000 13.35000 2.70000
v -9.15000 10.65000 2.70000
f 561 562 563 564
f 565 568 567 566
f 561 565 566 562
f 562 566 567 563
f 563 567 568 564
f 564 568 565 561
o main_partition_03
usemtl concrete_light
v 7.00000 10.35000 0.00000
v 10.00000 10.35000 0.00000
v 10.00000 10.65000 0.00000
v 7.00000 10.65000 0.00000
v 7.00000 10.35000 2.70000
v 10.00000 10.35000 2.70000
v 10.00000 10.65000 2.70000
v 7.00000 10.65000 2.70000
f 569 570 571 572
f 573 576 575 574
f 569 573 574 570
f 570 574 575 571
f 571 575 576 572
f 572 576 573 569
o main_partition_05
usemtl concrete_light
v 10.45000 -11.15000 0.00000
v 13.55000 -11.15000 0.00000
v 13.55000 -10.85000 0.00000
v 10.45000 -10.85000 0.00000
v 10.45000 -11.15000 2.70000
v 13.55000 -11.15000 2.70000
v 13.55000 -10.85000 2.70000
v 10.45000 -10.85000 2.70000
f 577 578 579 580
f 581 584 583 582
f 577 581 582 578
f 578 582 583 579
f 579 583 584 580
f 580 584 581 577
o main_partition_06
usemtl concrete_light
v 6.95000 -7.70000 0.00000
v 6.95000 -5.30000 0.00000
v 6.65000 -5.30000 0.00000
v 6.65000 -7.70000 0.00000
v 6.95000 -7.70000 2.70000
v 6.95000 -5.30000 2.70000
v 6.65000 -5.30000 2.70000
v 6.65000 -7.70000 2.70000
f 585 586 587 588
f 589 592 591 590
f 585 589 590 586
f 586 590 591 587
f 587 591 592 588
f 588 592 589 585
o main_partition_07
usemtl concrete_light
v -8.40000 -10.45000 0.00000
v -6.00000 -10.45000 0.00000
v -6.00000 -10.15000 0.00000
v -8.40000 -10.15000 0.00000
v -8.40000 -10.45000 2.70000
v -6.00000 -10.45000 2.70000
v -6.00000 -10.15000 2.70000
v -8.40000 -10.15000 2.70000
f 593 594 595 596
f 597 600 599 598
f 593 597 598 594
f 594 598 599 595
f 595 599 600 596
f 596 600 597 593
