<?xml version="1.0" encoding="utf-8"?>
<COLLADA xmlns="http://www.collada.org/2005/11/COLLADASchema" version="1.4.1">
  <asset><unit name="meter" meter="1"/><up_axis>Z_UP</up_axis></asset>
  <library_geometries>
    <geometry id="ruins_urban_01_geometry" name="Ruins-Urban-01">
      <mesh>
        <source id="positions">
          <float_array id="positions-array" count="1248">-15.00000 -15.00000 -0.20000 15.00000 -15.00000 -0.20000 15.00000 15.00000 -0.20000 -15.00000 15.00000 -0.20000 -15.00000 -15.00000 0.00000 15.00000 -15.00000 0.00000 15.00000 15.00000 0.00000 -15.00000 15.00000 0.00000 -15.00000 14.86000 0.00000 15.00000 14.86000 0.00000 15.00000 15.14000 0.00000 -15.00000 15.14000 0.00000 -15.00000 14.86000 3.50000 15.00000 14.86000 3.50000 15.00000 15.14000 3.50000 -15.00000 15.14000 3.50000 -15.00000 -15.14000 0.00000 15.00000 -15.14000 0.00000 15.00000 -14.86000 0.00000 -15.00000 -14.86000 0.00000 -15.00000 -15.14000 3.50000 15.00000 -15.14000 3.50000 15.00000 -14.86000 3.50000 -15.00000 -14.86000 3.50000 15.14000 -15.00000 0.00000 15.14000 15.00000 0.00000 14.86000 15.00000 0.00000 14.86000 -15.00000 0.00000 15.14000 -15.00000 3.50000 15.14000 15.00000 3.50000 14.86000 15.00000 3.50000 14.86000 -15.00000 3.50000 -14.86000 -15.00000 0.00000 -14.86000 -1.70000 0.00000 -15.14000 -1.70000 0.00000 -15.14000 -15.00000 0.00000 -14.86000 -15.00000 3.50000 -14.86000 -1.70000 3.50000 -15.14000 -1.70000 3.50000 -15.14000 -15.00000 3.50000 -14.86000 1.70000 0.00000 -14.86000 15.00000 0.00000 -15.14000 15.00000 0.00000 -15.14000 1.70000 0.00000 -14.86000 1.70000 3.50000 -14.86000 15.00000 3.50000 -15.14000 15.00000 3.50000 -15.14000 1.70000 3.50000 -15.00000 5.86000 0.00000 -12.40000 5.86000 0.00000 -12.40000 6.14000 0.00000 -15.00000 6.14000 0.00000 -15.00000 5.86000 3.50000 -12.40000 5.86000 3.50000 -12.40000 6.14000 3.50000 -15.00000 6.14000 3.50000 -9.60000 5.86000 0.00000 -1.30000 5.86000 0.00000 -1.30000 6.14000 0.00000 -9.60000 6.14000 0.00000 -9.60000 5.86000 3.50000 -1.30000 5.86000 3.50000 -1.30000 6.14000 3.50000 -9.60000 6.14000 3.50000 1.30000 5.86000 0.00000 8.60000 5.86000 0.00000 8.60000 6.14000 0.00000 1.30000 6.14000 0.00000 1.30000 5.86000 3.50000 8.60000 5.86000 3.50000 8.60000 6.14000 3.50000 1.30000 6.14000 3.50000 11.40000 5.86000 0.00000 15.00000 5.86000 0.00000 15.00000 6.14000 0.00000 11.40000 6.14000 0.00000 11.40000 5.86000 3.50000 15.00000 5.86000 3.50000 15.00000 6.14000 3.50000 11.40000 6.14000 3.50000 -15.00000 -6.14000 0.00000 -11.40000 -6.14000 0.00000 -11.40000 -5.86000 0.00000 -15.00000 -5.86000 0.00000 -15.00000 -6.14000 3.50000 -11.40000 -6.14000 3.50000 -11.40000 -5.86000 3.50000 -15.00000 -5.86000 3.50000 -8.60000 -6.14000 0.00000 -1.30000 -6.14000 0.00000 -1.30000 -5.86000 0.00000 -8.60000 -5.86000 0.00000 -8.60000 -6.14000 3.50000 -1.30000 -6.14000 3.50000 -1.30000 -5.86000 3.50000 -8.60000 -5.86000 3.50000 1.30000 -6.14000 0.00000 8.60000 -6.14000 0.00000 8.60000 -5.86000 0.00000 1.30000 -5.86000 0.00000 1.30000 -6.14000 3.50000 8.60000 -6.14000 3.50000 8.60000 -5.86000 3.50000 1.30000 -5.86000 3.50000 11.40000 -6.14000 0.00000 15.00000 -6.14000 0.00000 15.00000 -5.86000 0.00000 11.40000 -5.86000 0.00000 11.40000 -6.14000 3.50000 15.00000 -6.14000 3.50000 15.00000 -5.86000 3.50000 11.40000 -5.86000 3.50000 -5.86000 -15.00000 0.00000 -5.86000 -11.40000 0.00000 -6.14000 -11.40000 0.00000 -6.14000 -15.00000 0.00000 -5.86000 -15.00000 3.50000 -5.86000 -11.40000 3.50000 -6.14000 -11.40000 3.50000 -6.14000 -15.00000 3.50000 -5.86000 -8.60000 0.00000 -5.86000 -1.40000 0.00000 -6.14000 -1.40000 0.00000 -6.14000 -8.60000 0.00000 -5.86000 -8.60000 3.50000 -5.86000 -1.40000 3.50000 -6.14000 -1.40000 3.50000 -6.14000 -8.60000 3.50000 -5.86000 1.40000 0.00000 -5.86000 8.70000 0.00000 -6.14000 8.70000 0.00000 -6.14000 1.40000 0.00000 -5.86000 1.40000 3.50000 -5.86000 8.70000 3.50000 -6.14000 8.70000 3.50000 -6.14000 1.40000 3.50000 -5.86000 11.30000 0.00000 -5.86000 15.00000 0.00000 -6.14000 15.00000 0.00000 -6.14000 11.30000 0.00000 -5.86000 11.30000 3.50000 -5.86000 15.00000 3.50000 -6.14000 15.00000 3.50000 -6.14000 11.30000 3.50000 6.14000 -15.00000 0.00000 6.14000 -12.30000 0.00000 5.86000 -12.30000 0.00000 5.86000 -15.00000 0.00000 6.14000 -15.00000 3.50000 6.14000 -12.30000 3.50000 5.86000 -12.30000 3.50000 5.86000 -15.00000 3.50000 6.14000 -9.70000 0.00000 6.14000 -1.40000 0.00000 5.86000 -1.40000 0.00000 5.86000 -9.70000 0.00000 6.14000 -9.70000 3.50000 6.14000 -1.40000 3.50000 5.86000 -1.40000 3.50000 5.86000 -9.70000 3.50000 6.14000 1.40000 0.00000 6.14000 9.70000 0.00000 5.86000 9.70000 0.00000 5.86000 1.40000 0.00000 6.14000 1.40000 3.50000 6.14000 9.70000 3.50000 5.86000 9.70000 3.50000 5.86000 1.40000 3.50000 6.14000 12.30000 0.00000 6.14000 15.00000 0.00000 5.86000 15.00000 0.00000 5.86000 12.30000 0.00000 6.14000 12.30000 3.50000 6.14000 15.00000 3.50000 5.86000 15.00000 3.50000 5.86000 12.30000 3.50000 -10.36000 6.00000 0.00000 -10.36000 9.10000 0.00000 -10.64000 9.10000 0.00000 -10.64000 6.00000 0.00000 -10.36000 6.00000 3.50000 -10.36000 9.10000 3.50000 -10.64000 9.10000 3.50000 -10.64000 6.00000 3.50000 -10.36000 11.30000 0.00000 -10.36000 15.00000 0.00000 -10.64000 15.00000 0.00000 -10.64000 11.30000 0.00000 -10.36000 11.30000 3.50000 -10.36000 15.00000 3.50000 -10.64000 15.00000 3.50000 -10.64000 11.30000 3.50000 10.64000 6.00000 0.00000 10.64000 9.90000 0.00000 10.36000 9.90000 0.00000 10.36000 6.00000 0.00000 10.64000 6.00000 3.50000 10.64000 9.90000 3.50000 10.36000 9.90000 3.50000 10.36000 6.00000 3.50000 10.64000 12.10000 0.00000 10.64000 15.00000 0.00000 10.36000 15.00000 0.00000 10.36000 12.10000 0.00000 10.64000 12.10000 3.50000 10.64000 15.00000 3.50000 10.36000 15.00000 3.50000 10.36000 12.10000 3.50000 -10.36000 -15.00000 0.00000 -10.36000 -11.60000 0.00000 -10.64000 -11.60000 0.00000 -10.64000 -15.00000 0.00000 -10.36000 -15.00000 3.50000 -10.36000 -11.60000 3.50000 -10.64000 -11.60000 3.50000 -10.64000 -15.00000 3.50000 -10.36000 -9.40000 0.00000 -10.36000 -6.00000 0.00000 -10.64000 -6.00000 0.00000 -10.64000 -9.40000 0.00000 -10.36000 -9.40000 3.50000 -10.36000 -6.00000 3.50000 -10.64000 -6.00000 3.50000 -10.64000 -9.40000 3.50000 10.64000 -15.00000 0.00000 10.64000 -12.10000 0.00000 10.36000 -12.10000 0.00000 10.36000 -15.00000 0.00000 10.64000 -15.00000 3.50000 10.64000 -12.10000 3.50000 10.36000 -12.10000 3.50000 10.36000 -15.00000 3.50000 10.64000 -9.90000 0.00000 10.64000 -6.00000 0.00000 10.36000 -6.00000 0.00000 10.36000 -9.90000 0.00000 10.64000 -9.90000 3.50000 10.64000 -6.00000 3.50000 10.36000 -6.00000 3.50000 10.36000 -9.90000 3.50000 -13.40452 10.05016 0.00000 -10.69157 10.74289 0.00000 -10.79548 11.14984 0.00000 -13.50843 10.45711 0.00000 -13.40452 10.05016 2.10000 -10.69157 10.74289 2.10000 -10.79548 11.14984 2.10000 -13.50843 10.45711 2.10000 -9.44848 -10.78112 0.00000 -7.09159 -11.61484 0.00000 -6.95152 -11.21888 0.00000 -9.30841 -10.38516 0.00000 -9.44848 -10.78112 2.10000 -7.09159 -11.61484 2.10000 -6.95152 -11.21888 2.10000 -9.30841 -10.38516 2.10000 11.78635 13.10555 0.00000 14.10568 12.48856 0.00000 14.21365 12.89445 0.00000 11.89432 13.51144 0.00000 11.78635 13.10555 2.10000 14.10568 12.48856 2.10000 14.21365 12.89445 2.10000 11.89432 13.51144 2.10000 11.96888 -13.55081 0.00000 14.15925 -12.84917 0.00000 14.03112 -12.44919 0.00000 11.84075 -13.15083 0.00000 11.96888 -13.55081 2.10000 14.15925 -12.84917 2.10000 14.03112 -12.44919 2.10000 11.84075 -13.15083 2.10000 -3.89000 3.31000 0.00000 -3.31000 3.31000 0.00000 -3.31000 3.89000 0.00000 -3.89000 3.89000 0.00000 -3.89000 3.31000 3.50000 -3.31000 3.31000 3.50000 -3.31000 3.89000 3.50000 -3.89000 3.89000 3.50000 -0.29000 3.31000 0.00000 0.29000 3.31000 0.00000 0.29000 3.89000 0.00000 -0.29000 3.89000 0.00000 -0.29000 3.31000 3.50000 0.29000 3.31000 3.50000 0.29000 3.89000 3.50000 -0.29000 3.89000 3.50000 3.31000 3.31000 0.00000 3.89000 3.31000 0.00000 3.89000 3.89000 0.00000 3.31000 3.89000 0.00000 3.31000 3.31000 3.50000 3.89000 3.31000 3.50000 3.89000 3.89000 3.50000 3.31000 3.89000 3.50000 -3.89000 -3.89000 0.00000 -3.31000 -3.89000 0.00000 -3.31000 -3.31000 0.00000 -3.89000 -3.31000 0.00000 -3.89000 -3.89000 3.50000 -3.31000 -3.89000 3.50000 -3.31000 -3.31000 3.50000 -3.89000 -3.31000 3.50000 -0.29000 -3.89000 0.00000 0.29000 -3.89000 0.00000 0.29000 -3.31000 0.00000 -0.29000 -3.31000 0.00000 -0.29000 -3.89000 3.50000 0.29000 -3.89000 3.50000 0.29000 -3.31000 3.50000 -0.29000 -3.31000 3.50000 3.31000 -3.89000 0.00000 3.89000 -3.89000 0.00000 3.89000 -3.31000 0.00000 3.31000 -3.31000 0.00000 3.31000 -3.89000 3.50000 3.89000 -3.89000 3.50000 3.89000 -3.31000 3.50000 3.31000 -3.31000 3.50000 -14.30000 8.17500 0.00000 -11.70000 8.17500 0.00000 -11.70000 8.82500 0.00000 -14.30000 8.82500 0.00000 -14.30000 8.17500 1.80000 -11.70000 8.17500 1.80000 -11.70000 8.82500 1.80000 -14.30000 8.82500 1.80000 -9.40000 8.37500 0.00000 -6.60000 8.37500 0.00000 -6.60000 9.02500 0.00000 -9.40000 9.02500 0.00000 -9.40000 8.37500 1.80000 -6.60000 8.37500 1.80000 -6.60000 9.02500 1.80000 -9.40000 9.02500 1.80000 6.60000 8.17500 0.00000 9.40000 8.17500 0.00000 9.40000 8.82500 0.00000 6.60000 8.82500 0.00000 6.60000 8.17500 1.80000 9.40000 8.17500 1.80000 9.40000 8.82500 1.80000 6.60000 8.82500 1.80000 11.70000 8.37500 0.00000 14.30000 8.37500 0.00000 14.30000 9.02500 0.00000 11.70000 9.02500 0.00000 11.70000 8.37500 1.80000 14.30000 8.37500 1.80000 14.30000 9.02500 1.80000 11.70000 9.02500 1.80000 -14.40000 -9.02500 0.00000 -11.60000 -9.02500 0.00000 -11.60000 -8.37500 0.00000 -14.40000 -8.37500 0.00000 -14.40000 -9.02500 1.80000 -11.60000 -9.02500 1.80000 -11.60000 -8.37500 1.80000 -14.40000 -8.37500 1.80000 -9.20000 -8.82500 0.00000 -6.80000 -8.82500 0.00000 -6.80000 -8.17500 0.00000 -9.20000 -8.17500 0.00000 -9.20000 -8.82500 1.80000 -6.80000 -8.82500 1.80000 -6.80000 -8.17500 1.80000 -9.20000 -8.17500 1.80000 6.60000 -8.92500 0.00000 9.40000 -8.92500 0.00000 9.40000 -8.27500 0.00000 6.60000 -8.27500 0.00000 6.60000 -8.92500 1.80000 9.40000 -8.92500 1.80000 9.40000 -8.27500 1.80000 6.60000 -8.27500 1.80000 11.75000 -8.72500 0.00000 14.25000 -8.72500 0.00000 14.25000 -8.07500 0.00000 11.75000 -8.07500 0.00000 11.75000 -8.72500 1.80000 14.25000 -8.72500 1.80000 14.25000 -8.07500 1.80000 11.75000 -8.07500 1.80000 -12.15000 2.00000 0.00000 -10.85000 2.00000 0.00000 -10.85000 3.20000 0.00000 -12.15000 3.20000 0.00000 -12.15000 2.00000 1.10000 -10.85000 2.00000 1.10000 -10.85000 3.20000 1.10000 -12.15000 3.20000 1.10000 10.95000 -3.40000 0.00000 12.25000 -3.40000 0.00000 12.25000 -2.20000 0.00000 10.95000 -2.20000 0.00000 10.95000 -3.40000 1.10000 12.25000 -3.40000 1.10000 12.25000 -2.20000 1.10000 10.95000 -2.20000 1.10000 -13.50000 11.80000 3.06000 -10.50000 11.80000 3.06000 -10.50000 13.20000 3.06000 -13.50000 13.20000 3.06000 -13.50000 11.80000 3.30000 -10.50000 11.80000 3.30000 -10.50000 13.20000 3.30000 -13.50000 13.20000 3.30000 10.50000 -13.20000 3.06000 13.50000 -13.20000 3.06000 13.50000 -11.80000 3.06000 10.50000 -11.80000 3.06000 10.50000 -13.20000 3.30000 13.50000 -13.20000 3.30000 13.50000 -11.80000 3.30000 10.50000 -11.80000 3.30000</float_array>
          <technique_common>
            <accessor source="#positions-array" count="416" stride="3">
              <param name="X" type="float"/><param name="Y" type="float"/><param name="Z" type="float"/>
            </accessor>
          </technique_common>
        </source>
        <vertices id="vertices"><input semantic="POSITION" source="#positions"/></vertices>
        <triangles count="624">
          <input semantic="VERTEX" source="#vertices" offset="0"/>
          <p>0 1 2 0 2 3 4 7 6 4 6 5 0 4 5 0 5 1 1 5 6 1 6 2 2 6 7 2 7 3 3 7 4 3 4 0 8 9 10 8 10 11 12 15 14 12 14 13 8 12 13 8 13 9 9 13 14 9 14 10 10 14 15 10 15 11 11 15 12 11 12 8 16 17 18 16 18 19 20 23 22 20 22 21 16 20 21 16 21 17 17 21 22 17 22 18 18 22 23 18 23 19 19 23 20 19 20 16 24 25 26 24 26 27 28 31 30 28 30 29 24 28 29 24 29 25 25 29 30 25 30 26 26 30 31 26 31 27 27 31 28 27 28 24 32 33 34 32 34 35 36 39 38 36 38 37 32 36 37 32 37 33 33 37 38 33 38 34 34 38 39 34 39 35 35 39 36 35 36 32 40 41 42 40 42 43 44 47 46 44 46 45 40 44 45 40 45 41 41 45 46 41 46 42 42 46 47 42 47 43 43 47 44 43 44 40 48 49 50 48 50 51 52 55 54 52 54 53 48 52 53 48 53 49 49 53 54 49 54 50 50 54 55 50 55 51 51 55 52 51 52 48 56 57 58 56 58 59 60 63 62 60 62 61 56 60 61 56 61 57 57 61 62 57 62 58 58 62 63 58 63 59 59 63 60 59 60 56 64 65 66 64 66 67 68 71 70 68 70 69 64 68 69 64 69 65 65 69 70 65 70 66 66 70 71 66 71 67 67 71 68 67 68 64 72 73 74 72 74 75 76 79 78 76 78 77 72 76 77 72 77 73 73 77 78 73 78 74 74 78 79 74 79 75 75 79 76 75 76 72 80 81 82 80 82 83 84 87 86 84 86 85 80 84 85 80 85 81 81 85 86 81 86 82 82 86 87 82 87 83 83 87 84 83 84 80 88 89 90 88 90 91 92 95 94 92 94 93 88 92 93 88 93 89 89 93 94 89 94 90 90 94 95 90 95 91 91 95 92 91 92 88 96 97 98 96 98 99 100 103 102 100 102 101 96 100 101 96 101 97 97 101 102 97 102 98 98 102 103 98 103 99 99 103 100 99 100 96 104 105 106 104 106 107 108 111 110 108 110 109 104 108 109 104 109 105 105 109 110 105 110 106 106 110 111 106 111 107 107 111 108 107 108 104 112 113 114 112 114 115 116 119 118 116 118 117 112 116 117 112 117 113 113 117 118 113 118 114 114 118 119 114 119 115 115 119 116 115 116 112 120 121 122 120 122 123 124 127 126 124 126 125 120 124 125 120 125 121 121 125 126 121 126 122 122 126 127 122 127 123 123 127 124 123 124 120 128 129 130 128 130 131 132 135 134 132 134 133 128 132 133 128 133 129 129 133 134 129 134 130 130 134 135 130 135 131 131 135 132 131 132 128 136 137 138 136 138 139 140 143 142 140 142 141 136 140 141 136 141 137 137 141 142 137 142 138 138 142 143 138 143 139 139 143 140 139 140 136 144 145 146 144 146 147 148 151 150 148 150 149 144 148 149 144 149 145 145 149 150 145 150 146 146 150 151 146 151 147 147 151 148 147 148 144 152 153 154 152 154 155 156 159 158 156 158 157 152 156 157 152 157 153 153 157 158 153 158 154 154 158 159 154 159 155 155 159 156 155 156 152 160 161 162 160 162 163 164 167 166 164 166 165 160 164 165 160 165 161 161 165 166 161 166 162 162 166 167 162 167 163 163 167 164 163 164 160 168 169 170 168 170 171 172 175 174 172 174 173 168 172 173 168 173 169 169 173 174 169 174 170 170 174 175 170 175 171 171 175 172 171 172 168 176 177 178 176 178 179 180 183 182 180 182 181 176 180 181 176 181 177 177 181 182 177 182 178 178 182 183 178 183 179 179 183 180 179 180 176 184 185 186 184 186 187 188 191 190 188 190 189 184 188 189 184 189 185 185 189 190 185 190 186 186 190 191 186 191 187 187 191 188 187 188 184 192 193 194 192 194 195 196 199 198 196 198 197 192 196 197 192 197 193 193 197 198 193 198 194 194 198 199 194 199 195 195 199 196 195 196 192 200 201 202 200 202 203 204 207 206 204 206 205 200 204 205 200 205 201 201 205 206 201 206 202 202 206 207 202 207 203 203 207 204 203 204 200 208 209 210 208 210 211 212 215 214 212 214 213 208 212 213 208 213 209 209 213 214 209 214 210 210 214 215 210 215 211 211 215 212 211 212 208 216 217 218 216 218 219 220 223 222 220 222 221 216 220 221 216 221 217 217 221 222 217 222 218 218 222 223 218 223 219 219 223 220 219 220 216 224 225 226 224 226 227 228 231 230 228 230 229 224 228 229 224 229 225 225 229 230 225 230 226 226 230 231 226 231 227 227 231 228 227 228 224 232 233 234 232 234 235 236 239 238 236 238 237 232 236 237 232 237 233 233 237 238 233 238 234 234 238 239 234 239 235 235 239 236 235 236 232 240 241 242 240 242 243 244 247 246 244 246 245 240 244 245 240 245 241 241 245 246 241 246 242 242 246 247 242 247 243 243 247 244 243 244 240 248 249 250 248 250 251 252 255 254 252 254 253 248 252 253 248 253 249 249 253 254 249 254 250 250 254 255 250 255 251 251 255 252 251 252 248 256 257 258 256 258 259 260 263 262 260 262 261 256 260 261 256 261 257 257 261 262 257 262 258 258 262 263 258 263 259 259 263 260 259 260 256 264 265 266 264 266 267 268 271 270 268 270 269 264 268 269 264 269 265 265 269 270 265 270 266 266 270 271 266 271 267 267 271 268 267 268 264 272 273 274 272 274 275 276 279 278 276 278 277 272 276 277 272 277 273 273 277 278 273 278 274 274 278 279 274 279 275 275 279 276 275 276 272 280 281 282 280 282 283 284 287 286 284 286 285 280 284 285 280 285 281 281 285 286 281 286 282 282 286 287 282 287 283 283 287 284 283 284 280 288 289 290 288 290 291 292 295 294 292 294 293 288 292 293 288 293 289 289 293 294 289 294 290 290 294 295 290 295 291 291 295 292 291 292 288 296 297 298 296 298 299 300 303 302 300 302 301 296 300 301 296 301 297 297 301 302 297 302 298 298 302 303 298 303 299 299 303 300 299 300 296 304 305 306 304 306 307 308 311 310 308 310 309 304 308 309 304 309 305 305 309 310 305 310 306 306 310 311 306 311 307 307 311 308 307 308 304 312 313 314 312 314 315 316 319 318 316 318 317 312 316 317 312 317 313 313 317 318 313 318 314 314 318 319 314 319 315 315 319 316 315 316 312 320 321 322 320 322 323 324 327 326 324 326 325 320 324 325 320 325 321 321 325 326 321 326 322 322 326 327 322 327 323 323 327 324 323 324 320 328 329 330 328 330 331 332 335 334 332 334 333 328 332 333 328 333 329 329 333 334 329 334 330 330 334 335 330 335 331 331 335 332 331 332 328 336 337 338 336 338 339 340 343 342 340 342 341 336 340 341 336 341 337 337 341 342 337 342 338 338 342 343 338 343 339 339 343 340 339 340 336 344 345 346 344 346 347 348 351 350 348 350 349 344 348 349 344 349 345 345 349 350 345 350 346 346 350 351 346 351 347 347 351 348 347 348 344 352 353 354 352 354 355 356 359 358 356 358 357 352 356 357 352 357 353 353 357 358 353 358 354 354 358 359 354 359 355 355 359 356 355 356 352 360 361 362 360 362 363 364 367 366 364 366 365 360 364 365 360 365 361 361 365 366 361 366 362 362 366 367 362 367 363 363 367 364 363 364 360 368 369 370 368 370 371 372 375 374 372 374 373 368 372 373 368 373 369 369 373 374 369 374 370 370 374 375 370 375 371 371 375 372 371 372 368 376 377 378 376 378 379 380 383 382 380 382 381 376 380 381 376 381 377 377 381 382 377 382 378 378 382 383 378 383 379 379 383 380 379 380 376 384 385 386 384 386 387 388 391 390 388 390 389 384 388 389 384 389 385 385 389 390 385 390 386 386 390 391 386 391 387 387 391 388 387 388 384 392 393 394 392 394 395 396 399 398 396 398 397 392 396 397 392 397 393 393 397 398 393 398 394 394 398 399 394 399 395 395 399 396 395 396 392 400 401 402 400 402 403 404 407 406 404 406 405 400 404 405 400 405 401 401 405 406 401 406 402 402 406 407 402 407 403 403 407 404 403 404 400 408 409 410 408 410 411 412 415 414 412 414 413 408 412 413 408 413 409 409 413 414 409 414 410 410 414 415 410 415 411 411 415 412 411 412 408</p>
        </triangles>
      </mesh>
    </geometry>
  </library_geometries>
  <library_visual_scenes>
    <visual_scene id="Scene" name="Scene">
      <node id="Ruins-Urban-01" name="Ruins-Urban-01">
        <instance_geometry url="#ruins_urban_01_geometry"/>
      </node>
    </visual_scene>
  </library_visual_scenes>
  <scene><instance_visual_scene url="#Scene"/></scene>
</COLLADA>
