<?xml version="1.0" encoding="utf-8"?>
<COLLADA xmlns="http://www.collada.org/2005/11/COLLADASchema" version="1.4.1">
  <asset><unit name="meter" meter="1"/><up_axis>Z_UP</up_axis></asset>
  <library_geometries>
    <geometry id="ruins_urban_01_geometry" name="Ruins-Urban-01">
      <mesh>
        <source id="positions">
          <float_array id="positions-array" count="2208">-18.00000 -18.00000 -0.20000 18.00000 -18.00000 -0.20000 18.00000 18.00000 -0.20000 -18.00000 18.00000 -0.20000 -18.00000 -18.00000 0.00000 18.00000 -18.00000 0.00000 18.00000 18.00000 0.00000 -18.00000 18.00000 0.00000 -18.00000 17.86000 0.00000 18.00000 17.86000 0.00000 18.00000 18.14000 0.00000 -18.00000 18.14000 0.00000 -18.00000 17.86000 3.50000 18.00000 17.86000 3.50000 18.00000 18.14000 3.50000 -18.00000 18.14000 3.50000 -18.00000 -18.14000 0.00000 18.00000 -18.14000 0.00000 18.00000 -17.86000 0.00000 -18.00000 -17.86000 0.00000 -18.00000 -18.14000 3.50000 18.00000 -18.14000 3.50000 18.00000 -17.86000 3.50000 -18.00000 -17.86000 3.50000 18.14000 -18.00000 0.00000 18.14000 18.00000 0.00000 17.86000 18.00000 0.00000 17.86000 -18.00000 0.00000 18.14000 -18.00000 3.50000 18.14000 18.00000 3.50000 17.86000 18.00000 3.50000 17.86000 -18.00000 3.50000 -17.86000 -18.00000 0.00000 -17.86000 -1.70000 0.00000 -18.14000 -1.70000 0.00000 -18.14000 -18.00000 0.00000 -17.86000 -18.00000 3.50000 -17.86000 -1.70000 3.50000 -18.14000 -1.70000 3.50000 -18.14000 -18.00000 3.50000 -17.86000 1.70000 0.00000 -17.86000 18.00000 0.00000 -18.14000 18.00000 0.00000 -18.14000 1.70000 0.00000 -17.86000 1.70000 3.50000 -17.86000 18.00000 3.50000 -18.14000 18.00000 3.50000 -18.14000 1.70000 3.50000 -18.00000 -12.14000 0.00000 -16.20000 -12.14000 0.00000 -16.20000 -11.86000 0.00000 -18.00000 -11.86000 0.00000 -18.00000 -12.14000 3.50000 -16.20000 -12.14000 3.50000 -16.20000 -11.86000 3.50000 -18.00000 -11.86000 3.50000 -11.70000 -12.14000 0.00000 -10.20000 -12.14000 0.00000 -10.20000 -11.86000 0.00000 -11.70000 -11.86000 0.00000 -11.70000 -12.14000 3.50000 -10.20000 -12.14000 3.50000 -10.20000 -11.86000 3.50000 -11.70000 -11.86000 3.50000 -7.80000 -12.14000 0.00000 -1.40000 -12.14000 0.00000 -1.40000 -11.86000 0.00000 -7.80000 -11.86000 0.00000 -7.80000 -12.14000 3.50000 -1.40000 -12.14000 3.50000 -1.40000 -11.86000 3.50000 -7.80000 -11.86000 3.50000 1.40000 -12.14000 0.00000 7.80000 -12.14000 0.00000 7.80000 -11.86000 0.00000 1.40000 -11.86000 0.00000 1.40000 -12.14000 3.50000 7.80000 -12.14000 3.50000 7.80000 -11.86000 3.50000 1.40000 -11.86000 3.50000 10.20000 -12.14000 0.00000 11.70000 -12.14000 0.00000 11.70000 -11.86000 0.00000 10.20000 -11.86000 0.00000 10.20000 -12.14000 3.50000 11.70000 -12.14000 3.50000 11.70000 -11.86000 3.50000 10.20000 -11.86000 3.50000 16.20000 -12.14000 0.00000 18.00000 -12.14000 0.00000 18.00000 -11.86000 0.00000 16.20000 -11.86000 0.00000 16.20000 -12.14000 3.50000 18.00000 -12.14000 3.50000 18.00000 -11.86000 3.50000 16.20000 -11.86000 3.50000 -18.00000 -6.14000 0.00000 -16.20000 -6.14000 0.00000 -16.20000 -5.86000 0.00000 -18.00000 -5.86000 0.00000 -18.00000 -6.14000 3.50000 -16.20000 -6.14000 3.50000 -16.20000 -5.86000 3.50000 -18.00000 -5.86000 3.50000 -11.70000 -6.14000 0.00000 -10.20000 -6.14000 0.00000 -10.20000 -5.86000 0.00000 -11.70000 -5.86000 0.00000 -11.70000 -6.14000 3.50000 -10.20000 -6.14000 3.50000 -10.20000 -5.86000 3.50000 -11.70000 -5.86000 3.50000 -7.80000 -6.14000 0.00000 -1.40000 -6.14000 0.00000 -1.40000 -5.86000 0.00000 -7.80000 -5.86000 0.00000 -7.80000 -6.14000 3.50000 -1.40000 -6.14000 3.50000 -1.40000 -5.86000 3.50000 -7.80000 -5.86000 3.50000 1.40000 -6.14000 0.00000 7.80000 -6.14000 0.00000 7.80000 -5.86000 0.00000 1.40000 -5.86000 0.00000 1.40000 -6.14000 3.50000 7.80000 -6.14000 3.50000 7.80000 -5.86000 3.50000 1.40000 -5.86000 3.50000 10.20000 -6.14000 0.00000 11.70000 -6.14000 0.00000 11.70000 -5.86000 0.00000 10.20000 -5.86000 0.00000 10.20000 -6.14000 3.50000 11.70000 -6.14000 3.50000 11.70000 -5.86000 3.50000 10.20000 -5.86000 3.50000 16.20000 -6.14000 0.00000 18.00000 -6.14000 0.00000 18.00000 -5.86000 0.00000 16.20000 -5.86000 0.00000 16.20000 -6.14000 3.50000 18.00000 -6.14000 3.50000 18.00000 -5.86000 3.50000 16.20000 -5.86000 3.50000 -18.00000 5.86000 0.00000 -16.20000 5.86000 0.00000 -16.20000 6.14000 0.00000 -18.00000 6.14000 0.00000 -18.00000 5.86000 3.50000 -16.20000 5.86000 3.50000 -16.20000 6.14000 3.50000 -18.00000 6.14000 3.50000 -11.70000 5.86000 0.00000 -10.20000 5.86000 0.00000 -10.20000 6.14000 0.00000 -11.70000 6.14000 0.00000 -11.70000 5.86000 3.50000 -10.20000 5.86000 3.50000 -10.20000 6.14000 3.50000 -11.70000 6.14000 3.50000 -7.80000 5.86000 0.00000 -1.40000 5.86000 0.00000 -1.40000 6.14000 0.00000 -7.80000 6.14000 0.00000 -7.80000 5.86000 3.50000 -1.40000 5.86000 3.50000 -1.40000 6.14000 3.50000 -7.80000 6.14000 3.50000 1.40000 5.86000 0.00000 7.80000 5.86000 0.00000 7.80000 6.14000 0.00000 1.40000 6.14000 0.00000 1.40000 5.86000 3.50000 7.80000 5.86000 3.50000 7.80000 6.14000 3.50000 1.40000 6.14000 3.50000 10.20000 5.86000 0.00000 11.70000 5.86000 0.00000 11.70000 6.14000 0.00000 10.20000 6.14000 0.00000 10.20000 5.86000 3.50000 11.70000 5.86000 3.50000 11.70000 6.14000 3.50000 10.20000 6.14000 3.50000 16.20000 5.86000 0.00000 18.00000 5.86000 0.00000 18.00000 6.14000 0.00000 16.20000 6.14000 0.00000 16.20000 5.86000 3.50000 18.00000 5.86000 3.50000 18.00000 6.14000 3.50000 16.20000 6.14000 3.50000 -18.00000 11.86000 0.00000 -16.20000 11.86000 0.00000 -16.20000 12.14000 0.00000 -18.00000 12.14000 0.00000 -18.00000 11.86000 3.50000 -16.20000 11.86000 3.50000 -16.20000 12.14000 3.50000 -18.00000 12.14000 3.50000 -11.70000 11.86000 0.00000 -10.20000 11.86000 0.00000 -10.20000 12.14000 0.00000 -11.70000 12.14000 0.00000 -11.70000 11.86000 3.50000 -10.20000 11.86000 3.50000 -10.20000 12.14000 3.50000 -11.70000 12.14000 3.50000 -7.80000 11.86000 0.00000 -1.40000 11.86000 0.00000 -1.40000 12.14000 0.00000 -7.80000 12.14000 0.00000 -7.80000 11.86000 3.50000 -1.40000 11.86000 3.50000 -1.40000 12.14000 3.50000 -7.80000 12.14000 3.50000 1.40000 11.86000 0.00000 7.80000 11.86000 0.00000 7.80000 12.14000 0.00000 1.40000 12.14000 0.00000 1.40000 11.86000 3.50000 7.80000 11.86000 3.50000 7.80000 12.14000 3.50000 1.40000 12.14000 3.50000 10.20000 11.86000 0.00000 11.70000 11.86000 0.00000 11.70000 12.14000 0.00000 10.20000 12.14000 0.00000 10.20000 11.86000 3.50000 11.70000 11.86000 3.50000 11.70000 12.14000 3.50000 10.20000 12.14000 3.50000 16.20000 11.86000 0.00000 18.00000 11.86000 0.00000 18.00000 12.14000 0.00000 16.20000 12.14000 0.00000 16.20000 11.86000 3.50000 18.00000 11.86000 3.50000 18.00000 12.14000 3.50000 16.20000 12.14000 3.50000 -11.86000 -18.00000 0.00000 -11.86000 -16.20000 0.00000 -12.14000 -16.20000 0.00000 -12.14000 -18.00000 0.00000 -11.86000 -18.00000 3.50000 -11.86000 -16.20000 3.50000 -12.14000 -16.20000 3.50000 -12.14000 -18.00000 3.50000 -11.86000 -11.70000 0.00000 -11.86000 -10.20000 0.00000 -12.14000 -10.20000 0.00000 -12.14000 -11.70000 0.00000 -11.86000 -11.70000 3.50000 -11.86000 -10.20000 3.50000 -12.14000 -10.20000 3.50000 -12.14000 -11.70000 3.50000 -11.86000 -7.80000 0.00000 -11.86000 -1.40000 0.00000 -12.14000 -1.40000 0.00000 -12.14000 -7.80000 0.00000 -11.86000 -7.80000 3.50000 -11.86000 -1.40000 3.50000 -12.14000 -1.40000 3.50000 -12.14000 -7.80000 3.50000 -11.86000 1.40000 0.00000 -11.86000 7.80000 0.00000 -12.14000 7.80000 0.00000 -12.14000 1.40000 0.00000 -11.86000 1.40000 3.50000 -11.86000 7.80000 3.50000 -12.14000 7.80000 3.50000 -12.14000 1.40000 3.50000 -11.86000 10.20000 0.00000 -11.86000 11.70000 0.00000 -12.14000 11.70000 0.00000 -12.14000 10.20000 0.00000 -11.86000 10.20000 3.50000 -11.86000 11.70000 3.50000 -12.14000 11.70000 3.50000 -12.14000 10.20000 3.50000 -11.86000 16.20000 0.00000 -11.86000 18.00000 0.00000 -12.14000 18.00000 0.00000 -12.14000 16.20000 0.00000 -11.86000 16.20000 3.50000 -11.86000 18.00000 3.50000 -12.14000 18.00000 3.50000 -12.14000 16.20000 3.50000 -5.86000 -18.00000 0.00000 -5.86000 -16.20000 0.00000 -6.14000 -16.20000 0.00000 -6.14000 -18.00000 0.00000 -5.86000 -18.00000 3.50000 -5.86000 -16.20000 3.50000 -6.14000 -16.20000 3.50000 -6.14000 -18.00000 3.50000 -5.86000 -11.70000 0.00000 -5.86000 -10.20000 0.00000 -6.14000 -10.20000 0.00000 -6.14000 -11.70000 0.00000 -5.86000 -11.70000 3.50000 -5.86000 -10.20000 3.50000 -6.14000 -10.20000 3.50000 -6.14000 -11.70000 3.50000 -5.86000 -7.80000 0.00000 -5.86000 -1.40000 0.00000 -6.14000 -1.40000 0.00000 -6.14000 -7.80000 0.00000 -5.86000 -7.80000 3.50000 -5.86000 -1.40000 3.50000 -6.14000 -1.40000 3.50000 -6.14000 -7.80000 3.50000 -5.86000 1.40000 0.00000 -5.86000 7.80000 0.00000 -6.14000 7.80000 0.00000 -6.14000 1.40000 0.00000 -5.86000 1.40000 3.50000 -5.86000 7.80000 3.50000 -6.14000 7.80000 3.50000 -6.14000 1.40000 3.50000 -5.86000 10.20000 0.00000 -5.86000 11.70000 0.00000 -6.14000 11.70000 0.00000 -6.14000 10.20000 0.00000 -5.86000 10.20000 3.50000 -5.86000 11.70000 3.50000 -6.14000 11.70000 3.50000 -6.14000 10.20000 3.50000 -5.86000 16.20000 0.00000 -5.86000 18.00000 0.00000 -6.14000 18.00000 0.00000 -6.14000 16.20000 0.00000 -5.86000 16.20000 3.50000 -5.86000 18.00000 3.50000 -6.14000 18.00000 3.50000 -6.14000 16.20000 3.50000 6.14000 -18.00000 0.00000 6.14000 -16.20000 0.00000 5.86000 -16.20000 0.00000 5.86000 -18.00000 0.00000 6.14000 -18.00000 3.50000 6.14000 -16.20000 3.50000 5.86000 -16.20000 3.50000 5.86000 -18.00000 3.50000 6.14000 -11.70000 0.00000 6.14000 -10.20000 0.00000 5.86000 -10.20000 0.00000 5.86000 -11.70000 0.00000 6.14000 -11.70000 3.50000 6.14000 -10.20000 3.50000 5.86000 -10.20000 3.50000 5.86000 -11.70000 3.50000 6.14000 -7.80000 0.00000 6.14000 -1.40000 0.00000 5.86000 -1.40000 0.00000 5.86000 -7.80000 0.00000 6.14000 -7.80000 3.50000 6.14000 -1.40000 3.50000 5.86000 -1.40000 3.50000 5.86000 -7.80000 3.50000 6.14000 1.40000 0.00000 6.14000 7.80000 0.00000 5.86000 7.80000 0.00000 5.86000 1.40000 0.00000 6.14000 1.40000 3.50000 6.14000 7.80000 3.50000 5.86000 7.80000 3.50000 5.86000 1.40000 3.50000 6.14000 10.20000 0.00000 6.14000 11.70000 0.00000 5.86000 11.70000 0.00000 5.86000 10.20000 0.00000 6.14000 10.20000 3.50000 6.14000 11.70000 3.50000 5.86000 11.70000 3.50000 5.86000 10.20000 3.50000 6.14000 16.20000 0.00000 6.14000 18.00000 0.00000 5.86000 18.00000 0.00000 5.86000 16.20000 0.00000 6.14000 16.20000 3.50000 6.14000 18.00000 3.50000 5.86000 18.00000 3.50000 5.86000 16.20000 3.50000 12.14000 -18.00000 0.00000 12.14000 -16.20000 0.00000 11.86000 -16.20000 0.00000 11.86000 -18.00000 0.00000 12.14000 -18.00000 3.50000 12.14000 -16.20000 3.50000 11.86000 -16.20000 3.50000 11.86000 -18.00000 3.50000 12.14000 -11.70000 0.00000 12.14000 -10.20000 0.00000 11.86000 -10.20000 0.00000 11.86000 -11.70000 0.00000 12.14000 -11.70000 3.50000 12.14000 -10.20000 3.50000 11.86000 -10.20000 3.50000 11.86000 -11.70000 3.50000 12.14000 -7.80000 0.00000 12.14000 -1.40000 0.00000 11.86000 -1.40000 0.00000 11.86000 -7.80000 0.00000 12.14000 -7.80000 3.50000 12.14000 -1.40000 3.50000 11.86000 -1.40000 3.50000 11.86000 -7.80000 3.50000 12.14000 1.40000 0.00000 12.14000 7.80000 0.00000 11.86000 7.80000 0.00000 11.86000 1.40000 0.00000 12.14000 1.40000 3.50000 12.14000 7.80000 3.50000 11.86000 7.80000 3.50000 11.86000 1.40000 3.50000 12.14000 10.20000 0.00000 12.14000 11.70000 0.00000 11.86000 11.70000 0.00000 11.86000 10.20000 0.00000 12.14000 10.20000 3.50000 12.14000 11.70000 3.50000 11.86000 11.70000 3.50000 11.86000 10.20000 3.50000 12.14000 16.20000 0.00000 12.14000 18.00000 0.00000 11.86000 18.00000 0.00000 11.86000 16.20000 0.00000 12.14000 16.20000 3.50000 12.14000 18.00000 3.50000 11.86000 18.00000 3.50000 11.86000 16.20000 3.50000 -16.80000 9.03000 0.00000 -13.20000 9.03000 0.00000 -13.20000 9.37000 0.00000 -16.80000 9.37000 0.00000 -16.80000 9.03000 3.50000 -13.20000 9.03000 3.50000 -13.20000 9.37000 3.50000 -16.80000 9.37000 3.50000 -9.17000 13.20000 0.00000 -8.83000 13.20000 0.00000 -8.83000 16.80000 0.00000 -9.17000 16.80000 0.00000 -9.17000 13.20000 3.50000 -8.83000 13.20000 3.50000 -8.83000 16.80000 3.50000 -9.17000 16.80000 3.50000 8.83000 13.20000 0.00000 9.17000 13.20000 0.00000 9.17000 16.80000 0.00000 8.83000 16.80000 0.00000 8.83000 13.20000 3.50000 9.17000 13.20000 3.50000 9.17000 16.80000 3.50000 8.83000 16.80000 3.50000 13.20000 9.03000 0.00000 16.80000 9.03000 0.00000 16.80000 9.37000 0.00000 13.20000 9.37000 0.00000 13.20000 9.03000 3.50000 16.80000 9.03000 3.50000 16.80000 9.37000 3.50000 13.20000 9.37000 3.50000 -16.80000 -9.37000 0.00000 -13.20000 -9.37000 0.00000 -13.20000 -9.03000 0.00000 -16.80000 -9.03000 0.00000 -16.80000 -9.37000 3.50000 -13.20000 -9.37000 3.50000 -13.20000 -9.03000 3.50000 -16.80000 -9.03000 3.50000 -9.17000 -16.80000 0.00000 -8.83000 -16.80000 0.00000 -8.83000 -13.20000 0.00000 -9.17000 -13.20000 0.00000 -9.17000 -16.80000 3.50000 -8.83000 -16.80000 3.50000 -8.83000 -13.20000 3.50000 -9.17000 -13.20000 3.50000 8.83000 -16.80000 0.00000 9.17000 -16.80000 0.00000 9.17000 -13.20000 0.00000 8.83000 -13.20000 0.00000 8.83000 -16.80000 3.50000 9.17000 -16.80000 3.50000 9.17000 -13.20000 3.50000 8.83000 -13.20000 3.50000 13.20000 -9.37000 0.00000 16.80000 -9.37000 0.00000 16.80000 -9.03000 0.00000 13.20000 -9.03000 0.00000 13.20000 -9.37000 3.50000 16.80000 -9.37000 3.50000 16.80000 -9.03000 3.50000 13.20000 -9.03000 3.50000 -16.40000 -15.36000 0.00000 -13.60000 -15.36000 0.00000 -13.60000 -14.64000 0.00000 -16.40000 -14.64000 0.00000 -16.40000 -15.36000 2.00000 -13.60000 -15.36000 2.00000 -13.60000 -14.64000 2.00000 -16.40000 -14.64000 2.00000 -10.40000 -15.36000 0.00000 -7.60000 -15.36000 0.00000 -7.60000 -14.64000 0.00000 -10.40000 -14.64000 0.00000 -10.40000 -15.36000 2.00000 -7.60000 -15.36000 2.00000 -7.60000 -14.64000 2.00000 -10.40000 -14.64000 2.00000 7.60000 -15.36000 0.00000 10.40000 -15.36000 0.00000 10.40000 -14.64000 0.00000 7.60000 -14.64000 0.00000 7.60000 -15.36000 2.00000 10.40000 -15.36000 2.00000 10.40000 -14.64000 2.00000 7.60000 -14.64000 2.00000 13.60000 -15.36000 0.00000 16.40000 -15.36000 0.00000 16.40000 -14.64000 0.00000 13.60000 -14.64000 0.00000 13.60000 -15.36000 2.00000 16.40000 -15.36000 2.00000 16.40000 -14.64000 2.00000 13.60000 -14.64000 2.00000 -16.40000 -9.36000 0.00000 -13.60000 -9.36000 0.00000 -13.60000 -8.64000 0.00000 -16.40000 -8.64000 0.00000 -16.40000 -9.36000 2.00000 -13.60000 -9.36000 2.00000 -13.60000 -8.64000 2.00000 -16.40000 -8.64000 2.00000 -10.40000 -9.36000 0.00000 -7.60000 -9.36000 0.00000 -7.60000 -8.64000 0.00000 -10.40000 -8.64000 0.00000 -10.40000 -9.36000 2.00000 -7.60000 -9.36000 2.00000 -7.60000 -8.64000 2.00000 -10.40000 -8.64000 2.00000 7.60000 -9.36000 0.00000 10.40000 -9.36000 0.00000 10.40000 -8.64000 0.00000 7.60000 -8.64000 0.00000 7.60000 -9.36000 2.00000 10.40000 -9.36000 2.00000 10.40000 -8.64000 2.00000 7.60000 -8.64000 2.00000 13.60000 -9.36000 0.00000 16.40000 -9.36000 0.00000 16.40000 -8.64000 0.00000 13.60000 -8.64000 0.00000 13.60000 -9.36000 2.00000 16.40000 -9.36000 2.00000 16.40000 -8.64000 2.00000 13.60000 -8.64000 2.00000 -16.40000 8.64000 0.00000 -13.60000 8.64000 0.00000 -13.60000 9.36000 0.00000 -16.40000 9.36000 0.00000 -16.40000 8.64000 2.00000 -13.60000 8.64000 2.00000 -13.60000 9.36000 2.00000 -16.40000 9.36000 2.00000 -10.40000 8.64000 0.00000 -7.60000 8.64000 0.00000 -7.60000 9.36000 0.00000 -10.40000 9.36000 0.00000 -10.40000 8.64000 2.00000 -7.60000 8.64000 2.00000 -7.60000 9.36000 2.00000 -10.40000 9.36000 2.00000 7.60000 8.64000 0.00000 10.40000 8.64000 0.00000 10.40000 9.36000 0.00000 7.60000 9.36000 0.00000 7.60000 8.64000 2.00000 10.40000 8.64000 2.00000 10.40000 9.36000 2.00000 7.60000 9.36000 2.00000 13.60000 8.64000 0.00000 16.40000 8.64000 0.00000 16.40000 9.36000 0.00000 13.60000 9.36000 0.00000 13.60000 8.64000 2.00000 16.40000 8.64000 2.00000 16.40000 9.36000 2.00000 13.60000 9.36000 2.00000 -16.40000 14.64000 0.00000 -13.60000 14.64000 0.00000 -13.60000 15.36000 0.00000 -16.40000 15.36000 0.00000 -16.40000 14.64000 2.00000 -13.60000 14.64000 2.00000 -13.60000 15.36000 2.00000 -16.40000 15.36000 2.00000 -10.40000 14.64000 0.00000 -7.60000 14.64000 0.00000 -7.60000 15.36000 0.00000 -10.40000 15.36000 0.00000 -10.40000 14.64000 2.00000 -7.60000 14.64000 2.00000 -7.60000 15.36000 2.00000 -10.40000 15.36000 2.00000 7.60000 14.64000 0.00000 10.40000 14.64000 0.00000 10.40000 15.36000 0.00000 7.60000 15.36000 0.00000 7.60000 14.64000 2.00000 10.40000 14.64000 2.00000 10.40000 15.36000 2.00000 7.60000 15.36000 2.00000 13.60000 14.64000 0.00000 16.40000 14.64000 0.00000 16.40000 15.36000 0.00000 13.60000 15.36000 0.00000 13.60000 14.64000 2.00000 16.40000 14.64000 2.00000 16.40000 15.36000 2.00000 13.60000 15.36000 2.00000 -4.10000 14.20000 0.00000 -2.30000 14.20000 0.00000 -2.30000 15.20000 0.00000 -4.10000 15.20000 0.00000 -4.10000 14.20000 1.20000 -2.30000 14.20000 1.20000 -2.30000 15.20000 1.20000 -4.10000 15.20000 1.20000 2.30000 -15.20000 0.00000 4.10000 -15.20000 0.00000 4.10000 -14.20000 0.00000 2.30000 -14.20000 0.00000 2.30000 -15.20000 1.20000 4.10000 -15.20000 1.20000 4.10000 -14.20000 1.20000 2.30000 -14.20000 1.20000 -3.81000 3.19000 0.00000 -3.19000 3.19000 0.00000 -3.19000 3.81000 0.00000 -3.81000 3.81000 0.00000 -3.81000 3.19000 3.50000 -3.19000 3.19000 3.50000 -3.19000 3.81000 3.50000 -3.81000 3.81000 3.50000 -0.31000 3.19000 0.00000 0.31000 3.19000 0.00000 0.31000 3.81000 0.00000 -0.31000 3.81000 0.00000 -0.31000 3.19000 3.50000 0.31000 3.19000 3.50000 0.31000 3.81000 3.50000 -0.31000 3.81000 3.50000 3.19000 3.19000 0.00000 3.81000 3.19000 0.00000 3.81000 3.81000 0.00000 3.19000 3.81000 0.00000 3.19000 3.19000 3.50000 3.81000 3.19000 3.50000 3.81000 3.81000 3.50000 3.19000 3.81000 3.50000 -3.81000 -0.31000 0.00000 -3.19000 -0.31000 0.00000 -3.19000 0.31000 0.00000 -3.81000 0.31000 0.00000 -3.81000 -0.31000 3.50000 -3.19000 -0.31000 3.50000 -3.19000 0.31000 3.50000 -3.81000 0.31000 3.50000 3.19000 -0.31000 0.00000 3.81000 -0.31000 0.00000 3.81000 0.31000 0.00000 3.19000 0.31000 0.00000 3.19000 -0.31000 3.50000 3.81000 -0.31000 3.50000 3.81000 0.31000 3.50000 3.19000 0.31000 3.50000 -3.81000 -3.81000 0.00000 -3.19000 -3.81000 0.00000 -3.19000 -3.19000 0.00000 -3.81000 -3.19000 0.00000 -3.81000 -3.81000 3.50000 -3.19000 -3.81000 3.50000 -3.19000 -3.19000 3.50000 -3.81000 -3.19000 3.50000 -0.31000 -3.81000 0.00000 0.31000 -3.81000 0.00000 0.31000 -3.19000 0.00000 -0.31000 -3.19000 0.00000 -0.31000 -3.81000 3.50000 0.31000 -3.81000 3.50000 0.31000 -3.19000 3.50000 -0.31000 -3.19000 3.50000 3.19000 -3.81000 0.00000 3.81000 -3.81000 0.00000 3.81000 -3.19000 0.00000 3.19000 -3.19000 0.00000 3.19000 -3.81000 3.50000 3.81000 -3.81000 3.50000 3.81000 -3.19000 3.50000 3.19000 -3.19000 3.50000 -15.48473 12.67265 0.00000 -12.77178 13.36538 0.00000 -12.91527 13.92735 0.00000 -15.62822 13.23462 0.00000 -15.48473 12.67265 1.70000 -12.77178 13.36538 1.70000 -12.91527 13.92735 1.70000 -15.62822 13.23462 1.70000 -14.62317 -13.26332 0.00000 -11.94823 -14.09078 0.00000 -11.77683 -13.53668 0.00000 -14.45177 -12.70922 0.00000 -14.62317 -13.26332 1.70000 -11.94823 -14.09078 1.70000 -11.77683 -13.53668 1.70000 -14.45177 -12.70922 1.70000 12.17178 13.16538 0.00000 14.88473 12.47265 0.00000 15.02822 13.03462 0.00000 12.31527 13.72735 0.00000 12.17178 13.16538 1.70000 14.88473 12.47265 1.70000 15.02822 13.03462 1.70000 12.31527 13.72735 1.70000 12.13467 -13.86560 0.00000 14.82562 -13.09181 0.00000 14.66533 -12.53440 0.00000 11.97438 -13.30819 0.00000 12.13467 -13.86560 1.70000 14.82562 -13.09181 1.70000 14.66533 -12.53440 1.70000 11.97438 -13.30819 1.70000</float_array>
          <technique_common>
            <accessor source="#positions-array" count="736" stride="3">
              <param name="X" type="float"/><param name="Y" type="float"/><param name="Z" type="float"/>
            </accessor>
          </technique_common>
        </source>
        <vertices id="vertices"><input semantic="POSITION" source="#positions"/></vertices>
        <triangles count="1104">
          <input semantic="VERTEX" source="#vertices" offset="0"/>
          <p>0 1 2 0 2 3 4 7 6 4 6 5 0 4 5 0 5 1 1 5 6 1 6 2 2 6 7 2 7 3 3 7 4 3 4 0 8 9 10 8 10 11 12 15 14 12 14 13 8 12 13 8 13 9 9 13 14 9 14 10 10 14 15 10 15 11 11 15 12 11 12 8 16 17 18 16 18 19 20 23 22 20 22 21 16 20 21 16 21 17 17 21 22 17 22 18 18 22 23 18 23 19 19 23 20 19 20 16 24 25 26 24 26 27 28 31 30 28 30 29 24 28 29 24 29 25 25 29 30 25 30 26 26 30 31 26 31 27 27 31 28 27 28 24 32 33 34 32 34 35 36 39 38 36 38 37 32 36 37 32 37 33 33 37 38 33 38 34 34 38 39 34 39 35 35 39 36 35 36 32 40 41 42 40 42 43 44 47 46 44 46 45 40 44 45 40 45 41 41 45 46 41 46 42 42 46 47 42 47 43 43 47 44 43 44 40 48 49 50 48 50 51 52 55 54 52 54 53 48 52 53 48 53 49 49 53 54 49 54 50 50 54 55 50 55 51 51 55 52 51 52 48 56 57 58 56 58 59 60 63 62 60 62 61 56 60 61 56 61 57 57 61 62 57 62 58 58 62 63 58 63 59 59 63 60 59 60 56 64 65 66 64 66 67 68 71 70 68 70 69 64 68 69 64 69 65 65 69 70 65 70 66 66 70 71 66 71 67 67 71 68 67 68 64 72 73 74 72 74 75 76 79 78 76 78 77 72 76 77 72 77 73 73 77 78 73 78 74 74 78 79 74 79 75 75 79 76 75 76 72 80 81 82 80 82 83 84 87 86 84 86 85 80 84 85 80 85 81 81 85 86 81 86 82 82 86 87 82 87 83 83 87 84 83 84 80 88 89 90 88 90 91 92 95 94 92 94 93 88 92 93 88 93 89 89 93 94 89 94 90 90 94 95 90 95 91 91 95 92 91 92 88 96 97 98 96 98 99 100 103 102 100 102 101 96 100 101 96 101 97 97 101 102 97 102 98 98 102 103 98 103 99 99 103 100 99 100 96 104 105 106 104 106 107 108 111 110 108 110 109 104 108 109 104 109 105 105 109 110 105 110 106 106 110 111 106 111 107 107 111 108 107 108 104 112 113 114 112 114 115 116 119 118 116 118 117 112 116 117 112 117 113 113 117 118 113 118 114 114 118 119 114 119 115 115 119 116 115 116 112 120 121 122 120 122 123 124 127 126 124 126 125 120 124 125 120 125 121 121 125 126 121 126 122 122 126 127 122 127 123 123 127 124 123 124 120 128 129 130 128 130 131 132 135 134 132 134 133 128 132 133 128 133 129 129 133 134 129 134 130 130 134 135 130 135 131 131 135 132 131 132 128 136 137 138 136 138 139 140 143 142 140 142 141 136 140 141 136 141 137 137 141 142 137 142 138 138 142 143 138 143 139 139 143 140 139 140 136 144 145 146 144 146 147 148 151 150 148 150 149 144 148 149 144 149 145 145 149 150 145 150 146 146 150 151 146 151 147 147 151 148 147 148 144 152 153 154 152 154 155 156 159 158 156 158 157 152 156 157 152 157 153 153 157 158 153 158 154 154 158 159 154 159 155 155 159 156 155 156 152 160 161 162 160 162 163 164 167 166 164 166 165 160 164 165 160 165 161 161 165 166 161 166 162 162 166 167 162 167 163 163 167 164 163 164 160 168 169 170 168 170 171 172 175 174 172 174 173 168 172 173 168 173 169 169 173 174 169 174 170 170 174 175 170 175 171 171 175 172 171 172 168 176 177 178 176 178 179 180 183 182 180 182 181 176 180 181 176 181 177 177 181 182 177 182 178 178 182 183 178 183 179 179 183 180 179 180 176 184 185 186 184 186 187 188 191 190 188 190 189 184 188 189 184 189 185 185 189 190 185 190 186 186 190 191 186 191 187 187 191 188 187 188 184 192 193 194 192 194 195 196 199 198 196 198 197 192 196 197 192 197 193 193 197 198 193 198 194 194 198 199 194 199 195 195 199 196 195 196 192 200 201 202 200 202 203 204 207 206 204 206 205 200 204 205 200 205 201 201 205 206 201 206 202 202 206 207 202 207 203 203 207 204 203 204 200 208 209 210 208 210 211 212 215 214 212 214 213 208 212 213 208 213 209 209 213 214 209 214 210 210 214 215 210 215 211 211 215 212 211 212 208 216 217 218 216 218 219 220 223 222 220 222 221 216 220 221 216 221 217 217 221 222 217 222 218 218 222 223 218 223 219 219 223 220 219 220 216 224 225 226 224 226 227 228 231 230 228 230 229 224 228 229 224 229 225 225 229 230 225 230 226 226 230 231 226 231 227 227 231 228 227 228 224 232 233 234 232 234 235 236 239 238 236 238 237 232 236 237 232 237 233 233 237 238 233 238 234 234 238 239 234 239 235 235 239 236 235 236 232 240 241 242 240 242 243 244 247 246 244 246 245 240 244 245 240 245 241 241 245 246 241 246 242 242 246 247 242 247 243 243 247 244 243 244 240 248 249 250 248 250 251 252 255 254 252 254 253 248 252 253 248 253 249 249 253 254 249 254 250 250 254 255 250 255 251 251 255 252 251 252 248 256 257 258 256 258 259 260 263 262 260 262 261 256 260 261 256 261 257 257 261 262 257 262 258 258 262 263 258 263 259 259 263 260 259 260 256 264 265 266 264 266 267 268 271 270 268 270 269 264 268 269 264 269 265 265 269 270 265 270 266 266 270 271 266 271 267 267 271 268 267 268 264 272 273 274 272 274 275 276 279 278 276 278 277 272 276 277 272 277 273 273 277 278 273 278 274 274 278 279 274 279 275 275 279 276 275 276 272 280 281 282 280 282 283 284 287 286 284 286 285 280 284 285 280 285 281 281 285 286 281 286 282 282 286 287 282 287 283 283 287 284 283 284 280 288 289 290 288 290 291 292 295 294 292 294 293 288 292 293 288 293 289 289 293 294 289 294 290 290 294 295 290 295 291 291 295 292 291 292 288 296 297 298 296 298 299 300 303 302 300 302 301 296 300 301 296 301 297 297 301 302 297 302 298 298 302 303 298 303 299 299 303 300 299 300 296 304 305 306 304 306 307 308 311 310 308 310 309 304 308 309 304 309 305 305 309 310 305 310 306 306 310 311 306 311 307 307 311 308 307 308 304 312 313 314 312 314 315 316 319 318 316 318 317 312 316 317 312 317 313 313 317 318 313 318 314 314 318 319 314 319 315 315 319 316 315 316 312 320 321 322 320 322 323 324 327 326 324 326 325 320 324 325 320 325 321 321 325 326 321 326 322 322 326 327 322 327 323 323 327 324 323 324 320 328 329 330 328 330 331 332 335 334 332 334 333 328 332 333 328 333 329 329 333 334 329 334 330 330 334 335 330 335 331 331 335 332 331 332 328 336 337 338 336 338 339 340 343 342 340 342 341 336 340 341 336 341 337 337 341 342 337 342 338 338 342 343 338 343 339 339 343 340 339 340 336 344 345 346 344 346 347 348 351 350 348 350 349 344 348 349 344 349 345 345 349 350 345 350 346 346 350 351 346 351 347 347 351 348 347 348 344 352 353 354 352 354 355 356 359 358 356 358 357 352 356 357 352 357 353 353 357 358 353 358 354 354 358 359 354 359 355 355 359 356 355 356 352 360 361 362 360 362 363 364 367 366 364 366 365 360 364 365 360 365 361 361 365 366 361 366 362 362 366 367 362 367 363 363 367 364 363 364 360 368 369 370 368 370 371 372 375 374 372 374 373 368 372 373 368 373 369 369 373 374 369 374 370 370 374 375 370 375 371 371 375 372 371 372 368 376 377 378 376 378 379 380 383 382 380 382 381 376 380 381 376 381 377 377 381 382 377 382 378 378 382 383 378 383 379 379 383 380 379 380 376 384 385 386 384 386 387 388 391 390 388 390 389 384 388 389 384 389 385 385 389 390 385 390 386 386 390 391 386 391 387 387 391 388 387 388 384 392 393 394 392 394 395 396 399 398 396 398 397 392 396 397 392 397 393 393 397 398 393 398 394 394 398 399 394 399 395 395 399 396 395 396 392 400 401 402 400 402 403 404 407 406 404 406 405 400 404 405 400 405 401 401 405 406 401 406 402 402 406 407 402 407 403 403 407 404 403 404 400 408 409 410 408 410 411 412 415 414 412 414 413 408 412 413 408 413 409 409 413 414 409 414 410 410 414 415 410 415 411 411 415 412 411 412 408 416 417 418 416 418 419 420 423 422 420 422 421 416 420 421 416 421 417 417 421 422 417 422 418 418 422 423 418 423 419 419 423 420 419 420 416 424 425 426 424 426 427 428 431 430 428 430 429 424 428 429 424 429 425 425 429 430 425 430 426 426 430 431 426 431 427 427 431 428 427 428 424 432 433 434 432 434 435 436 439 438 436 438 437 432 436 437 432 437 433 433 437 438 433 438 434 434 438 439 434 439 435 435 439 436 435 436 432 440 441 442 440 442 443 444 447 446 444 446 445 440 444 445 440 445 441 441 445 446 441 446 442 442 446 447 442 447 443 443 447 444 443 444 440 448 449 450 448 450 451 452 455 454 452 454 453 448 452 453 448 453 449 449 453 454 449 454 450 450 454 455 450 455 451 451 455 452 451 452 448 456 457 458 456 458 459 460 463 462 460 462 461 456 460 461 456 461 457 457 461 462 457 462 458 458 462 463 458 463 459 459 463 460 459 460 456 464 465 466 464 466 467 468 471 470 468 470 469 464 468 469 464 469 465 465 469 470 465 470 466 466 470 471 466 471 467 467 471 468 467 468 464 472 473 474 472 474 475 476 479 478 476 478 477 472 476 477 472 477 473 473 477 478 473 478 474 474 478 479 474 479 475 475 479 476 475 476 472 480 481 482 480 482 483 484 487 486 484 486 485 480 484 485 480 485 481 481 485 486 481 486 482 482 486 487 482 487 483 483 487 484 483 484 480 488 489 490 488 490 491 492 495 494 492 494 493 488 492 493 488 493 489 489 493 494 489 494 490 490 494 495 490 495 491 491 495 492 491 492 488 496 497 498 496 498 499 500 503 502 500 502 501 496 500 501 496 501 497 497 501 502 497 502 498 498 502 503 498 503 499 499 503 500 499 500 496 504 505 506 504 506 507 508 511 510 508 510 509 504 508 509 504 509 505 505 509 510 505 510 506 506 510 511 506 511 507 507 511 508 507 508 504 512 513 514 512 514 515 516 519 518 516 518 517 512 516 517 512 517 513 513 517 518 513 518 514 514 518 519 514 519 515 515 519 516 515 516 512 520 521 522 520 522 523 524 527 526 524 526 525 520 524 525 520 525 521 521 525 526 521 526 522 522 526 527 522 527 523 523 527 524 523 524 520 528 529 530 528 530 531 532 535 534 532 534 533 528 532 533 528 533 529 529 533 534 529 534 530 530 534 535 530 535 531 531 535 532 531 532 528 536 537 538 536 538 539 540 543 542 540 542 541 536 540 541 536 541 537 537 541 542 537 542 538 538 542 543 538 543 539 539 543 540 539 540 536 544 545 546 544 546 547 548 551 550 548 550 549 544 548 549 544 549 545 545 549 550 545 550 546 546 550 551 546 551 547 547 551 548 547 548 544 552 553 554 552 554 555 556 559 558 556 558 557 552 556 557 552 557 553 553 557 558 553 558 554 554 558 559 554 559 555 555 559 556 555 556 552 560 561 562 560 562 563 564 567 566 564 566 565 560 564 565 560 565 561 561 565 566 561 566 562 562 566 567 562 567 563 563 567 564 563 564 560 568 569 570 568 570 571 572 575 574 572 574 573 568 572 573 568 573 569 569 573 574 569 574 570 570 574 575 570 575 571 571 575 572 571 572 568 576 577 578 576 578 579 580 583 582 580 582 581 576 580 581 576 581 577 577 581 582 577 582 578 578 582 583 578 583 579 579 583 580 579 580 576 584 585 586 584 586 587 588 591 590 588 590 589 584 588 589 584 589 585 585 589 590 585 590 586 586 590 591 586 591 587 587 591 588 587 588 584 592 593 594 592 594 595 596 599 598 596 598 597 592 596 597 592 597 593 593 597 598 593 598 594 594 598 599 594 599 595 595 599 596 595 596 592 600 601 602 600 602 603 604 607 606 604 606 605 600 604 605 600 605 601 601 605 606 601 606 602 602 606 607 602 607 603 603 607 604 603 604 600 608 609 610 608 610 611 612 615 614 612 614 613 608 612 613 608 613 609 609 613 614 609 614 610 610 614 615 610 615 611 611 615 612 611 612 608 616 617 618 616 618 619 620 623 622 620 622 621 616 620 621 616 621 617 617 621 622 617 622 618 618 622 623 618 623 619 619 623 620 619 620 616 624 625 626 624 626 627 628 631 630 628 630 629 624 628 629 624 629 625 625 629 630 625 630 626 626 630 631 626 631 627 627 631 628 627 628 624 632 633 634 632 634 635 636 639 638 636 638 637 632 636 637 632 637 633 633 637 638 633 638 634 634 638 639 634 639 635 635 639 636 635 636 632 640 641 642 640 642 643 644 647 646 644 646 645 640 644 645 640 645 641 641 645 646 641 646 642 642 646 647 642 647 643 643 647 644 643 644 640 648 649 650 648 650 651 652 655 654 652 654 653 648 652 653 648 653 649 649 653 654 649 654 650 650 654 655 650 655 651 651 655 652 651 652 648 656 657 658 656 658 659 660 663 662 660 662 661 656 660 661 656 661 657 657 661 662 657 662 658 658 662 663 658 663 659 659 663 660 659 660 656 664 665 666 664 666 667 668 671 670 668 670 669 664 668 669 664 669 665 665 669 670 665 670 666 666 670 671 666 671 667 667 671 668 667 668 664 672 673 674 672 674 675 676 679 678 676 678 677 672 676 677 672 677 673 673 677 678 673 678 674 674 678 679 674 679 675 675 679 676 675 676 672 680 681 682 680 682 683 684 687 686 684 686 685 680 684 685 680 685 681 681 685 686 681 686 682 682 686 687 682 687 683 683 687 684 683 684 680 688 689 690 688 690 691 692 695 694 692 694 693 688 692 693 688 693 689 689 693 694 689 694 690 690 694 695 690 695 691 691 695 692 691 692 688 696 697 698 696 698 699 700 703 702 700 702 701 696 700 701 696 701 697 697 701 702 697 702 698 698 702 703 698 703 699 699 703 700 699 700 696 704 705 706 704 706 707 708 711 710 708 710 709 704 708 709 704 709 705 705 709 710 705 710 706 706 710 711 706 711 707 707 711 708 707 708 704 712 713 714 712 714 715 716 719 718 716 718 717 712 716 717 712 717 713 713 717 718 713 718 714 714 718 719 714 719 715 715 719 716 715 716 712 720 721 722 720 722 723 724 727 726 724 726 725 720 724 725 720 725 721 721 725 726 721 726 722 722 726 727 722 727 723 723 727 724 723 724 720 728 729 730 728 730 731 732 735 734 732 734 733 728 732 733 728 733 729 729 733 734 729 734 730 730 734 735 730 735 731 731 735 732 731 732 728</p>
        </triangles>
      </mesh>
    </geometry>
  </library_geometries>
  <library_visual_scenes>
    <visual_scene id="Scene" name="Scene">
      <node id="Ruins-Urban-01" name="Ruins-Urban-01">
        <instance_geometry url="#ruins_urban_01_geometry"/>
      </node>
    </visual_scene>
  </library_visual_scenes>
  <scene><instance_visual_scene url="#Scene"/></scene>
</COLLADA>
