<?xml version="1.0" encoding="utf-8"?>
<COLLADA xmlns="http://www.collada.org/2005/11/COLLADASchema" version="1.4.1">
  <asset><unit name="meter" meter="1"/><up_axis>Z_UP</up_axis></asset>
  <library_geometries>
    <geometry id="ruins_urban_01_geometry" name="Ruins-Urban-01">
      <mesh>
        <source id="positions">
          <float_array id="positions-array" count="720">-9.00000 -15.00000 -0.20000 9.00000 -15.00000 -0.20000 9.00000 15.00000 -0.20000 -9.00000 15.00000 -0.20000 -9.00000 -15.00000 0.00000 9.00000 -15.00000 0.00000 9.00000 15.00000 0.00000 -9.00000 15.00000 0.00000 -9.00000 14.86000 0.00000 9.00000 14.86000 0.00000 9.00000 15.14000 0.00000 -9.00000 15.14000 0.00000 -9.00000 14.86000 3.00000 9.00000 14.86000 3.00000 9.00000 15.14000 3.00000 -9.00000 15.14000 3.00000 -9.00000 -15.14000 0.00000 9.00000 -15.14000 0.00000 9.00000 -14.86000 0.00000 -9.00000 -14.86000 0.00000 -9.00000 -15.14000 3.00000 9.00000 -15.14000 3.00000 9.00000 -14.86000 3.00000 -9.00000 -14.86000 3.00000 9.14000 -15.00000 0.00000 9.14000 15.00000 0.00000 8.86000 15.00000 0.00000 8.86000 -15.00000 0.00000 9.14000 -15.00000 3.00000 9.14000 15.00000 3.00000 8.86000 15.00000 3.00000 8.86000 -15.00000 3.00000 -8.86000 -15.00000 0.00000 -8.86000 -1.70000 0.00000 -9.14000 -1.70000 0.00000 -9.14000 -15.00000 0.00000 -8.86000 -15.00000 3.00000 -8.86000 -1.70000 3.00000 -9.14000 -1.70000 3.00000 -9.14000 -15.00000 3.00000 -8.86000 1.70000 0.00000 -8.86000 15.00000 0.00000 -9.14000 15.00000 0.00000 -9.14000 1.70000 0.00000 -8.86000 1.70000 3.00000 -8.86000 15.00000 3.00000 -9.14000 15.00000 3.00000 -9.14000 1.70000 3.00000 -9.00000 4.86000 0.00000 -7.10000 4.86000 0.00000 -7.10000 5.14000 0.00000 -9.00000 5.14000 0.00000 -9.00000 4.86000 3.00000 -7.10000 4.86000 3.00000 -7.10000 5.14000 3.00000 -9.00000 5.14000 3.00000 -4.90000 4.86000 0.00000 2.40000 4.86000 0.00000 2.40000 5.14000 0.00000 -4.90000 5.14000 0.00000 -4.90000 4.86000 3.00000 2.40000 4.86000 3.00000 2.40000 5.14000 3.00000 -4.90000 5.14000 3.00000 4.60000 4.86000 0.00000 9.00000 4.86000 0.00000 9.00000 5.14000 0.00000 4.60000 5.14000 0.00000 4.60000 4.86000 3.00000 9.00000 4.86000 3.00000 9.00000 5.14000 3.00000 4.60000 5.14000 3.00000 -9.00000 -5.14000 0.00000 -5.10000 -5.14000 0.00000 -5.10000 -4.86000 0.00000 -9.00000 -4.86000 0.00000 -9.00000 -5.14000 3.00000 -5.10000 -5.14000 3.00000 -5.10000 -4.86000 3.00000 -9.00000 -4.86000 3.00000 -2.90000 -5.14000 0.00000 3.90000 -5.14000 0.00000 3.90000 -4.86000 0.00000 -2.90000 -4.86000 0.00000 -2.90000 -5.14000 3.00000 3.90000 -5.14000 3.00000 3.90000 -4.86000 3.00000 -2.90000 -4.86000 3.00000 6.10000 -5.14000 0.00000 9.00000 -5.14000 0.00000 9.00000 -4.86000 0.00000 6.10000 -4.86000 0.00000 6.10000 -5.14000 3.00000 9.00000 -5.14000 3.00000 9.00000 -4.86000 3.00000 6.10000 -4.86000 3.00000 -2.86000 -15.00000 0.00000 -2.86000 -11.60000 0.00000 -3.14000 -11.60000 0.00000 -3.14000 -15.00000 0.00000 -2.86000 -15.00000 3.00000 -2.86000 -11.60000 3.00000 -3.14000 -11.60000 3.00000 -3.14000 -15.00000 3.00000 -2.86000 -9.40000 0.00000 -2.86000 -2.10000 0.00000 -3.14000 -2.10000 0.00000 -3.14000 -9.40000 0.00000 -2.86000 -9.40000 3.00000 -2.86000 -2.10000 3.00000 -3.14000 -2.10000 3.00000 -3.14000 -9.40000 3.00000 -2.86000 0.10000 0.00000 -2.86000 7.90000 0.00000 -3.14000 7.90000 0.00000 -3.14000 0.10000 0.00000 -2.86000 0.10000 3.00000 -2.86000 7.90000 3.00000 -3.14000 7.90000 3.00000 -3.14000 0.10000 3.00000 -2.86000 10.10000 0.00000 -2.86000 15.00000 0.00000 -3.14000 15.00000 0.00000 -3.14000 10.10000 0.00000 -2.86000 10.10000 3.00000 -2.86000 15.00000 3.00000 -3.14000 15.00000 3.00000 -3.14000 10.10000 3.00000 3.14000 -15.00000 0.00000 3.14000 -9.10000 0.00000 2.86000 -9.10000 0.00000 2.86000 -15.00000 0.00000 3.14000 -15.00000 3.00000 3.14000 -9.10000 3.00000 2.86000 -9.10000 3.00000 2.86000 -15.00000 3.00000 3.14000 -6.90000 0.00000 3.14000 0.90000 0.00000 2.86000 0.90000 0.00000 2.86000 -6.90000 0.00000 3.14000 -6.90000 3.00000 3.14000 0.90000 3.00000 2.86000 0.90000 3.00000 2.86000 -6.90000 3.00000 3.14000 3.10000 0.00000 3.14000 8.90000 0.00000 2.86000 8.90000 0.00000 2.86000 3.10000 0.00000 3.14000 3.10000 3.00000 3.14000 8.90000 3.00000 2.86000 8.90000 3.00000 2.86000 3.10000 3.00000 3.14000 11.10000 0.00000 3.14000 15.00000 0.00000 2.86000 15.00000 0.00000 2.86000 11.10000 0.00000 3.14000 11.10000 3.00000 3.14000 15.00000 3.00000 2.86000 15.00000 3.00000 2.86000 11.10000 3.00000 -7.30000 9.15000 0.00000 -5.10000 9.15000 0.00000 -5.10000 9.85000 0.00000 -7.30000 9.85000 0.00000 -7.30000 9.15000 1.40000 -5.10000 9.15000 1.40000 -5.10000 9.85000 1.40000 -7.30000 9.85000 1.40000 -7.20000 -9.35000 0.00000 -5.20000 -9.35000 0.00000 -5.20000 -8.65000 0.00000 -7.20000 -8.65000 0.00000 -7.20000 -9.35000 1.40000 -5.20000 -9.35000 1.40000 -5.20000 -8.65000 1.40000 -7.20000 -8.65000 1.40000 5.10000 9.85000 0.00000 7.50000 9.85000 0.00000 7.50000 10.55000 0.00000 5.10000 10.55000 0.00000 5.10000 9.85000 1.40000 7.50000 9.85000 1.40000 7.50000 10.55000 1.40000 5.10000 10.55000 1.40000 4.90000 -9.75000 0.00000 7.10000 -9.75000 0.00000 7.10000 -9.05000 0.00000 4.90000 -9.05000 0.00000 4.90000 -9.75000 1.40000 7.10000 -9.75000 1.40000 7.10000 -9.05000 1.40000 4.90000 -9.05000 1.40000 -1.75000 9.95000 0.00000 -0.25000 9.95000 0.00000 -0.25000 11.05000 0.00000 -1.75000 11.05000 0.00000 -1.75000 9.95000 0.90000 -0.25000 9.95000 0.90000 -0.25000 11.05000 0.90000 -1.75000 11.05000 0.90000 0.10000 -11.10000 0.00000 1.50000 -11.10000 0.00000 1.50000 -9.90000 0.00000 0.10000 -9.90000 0.00000 0.10000 -11.10000 0.90000 1.50000 -11.10000 0.90000 1.50000 -9.90000 0.90000 0.10000 -9.90000 0.90000 -1.46000 1.34000 0.00000 -0.94000 1.34000 0.00000 -0.94000 1.86000 0.00000 -1.46000 1.86000 0.00000 -1.46000 1.34000 3.00000 -0.94000 1.34000 3.00000 -0.94000 1.86000 3.00000 -1.46000 1.86000 3.00000 0.94000 1.34000 0.00000 1.46000 1.34000 0.00000 1.46000 1.86000 0.00000 0.94000 1.86000 0.00000 0.94000 1.34000 3.00000 1.46000 1.34000 3.00000 1.46000 1.86000 3.00000 0.94000 1.86000 3.00000 -1.46000 -1.86000 0.00000 -0.94000 -1.86000 0.00000 -0.94000 -1.34000 0.00000 -1.46000 -1.34000 0.00000 -1.46000 -1.86000 3.00000 -0.94000 -1.86000 3.00000 -0.94000 -1.34000 3.00000 -1.46000 -1.34000 3.00000 0.94000 -1.86000 0.00000 1.46000 -1.86000 0.00000 1.46000 -1.34000 0.00000 0.94000 -1.34000 0.00000 0.94000 -1.86000 3.00000 1.46000 -1.86000 3.00000 1.46000 -1.34000 3.00000 0.94000 -1.34000 3.00000</float_array>
          <technique_common>
            <accessor source="#positions-array" count="240" stride="3">
              <param name="X" type="float"/><param name="Y" type="float"/><param name="Z" type="float"/>
            </accessor>
          </technique_common>
        </source>
        <vertices id="vertices"><input semantic="POSITION" source="#positions"/></vertices>
        <triangles count="360">
          <input semantic="VERTEX" source="#vertices" offset="0"/>
          <p>0 1 2 0 2 3 4 7 6 4 6 5 0 4 5 0 5 1 1 5 6 1 6 2 2 6 7 2 7 3 3 7 4 3 4 0 8 9 10 8 10 11 12 15 14 12 14 13 8 12 13 8 13 9 9 13 14 9 14 10 10 14 15 10 15 11 11 15 12 11 12 8 16 17 18 16 18 19 20 23 22 20 22 21 16 20 21 16 21 17 17 21 22 17 22 18 18 22 23 18 23 19 19 23 20 19 20 16 24 25 26 24 26 27 28 31 30 28 30 29 24 28 29 24 29 25 25 29 30 25 30 26 26 30 31 26 31 27 27 31 28 27 28 24 32 33 34 32 34 35 36 39 38 36 38 37 32 36 37 32 37 33 33 37 38 33 38 34 34 38 39 34 39 35 35 39 36 35 36 32 40 41 42 40 42 43 44 47 46 44 46 45 40 44 45 40 45 41 41 45 46 41 46 42 42 46 47 42 47 43 43 47 44 43 44 40 48 49 50 48 50 51 52 55 54 52 54 53 48 52 53 48 53 49 49 53 54 49 54 50 50 54 55 50 55 51 51 55 52 51 52 48 56 57 58 56 58 59 60 63 62 60 62 61 56 60 61 56 61 57 57 61 62 57 62 58 58 62 63 58 63 59 59 63 60 59 60 56 64 65 66 64 66 67 68 71 70 68 70 69 64 68 69 64 69 65 65 69 70 65 70 66 66 70 71 66 71 67 67 71 68 67 68 64 72 73 74 72 74 75 76 79 78 76 78 77 72 76 77 72 77 73 73 77 78 73 78 74 74 78 79 74 79 75 75 79 76 75 76 72 80 81 82 80 82 83 84 87 86 84 86 85 80 84 85 80 85 81 81 85 86 81 86 82 82 86 87 82 87 83 83 87 84 83 84 80 88 89 90 88 90 91 92 95 94 92 94 93 88 92 93 88 93 89 89 93 94 89 94 90 90 94 95 90 95 91 91 95 92 91 92 88 96 97 98 96 98 99 100 103 102 100 102 101 96 100 101 96 101 97 97 101 102 97 102 98 98 102 103 98 103 99 99 103 100 99 100 96 104 105 106 104 106 107 108 111 110 108 110 109 104 108 109 104 109 105 105 109 110 105 110 106 106 110 111 106 111 107 107 111 108 107 108 104 112 113 114 112 114 115 116 119 118 116 118 117 112 116 117 112 117 113 113 117 118 113 118 114 114 118 119 114 119 115 115 119 116 115 116 112 120 121 122 120 122 123 124 127 126 124 126 125 120 124 125 120 125 121 121 125 126 121 126 122 122 126 127 122 127 123 123 127 124 123 124 120 128 129 130 128 130 131 132 135 134 132 134 133 128 132 133 128 133 129 129 133 134 129 134 130 130 134 135 130 135 131 131 135 132 131 132 128 136 137 138 136 138 139 140 143 142 140 142 141 136 140 141 136 141 137 137 141 142 137 142 138 138 142 143 138 143 139 139 143 140 139 140 136 144 145 146 144 146 147 148 151 150 148 150 149 144 148 149 144 149 145 145 149 150 145 150 146 146 150 151 146 151 147 147 151 148 147 148 144 152 153 154 152 154 155 156 159 158 156 158 157 152 156 157 152 157 153 153 157 158 153 158 154 154 158 159 154 159 155 155 159 156 155 156 152 160 161 162 160 162 163 164 167 166 164 166 165 160 164 165 160 165 161 161 165 166 161 166 162 162 166 167 162 167 163 163 167 164 163 164 160 168 169 170 168 170 171 172 175 174 172 174 173 168 172 173 168 173 169 169 173 174 169 174 170 170 174 175 170 175 171 171 175 172 171 172 168 176 177 178 176 178 179 180 183 182 180 182 181 176 180 181 176 181 177 177 181 182 177 182 178 178 182 183 178 183 179 179 183 180 179 180 176 184 185 186 184 186 187 188 191 190 188 190 189 184 188 189 184 189 185 185 189 190 185 190 186 186 190 191 186 191 187 187 191 188 187 188 184 192 193 194 192 194 195 196 199 198 196 198 197 192 196 197 192 197 193 193 197 198 193 198 194 194 198 199 194 199 195 195 199 196 195 196 192 200 201 202 200 202 203 204 207 206 204 206 205 200 204 205 200 205 201 201 205 206 201 206 202 202 206 207 202 207 203 203 207 204 203 204 200 208 209 210 208 210 211 212 215 214 212 214 213 208 212 213 208 213 209 209 213 214 209 214 210 210 214 215 210 215 211 211 215 212 211 212 208 216 217 218 216 218 219 220 223 222 220 222 221 216 220 221 216 221 217 217 221 222 217 222 218 218 222 223 218 223 219 219 223 220 219 220 216 224 225 226 224 226 227 228 231 230 228 230 229 224 228 229 224 229 225 225 229 230 225 230 226 226 230 231 226 231 227 227 231 228 227 228 224 232 233 234 232 234 235 236 239 238 236 238 237 232 236 237 232 237 233 233 237 238 233 238 234 234 238 239 234 239 235 235 239 236 235 236 232</p>
        </triangles>
      </mesh>
    </geometry>
  </library_geometries>
  <library_visual_scenes>
    <visual_scene id="Scene" name="Scene">
      <node id="Ruins-Urban-01" name="Ruins-Urban-01">
        <instance_geometry url="#ruins_urban_01_geometry"/>
      </node>
    </visual_scene>
  </library_visual_scenes>
  <scene><instance_visual_scene url="#Scene"/></scene>
</COLLADA>
