<?xml version="1.0" encoding="utf-8"?>
<COLLADA xmlns="http://www.collada.org/2005/11/COLLADASchema" version="1.4.1">
  <asset><unit name="meter" meter="1"/><up_axis>Z_UP</up_axis></asset>
  <library_geometries>
    <geometry id="ruins_urban_01_geometry" name="Ruins-Urban-01">
      <mesh>
        <source id="positions">
          <float_array id="positions-array" count="5952">-21.00000 -16.00000 -0.16000 21.00000 -16.00000 -0.16000 21.00000 16.00000 -0.16000 -21.00000 16.00000 -0.16000 -21.00000 -16.00000 0.00000 21.00000 -16.00000 0.00000 21.00000 16.00000 0.00000 -21.00000 16.00000 0.00000 -21.00142 15.75501 0.00000 -2.00237 15.56501 0.00000 -1.99858 15.94499 0.00000 -20.99763 16.13499 0.00000 -21.00142 15.75501 3.10000 -2.00237 15.56501 3.10000 -1.99858 15.94499 3.10000 -20.99763 16.13499 3.10000 0.00433 15.53253 0.00000 21.00197 15.84752 0.00000 20.99567 16.26747 0.00000 -0.00197 15.95248 0.00000 0.00433 15.53253 3.60000 21.00197 15.84752 3.60000 20.99567 16.26747 3.60000 -0.00197 15.95248 3.60000 -20.99669 -16.24198 0.00000 1.00173 -15.97799 0.00000 0.99669 -15.55802 0.00000 -21.00173 -15.82201 0.00000 -20.99669 -16.24198 3.50000 1.00173 -15.97799 3.50000 0.99669 -15.55802 3.50000 -21.00173 -15.82201 3.50000 2.99804 -15.87798 0.00000 20.99512 -16.20196 0.00000 21.00196 -15.82202 0.00000 3.00488 -15.49804 0.00000 2.99804 -15.87798 3.00000 20.99512 -16.20196 3.00000 21.00196 -15.82202 3.00000 3.00488 -15.49804 3.00000 -21.29695 2.30557 0.00000 -20.87703 2.29717 0.00000 -20.60305 15.99443 0.00000 -21.02297 16.00283 0.00000 -21.29695 2.30557 3.40000 -20.87703 2.29717 3.40000 -20.60305 15.99443 3.40000 -21.02297 16.00283 3.40000 -21.05723 -16.00238 0.00000 -20.63728 -15.99608 0.00000 -20.84277 -2.29762 0.00000 -21.26272 -2.30392 0.00000 -21.05723 -16.00238 3.40000 -20.63728 -15.99608 3.40000 -20.84277 -2.29762 3.40000 -21.26272 -2.30392 3.40000 20.58101 -15.89711 0.00000 21.00099 -15.90130 0.00000 21.31899 15.89711 0.00000 20.89901 15.90130 0.00000 20.58101 -15.89711 3.40000 21.00099 -15.90130 3.40000 21.31899 15.89711 3.40000 20.89901 15.90130 3.40000 -13.63661 0.68543 0.00000 -14.02134 2.83993 0.00000 -14.29698 2.79071 0.00000 -13.91225 0.63621 0.00000 -13.63661 0.68543 3.15000 -14.02134 2.83993 3.15000 -14.29698 2.79071 3.15000 -13.91225 0.63621 3.15000 -10.70302 1.20929 0.00000 -11.08775 3.36379 0.00000 -11.36339 3.31457 0.00000 -10.97866 1.16007 0.00000 -10.70302 1.20929 3.15000 -11.08775 3.36379 3.15000 -11.36339 3.31457 3.15000 -10.97866 1.16007 3.15000 -14.40696 6.06830 0.00000 -14.90219 7.10829 0.00000 -15.15499 6.98791 0.00000 -14.65976 5.94792 0.00000 -14.40696 6.06830 2.75000 -14.90219 7.10829 2.75000 -15.15499 6.98791 2.75000 -14.65976 5.94792 2.75000 -12.84501 6.81209 0.00000 -13.34024 7.85208 0.00000 -13.59304 7.73170 0.00000 -13.09781 6.69171 0.00000 -12.84501 6.81209 2.75000 -13.34024 7.85208 2.75000 -13.59304 7.73170 2.75000 -13.09781 6.69171 2.75000 -14.86360 11.20599 0.00000 -13.66836 12.57197 0.00000 -13.87908 12.75635 0.00000 -15.07432 11.39037 0.00000 -14.86360 11.20599 3.15000 -13.66836 12.57197 3.15000 -13.87908 12.75635 3.15000 -15.07432 11.39037 3.15000 -12.62092 9.24365 0.00000 -11.42568 10.60963 0.00000 -11.63640 10.79401 0.00000 -12.83164 9.42803 0.00000 -12.62092 9.24365 3.15000 -11.42568 10.60963 3.15000 -11.63640 10.79401 3.15000 -12.83164 9.42803 3.15000 -9.61548 13.19157 0.00000 -7.96787 12.69728 0.00000 -7.88741 12.96547 0.00000 -9.53502 13.45976 0.00000 -9.61548 13.19157 2.75000 -7.96787 12.69728 2.75000 -7.88741 12.96547 2.75000 -9.53502 13.45976 2.75000 -10.11259 11.53453 0.00000 -8.46498 11.04024 0.00000 -8.38452 11.30843 0.00000 -10.03213 11.80272 0.00000 -10.11259 11.53453 2.75000 -8.46498 11.04024 2.75000 -8.38452 11.30843 2.75000 -10.03213 11.80272 2.75000 -5.11689 10.26647 0.00000 -4.31664 8.82602 0.00000 -4.07188 8.96200 0.00000 -4.87212 10.40245 0.00000 -5.11689 10.26647 2.75000 -4.31664 8.82602 2.75000 -4.07188 8.96200 2.75000 -4.87212 10.40245 2.75000 -6.42812 9.53800 0.00000 -5.62788 8.09755 0.00000 -5.38311 8.23353 0.00000 -6.18336 9.67398 0.00000 -6.42812 9.53800 2.75000 -5.62788 8.09755 2.75000 -5.38311 8.23353 2.75000 -6.18336 9.67398 2.75000 -6.99123 -1.36656 0.00000 -7.35391 -3.32508 0.00000 -7.07859 -3.37606 0.00000 -6.71591 -1.41755 0.00000 -6.99123 -1.36656 3.15000 -7.35391 -3.32508 3.15000 -7.07859 -3.37606 3.15000 -6.71591 -1.41755 3.15000 -9.92141 -0.82394 0.00000 -10.28409 -2.78245 0.00000 -10.00877 -2.83344 0.00000 -9.64609 -0.87492 0.00000 -9.92141 -0.82394 3.15000 -10.28409 -2.78245 3.15000 -10.00877 -2.83344 3.15000 -9.64609 -0.87492 3.15000 -10.63530 -6.50702 0.00000 -11.67573 -7.06885 0.00000 -11.54269 -7.31522 0.00000 -10.50226 -6.75339 0.00000 -10.63530 -6.50702 2.75000 -11.67573 -7.06885 2.75000 -11.54269 -7.31522 2.75000 -10.50226 -6.75339 2.75000 -11.45731 -4.98478 0.00000 -12.49774 -5.54661 0.00000 -12.36470 -5.79298 0.00000 -11.32427 -5.23115 0.00000 -11.45731 -4.98478 2.75000 -12.49774 -5.54661 2.75000 -12.36470 -5.79298 2.75000 -11.32427 -5.23115 2.75000 -13.16506 -11.52977 0.00000 -9.62988 -12.03480 0.00000 -9.59028 -11.75761 0.00000 -13.12546 -11.25259 0.00000 -13.16506 -11.52977 2.75000 -9.62988 -12.03480 2.75000 -9.59028 -11.75761 2.75000 -13.12546 -11.25259 2.75000 -13.40972 -13.24239 0.00000 -9.87454 -13.74741 0.00000 -9.83494 -13.47023 0.00000 -13.37012 -12.96520 0.00000 -13.40972 -13.24239 2.75000 -9.87454 -13.74741 2.75000 -9.83494 -13.47023 2.75000 -13.37012 -12.96520 2.75000 -6.75578 -11.62649 0.00000 -4.32842 -10.30247 0.00000 -4.46250 -10.05666 0.00000 -6.88986 -11.38068 0.00000 -6.75578 -11.62649 2.75000 -4.32842 -10.30247 2.75000 -4.46250 -10.05666 2.75000 -6.88986 -11.38068 2.75000 -6.03750 -12.94334 0.00000 -3.61014 -11.61932 0.00000 -3.74422 -11.37351 0.00000 -6.17158 -12.69753 0.00000 -6.03750 -12.94334 2.75000 -3.61014 -11.61932 2.75000 -3.74422 -11.37351 2.75000 -6.17158 -12.69753 2.75000 10.83345 3.00730 0.00000 11.13092 3.82037 0.00000 10.86796 3.91657 0.00000 10.57050 3.10350 0.00000 10.83345 3.00730 3.15000 11.13092 3.82037 3.15000 10.86796 3.91657 3.15000 10.57050 3.10350 3.15000 13.63204 1.98343 0.00000 13.92950 2.79650 0.00000 13.66655 2.89270 0.00000 13.36908 2.07963 0.00000 13.63204 1.98343 3.15000 13.92950 2.79650 3.15000 13.66655 2.89270 3.15000 13.36908 2.07963 3.15000 14.24102 6.43108 0.00000 15.11052 6.86584 0.00000 14.98530 7.11628 0.00000 14.11580 6.68152 0.00000 14.24102 6.43108 2.75000 15.11052 6.86584 2.75000 14.98530 7.11628 2.75000 14.11580 6.68152 2.75000 15.01470 4.88372 0.00000 15.88420 5.31848 0.00000 15.75898 5.56892 0.00000 14.88948 5.13416 0.00000 15.01470 4.88372 2.75000 15.88420 5.31848 2.75000 15.75898 5.56892 2.75000 14.88948 5.13416 2.75000 16.71289 8.83089 0.00000 17.08679 10.88735 0.00000 16.81131 10.93744 0.00000 16.43741 8.88098 0.00000 16.71289 8.83089 2.75000 17.08679 10.88735 2.75000 16.81131 10.93744 2.75000 16.43741 8.88098 2.75000 18.18869 8.56256 0.00000 18.56259 10.61902 0.00000 18.28711 10.66911 0.00000 17.91321 8.61265 0.00000 18.18869 8.56256 2.75000 18.56259 10.61902 2.75000 18.28711 10.66911 2.75000 17.91321 8.61265 2.75000 13.13209 -0.59040 0.00000 13.52729 -2.84305 0.00000 13.80308 -2.79466 0.00000 13.40788 -0.54201 0.00000 13.13209 -0.59040 3.15000 13.52729 -2.84305 3.15000 13.80308 -2.79466 3.15000 13.40788 -0.54201 3.15000 10.19692 -1.10534 0.00000 10.59212 -3.35799 0.00000 10.86791 -3.30960 0.00000 10.47271 -1.05695 0.00000 10.19692 -1.10534 3.15000 10.59212 -3.35799 3.15000 10.86791 -3.30960 3.15000 10.47271 -1.05695 3.15000 14.22929 -5.57310 0.00000 15.32409 -6.73046 0.00000 15.52750 -6.53804 0.00000 14.43270 -5.38068 0.00000 14.22929 -5.57310 2.75000 15.32409 -6.73046 2.75000 15.52750 -6.53804 2.75000 14.43270 -5.38068 2.75000 12.97250 -6.76196 0.00000 14.06730 -7.91932 0.00000 14.27071 -7.72690 0.00000 13.17591 -6.56954 0.00000 12.97250 -6.76196 2.75000 14.06730 -7.91932 2.75000 14.27071 -7.72690 2.75000 13.17591 -6.56954 2.75000 18.09399 -9.20724 0.00000 19.15254 -10.79507 0.00000 19.38552 -10.63975 0.00000 18.32697 -9.05193 0.00000 18.09399 -9.20724 3.15000 19.15254 -10.79507 3.15000 19.38552 -10.63975 3.15000 18.32697 -9.05193 3.15000 15.61448 -10.86025 0.00000 16.67303 -12.44807 0.00000 16.90601 -12.29276 0.00000 15.84746 -10.70493 0.00000 15.61448 -10.86025 3.15000 16.67303 -12.44807 3.15000 16.90601 -12.29276 3.15000 15.84746 -10.70493 3.15000 -18.60484 2.10008 0.00000 -15.50484 2.00008 0.00000 -15.49516 2.29992 0.00000 -18.59516 2.39992 0.00000 -18.60484 2.10008 2.60000 -15.50484 2.00008 2.60000 -15.49516 2.29992 2.60000 -18.59516 2.39992 2.60000 -9.18968 2.30036 0.00000 -6.28968 2.50036 0.00000 -6.31032 2.79964 0.00000 -9.21032 2.59964 0.00000 -9.18968 2.30036 3.10000 -6.28968 2.50036 3.10000 -6.31032 2.79964 3.10000 -9.21032 2.59964 3.10000 -0.41196 2.50048 0.00000 2.08804 2.30048 0.00000 2.11196 2.59952 0.00000 -0.38804 2.79952 0.00000 -0.41196 2.50048 2.85000 2.08804 2.30048 2.85000 2.11196 2.59952 2.85000 -0.38804 2.79952 2.85000 3.81246 1.80052 0.00000 6.21246 2.00052 0.00000 6.18754 2.29948 0.00000 3.78754 2.09948 0.00000 3.81246 1.80052 3.10000 6.21246 2.00052 3.10000 6.18754 2.29948 3.10000 3.78754 2.09948 3.10000 7.68446 2.45081 0.00000 10.08446 2.20081 0.00000 10.11554 2.49919 0.00000 7.71554 2.74919 0.00000 7.68446 2.45081 2.60000 10.08446 2.20081 2.60000 10.11554 2.49919 2.60000 7.71554 2.74919 2.60000 12.80864 1.95025 0.00000 15.40864 2.10025 0.00000 15.39136 2.39975 0.00000 12.79136 2.24975 0.00000 12.80864 1.95025 2.85000 15.40864 2.10025 2.85000 15.39136 2.39975 2.85000 12.79136 2.24975 2.85000 -18.29275 -2.44982 0.00000 -15.19275 -2.29982 0.00000 -15.20725 -2.00018 0.00000 -18.30725 -2.15018 0.00000 -18.29275 -2.44982 3.10000 -15.19275 -2.29982 3.10000 -15.20725 -2.00018 3.10000 -18.30725 -2.15018 3.10000 -13.48344 -2.89908 0.00000 -10.78344 -2.59908 0.00000 -10.81656 -2.30092 0.00000 -13.51656 -2.60092 0.00000 -13.48344 -2.89908 2.60000 -10.78344 -2.59908 2.60000 -10.81656 -2.30092 2.60000 -13.51656 -2.60092 2.60000 -4.68617 -2.94936 0.00000 -1.98617 -2.69936 0.00000 -2.01383 -2.40064 0.00000 -4.71383 -2.65064 0.00000 -4.68617 -2.94936 3.10000 -1.98617 -2.69936 3.10000 -2.01383 -2.40064 3.10000 -4.71383 -2.65064 3.10000 4.01719 -2.89901 0.00000 6.61719 -2.59901 0.00000 6.58281 -2.30099 0.00000 3.98281 -2.60099 0.00000 4.01719 -2.89901 2.85000 6.61719 -2.59901 2.85000 6.58281 -2.30099 2.85000 3.98281 -2.60099 2.85000 7.99064 -1.74971 0.00000 10.39064 -1.89971 0.00000 10.40936 -1.60029 0.00000 8.00936 -1.45029 0.00000 7.99064 -1.74971 3.10000 10.39064 -1.89971 3.10000 10.40936 -1.60029 3.10000 8.00936 -1.45029 3.10000 13.01246 -2.69948 0.00000 16.01246 -2.44948 0.00000 15.98754 -2.15052 0.00000 12.98754 -2.40052 0.00000 13.01246 -2.69948 2.60000 16.01246 -2.44948 2.60000 15.98754 -2.15052 2.60000 12.98754 -2.40052 2.60000 -17.37890 8.06297 2.58000 -11.52600 5.23569 2.58000 -10.22110 7.93703 2.58000 -16.07400 10.76431 2.58000 -17.37890 8.06297 2.86000 -11.52600 5.23569 2.86000 -10.22110 7.93703 2.86000 -16.07400 10.76431 2.86000 -12.76190 11.54152 2.49000 -7.95662 10.15974 2.49000 -7.23810 12.65848 2.49000 -12.04338 14.04026 2.49000 -12.76190 11.54152 2.75000 -7.95662 10.15974 2.75000 -7.23810 12.65848 2.75000 -12.04338 14.04026 2.75000 -17.51000 5.69000 0.00000 -16.89000 5.69000 0.00000 -16.89000 6.31000 0.00000 -17.51000 6.31000 0.00000 -17.51000 5.69000 3.50000 -16.89000 5.69000 3.50000 -16.89000 6.31000 3.50000 -17.51000 6.31000 3.50000 -17.51000 8.09000 0.00000 -16.89000 8.09000 0.00000 -16.89000 8.71000 0.00000 -17.51000 8.71000 0.00000 -17.51000 8.09000 3.50000 -16.89000 8.09000 3.50000 -16.89000 8.71000 3.50000 -17.51000 8.71000 3.50000 8.29000 5.69000 0.00000 8.91000 5.69000 0.00000 8.91000 6.31000 0.00000 8.29000 6.31000 0.00000 8.29000 5.69000 3.50000 8.91000 5.69000 3.50000 8.91000 6.31000 3.50000 8.29000 6.31000 3.50000 10.69000 8.69000 0.00000 11.31000 8.69000 0.00000 11.31000 9.31000 0.00000 10.69000 9.31000 0.00000 10.69000 8.69000 3.50000 11.31000 8.69000 3.50000 11.31000 9.31000 3.50000 10.69000 9.31000 3.50000 13.09000 8.69000 0.00000 13.71000 8.69000 0.00000 13.71000 9.31000 0.00000 13.09000 9.31000 0.00000 13.09000 8.69000 3.50000 13.71000 8.69000 3.50000 13.71000 9.31000 3.50000 13.09000 9.31000 3.50000 -1.31000 -13.11000 0.00000 -0.69000 -13.11000 0.00000 -0.69000 -12.49000 0.00000 -1.31000 -12.49000 0.00000 -1.31000 -13.11000 3.50000 -0.69000 -13.11000 3.50000 -0.69000 -12.49000 3.50000 -1.31000 -12.49000 3.50000 2.69000 -10.81000 0.00000 3.31000 -10.81000 0.00000 3.31000 -10.19000 0.00000 2.69000 -10.19000 0.00000 2.69000 -10.81000 3.50000 3.31000 -10.81000 3.50000 3.31000 -10.19000 3.50000 2.69000 -10.19000 3.50000 8.19000 -12.11000 0.00000 8.81000 -12.11000 0.00000 8.81000 -11.49000 0.00000 8.19000 -11.49000 0.00000 8.19000 -12.11000 3.50000 8.81000 -12.11000 3.50000 8.81000 -11.49000 3.50000 8.19000 -11.49000 3.50000 -1.97670 -0.60247 -0.09098 -0.74911 -0.82586 -0.01603 -0.36222 1.33708 0.09373 -1.58981 1.56046 0.01877 -2.03778 -0.63708 0.80627 -0.81019 -0.86046 0.88123 -0.42330 1.30247 0.99098 -1.65089 1.52586 0.91603 3.13413 -0.81933 2.12288 4.30645 -1.05697 2.02698 4.77536 1.29483 1.93132 3.60304 1.53247 2.02721 3.22464 -0.79483 3.16868 4.39696 -1.03247 3.07279 4.86587 1.31933 2.97712 3.69355 1.55697 3.07302 6.89008 -0.14074 2.92045 11.55099 0.90153 2.44125 11.47679 1.23333 2.44125 6.81589 0.19106 2.92045 6.92321 -0.13333 3.25875 11.58411 0.90894 2.77955 11.50992 1.24074 2.77955 6.84901 0.19847 3.25875 -2.43732 6.59858 3.24000 0.84230 8.89431 3.24000 -0.56268 10.90142 3.24000 -3.84230 8.60569 3.24000 -2.43732 6.59858 3.48000 0.84230 8.89431 3.48000 -0.56268 10.90142 3.48000 -3.84230 8.60569 3.48000 -3.53918 8.69581 3.38000 -0.75111 10.64746 3.38000 -0.87727 10.82769 3.38000 -3.66534 8.87604 3.38000 -3.53918 8.69581 5.38000 -0.75111 10.64746 5.38000 -0.87727 10.82769 5.38000 -3.66534 8.87604 5.38000 -2.12273 6.67231 3.38000 0.66534 8.62396 3.38000 0.53918 8.80419 3.38000 -2.24889 6.85254 3.38000 -2.12273 6.67231 5.38000 0.66534 8.62396 5.38000 0.53918 8.80419 5.38000 -2.24889 6.85254 5.38000 2.14810 9.36643 3.24000 6.05536 9.69203 3.24000 5.85190 12.13357 3.24000 1.94464 11.80797 3.24000 2.14810 9.36643 3.48000 6.05536 9.69203 3.48000 5.85190 12.13357 3.48000 1.94464 11.80797 3.48000 2.25191 11.73323 3.38000 5.56124 12.00900 3.38000 5.54297 12.22824 3.38000 2.23364 11.95247 3.38000 2.25191 11.73323 5.38000 5.56124 12.00900 5.38000 5.54297 12.22824 5.38000 2.23364 11.95247 5.38000 2.45703 9.27176 3.38000 5.76636 9.54753 3.38000 5.74809 9.76677 3.38000 2.43876 9.49100 3.38000 2.45703 9.27176 5.38000 5.76636 9.54753 5.38000 5.74809 9.76677 5.38000 2.43876 9.49100 5.38000 6.98354 9.38666 3.24000 9.40313 7.26952 3.24000 11.01646 9.11334 3.24000 8.59687 11.23048 3.24000 6.98354 9.38666 3.48000 9.40313 7.26952 3.48000 11.01646 9.11334 3.48000 8.59687 11.23048 3.48000 8.75680 10.95767 3.38000 10.72484 9.23563 3.38000 10.86971 9.40120 3.38000 8.90167 11.12323 3.38000 8.75680 10.95767 5.38000 10.72484 9.23563 5.38000 10.86971 9.40120 5.38000 8.90167 11.12323 5.38000 7.13029 9.09880 3.38000 9.09833 7.37677 3.38000 9.24320 7.54233 3.38000 7.27516 9.26437 3.38000 7.13029 9.09880 5.38000 9.09833 7.37677 5.38000 9.24320 7.54233 5.38000 7.27516 9.26437 5.38000 9.45414 7.03802 3.24000 8.30703 4.45702 3.24000 10.54586 3.46198 3.24000 11.69297 6.04298 3.24000 9.45414 7.03802 3.48000 8.30703 4.45702 3.48000 10.54586 3.46198 3.48000 11.69297 6.04298 3.48000 11.47975 5.80945 3.38000 10.57632 3.77674 3.38000 10.77736 3.68739 3.38000 11.68079 5.72010 3.38000 11.47975 5.80945 5.38000 10.57632 3.77674 5.38000 10.77736 3.68739 5.38000 11.68079 5.72010 5.38000 9.22264 6.81261 3.38000 8.31921 4.77990 3.38000 8.52025 4.69055 3.38000 9.42368 6.72326 3.38000 9.22264 6.81261 5.38000 8.31921 4.77990 5.38000 8.52025 4.69055 5.38000 9.42368 6.72326 5.38000 7.64765 3.87992 3.24000 2.16274 2.27102 3.24000 2.85235 -0.07992 3.24000 8.33726 1.52898 3.24000 7.64765 3.87992 3.48000 2.16274 2.27102 3.48000 2.85235 -0.07992 3.48000 8.33726 1.52898 3.48000 8.02124 1.54050 3.38000 3.11208 0.10047 3.38000 3.17400 -0.11063 3.38000 8.08316 1.32939 3.38000 8.02124 1.54050 5.38000 3.11208 0.10047 5.38000 3.17400 -0.11063 5.38000 8.08316 1.32939 5.38000 7.32600 3.91063 3.38000 2.41684 2.47061 3.38000 2.47876 2.25950 3.38000 7.38792 3.69953 3.38000 7.32600 3.91063 5.38000 2.41684 2.47061 5.38000 2.47876 2.25950 5.38000 7.38792 3.69953 5.38000 1.71960 2.39841 3.24000 -2.38681 7.02745 3.24000 -4.21960 5.40159 3.24000 -0.11319 0.77255 3.24000 1.71960 2.39841 3.48000 -2.38681 7.02745 3.48000 -4.21960 5.40159 3.48000 -0.11319 0.77255 3.48000 -0.23746 1.06333 3.38000 -3.94570 5.24353 3.38000 -4.11028 5.09754 3.38000 -0.40204 0.91734 3.38000 -0.23746 1.06333 5.38000 -3.94570 5.24353 5.38000 -4.11028 5.09754 5.38000 -0.40204 0.91734 5.38000 1.61028 2.70246 3.38000 -2.09796 6.88266 3.38000 -2.26254 6.73667 3.38000 1.44570 2.55647 3.38000 1.61028 2.70246 5.38000 -2.09796 6.88266 5.38000 -2.26254 6.73667 5.38000 1.44570 2.55647 5.38000 1.51188 -0.81338 3.24000 4.40742 -3.25850 3.24000 5.98812 -1.38662 3.24000 3.09258 1.05850 3.24000 1.51188 -0.81338 3.48000 4.40742 -3.25850 3.48000 5.98812 -1.38662 3.48000 3.09258 1.05850 3.48000 3.25727 0.78854 3.38000 5.69439 -1.26947 3.38000 5.83633 -1.10139 3.38000 3.39921 0.95663 3.38000 3.25727 0.78854 5.38000 5.69439 -1.26947 5.38000 5.83633 -1.10139 5.38000 3.39921 0.95663 5.38000 1.66367 -1.09861 3.38000 4.10079 -3.15663 3.38000 4.24273 -2.98854 3.38000 1.80561 -0.93053 3.38000 1.66367 -1.09861 5.38000 4.10079 -3.15663 5.38000 4.24273 -2.98854 5.38000 1.80561 -0.93053 5.38000 6.39131 -4.56525 3.24000 9.51301 -6.12610 3.24000 10.60869 -3.93475 3.24000 7.48699 -2.37390 3.24000 6.39131 -4.56525 3.48000 9.51301 -6.12610 3.48000 10.60869 -3.93475 3.48000 7.48699 -2.37390 3.48000 7.71059 -2.59751 3.38000 10.29564 -3.89003 3.38000 10.39403 -3.69326 3.38000 7.80898 -2.40073 3.38000 7.71059 -2.59751 5.38000 10.29564 -3.89003 5.38000 10.39403 -3.69326 5.38000 7.80898 -2.40073 5.38000 6.60597 -4.80674 3.38000 9.19102 -6.09927 3.38000 9.28941 -5.90249 3.38000 6.70436 -4.60997 3.38000 6.60597 -4.80674 5.38000 9.19102 -6.09927 5.38000 9.28941 -5.90249 5.38000 6.70436 -4.60997 5.38000 11.27011 -7.09065 3.24000 14.46938 -9.01021 3.24000 15.72989 -6.90935 3.24000 12.53062 -4.98979 3.24000 11.27011 -7.09065 3.48000 14.46938 -9.01021 3.48000 15.72989 -6.90935 3.48000 12.53062 -4.98979 3.48000 12.73642 -5.22989 3.38000 15.42119 -6.84075 3.38000 15.53438 -6.65210 3.38000 12.84961 -5.04124 3.38000 12.73642 -5.22989 5.38000 15.42119 -6.84075 5.38000 15.53438 -6.65210 5.38000 12.84961 -5.04124 5.38000 11.46562 -7.34790 3.38000 14.15039 -8.95876 3.38000 14.26358 -8.77011 3.38000 11.57881 -7.15925 3.38000 11.46562 -7.34790 5.38000 14.15039 -8.95876 5.38000 14.26358 -8.77011 5.38000 11.57881 -7.15925 5.38000 10.96098 5.88705 3.24000 14.40006 2.79188 3.24000 16.03902 4.61295 3.24000 12.59994 7.70812 3.24000 10.96098 5.88705 3.48000 14.40006 2.79188 3.48000 16.03902 4.61295 3.48000 12.59994 7.70812 3.48000 12.75603 7.43310 3.38000 15.74914 4.73931 3.38000 15.89631 4.90283 3.38000 12.90320 7.59663 3.38000 12.75603 7.43310 5.38000 15.74914 4.73931 5.38000 15.89631 4.90283 5.38000 12.90320 7.59663 5.38000 11.10369 5.59717 3.38000 14.09680 2.90337 3.38000 14.24397 3.06690 3.38000 11.25086 5.76069 3.38000 11.10369 5.59717 5.38000 14.09680 2.90337 5.38000 14.24397 3.06690 5.38000 11.25086 5.76069 5.38000 -0.25000 9.25000 3.24000 2.25000 9.25000 3.24000 2.25000 11.75000 3.24000 -0.25000 11.75000 3.24000 -0.25000 9.25000 3.48000 2.25000 9.25000 3.48000 2.25000 11.75000 3.48000 -0.25000 11.75000 3.48000 5.75000 9.75000 3.24000 8.25000 9.75000 3.24000 8.25000 12.25000 3.24000 5.75000 12.25000 3.24000 5.75000 9.75000 3.48000 8.25000 9.75000 3.48000 8.25000 12.25000 3.48000 5.75000 12.25000 3.48000 9.75000 6.25000 3.24000 12.25000 6.25000 3.24000 12.25000 8.75000 3.24000 9.75000 8.75000 3.24000 9.75000 6.25000 3.48000 12.25000 6.25000 3.48000 12.25000 8.75000 3.48000 9.75000 8.75000 3.48000 7.75000 1.75000 3.24000 10.25000 1.75000 3.24000 10.25000 4.25000 3.24000 7.75000 4.25000 3.24000 7.75000 1.75000 3.48000 10.25000 1.75000 3.48000 10.25000 4.25000 3.48000 7.75000 4.25000 3.48000 4.75000 -4.25000 3.24000 7.25000 -4.25000 3.24000 7.25000 -1.75000 3.24000 4.75000 -1.75000 3.24000 4.75000 -4.25000 3.48000 7.25000 -4.25000 3.48000 7.25000 -1.75000 3.48000 4.75000 -1.75000 3.48000 9.75000 -6.75000 3.24000 12.25000 -6.75000 3.24000 12.25000 -4.25000 3.24000 9.75000 -4.25000 3.24000 9.75000 -6.75000 3.48000 12.25000 -6.75000 3.48000 12.25000 -4.25000 3.48000 9.75000 -4.25000 3.48000 14.75000 1.75000 3.24000 17.25000 1.75000 3.24000 17.25000 4.25000 3.24000 14.75000 4.25000 3.24000 14.75000 1.75000 3.48000 17.25000 1.75000 3.48000 17.25000 4.25000 3.48000 14.75000 4.25000 3.48000 -5.46000 5.65000 3.34000 -5.24000 5.65000 3.34000 -5.24000 8.35000 3.34000 -5.46000 8.35000 3.34000 -5.46000 5.65000 3.76000 -5.24000 5.65000 3.76000 -5.24000 8.35000 3.76000 -5.46000 8.35000 3.76000 -2.76000 5.65000 3.34000 -2.54000 5.65000 3.34000 -2.54000 8.35000 3.34000 -2.76000 8.35000 3.34000 -2.76000 5.65000 3.76000 -2.54000 5.65000 3.76000 -2.54000 8.35000 3.76000 -2.76000 8.35000 3.76000 -5.35000 8.24000 3.34000 -2.65000 8.24000 3.34000 -2.65000 8.46000 3.34000 -5.35000 8.46000 3.34000 -5.35000 8.24000 3.76000 -2.65000 8.24000 3.76000 -2.65000 8.46000 3.76000 -5.35000 8.46000 3.76000 0.04000 -0.55000 3.34000 0.26000 -0.55000 3.34000 0.26000 2.15000 3.34000 0.04000 2.15000 3.34000 0.04000 -0.55000 3.76000 0.26000 -0.55000 3.76000 0.26000 2.15000 3.76000 0.04000 2.15000 3.76000 2.74000 -0.55000 3.34000 2.96000 -0.55000 3.34000 2.96000 2.15000 3.34000 2.74000 2.15000 3.34000 2.74000 -0.55000 3.76000 2.96000 -0.55000 3.76000 2.96000 2.15000 3.76000 2.74000 2.15000 3.76000 0.15000 2.04000 3.34000 2.85000 2.04000 3.34000 2.85000 2.26000 3.34000 0.15000 2.26000 3.34000 0.15000 2.04000 3.76000 2.85000 2.04000 3.76000 2.85000 2.26000 3.76000 0.15000 2.26000 3.76000 14.54000 -9.85000 3.34000 14.76000 -9.85000 3.34000 14.76000 -7.15000 3.34000 14.54000 -7.15000 3.34000 14.54000 -9.85000 3.76000 14.76000 -9.85000 3.76000 14.76000 -7.15000 3.76000 14.54000 -7.15000 3.76000 17.24000 -9.85000 3.34000 17.46000 -9.85000 3.34000 17.46000 -7.15000 3.34000 17.24000 -7.15000 3.34000 17.24000 -9.85000 3.76000 17.46000 -9.85000 3.76000 17.46000 -7.15000 3.76000 17.24000 -7.15000 3.76000 14.65000 -7.26000 3.34000 17.35000 -7.26000 3.34000 17.35000 -7.04000 3.34000 14.65000 -7.04000 3.34000 14.65000 -7.26000 3.76000 17.35000 -7.26000 3.76000 17.35000 -7.04000 3.76000 14.65000 -7.04000 3.76000 -16.55871 -11.12694 0.00000 -16.07851 -11.12694 0.00000 -16.07851 -10.67484 0.00000 -16.55871 -10.67484 0.00000 -16.55871 -11.12694 3.81018 -16.07851 -11.12694 3.81018 -16.07851 -10.67484 3.81018 -16.55871 -10.67484 3.81018 -7.60166 -6.91603 0.00000 -6.81737 -6.91603 0.00000 -6.81737 -6.43264 0.00000 -7.60166 -6.43264 0.00000 -7.60166 -6.91603 3.59988 -6.81737 -6.91603 3.59988 -6.81737 -6.43264 3.59988 -7.60166 -6.43264 3.59988 7.72229 6.02832 0.00000 8.23486 6.02832 0.00000 8.23486 6.61639 0.00000 7.72229 6.61639 0.00000 7.72229 6.02832 3.05727 8.23486 6.02832 3.05727 8.23486 6.61639 3.05727 7.72229 6.61639 3.05727 11.63729 -12.36468 0.00000 12.32706 -12.36468 0.00000 12.32706 -11.83673 0.00000 11.63729 -11.83673 0.00000 11.63729 -12.36468 3.62745 12.32706 -12.36468 3.62745 12.32706 -11.83673 3.62745 11.63729 -11.83673 3.62745 10.71993 -9.91670 0.00000 11.47572 -9.91670 0.00000 11.47572 -9.28432 0.00000 10.71993 -9.28432 0.00000 10.71993 -9.91670 3.49127 11.47572 -9.91670 3.49127 11.47572 -9.28432 3.49127 10.71993 -9.28432 3.49127 -11.64951 -10.98344 0.00000 -10.85642 -10.98344 0.00000 -10.85642 -10.13811 0.00000 -11.64951 -10.13811 0.00000 -11.64951 -10.98344 3.64828 -10.85642 -10.98344 3.64828 -10.85642 -10.13811 3.64828 -11.64951 -10.13811 3.64828 -12.41407 -8.17611 0.00000 -11.64964 -8.17611 0.00000 -11.64964 -7.58806 0.00000 -12.41407 -7.58806 0.00000 -12.41407 -8.17611 2.68007 -11.64964 -8.17611 2.68007 -11.64964 -7.58806 2.68007 -12.41407 -7.58806 2.68007 15.71029 -1.98444 0.00000 16.17512 -1.98444 0.00000 16.17512 -1.11628 0.00000 15.71029 -1.11628 0.00000 15.71029 -1.98444 3.58084 16.17512 -1.98444 3.58084 16.17512 -1.11628 3.58084 15.71029 -1.11628 3.58084 10.41767 -3.47119 0.00000 11.17595 -3.47119 0.00000 11.17595 -2.63008 0.00000 10.41767 -2.63008 0.00000 10.41767 -3.47119 2.64890 11.17595 -3.47119 2.64890 11.17595 -2.63008 2.64890 10.41767 -2.63008 2.64890 0.12316 8.10135 0.00000 0.94460 8.10135 0.00000 0.94460 8.97783 0.00000 0.12316 8.97783 0.00000 0.12316 8.10135 3.26475 0.94460 8.10135 3.26475 0.94460 8.97783 3.26475 0.12316 8.97783 3.26475 2.52629 -8.01189 0.00000 3.33232 -8.01189 0.00000 3.33232 -7.21928 0.00000 2.52629 -7.21928 0.00000 2.52629 -8.01189 2.47398 3.33232 -8.01189 2.47398 3.33232 -7.21928 2.47398 2.52629 -7.21928 2.47398 -7.62138 7.53531 0.00000 -6.84149 7.53531 0.00000 -6.84149 8.28327 0.00000 -7.62138 8.28327 0.00000 -7.62138 7.53531 2.44261 -6.84149 7.53531 2.44261 -6.84149 8.28327 2.44261 -7.62138 8.28327 2.44261 3.80984 8.54658 0.00000 4.54108 8.54658 0.00000 4.54108 9.33953 0.00000 3.80984 9.33953 0.00000 3.80984 8.54658 3.46498 4.54108 8.54658 3.46498 4.54108 9.33953 3.46498 3.80984 9.33953 3.46498 -18.51643 -3.07962 0.00000 -17.72749 -3.07962 0.00000 -17.72749 -2.19647 0.00000 -18.51643 -2.19647 0.00000 -18.51643 -3.07962 2.66618 -17.72749 -3.07962 2.66618 -17.72749 -2.19647 2.66618 -18.51643 -2.19647 2.66618 4.36316 5.07932 0.03211 3.94080 5.90365 -0.06728 2.94191 5.39623 -0.03092 3.36427 4.57190 0.06847 4.35944 5.10018 0.22093 3.93707 5.92451 0.12154 2.93818 5.41709 0.15790 3.36054 4.59276 0.25729 4.27566 -9.17662 -0.03152 4.69778 -8.48049 0.05587 4.40597 -8.30132 0.03814 3.98385 -8.99744 -0.04925 4.18213 -9.23680 0.89952 4.60426 -8.54067 0.98692 4.31245 -8.36149 0.96919 3.89033 -9.05762 0.88179 15.35516 -4.76236 0.05990 15.43998 -4.16174 -0.03820 15.01010 -4.10286 -0.04933 14.92529 -4.70347 0.04877 15.35243 -4.63242 0.85312 15.43724 -4.03180 0.75502 15.00737 -3.97291 0.74389 14.92255 -4.57353 0.84199 16.18717 -6.21828 0.08221 15.74964 -5.66096 -0.01790 15.21703 -6.08858 -0.07073 15.65455 -6.64590 0.02938 16.05545 -6.16320 0.96449 15.61792 -5.60588 0.86438 15.08530 -6.03351 0.81156 15.52283 -6.59082 0.91167 -9.00189 10.63189 0.03757 -9.00738 11.36003 -0.05269 -9.41257 11.35957 -0.03178 -9.40709 10.63144 0.05848 -8.96883 10.71178 0.67999 -8.97431 11.43992 0.58973 -9.37951 11.43946 0.61064 -9.37403 10.71132 0.70090 -18.23719 8.94190 -0.06143 -17.90202 9.12779 -0.06878 -18.49568 10.20343 0.06523 -18.83085 10.01753 0.07257 -18.19397 8.88847 0.55883 -17.85880 9.07437 0.55148 -18.45246 10.15001 0.68549 -18.78763 9.96411 0.69284 18.71609 -1.05454 -0.02886 19.19557 -1.01856 -0.04698 19.10780 0.19024 0.03130 18.62833 0.15425 0.04943 18.75317 -1.10844 0.84502 19.23264 -1.07246 0.82689 19.14488 0.13634 0.90517 18.66541 0.10035 0.92330 -3.13173 10.16351 0.03775 -3.07695 10.59942 0.04280 -3.59652 10.66554 -0.02866 -3.65129 10.22963 -0.03371 -3.26493 10.16898 1.01131 -3.21015 10.60489 1.01635 -3.72972 10.67100 0.94489 -3.78450 10.23509 0.93985 -2.21852 -4.93855 0.00249 -2.63175 -4.64119 -0.01778 -2.90889 -5.02519 -0.00111 -2.49566 -5.32255 0.01916 -2.22998 -4.88788 0.97959 -2.64321 -4.59052 0.95932 -2.92035 -4.97452 0.97599 -2.50712 -5.27187 0.99625 13.62334 -12.55151 0.10525 13.83465 -11.27110 -0.06528 13.51343 -11.22263 -0.09939 13.30212 -12.50304 0.07114 13.58877 -12.49101 0.51669 13.80008 -11.21060 0.34616 13.47886 -11.16213 0.31205 13.26755 -12.44254 0.48258 12.87179 10.45521 0.02720 12.26404 10.76732 -0.00876 11.73309 9.73144 -0.02597 12.34084 9.41934 0.00999 12.82772 10.46414 0.84968 12.21996 10.77625 0.81373 11.68902 9.74037 0.79652 12.29677 9.42827 0.83248 12.33619 -12.88923 -0.06146 12.71253 -12.30875 0.02561 12.31477 -12.05842 0.07589 11.93843 -12.63890 -0.01119 12.36006 -13.06222 0.98867 12.73639 -12.48174 1.07574 12.33863 -12.23141 1.12602 11.96230 -12.81189 1.03894 -6.71138 10.47267 -0.01317 -6.97783 10.88074 -0.04060 -7.28455 10.68450 0.01953 -7.01810 10.27643 0.04696 -6.66619 10.53031 0.40549 -6.93265 10.93838 0.37806 -7.23937 10.74215 0.43818 -6.97291 10.33408 0.46561 -12.10803 -4.36239 0.01949 -12.79618 -3.30941 0.06752 -13.58848 -3.82333 -0.01742 -12.90033 -4.87631 -0.06546 -12.13164 -4.39758 0.45260 -12.81979 -3.34460 0.50064 -13.61209 -3.85852 0.41569 -12.92394 -4.91149 0.36766 -0.64896 7.13300 -0.04708 -1.08265 7.23507 -0.01259 -1.18636 6.76988 0.05993 -0.75267 6.66782 0.02544 -0.55182 7.24848 0.83256 -0.98551 7.35054 0.86705 -1.08922 6.88536 0.93957 -0.65553 6.78329 0.90508 13.48676 7.77271 0.08071 14.09588 8.13703 -0.02842 13.78157 8.64914 -0.07313 13.17245 8.28481 0.03600 13.53495 7.84759 0.59971 14.14407 8.21192 0.49058 13.82976 8.72403 0.44588 13.22064 8.35970 0.55501 15.31009 -4.17893 -0.10753 15.18679 -3.35994 0.04148 13.90681 -3.56605 0.11520 14.03011 -4.38504 -0.03381 15.34676 -4.25205 0.32468 15.22346 -3.43306 0.47369 13.94348 -3.63917 0.54740 14.06678 -4.45816 0.39839 -3.82220 11.71822 -0.00311 -2.79665 12.14494 0.04926 -2.94881 12.51573 0.00780 -3.97437 12.08901 -0.04457 -3.88264 11.77450 0.72200 -2.85709 12.20121 0.77436 -3.00925 12.57201 0.73290 -4.03481 12.14529 0.68053 -6.88024 2.16106 -0.01021 -6.54987 2.83897 -0.10342 -7.71434 3.42374 0.02225 -8.04471 2.74583 0.11546 -6.74169 2.22752 0.96427 -6.41132 2.90543 0.87106 -7.57580 3.49020 0.99673 -7.90617 2.81230 1.08994 3.06769 -10.73434 0.01678 1.45014 -10.64655 0.04479 1.42508 -11.09095 -0.00981 3.04263 -11.17874 -0.03782 3.07736 -10.84682 0.92788 1.45981 -10.75903 0.95589 1.43475 -11.20344 0.90129 3.05230 -11.29122 0.87328 12.07215 13.48771 0.07607 12.25818 13.79333 0.08821 11.33547 14.36107 -0.06473 11.14944 14.05545 -0.07686 11.92275 13.53578 1.15588 12.10878 13.84140 1.16802 11.18607 14.40914 1.01508 11.00004 14.10352 1.00295 -0.19757 -1.84440 -0.03439 -0.45258 -1.21572 0.01395 -0.73847 -1.33353 0.03806 -0.48346 -1.96221 -0.01028 -0.13236 -1.86840 0.62173 -0.38737 -1.23972 0.67007 -0.67325 -1.35753 0.69418 -0.41824 -1.98621 0.64583 -4.46342 -5.67505 0.07464 -3.73773 -4.99087 -0.10648 -4.63494 -4.02725 -0.06121 -5.36062 -4.71144 0.11992 -4.33956 -5.59691 0.86608 -3.61387 -4.91272 0.68495 -4.51108 -3.94911 0.73023 -5.23676 -4.63329 0.91135 -16.11692 -0.87219 0.07476 -16.50251 -0.62864 0.07965 -17.14721 -1.64637 -0.06776 -16.76162 -1.88992 -0.07264 -16.16938 -0.97393 1.00665 -16.55497 -0.73038 1.01154 -17.19967 -1.74812 0.86413 -16.81408 -1.99167 0.85924 1.26902 4.43236 0.03233 0.66450 5.02534 0.07806 0.27467 4.63545 -0.01953 0.87918 4.04247 -0.06525 1.20470 4.30896 0.78228 0.60019 4.90194 0.82801 0.21035 4.51205 0.73042 0.81486 3.91907 0.68470 -4.99595 13.20863 0.02859 -5.26503 13.70664 -0.07356 -5.60428 13.53354 -0.02382 -5.33520 13.03553 0.07833 -4.98969 13.25103 0.21883 -5.25877 13.74904 0.11669 -5.59802 13.57594 0.16643 -5.32894 13.07793 0.26857 -15.80661 -12.43362 -0.10223 -15.98188 -11.51861 -0.02274 -16.82591 -11.69168 0.10842 -16.65064 -12.60668 0.02893 -15.73910 -12.45587 0.30279 -15.91437 -11.54087 0.38229 -16.75840 -11.71394 0.51345 -16.58313 -12.62894 0.43395 -3.65190 -13.52336 -0.05594 -3.54803 -13.07546 0.01862 -4.05587 -12.96572 0.06685 -4.15973 -13.41361 -0.00771 -3.61694 -13.63503 0.56624 -3.51308 -13.18714 0.64079 -4.02091 -13.07740 0.68902 -4.12478 -13.52529 0.61446 16.95178 10.82732 0.04805 16.41931 11.63249 -0.03229 15.96410 11.32998 -0.04700 16.49657 10.52481 0.03335 16.93292 10.84231 0.32335 16.40045 11.64749 0.24300 15.94524 11.34498 0.22830 16.47771 10.53981 0.30864 15.15217 10.51096 0.05617 15.15118 10.97749 -0.02294 14.49498 10.97102 -0.05288 14.49596 10.50450 0.02622 15.14204 10.54724 0.27025 15.14106 11.01376 0.19114 14.48485 11.00730 0.16120 14.48583 10.54078 0.24030 -9.81703 8.31458 -0.07669 -10.24630 8.55558 -0.06546 -10.73094 7.68532 0.08538 -10.30167 7.44432 0.07415 -9.74698 8.40465 0.66798 -10.17625 8.64565 0.67921 -10.66089 7.77538 0.83006 -10.23162 7.53438 0.81883 5.36412 -9.61114 -0.09760 4.61026 -8.47036 -0.12556 3.50998 -9.19178 0.10656 4.26384 -10.33255 0.13452 5.44190 -9.54573 0.47434 4.68803 -8.40495 0.44638 3.58775 -9.12637 0.67850 4.34161 -10.26714 0.70645 4.00944 -13.34761 0.02757 4.14150 -12.95502 0.05787 3.61438 -12.77157 -0.02166 3.48232 -13.16416 -0.05196 3.93623 -13.35850 0.48767 4.06829 -12.96591 0.51797 3.54117 -12.78245 0.43844 3.40911 -13.17505 0.40814 2.11832 -12.95652 -0.07218 2.16165 -11.72414 0.11773 1.69464 -11.70236 0.08293 1.65132 -12.93474 -0.10697 2.05844 -13.06756 0.66206 2.10177 -11.83518 0.85196 1.63476 -11.81340 0.81717 1.59143 -13.04578 0.62727 14.23523 -13.70745 0.00759 14.07973 -13.34402 -0.06029 13.59764 -13.53689 0.01142 13.75314 -13.90032 0.07931 14.28418 -13.54189 0.78182 14.12868 -13.17846 0.71394 13.64658 -13.37134 0.78565 13.80208 -13.73477 0.85354 -3.49239 12.81411 0.13243 -3.71656 13.53799 0.03459 -4.67357 13.22008 -0.12476 -4.44939 12.49620 -0.02692 -3.56230 12.84175 0.49714 -3.78647 13.56563 0.39930 -4.74348 13.24772 0.23995 -4.51930 12.52384 0.33779 -1.35188 -7.57055 -0.02672 -1.77379 -7.40071 -0.01882 -2.09327 -8.19650 0.02806 -1.67136 -8.36635 0.02016 -1.32205 -7.53444 0.78953 -1.74396 -7.36459 0.79743 -2.06344 -8.16039 0.84431 -1.64153 -8.33024 0.83641 -7.27954 10.11005 -0.04486 -7.83780 10.65502 0.00965 -8.61599 9.85408 0.04731 -8.05773 9.30911 -0.00721 -7.21977 10.09012 0.76651 -7.77803 10.63508 0.82103 -8.55621 9.83414 0.85868 -7.99796 9.28918 0.80416 18.38942 5.25065 -0.02937 18.79868 5.44809 -0.09480 18.38399 6.35293 0.04178 17.97473 6.15549 0.10721 18.50782 5.21112 0.59200 18.91709 5.40856 0.52658 18.50240 6.31341 0.66316 18.09313 6.11597 0.72858 1.97514 -13.72959 -0.10621 1.26664 -12.89360 0.08304 0.44056 -13.60064 0.11374 1.14906 -14.43664 -0.07551 2.04133 -13.78546 0.38835 1.33283 -12.94946 0.57760 0.50675 -13.65650 0.60830 1.21525 -14.49250 0.41905 -9.99946 -10.79976 -0.03390 -9.89412 -9.75126 -0.09663 -10.80543 -9.65131 0.04371 -10.91077 -10.69981 0.10643 -9.88399 -10.76786 0.69322 -9.77865 -9.71936 0.63049 -10.68996 -9.61941 0.77083 -10.79530 -10.66791 0.83355 4.89113 -11.53434 -0.04678 3.85546 -10.68718 0.12784 3.30242 -11.34714 0.04953 4.33809 -12.19430 -0.12510 4.90030 -11.56765 0.16919 3.86462 -10.72049 0.34381 3.31158 -11.38046 0.26549 4.34726 -12.22761 0.09087 -1.92092 -13.59517 -0.07934 -1.62228 -13.41202 -0.07368 -2.21392 -12.45221 0.08454 -2.51256 -12.63537 0.07889 -1.88968 -13.66230 0.44470 -1.59103 -13.47915 0.45036 -2.18267 -12.51934 0.60858 -2.48132 -12.70250 0.60293 -15.03083 -7.26157 0.15657 -15.48960 -5.73101 -0.10588 -15.82217 -5.83688 -0.14195 -15.36340 -7.36744 0.12050 -15.14577 -7.16361 0.92877 -15.60454 -5.63305 0.66632 -15.93711 -5.73892 0.63025 -15.47834 -7.26948 0.89270 -6.70532 3.04551 0.00543 -5.94809 3.46549 0.01203 -6.45819 4.38549 -0.00537 -7.21543 3.96551 -0.01197 -6.71067 3.04943 0.36934 -5.95343 3.46941 0.37593 -6.46353 4.38941 0.35854 -7.22077 3.96943 0.35194 -0.56720 6.98986 0.07386 -2.08270 6.99418 0.14882 -2.09642 5.79658 -0.05936 -0.58092 5.79226 -0.13433 -0.52359 6.83451 0.96463 -2.03908 6.83883 1.03959 -2.05280 5.64123 0.83140 -0.53730 5.63691 0.75644 13.15590 -12.73728 -0.06236 13.27526 -12.06561 -0.02690 12.03844 -11.85075 0.06638 11.91908 -12.52242 0.03092 13.21861 -12.79994 0.91336 13.33797 -12.12826 0.94882 12.10115 -11.91340 1.04211 11.98179 -12.58507 1.00665 11.19668 12.80482 0.13153 12.71443 13.02779 -0.11966 12.57185 13.99571 -0.12201 11.05410 13.77274 0.12918 11.31221 12.82357 0.84623 12.82996 13.04654 0.59505 12.68738 14.01446 0.59270 11.16962 13.79150 0.84389 0.02160 -12.56387 -0.05943 0.15310 -11.97130 -0.05029 -0.58984 -11.80825 0.06738 -0.72134 -12.40082 0.05825 0.11945 -12.59579 0.60254 0.25094 -12.00322 0.61167 -0.49200 -11.84018 0.72935 -0.62349 -12.43275 0.72021 0.01939 12.86002 0.05923 -0.78994 13.18189 0.05352 -1.22758 12.07951 -0.05698 -0.41825 11.75764 -0.05126 -0.00161 12.81642 0.57740 -0.81094 13.13829 0.57169 -1.24858 12.03591 0.46119 -0.43925 11.71404 0.46691 -13.97441 -1.39648 -0.11633 -14.30092 -0.91083 -0.02080 -15.10145 -1.48014 0.13739 -14.77494 -1.96580 0.04185 -13.79399 -1.43063 0.67384 -14.12050 -0.94497 0.76937 -14.92103 -1.51429 0.92756 -14.59452 -1.99994 0.83202 -4.80586 -7.22919 0.03301 -4.81008 -6.49199 0.02175 -5.42579 -6.49631 -0.03072 -5.42157 -7.23351 -0.01946 -4.85821 -7.22011 0.64665 -4.86243 -6.48291 0.63539 -5.47814 -6.48724 0.58292 -5.47392 -7.22444 0.59418 -1.25715 -14.16469 -0.10383 -1.95656 -13.05042 0.04572 -2.30919 -13.28124 0.11631 -1.60977 -14.39551 -0.03324 -1.13372 -14.16836 0.50072 -1.83314 -13.05409 0.65027 -2.18577 -13.28491 0.72087 -1.48635 -14.39918 0.57131 15.06224 7.52809 0.01290 14.61355 8.35016 -0.10846 13.43073 7.72038 -0.00128 13.87943 6.89831 0.12008 15.07153 7.68051 1.01103 14.62284 8.50258 0.88967 13.44002 7.87281 0.99685 13.88872 7.05074 1.11821 10.35707 -12.23036 -0.01003 9.99496 -12.18875 0.00398 9.94658 -12.61201 0.01063 10.30868 -12.65362 -0.00338 10.38496 -12.22258 0.68804 10.02286 -12.18097 0.70205 9.97448 -12.60422 0.70870 10.33658 -12.64583 0.69469 6.60280 -5.10086 -0.00372 5.06394 -4.57388 0.03685 4.95640 -4.88565 0.00726 6.49525 -5.41263 -0.03331 6.59831 -5.17683 0.81299 5.05945 -4.64986 0.85356 4.95191 -4.96163 0.82396 6.49076 -5.48861 0.78340 2.84498 7.22271 -0.06936 2.66220 8.21136 0.07698 1.50134 7.99613 0.08105 1.68412 7.00749 -0.06528 2.87817 7.06470 1.03961 2.69539 8.05335 1.18594 1.53453 7.83812 1.19002 1.71731 6.84948 1.04369 -12.00884 -3.52555 -0.03263 -13.60922 -3.40842 0.17908 -13.71627 -4.61769 0.03887 -12.11589 -4.73482 -0.17283 -11.95926 -3.57668 0.37047 -13.55964 -3.45955 0.58218 -13.66669 -4.66881 0.44197 -12.06631 -4.78594 0.23027 -2.62929 13.44322 0.05533 -1.51997 13.77844 -0.09645 -1.63761 14.19037 -0.04646 -2.74694 13.85514 0.10532 -2.53789 13.39986 0.62767 -1.42856 13.73509 0.47589 -1.54620 14.14702 0.52588 -2.65553 13.81179 0.67766 -2.98500 -2.18317 -0.05653 -3.05159 -1.57011 0.03394 -3.49705 -1.62351 0.06791 -3.43046 -2.23657 -0.02257 -2.90778 -2.29768 0.77617 -2.97437 -1.68462 0.86665 -3.41984 -1.73802 0.90062 -3.35324 -2.35108 0.81014 5.42137 8.10715 -0.12045 4.21186 8.60145 -0.01674 3.80841 7.58389 0.12804 5.01793 7.08958 0.02433 5.50008 8.16637 0.51516 4.29056 8.66068 0.61886 3.88712 7.64312 0.76364 5.09663 7.14881 0.65994 5.39024 5.30672 -0.06873 5.02447 5.50159 -0.10613 4.41789 4.39906 0.08136 4.78366 4.20418 0.11875 5.38278 5.45172 0.75986 5.01701 5.64660 0.72246 4.41043 4.54406 0.90995 4.77620 4.34919 0.94734 3.78514 -11.18746 -0.02997 4.41125 -10.61912 -0.02195 3.58275 -9.70714 0.03074 2.95664 -10.27547 0.02273 3.80273 -11.21824 0.77937 4.42884 -10.64991 0.78738 3.60034 -9.73792 0.84008 2.97423 -10.30626 0.83206 -18.33055 -3.79870 -0.06550 -18.59467 -2.91869 -0.04686 -19.22776 -3.11122 0.07197 -18.96364 -3.99123 0.05333 -18.25959 -3.78585 0.33335 -18.52371 -2.90584 0.35199 -19.15681 -3.09837 0.47082 -18.89268 -3.97838 0.45218 5.22411 13.19213 -0.03850 5.08243 13.61491 -0.07035 4.15802 13.31357 0.04184 4.29970 12.89080 0.07369 5.25566 13.22994 0.32300 5.11398 13.65271 0.29115 4.18957 13.35138 0.40334 4.33125 12.92860 0.43519 -9.16041 -10.26111 0.09629 -8.51964 -9.04432 0.06277 -9.53697 -8.51279 -0.08952 -10.17774 -9.72958 -0.05600 -9.23967 -10.19879 0.84329 -8.59890 -8.98200 0.80977 -9.61623 -8.45047 0.65748 -10.25700 -9.66726 0.69100 6.29704 -5.05805 0.04776 5.87928 -4.79266 -0.03941 5.68138 -5.10491 -0.04162 6.09915 -5.37030 0.04555 6.23652 -5.02251 0.44595 5.81876 -4.75713 0.35877 5.62087 -5.06937 0.35657 6.03863 -5.33476 0.44374 3.29550 8.17316 -0.00256 4.01179 9.15479 -0.01707 3.48942 9.53627 0.00305 2.77312 8.55463 0.01755 3.32362 8.16556 0.87189 4.03992 9.14719 0.85739 3.51754 9.52866 0.87751 2.80125 8.54703 0.89201 -14.79591 3.39188 0.08409 -15.83030 4.10288 -0.13056 -16.11749 3.70397 -0.06795 -15.08311 2.99296 0.14670 -14.84275 3.53589 0.78681 -15.87713 4.24690 0.57216 -16.16432 3.84798 0.63478 -15.12994 3.13698 0.84943 3.41273 -5.62348 0.10416 4.29520 -4.71807 -0.10671 4.01525 -4.44095 -0.08839 3.13278 -5.34636 0.12248 3.57174 -5.53264 1.15963 4.45421 -4.62723 0.94875 4.17426 -4.35010 0.96707 3.29179 -5.25551 1.17795 15.53909 11.52325 -0.02638 15.87552 11.95673 0.04648 15.46765 12.27578 0.03161 15.13122 11.84231 -0.04125 15.47968 11.47381 0.54206 15.81612 11.90729 0.61492 15.40824 12.22635 0.60004 15.07181 11.79287 0.52718 -2.53834 -12.64942 0.16166 -1.08877 -12.57926 -0.10181 -1.13135 -11.89172 -0.15300 -2.58092 -11.96187 0.11047 -2.45842 -12.61097 0.61160 -1.00885 -12.54081 0.34813 -1.05143 -11.85327 0.29693 -2.50100 -11.92342 0.56040 2.93079 2.29086 0.03353 2.35546 2.91168 0.01298 2.13490 2.70581 -0.03118 2.71023 2.08500 -0.01063 2.90422 2.27334 0.24793 2.32889 2.89415 0.22739 2.10833 2.68829 0.18323 2.68366 2.06748 0.20377 -14.19077 4.29137 0.03186 -14.30859 5.25115 -0.05457 -15.31106 5.13051 -0.02766 -15.19324 4.17073 0.05877 -14.17552 4.38026 0.99810 -14.29334 5.34004 0.91167 -15.29582 5.21940 0.93858 -15.17800 4.25962 1.02502 5.85984 -6.06290 -0.01060 6.24249 -6.00400 -0.04795 6.06081 -4.78497 0.01301 5.67816 -4.84387 0.05037 5.90212 -6.07714 0.40006 6.28477 -6.01824 0.36270 6.10309 -4.79921 0.42366 5.72044 -4.85810 0.46102 7.14667 12.82249 0.03748 8.04833 13.41374 -0.04779 7.55455 14.16874 -0.03405 6.65289 13.57749 0.05122 7.22563 12.85485 1.09689 8.12729 13.44611 1.01163 7.63351 14.20110 1.02537 6.73185 13.60985 1.11063 -17.56051 9.99368 0.00948 -18.16001 10.13841 -0.09850 -18.40495 9.19878 0.00195 -17.80544 9.05405 0.10993 -17.64029 10.07323 0.55905 -18.23980 10.21796 0.45107 -18.48473 9.27832 0.55151 -17.88523 9.13359 0.65949 -4.03558 -8.34058 -0.07382 -4.43668 -6.79213 0.09882 -4.89061 -6.90757 0.07964 -4.48951 -8.45602 -0.09300 -4.04699 -8.44109 0.80119 -4.44809 -6.89264 0.97383 -4.90202 -7.00808 0.95465 -4.50092 -8.55653 0.78201 8.24008 11.29093 0.42356 11.11190 11.65014 0.04552 11.05935 12.07098 0.04624 8.18754 11.71177 0.42428 8.29006 11.29650 0.80850 11.16187 11.65571 0.43046 11.10933 12.07656 0.43118 8.23751 11.71735 0.80923 -11.59199 8.58331 0.20057 -7.22901 8.89303 0.10568 -7.25771 9.28741 0.07296 -11.62070 8.97769 0.16785 -11.58484 8.62142 0.65369 -7.22186 8.93114 0.55880 -7.25056 9.32552 0.52608 -11.61355 9.01579 0.62098 -8.11455 2.56689 -0.23818 -6.92352 6.77371 0.35878 -7.41712 6.90901 0.39012 -8.60815 2.70219 -0.20683 -8.10353 2.49532 0.24423 -6.91250 6.70213 0.84118 -7.40611 6.83744 0.87253 -8.59714 2.63062 0.27557 -11.94585 7.69041 0.27568 -7.61085 8.45280 0.02662 -7.69181 8.91312 0.02645 -12.02682 8.15073 0.27550 -11.91776 7.69554 0.78033 -7.58275 8.45793 0.53127 -7.66372 8.91825 0.53110 -11.99873 8.15586 0.78015 -2.83903 -2.06545 0.01669 -4.90252 -1.95680 0.01536 -4.92710 -2.42302 0.06575 -2.86361 -2.53167 0.06708 -2.83614 -2.00359 0.59053 -4.89963 -1.89494 0.58920 -4.92421 -2.36116 0.63959 -2.86072 -2.46981 0.64092 5.43858 -12.28575 -0.03597 6.59036 -10.39376 0.29789 6.21402 -10.16059 0.27485 5.06224 -12.05258 -0.05901 5.34403 -12.36292 0.72753 6.49581 -10.47093 1.06139 6.11947 -10.23776 1.03835 4.96769 -12.12975 0.70449 -5.49097 -6.84196 -0.16177 -4.73029 -4.44607 0.27811 -5.19018 -4.29393 0.24472 -5.95087 -6.68982 -0.19515 -5.53675 -6.89708 0.21763 -4.77606 -4.50119 0.65750 -5.23595 -4.34905 0.62412 -5.99664 -6.74494 0.18425 -5.05234 -3.49473 0.34806 -7.22400 -1.18636 -0.13491 -7.49128 -1.43750 -0.13340 -5.31963 -3.74587 0.34957 -5.10779 -3.43243 0.89514 -7.27945 -1.12406 0.41217 -7.54673 -1.37521 0.41367 -5.37507 -3.68357 0.89665 -15.34689 2.33851 0.03956 -16.28741 4.30921 0.15446 -16.78307 4.07329 0.14364 -15.84256 2.10258 0.02874 -15.34493 2.31572 0.44645 -16.28544 4.28643 0.56136 -16.78111 4.05050 0.55054 -15.84059 2.07979 0.43564 16.37449 -4.65699 -0.09453 17.26440 -2.27526 0.32943 16.94009 -2.16315 0.38036 16.05019 -4.54488 -0.04359 16.43976 -4.81869 0.67692 17.32966 -2.43696 1.10088 17.00536 -2.32486 1.15181 16.11545 -4.70659 0.72786 5.93012 -13.78310 0.38155 5.13481 -10.28499 -0.06745 4.70524 -10.38487 -0.08475 5.50056 -13.88298 0.36425 5.90309 -13.73714 0.78747 5.10778 -10.23903 0.33846 4.67821 -10.33892 0.32117 5.47352 -13.83703 0.77017 3.43244 -10.07914 0.37987 1.97061 -7.29979 -0.01658 1.63089 -7.48480 -0.06102 3.09272 -10.26416 0.33542 3.31267 -10.03673 1.11880 1.85084 -7.25738 0.72236 1.51112 -7.44240 0.67792 2.97295 -10.22175 1.07436 -1.01521 -7.58063 0.18738 -2.02033 -5.52616 -0.08729 -2.47648 -5.74493 -0.05441 -1.47136 -7.79940 0.22025 -1.01109 -7.49298 0.82792 -2.01621 -5.43851 0.55325 -2.47235 -5.65728 0.58613 -1.46723 -7.71175 0.86079 -0.53201 -11.79652 0.27444 2.69566 -9.46070 0.17970 2.47037 -9.14762 0.22339 -0.75730 -11.48344 0.31813 -0.49983 -11.82577 0.64997 2.72784 -9.48994 0.55522 2.50255 -9.17686 0.59891 -0.72512 -11.51269 0.69365 4.40737 4.37336 0.38713 2.37188 7.45579 -0.05422 2.08225 7.26660 -0.03974 4.11774 4.18417 0.40161 4.38399 4.46808 1.15650 2.34850 7.55051 0.71515 2.05886 7.36132 0.72963 4.09435 4.27889 1.17098 -8.46688 3.59052 -0.27525 -6.53068 7.78191 0.42218 -6.83333 7.92616 0.39553 -8.76953 3.73477 -0.30190 -8.54304 3.53332 0.27997 -6.60684 7.72471 0.97740 -6.90949 7.86895 0.95075 -8.84569 3.67756 0.25332 1.29669 7.64797 -0.11124 5.16003 7.70416 0.44606 5.14836 8.03602 0.49347 1.28503 7.97983 -0.06383 1.23358 7.58230 0.33287 5.09692 7.63850 0.89017 5.08525 7.97036 0.93758 1.22192 7.91417 0.38027 11.20714 -10.80374 0.26838 13.92246 -8.84783 0.12397 13.67933 -8.51262 0.09266 10.96401 -10.46853 0.23706 11.19992 -10.73627 1.04662 13.91525 -8.78036 0.90222 13.67212 -8.44514 0.87090 10.95680 -10.40105 1.01531 9.94837 -13.25667 0.06825 9.17622 -9.98327 0.20484 8.78893 -10.07514 0.21699 9.56108 -13.34854 0.08041 9.97802 -13.28132 0.82652 9.20587 -10.00792 0.96310 8.81858 -10.09978 0.97526 9.59073 -13.37318 0.83867 -10.26510 1.38286 0.23305 -8.51180 2.45336 0.19827 -8.77277 2.87936 0.15435 -10.52607 1.80886 0.18913 -10.28998 1.44935 1.02571 -8.53667 2.51985 0.99093 -8.79764 2.94585 0.94701 -10.55095 1.87535 0.98179 0.69661 3.76713 0.28351 3.72963 6.00252 -0.27429 3.53242 6.27408 -0.25829 0.49941 4.03869 0.29951 0.80859 3.80389 1.03966 3.84160 6.03928 0.48186 3.64440 6.31084 0.49786 0.61138 4.07545 1.05566 -9.81658 7.28840 0.29537 -10.51347 11.27730 0.08617 -10.86249 11.21478 0.05663 -10.16559 7.22587 0.26582 -9.87956 7.31361 0.98596 -10.57645 11.30252 0.77676 -10.92547 11.23999 0.74721 -10.22857 7.25109 0.95641 -8.12954 7.57638 0.17020 -10.86846 8.48035 0.11977 -10.97913 8.14514 0.12185 -8.24021 7.24118 0.17228 -8.14127 7.58517 0.96451 -10.88019 8.48914 0.91408 -10.99086 8.15393 0.91616 -8.25194 7.24997 0.96659 5.00945 6.05247 0.11857 0.92744 8.54034 0.16184 0.65470 8.09162 0.23125 4.73670 5.60375 0.18797 5.06675 6.13347 0.86745 0.98475 8.62134 0.91073 0.71200 8.17261 0.98013 4.79401 5.68475 0.93685 1.26443 11.04251 4.97968 5.91506 11.60328 6.02718 5.80574 12.39332 6.08957 1.15512 11.83255 5.04207 1.19426 11.00668 5.31043 5.84488 11.56745 6.35793 5.73557 12.35749 6.42032 1.08494 11.79672 5.37282 8.39930 4.13996 5.71225 11.66155 2.76070 5.06774 11.93981 3.45327 4.99407 8.67756 4.83252 5.63858 8.46019 4.14673 6.00593 11.72244 2.76748 5.36142 12.00070 3.46004 5.28775 8.73845 4.83930 5.93226 -5.97067 -5.33689 0.30000 -3.17067 -4.73689 0.30000 -3.22933 -4.46311 0.30000 -6.02933 -5.06311 0.30000 -5.97067 -5.33689 2.90000 -3.17067 -4.73689 2.90000 -3.22933 -4.46311 2.90000 -6.02933 -5.06311 2.90000 6.89899 3.80101 0.35000 8.79899 5.70101 0.35000 8.60101 5.89899 0.35000 6.70101 3.99899 0.35000 6.89899 3.80101 2.85000 8.79899 5.70101 2.85000 8.60101 5.89899 2.85000 6.70101 3.99899 2.85000 2.78094 4.64114 0.10000 5.28094 4.34114 0.10000 5.31906 4.65886 0.10000 2.81906 4.95886 0.10000 2.78094 4.64114 3.10000 5.28094 4.34114 3.10000 5.31906 4.65886 3.10000 2.81906 4.95886 3.10000 5.45956 4.48818 0.20000 5.65956 7.18818 0.20000 5.34044 7.21182 0.20000 5.14044 4.51182 0.20000 5.45956 4.48818 3.00000 5.65956 7.18818 3.00000 5.34044 7.21182 3.00000 5.14044 4.51182 3.00000 -18.02461 -5.13782 0.25000 -15.22461 -5.63782 0.25000 -15.17539 -5.36218 0.25000 -17.97539 -4.86218 0.25000 -18.02461 -5.13782 2.95000 -15.22461 -5.63782 2.95000 -15.17539 -5.36218 2.95000 -17.97539 -4.86218 2.95000 -12.82302 -10.13810 0.25000 -9.22302 -10.73810 0.25000 -9.17698 -10.46190 0.25000 -12.77698 -9.86190 0.25000 -12.82302 -10.13810 2.95000 -9.22302 -10.73810 2.95000 -9.17698 -10.46190 2.95000 -12.77698 -9.86190 2.95000 -16.83586 8.40456 5.02879 -17.82154 9.22700 5.07725 -17.97416 9.04215 5.11015 -16.98848 8.21971 5.06169 -16.82159 8.41448 5.15069 -17.80727 9.23692 5.19914 -17.95989 9.05207 5.23205 -16.97421 8.22963 5.18359 4.90218 -12.62511 2.61179 7.79331 -10.83292 2.56091 7.65863 -10.61594 2.55123 4.76750 -12.40813 2.60211 4.90037 -12.61513 2.86056 7.79150 -10.82295 2.80968 7.65683 -10.60596 2.80000 4.76569 -12.39815 2.85088 17.45369 1.28610 2.48738 17.73353 3.32908 2.55107 17.51667 3.35790 2.57943 17.23683 1.31492 2.51574 17.47790 1.27671 2.68211 17.75774 3.31970 2.74580 17.54088 3.34852 2.77415 17.26104 1.30553 2.71047 12.89877 -10.48016 4.86250 12.07539 -8.79220 4.27483 11.90728 -8.88114 4.25491 12.73066 -10.56910 4.84258 12.84504 -10.42863 5.08580 12.02167 -8.74067 4.49813 11.85356 -8.82961 4.47820 12.67693 -10.51757 5.06587 3.32916 3.58996 4.49463 1.60818 6.42033 3.40884 1.47916 6.33338 3.38668 3.20014 3.50301 4.47247 3.28541 3.61836 4.63798 1.56443 6.44872 3.55220 1.43541 6.36177 3.53004 3.15639 3.53140 4.61583 -11.64711 -8.54986 1.43259 -11.28719 -7.42262 1.25177 -11.35830 -7.40507 1.21959 -11.71822 -8.53232 1.40041 -11.67476 -8.52945 1.50483 -11.31484 -7.40220 1.32401 -11.38596 -7.38466 1.29183 -11.74588 -8.51190 1.47265 15.62150 -4.14070 0.79813 17.35935 -2.13838 1.24712 17.29834 -2.08731 1.25549 15.56049 -4.08963 0.80650 15.61921 -4.15630 0.87656 17.35706 -2.15398 1.32555 17.29605 -2.10291 1.33392 15.55820 -4.10523 0.88493 9.70943 -9.98599 0.46639 9.11254 -7.92053 1.22567 9.04323 -7.95034 1.25228 9.64012 -10.01580 0.49299 9.74345 -10.00210 0.53697 9.14657 -7.93665 1.29626 9.07726 -7.96646 1.32286 9.67414 -10.03191 0.56358 5.26206 12.43772 2.09320 7.17176 12.82362 1.11953 7.16864 12.89985 1.14361 5.25893 12.51395 2.11728 5.30040 12.41801 2.16059 7.21011 12.80391 1.18692 7.20698 12.88014 1.21100 5.29727 12.49424 2.18467 -12.34138 6.31908 1.03779 -11.59765 7.00963 0.65965 -11.65539 7.06207 0.64185 -12.39911 6.37152 1.01999 -12.33442 6.35147 1.11062 -11.59070 7.04202 0.73247 -11.64843 7.09445 0.71467 -12.39215 6.40390 1.09282 0.15098 12.09517 1.61240 1.01648 12.55914 1.07721 0.98308 12.63133 1.08578 0.11758 12.16735 1.62097 0.18908 12.10452 1.68212 1.05458 12.56849 1.14693 1.02118 12.64068 1.15550 0.15568 12.17670 1.69069 13.92857 1.34892 0.81297 13.39823 2.98456 1.31142 13.33127 2.95346 1.34222 13.86161 1.31782 0.84377 13.96537 1.33940 0.88336 13.43503 2.97504 1.38182 13.36806 2.94394 1.41262 13.89840 1.30830 0.91416 -1.82648 -2.86039 0.73441 -1.48532 -1.89817 0.80329 -1.55686 -1.87475 0.83037 -1.89802 -2.83697 0.76149 -1.80259 -2.87424 0.80949 -1.46143 -1.91202 0.87837 -1.53297 -1.88859 0.90545 -1.87413 -2.85081 0.83657 -14.65781 12.92564 1.35604 -16.83055 14.01043 1.81233 -16.86818 13.94154 1.79692 -14.69544 12.85674 1.34064 -14.65185 12.90514 1.43314 -16.82459 13.98994 1.88943 -16.86222 13.92104 1.87402 -14.68948 12.83625 1.41774 5.84598 5.61903 0.54061 5.23306 7.07549 1.18224 5.16796 7.03676 1.20797 5.78088 5.58030 0.56634 5.88252 5.60379 0.61013 5.26960 7.06025 1.25176 5.20450 7.02152 1.27749 5.81743 5.56506 0.63586</float_array>
          <technique_common>
            <accessor source="#positions-array" count="1984" stride="3">
              <param name="X" type="float"/><param name="Y" type="float"/><param name="Z" type="float"/>
            </accessor>
          </technique_common>
        </source>
        <vertices id="vertices"><input semantic="POSITION" source="#positions"/></vertices>
        <triangles count="2976">
          <input semantic="VERTEX" source="#vertices" offset="0"/>
          <p>0 1 2 0 2 3 4 7 6 4 6 5 0 4 5 0 5 1 1 5 6 1 6 2 2 6 7 2 7 3 3 7 4 3 4 0 8 9 10 8 10 11 12 15 14 12 14 13 8 12 13 8 13 9 9 13 14 9 14 10 10 14 15 10 15 11 11 15 12 11 12 8 16 17 18 16 18 19 20 23 22 20 22 21 16 20 21 16 21 17 17 21 22 17 22 18 18 22 23 18 23 19 19 23 20 19 20 16 24 25 26 24 26 27 28 31 30 28 30 29 24 28 29 24 29 25 25 29 30 25 30 26 26 30 31 26 31 27 27 31 28 27 28 24 32 33 34 32 34 35 36 39 38 36 38 37 32 36 37 32 37 33 33 37 38 33 38 34 34 38 39 34 39 35 35 39 36 35 36 32 40 41 42 40 42 43 44 47 46 44 46 45 40 44 45 40 45 41 41 45 46 41 46 42 42 46 47 42 47 43 43 47 44 43 44 40 48 49 50 48 50 51 52 55 54 52 54 53 48 52 53 48 53 49 49 53 54 49 54 50 50 54 55 50 55 51 51 55 52 51 52 48 56 57 58 56 58 59 60 63 62 60 62 61 56 60 61 56 61 57 57 61 62 57 62 58 58 62 63 58 63 59 59 63 60 59 60 56 64 65 66 64 66 67 68 71 70 68 70 69 64 68 69 64 69 65 65 69 70 65 70 66 66 70 71 66 71 67 67 71 68 67 68 64 72 73 74 72 74 75 76 79 78 76 78 77 72 76 77 72 77 73 73 77 78 73 78 74 74 78 79 74 79 75 75 79 76 75 76 72 80 81 82 80 82 83 84 87 86 84 86 85 80 84 85 80 85 81 81 85 86 81 86 82 82 86 87 82 87 83 83 87 84 83 84 80 88 89 90 88 90 91 92 95 94 92 94 93 88 92 93 88 93 89 89 93 94 89 94 90 90 94 95 90 95 91 91 95 92 91 92 88 96 97 98 96 98 99 100 103 102 100 102 101 96 100 101 96 101 97 97 101 102 97 102 98 98 102 103 98 103 99 99 103 100 99 100 96 104 105 106 104 106 107 108 111 110 108 110 109 104 108 109 104 109 105 105 109 110 105 110 106 106 110 111 106 111 107 107 111 108 107 108 104 112 113 114 112 114 115 116 119 118 116 118 117 112 116 117 112 117 113 113 117 118 113 118 114 114 118 119 114 119 115 115 119 116 115 116 112 120 121 122 120 122 123 124 127 126 124 126 125 120 124 125 120 125 121 121 125 126 121 126 122 122 126 127 122 127 123 123 127 124 123 124 120 128 129 130 128 130 131 132 135 134 132 134 133 128 132 133 128 133 129 129 133 134 129 134 130 130 134 135 130 135 131 131 135 132 131 132 128 136 137 138 136 138 139 140 143 142 140 142 141 136 140 141 136 141 137 137 141 142 137 142 138 138 142 143 138 143 139 139 143 140 139 140 136 144 145 146 144 146 147 148 151 150 148 150 149 144 148 149 144 149 145 145 149 150 145 150 146 146 150 151 146 151 147 147 151 148 147 148 144 152 153 154 152 154 155 156 159 158 156 158 157 152 156 157 152 157 153 153 157 158 153 158 154 154 158 159 154 159 155 155 159 156 155 156 152 160 161 162 160 162 163 164 167 166 164 166 165 160 164 165 160 165 161 161 165 166 161 166 162 162 166 167 162 167 163 163 167 164 163 164 160 168 169 170 168 170 171 172 175 174 172 174 173 168 172 173 168 173 169 169 173 174 169 174 170 170 174 175 170 175 171 171 175 172 171 172 168 176 177 178 176 178 179 180 183 182 180 182 181 176 180 181 176 181 177 177 181 182 177 182 178 178 182 183 178 183 179 179 183 180 179 180 176 184 185 186 184 186 187 188 191 190 188 190 189 184 188 189 184 189 185 185 189 190 185 190 186 186 190 191 186 191 187 187 191 188 187 188 184 192 193 194 192 194 195 196 199 198 196 198 197 192 196 197 192 197 193 193 197 198 193 198 194 194 198 199 194 199 195 195 199 196 195 196 192 200 201 202 200 202 203 204 207 206 204 206 205 200 204 205 200 205 201 201 205 206 201 206 202 202 206 207 202 207 203 203 207 204 203 204 200 208 209 210 208 210 211 212 215 214 212 214 213 208 212 213 208 213 209 209 213 214 209 214 210 210 214 215 210 215 211 211 215 212 211 212 208 216 217 218 216 218 219 220 223 222 220 222 221 216 220 221 216 221 217 217 221 222 217 222 218 218 222 223 218 223 219 219 223 220 219 220 216 224 225 226 224 226 227 228 231 230 228 230 229 224 228 229 224 229 225 225 229 230 225 230 226 226 230 231 226 231 227 227 231 228 227 228 224 232 233 234 232 234 235 236 239 238 236 238 237 232 236 237 232 237 233 233 237 238 233 238 234 234 238 239 234 239 235 235 239 236 235 236 232 240 241 242 240 242 243 244 247 246 244 246 245 240 244 245 240 245 241 241 245 246 241 246 242 242 246 247 242 247 243 243 247 244 243 244 240 248 249 250 248 250 251 252 255 254 252 254 253 248 252 253 248 253 249 249 253 254 249 254 250 250 254 255 250 255 251 251 255 252 251 252 248 256 257 258 256 258 259 260 263 262 260 262 261 256 260 261 256 261 257 257 261 262 257 262 258 258 262 263 258 263 259 259 263 260 259 260 256 264 265 266 264 266 267 268 271 270 268 270 269 264 268 269 264 269 265 265 269 270 265 270 266 266 270 271 266 271 267 267 271 268 267 268 264 272 273 274 272 274 275 276 279 278 276 278 277 272 276 277 272 277 273 273 277 278 273 278 274 274 278 279 274 279 275 275 279 276 275 276 272 280 281 282 280 282 283 284 287 286 284 286 285 280 284 285 280 285 281 281 285 286 281 286 282 282 286 287 282 287 283 283 287 284 283 284 280 288 289 290 288 290 291 292 295 294 292 294 293 288 292 293 288 293 289 289 293 294 289 294 290 290 294 295 290 295 291 291 295 292 291 292 288 296 297 298 296 298 299 300 303 302 300 302 301 296 300 301 296 301 297 297 301 302 297 302 298 298 302 303 298 303 299 299 303 300 299 300 296 304 305 306 304 306 307 308 311 310 308 310 309 304 308 309 304 309 305 305 309 310 305 310 306 306 310 311 306 311 307 307 311 308 307 308 304 312 313 314 312 314 315 316 319 318 316 318 317 312 316 317 312 317 313 313 317 318 313 318 314 314 318 319 314 319 315 315 319 316 315 316 312 320 321 322 320 322 323 324 327 326 324 326 325 320 324 325 320 325 321 321 325 326 321 326 322 322 326 327 322 327 323 323 327 324 323 324 320 328 329 330 328 330 331 332 335 334 332 334 333 328 332 333 328 333 329 329 333 334 329 334 330 330 334 335 330 335 331 331 335 332 331 332 328 336 337 338 336 338 339 340 343 342 340 342 341 336 340 341 336 341 337 337 341 342 337 342 338 338 342 343 338 343 339 339 343 340 339 340 336 344 345 346 344 346 347 348 351 350 348 350 349 344 348 349 344 349 345 345 349 350 345 350 346 346 350 351 346 351 347 347 351 348 347 348 344 352 353 354 352 354 355 356 359 358 356 358 357 352 356 357 352 357 353 353 357 358 353 358 354 354 358 359 354 359 355 355 359 356 355 356 352 360 361 362 360 362 363 364 367 366 364 366 365 360 364 365 360 365 361 361 365 366 361 366 362 362 366 367 362 367 363 363 367 364 363 364 360 368 369 370 368 370 371 372 375 374 372 374 373 368 372 373 368 373 369 369 373 374 369 374 370 370 374 375 370 375 371 371 375 372 371 372 368 376 377 378 376 378 379 380 383 382 380 382 381 376 380 381 376 381 377 377 381 382 377 382 378 378 382 383 378 383 379 379 383 380 379 380 376 384 385 386 384 386 387 388 391 390 388 390 389 384 388 389 384 389 385 385 389 390 385 390 386 386 390 391 386 391 387 387 391 388 387 388 384 392 393 394 392 394 395 396 399 398 396 398 397 392 396 397 392 397 393 393 397 398 393 398 394 394 398 399 394 399 395 395 399 396 395 396 392 400 401 402 400 402 403 404 407 406 404 406 405 400 404 405 400 405 401 401 405 406 401 406 402 402 406 407 402 407 403 403 407 404 403 404 400 408 409 410 408 410 411 412 415 414 412 414 413 408 412 413 408 413 409 409 413 414 409 414 410 410 414 415 410 415 411 411 415 412 411 412 408 416 417 418 416 418 419 420 423 422 420 422 421 416 420 421 416 421 417 417 421 422 417 422 418 418 422 423 418 423 419 419 423 420 419 420 416 424 425 426 424 426 427 428 431 430 428 430 429 424 428 429 424 429 425 425 429 430 425 430 426 426 430 431 426 431 427 427 431 428 427 428 424 432 433 434 432 434 435 436 439 438 436 438 437 432 436 437 432 437 433 433 437 438 433 438 434 434 438 439 434 439 435 435 439 436 435 436 432 440 441 442 440 442 443 444 447 446 444 446 445 440 444 445 440 445 441 441 445 446 441 446 442 442 446 447 442 447 443 443 447 444 443 444 440 448 449 450 448 450 451 452 455 454 452 454 453 448 452 453 448 453 449 449 453 454 449 454 450 450 454 455 450 455 451 451 455 452 451 452 448 456 457 458 456 458 459 460 463 462 460 462 461 456 460 461 456 461 457 457 461 462 457 462 458 458 462 463 458 463 459 459 463 460 459 460 456 464 465 466 464 466 467 468 471 470 468 470 469 464 468 469 464 469 465 465 469 470 465 470 466 466 470 471 466 471 467 467 471 468 467 468 464 472 473 474 472 474 475 476 479 478 476 478 477 472 476 477 472 477 473 473 477 478 473 478 474 474 478 479 474 479 475 475 479 476 475 476 472 480 481 482 480 482 483 484 487 486 484 486 485 480 484 485 480 485 481 481 485 486 481 486 482 482 486 487 482 487 483 483 487 484 483 484 480 488 489 490 488 490 491 492 495 494 492 494 493 488 492 493 488 493 489 489 493 494 489 494 490 490 494 495 490 495 491 491 495 492 491 492 488 496 497 498 496 498 499 500 503 502 500 502 501 496 500 501 496 501 497 497 501 502 497 502 498 498 502 503 498 503 499 499 503 500 499 500 496 504 505 506 504 506 507 508 511 510 508 510 509 504 508 509 504 509 505 505 509 510 505 510 506 506 510 511 506 511 507 507 511 508 507 508 504 512 513 514 512 514 515 516 519 518 516 518 517 512 516 517 512 517 513 513 517 518 513 518 514 514 518 519 514 519 515 515 519 516 515 516 512 520 521 522 520 522 523 524 527 526 524 526 525 520 524 525 520 525 521 521 525 526 521 526 522 522 526 527 522 527 523 523 527 524 523 524 520 528 529 530 528 530 531 532 535 534 532 534 533 528 532 533 528 533 529 529 533 534 529 534 530 530 534 535 530 535 531 531 535 532 531 532 528 536 537 538 536 538 539 540 543 542 540 542 541 536 540 541 536 541 537 537 541 542 537 542 538 538 542 543 538 543 539 539 543 540 539 540 536 544 545 546 544 546 547 548 551 550 548 550 549 544 548 549 544 549 545 545 549 550 545 550 546 546 550 551 546 551 547 547 551 548 547 548 544 552 553 554 552 554 555 556 559 558 556 558 557 552 556 557 552 557 553 553 557 558 553 558 554 554 558 559 554 559 555 555 559 556 555 556 552 560 561 562 560 562 563 564 567 566 564 566 565 560 564 565 560 565 561 561 565 566 561 566 562 562 566 567 562 567 563 563 567 564 563 564 560 568 569 570 568 570 571 572 575 574 572 574 573 568 572 573 568 573 569 569 573 574 569 574 570 570 574 575 570 575 571 571 575 572 571 572 568 576 577 578 576 578 579 580 583 582 580 582 581 576 580 581 576 581 577 577 581 582 577 582 578 578 582 583 578 583 579 579 583 580 579 580 576 584 585 586 584 586 587 588 591 590 588 590 589 584 588 589 584 589 585 585 589 590 585 590 586 586 590 591 586 591 587 587 591 588 587 588 584 592 593 594 592 594 595 596 599 598 596 598 597 592 596 597 592 597 593 593 597 598 593 598 594 594 598 599 594 599 595 595 599 596 595 596 592 600 601 602 600 602 603 604 607 606 604 606 605 600 604 605 600 605 601 601 605 606 601 606 602 602 606 607 602 607 603 603 607 604 603 604 600 608 609 610 608 610 611 612 615 614 612 614 613 608 612 613 608 613 609 609 613 614 609 614 610 610 614 615 610 615 611 611 615 612 611 612 608 616 617 618 616 618 619 620 623 622 620 622 621 616 620 621 616 621 617 617 621 622 617 622 618 618 622 623 618 623 619 619 623 620 619 620 616 624 625 626 624 626 627 628 631 630 628 630 629 624 628 629 624 629 625 625 629 630 625 630 626 626 630 631 626 631 627 627 631 628 627 628 624 632 633 634 632 634 635 636 639 638 636 638 637 632 636 637 632 637 633 633 637 638 633 638 634 634 638 639 634 639 635 635 639 636 635 636 632 640 641 642 640 642 643 644 647 646 644 646 645 640 644 645 640 645 641 641 645 646 641 646 642 642 646 647 642 647 643 643 647 644 643 644 640 648 649 650 648 650 651 652 655 654 652 654 653 648 652 653 648 653 649 649 653 654 649 654 650 650 654 655 650 655 651 651 655 652 651 652 648 656 657 658 656 658 659 660 663 662 660 662 661 656 660 661 656 661 657 657 661 662 657 662 658 658 662 663 658 663 659 659 663 660 659 660 656 664 665 666 664 666 667 668 671 670 668 670 669 664 668 669 664 669 665 665 669 670 665 670 666 666 670 671 666 671 667 667 671 668 667 668 664 672 673 674 672 674 675 676 679 678 676 678 677 672 676 677 672 677 673 673 677 678 673 678 674 674 678 679 674 679 675 675 679 676 675 676 672 680 681 682 680 682 683 684 687 686 684 686 685 680 684 685 680 685 681 681 685 686 681 686 682 682 686 687 682 687 683 683 687 684 683 684 680 688 689 690 688 690 691 692 695 694 692 694 693 688 692 693 688 693 689 689 693 694 689 694 690 690 694 695 690 695 691 691 695 692 691 692 688 696 697 698 696 698 699 700 703 702 700 702 701 696 700 701 696 701 697 697 701 702 697 702 698 698 702 703 698 703 699 699 703 700 699 700 696 704 705 706 704 706 707 708 711 710 708 710 709 704 708 709 704 709 705 705 709 710 705 710 706 706 710 711 706 711 707 707 711 708 707 708 704 712 713 714 712 714 715 716 719 718 716 718 717 712 716 717 712 717 713 713 717 718 713 718 714 714 718 719 714 719 715 715 719 716 715 716 712 720 721 722 720 722 723 724 727 726 724 726 725 720 724 725 720 725 721 721 725 726 721 726 722 722 726 727 722 727 723 723 727 724 723 724 720 728 729 730 728 730 731 732 735 734 732 734 733 728 732 733 728 733 729 729 733 734 729 734 730 730 734 735 730 735 731 731 735 732 731 732 728 736 737 738 736 738 739 740 743 742 740 742 741 736 740 741 736 741 737 737 741 742 737 742 738 738 742 743 738 743 739 739 743 740 739 740 736 744 745 746 744 746 747 748 751 750 748 750 749 744 748 749 744 749 745 745 749 750 745 750 746 746 750 751 746 751 747 747 751 748 747 748 744 752 753 754 752 754 755 756 759 758 756 758 757 752 756 757 752 757 753 753 757 758 753 758 754 754 758 759 754 759 755 755 759 756 755 756 752 760 761 762 760 762 763 764 767 766 764 766 765 760 764 765 760 765 761 761 765 766 761 766 762 762 766 767 762 767 763 763 767 764 763 764 760 768 769 770 768 770 771 772 775 774 772 774 773 768 772 773 768 773 769 769 773 774 769 774 770 770 774 775 770 775 771 771 775 772 771 772 768 776 777 778 776 778 779 780 783 782 780 782 781 776 780 781 776 781 777 777 781 782 777 782 778 778 782 783 778 783 779 779 783 780 779 780 776 784 785 786 784 786 787 788 791 790 788 790 789 784 788 789 784 789 785 785 789 790 785 790 786 786 790 791 786 791 787 787 791 788 787 788 784 792 793 794 792 794 795 796 799 798 796 798 797 792 796 797 792 797 793 793 797 798 793 798 794 794 798 799 794 799 795 795 799 796 795 796 792 800 801 802 800 802 803 804 807 806 804 806 805 800 804 805 800 805 801 801 805 806 801 806 802 802 806 807 802 807 803 803 807 804 803 804 800 808 809 810 808 810 811 812 815 814 812 814 813 808 812 813 808 813 809 809 813 814 809 814 810 810 814 815 810 815 811 811 815 812 811 812 808 816 817 818 816 818 819 820 823 822 820 822 821 816 820 821 816 821 817 817 821 822 817 822 818 818 822 823 818 823 819 819 823 820 819 820 816 824 825 826 824 826 827 828 831 830 828 830 829 824 828 829 824 829 825 825 829 830 825 830 826 826 830 831 826 831 827 827 831 828 827 828 824 832 833 834 832 834 835 836 839 838 836 838 837 832 836 837 832 837 833 833 837 838 833 838 834 834 838 839 834 839 835 835 839 836 835 836 832 840 841 842 840 842 843 844 847 846 844 846 845 840 844 845 840 845 841 841 845 846 841 846 842 842 846 847 842 847 843 843 847 844 843 844 840 848 849 850 848 850 851 852 855 854 852 854 853 848 852 853 848 853 849 849 853 854 849 854 850 850 854 855 850 855 851 851 855 852 851 852 848 856 857 858 856 858 859 860 863 862 860 862 861 856 860 861 856 861 857 857 861 862 857 862 858 858 862 863 858 863 859 859 863 860 859 860 856 864 865 866 864 866 867 868 871 870 868 870 869 864 868 869 864 869 865 865 869 870 865 870 866 866 870 871 866 871 867 867 871 868 867 868 864 872 873 874 872 874 875 876 879 878 876 878 877 872 876 877 872 877 873 873 877 878 873 878 874 874 878 879 874 879 875 875 879 876 875 876 872 880 881 882 880 882 883 884 887 886 884 886 885 880 884 885 880 885 881 881 885 886 881 886 882 882 886 887 882 887 883 883 887 884 883 884 880 888 889 890 888 890 891 892 895 894 892 894 893 888 892 893 888 893 889 889 893 894 889 894 890 890 894 895 890 895 891 891 895 892 891 892 888 896 897 898 896 898 899 900 903 902 900 902 901 896 900 901 896 901 897 897 901 902 897 902 898 898 902 903 898 903 899 899 903 900 899 900 896 904 905 906 904 906 907 908 911 910 908 910 909 904 908 909 904 909 905 905 909 910 905 910 906 906 910 911 906 911 907 907 911 908 907 908 904 912 913 914 912 914 915 916 919 918 916 918 917 912 916 917 912 917 913 913 917 918 913 918 914 914 918 919 914 919 915 915 919 916 915 916 912 920 921 922 920 922 923 924 927 926 924 926 925 920 924 925 920 925 921 921 925 926 921 926 922 922 926 927 922 927 923 923 927 924 923 924 920 928 929 930 928 930 931 932 935 934 932 934 933 928 932 933 928 933 929 929 933 934 929 934 930 930 934 935 930 935 931 931 935 932 931 932 928 936 937 938 936 938 939 940 943 942 940 942 941 936 940 941 936 941 937 937 941 942 937 942 938 938 942 943 938 943 939 939 943 940 939 940 936 944 945 946 944 946 947 948 951 950 948 950 949 944 948 949 944 949 945 945 949 950 945 950 946 946 950 951 946 951 947 947 951 948 947 948 944 952 953 954 952 954 955 956 959 958 956 958 957 952 956 957 952 957 953 953 957 958 953 958 954 954 958 959 954 959 955 955 959 956 955 956 952 960 961 962 960 962 963 964 967 966 964 966 965 960 964 965 960 965 961 961 965 966 961 966 962 962 966 967 962 967 963 963 967 964 963 964 960 968 969 970 968 970 971 972 975 974 972 974 973 968 972 973 968 973 969 969 973 974 969 974 970 970 974 975 970 975 971 971 975 972 971 972 968 976 977 978 976 978 979 980 983 982 980 982 981 976 980 981 976 981 977 977 981 982 977 982 978 978 982 983 978 983 979 979 983 980 979 980 976 984 985 986 984 986 987 988 991 990 988 990 989 984 988 989 984 989 985 985 989 990 985 990 986 986 990 991 986 991 987 987 991 988 987 988 984 992 993 994 992 994 995 996 999 998 996 998 997 992 996 997 992 997 993 993 997 998 993 998 994 994 998 999 994 999 995 995 999 996 995 996 992 1000 1001 1002 1000 1002 1003 1004 1007 1006 1004 1006 1005 1000 1004 1005 1000 1005 1001 1001 1005 1006 1001 1006 1002 1002 1006 1007 1002 1007 1003 1003 1007 1004 1003 1004 1000 1008 1009 1010 1008 1010 1011 1012 1015 1014 1012 1014 1013 1008 1012 1013 1008 1013 1009 1009 1013 1014 1009 1014 1010 1010 1014 1015 1010 1015 1011 1011 1015 1012 1011 1012 1008 1016 1017 1018 1016 1018 1019 1020 1023 1022 1020 1022 1021 1016 1020 1021 1016 1021 1017 1017 1021 1022 1017 1022 1018 1018 1022 1023 1018 1023 1019 1019 1023 1020 1019 1020 1016 1024 1025 1026 1024 1026 1027 1028 1031 1030 1028 1030 1029 1024 1028 1029 1024 1029 1025 1025 1029 1030 1025 1030 1026 1026 1030 1031 1026 1031 1027 1027 1031 1028 1027 1028 1024 1032 1033 1034 1032 1034 1035 1036 1039 1038 1036 1038 1037 1032 1036 1037 1032 1037 1033 1033 1037 1038 1033 1038 1034 1034 1038 1039 1034 1039 1035 1035 1039 1036 1035 1036 1032 1040 1041 1042 1040 1042 1043 1044 1047 1046 1044 1046 1045 1040 1044 1045 1040 1045 1041 1041 1045 1046 1041 1046 1042 1042 1046 1047 1042 1047 1043 1043 1047 1044 1043 1044 1040 1048 1049 1050 1048 1050 1051 1052 1055 1054 1052 1054 1053 1048 1052 1053 1048 1053 1049 1049 1053 1054 1049 1054 1050 1050 1054 1055 1050 1055 1051 1051 1055 1052 1051 1052 1048 1056 1057 1058 1056 1058 1059 1060 1063 1062 1060 1062 1061 1056 1060 1061 1056 1061 1057 1057 1061 1062 1057 1062 1058 1058 1062 1063 1058 1063 1059 1059 1063 1060 1059 1060 1056 1064 1065 1066 1064 1066 1067 1068 1071 1070 1068 1070 1069 1064 1068 1069 1064 1069 1065 1065 1069 1070 1065 1070 1066 1066 1070 1071 1066 1071 1067 1067 1071 1068 1067 1068 1064 1072 1073 1074 1072 1074 1075 1076 1079 1078 1076 1078 1077 1072 1076 1077 1072 1077 1073 1073 1077 1078 1073 1078 1074 1074 1078 1079 1074 1079 1075 1075 1079 1076 1075 1076 1072 1080 1081 1082 1080 1082 1083 1084 1087 1086 1084 1086 1085 1080 1084 1085 1080 1085 1081 1081 1085 1086 1081 1086 1082 1082 1086 1087 1082 1087 1083 1083 1087 1084 1083 1084 1080 1088 1089 1090 1088 1090 1091 1092 1095 1094 1092 1094 1093 1088 1092 1093 1088 1093 1089 1089 1093 1094 1089 1094 1090 1090 1094 1095 1090 1095 1091 1091 1095 1092 1091 1092 1088 1096 1097 1098 1096 1098 1099 1100 1103 1102 1100 1102 1101 1096 1100 1101 1096 1101 1097 1097 1101 1102 1097 1102 1098 1098 1102 1103 1098 1103 1099 1099 1103 1100 1099 1100 1096 1104 1105 1106 1104 1106 1107 1108 1111 1110 1108 1110 1109 1104 1108 1109 1104 1109 1105 1105 1109 1110 1105 1110 1106 1106 1110 1111 1106 1111 1107 1107 1111 1108 1107 1108 1104 1112 1113 1114 1112 1114 1115 1116 1119 1118 1116 1118 1117 1112 1116 1117 1112 1117 1113 1113 1117 1118 1113 1118 1114 1114 1118 1119 1114 1119 1115 1115 1119 1116 1115 1116 1112 1120 1121 1122 1120 1122 1123 1124 1127 1126 1124 1126 1125 1120 1124 1125 1120 1125 1121 1121 1125 1126 1121 1126 1122 1122 1126 1127 1122 1127 1123 1123 1127 1124 1123 1124 1120 1128 1129 1130 1128 1130 1131 1132 1135 1134 1132 1134 1133 1128 1132 1133 1128 1133 1129 1129 1133 1134 1129 1134 1130 1130 1134 1135 1130 1135 1131 1131 1135 1132 1131 1132 1128 1136 1137 1138 1136 1138 1139 1140 1143 1142 1140 1142 1141 1136 1140 1141 1136 1141 1137 1137 1141 1142 1137 1142 1138 1138 1142 1143 1138 1143 1139 1139 1143 1140 1139 1140 1136 1144 1145 1146 1144 1146 1147 1148 1151 1150 1148 1150 1149 1144 1148 1149 1144 1149 1145 1145 1149 1150 1145 1150 1146 1146 1150 1151 1146 1151 1147 1147 1151 1148 1147 1148 1144 1152 1153 1154 1152 1154 1155 1156 1159 1158 1156 1158 1157 1152 1156 1157 1152 1157 1153 1153 1157 1158 1153 1158 1154 1154 1158 1159 1154 1159 1155 1155 1159 1156 1155 1156 1152 1160 1161 1162 1160 1162 1163 1164 1167 1166 1164 1166 1165 1160 1164 1165 1160 1165 1161 1161 1165 1166 1161 1166 1162 1162 1166 1167 1162 1167 1163 1163 1167 1164 1163 1164 1160 1168 1169 1170 1168 1170 1171 1172 1175 1174 1172 1174 1173 1168 1172 1173 1168 1173 1169 1169 1173 1174 1169 1174 1170 1170 1174 1175 1170 1175 1171 1171 1175 1172 1171 1172 1168 1176 1177 1178 1176 1178 1179 1180 1183 1182 1180 1182 1181 1176 1180 1181 1176 1181 1177 1177 1181 1182 1177 1182 1178 1178 1182 1183 1178 1183 1179 1179 1183 1180 1179 1180 1176 1184 1185 1186 1184 1186 1187 1188 1191 1190 1188 1190 1189 1184 1188 1189 1184 1189 1185 1185 1189 1190 1185 1190 1186 1186 1190 1191 1186 1191 1187 1187 1191 1188 1187 1188 1184 1192 1193 1194 1192 1194 1195 1196 1199 1198 1196 1198 1197 1192 1196 1197 1192 1197 1193 1193 1197 1198 1193 1198 1194 1194 1198 1199 1194 1199 1195 1195 1199 1196 1195 1196 1192 1200 1201 1202 1200 1202 1203 1204 1207 1206 1204 1206 1205 1200 1204 1205 1200 1205 1201 1201 1205 1206 1201 1206 1202 1202 1206 1207 1202 1207 1203 1203 1207 1204 1203 1204 1200 1208 1209 1210 1208 1210 1211 1212 1215 1214 1212 1214 1213 1208 1212 1213 1208 1213 1209 1209 1213 1214 1209 1214 1210 1210 1214 1215 1210 1215 1211 1211 1215 1212 1211 1212 1208 1216 1217 1218 1216 1218 1219 1220 1223 1222 1220 1222 1221 1216 1220 1221 1216 1221 1217 1217 1221 1222 1217 1222 1218 1218 1222 1223 1218 1223 1219 1219 1223 1220 1219 1220 1216 1224 1225 1226 1224 1226 1227 1228 1231 1230 1228 1230 1229 1224 1228 1229 1224 1229 1225 1225 1229 1230 1225 1230 1226 1226 1230 1231 1226 1231 1227 1227 1231 1228 1227 1228 1224 1232 1233 1234 1232 1234 1235 1236 1239 1238 1236 1238 1237 1232 1236 1237 1232 1237 1233 1233 1237 1238 1233 1238 1234 1234 1238 1239 1234 1239 1235 1235 1239 1236 1235 1236 1232 1240 1241 1242 1240 1242 1243 1244 1247 1246 1244 1246 1245 1240 1244 1245 1240 1245 1241 1241 1245 1246 1241 1246 1242 1242 1246 1247 1242 1247 1243 1243 1247 1244 1243 1244 1240 1248 1249 1250 1248 1250 1251 1252 1255 1254 1252 1254 1253 1248 1252 1253 1248 1253 1249 1249 1253 1254 1249 1254 1250 1250 1254 1255 1250 1255 1251 1251 1255 1252 1251 1252 1248 1256 1257 1258 1256 1258 1259 1260 1263 1262 1260 1262 1261 1256 1260 1261 1256 1261 1257 1257 1261 1262 1257 1262 1258 1258 1262 1263 1258 1263 1259 1259 1263 1260 1259 1260 1256 1264 1265 1266 1264 1266 1267 1268 1271 1270 1268 1270 1269 1264 1268 1269 1264 1269 1265 1265 1269 1270 1265 1270 1266 1266 1270 1271 1266 1271 1267 1267 1271 1268 1267 1268 1264 1272 1273 1274 1272 1274 1275 1276 1279 1278 1276 1278 1277 1272 1276 1277 1272 1277 1273 1273 1277 1278 1273 1278 1274 1274 1278 1279 1274 1279 1275 1275 1279 1276 1275 1276 1272 1280 1281 1282 1280 1282 1283 1284 1287 1286 1284 1286 1285 1280 1284 1285 1280 1285 1281 1281 1285 1286 1281 1286 1282 1282 1286 1287 1282 1287 1283 1283 1287 1284 1283 1284 1280 1288 1289 1290 1288 1290 1291 1292 1295 1294 1292 1294 1293 1288 1292 1293 1288 1293 1289 1289 1293 1294 1289 1294 1290 1290 1294 1295 1290 1295 1291 1291 1295 1292 1291 1292 1288 1296 1297 1298 1296 1298 1299 1300 1303 1302 1300 1302 1301 1296 1300 1301 1296 1301 1297 1297 1301 1302 1297 1302 1298 1298 1302 1303 1298 1303 1299 1299 1303 1300 1299 1300 1296 1304 1305 1306 1304 1306 1307 1308 1311 1310 1308 1310 1309 1304 1308 1309 1304 1309 1305 1305 1309 1310 1305 1310 1306 1306 1310 1311 1306 1311 1307 1307 1311 1308 1307 1308 1304 1312 1313 1314 1312 1314 1315 1316 1319 1318 1316 1318 1317 1312 1316 1317 1312 1317 1313 1313 1317 1318 1313 1318 1314 1314 1318 1319 1314 1319 1315 1315 1319 1316 1315 1316 1312 1320 1321 1322 1320 1322 1323 1324 1327 1326 1324 1326 1325 1320 1324 1325 1320 1325 1321 1321 1325 1326 1321 1326 1322 1322 1326 1327 1322 1327 1323 1323 1327 1324 1323 1324 1320 1328 1329 1330 1328 1330 1331 1332 1335 1334 1332 1334 1333 1328 1332 1333 1328 1333 1329 1329 1333 1334 1329 1334 1330 1330 1334 1335 1330 1335 1331 1331 1335 1332 1331 1332 1328 1336 1337 1338 1336 1338 1339 1340 1343 1342 1340 1342 1341 1336 1340 1341 1336 1341 1337 1337 1341 1342 1337 1342 1338 1338 1342 1343 1338 1343 1339 1339 1343 1340 1339 1340 1336 1344 1345 1346 1344 1346 1347 1348 1351 1350 1348 1350 1349 1344 1348 1349 1344 1349 1345 1345 1349 1350 1345 1350 1346 1346 1350 1351 1346 1351 1347 1347 1351 1348 1347 1348 1344 1352 1353 1354 1352 1354 1355 1356 1359 1358 1356 1358 1357 1352 1356 1357 1352 1357 1353 1353 1357 1358 1353 1358 1354 1354 1358 1359 1354 1359 1355 1355 1359 1356 1355 1356 1352 1360 1361 1362 1360 1362 1363 1364 1367 1366 1364 1366 1365 1360 1364 1365 1360 1365 1361 1361 1365 1366 1361 1366 1362 1362 1366 1367 1362 1367 1363 1363 1367 1364 1363 1364 1360 1368 1369 1370 1368 1370 1371 1372 1375 1374 1372 1374 1373 1368 1372 1373 1368 1373 1369 1369 1373 1374 1369 1374 1370 1370 1374 1375 1370 1375 1371 1371 1375 1372 1371 1372 1368 1376 1377 1378 1376 1378 1379 1380 1383 1382 1380 1382 1381 1376 1380 1381 1376 1381 1377 1377 1381 1382 1377 1382 1378 1378 1382 1383 1378 1383 1379 1379 1383 1380 1379 1380 1376 1384 1385 1386 1384 1386 1387 1388 1391 1390 1388 1390 1389 1384 1388 1389 1384 1389 1385 1385 1389 1390 1385 1390 1386 1386 1390 1391 1386 1391 1387 1387 1391 1388 1387 1388 1384 1392 1393 1394 1392 1394 1395 1396 1399 1398 1396 1398 1397 1392 1396 1397 1392 1397 1393 1393 1397 1398 1393 1398 1394 1394 1398 1399 1394 1399 1395 1395 1399 1396 1395 1396 1392 1400 1401 1402 1400 1402 1403 1404 1407 1406 1404 1406 1405 1400 1404 1405 1400 1405 1401 1401 1405 1406 1401 1406 1402 1402 1406 1407 1402 1407 1403 1403 1407 1404 1403 1404 1400 1408 1409 1410 1408 1410 1411 1412 1415 1414 1412 1414 1413 1408 1412 1413 1408 1413 1409 1409 1413 1414 1409 1414 1410 1410 1414 1415 1410 1415 1411 1411 1415 1412 1411 1412 1408 1416 1417 1418 1416 1418 1419 1420 1423 1422 1420 1422 1421 1416 1420 1421 1416 1421 1417 1417 1421 1422 1417 1422 1418 1418 1422 1423 1418 1423 1419 1419 1423 1420 1419 1420 1416 1424 1425 1426 1424 1426 1427 1428 1431 1430 1428 1430 1429 1424 1428 1429 1424 1429 1425 1425 1429 1430 1425 1430 1426 1426 1430 1431 1426 1431 1427 1427 1431 1428 1427 1428 1424 1432 1433 1434 1432 1434 1435 1436 1439 1438 1436 1438 1437 1432 1436 1437 1432 1437 1433 1433 1437 1438 1433 1438 1434 1434 1438 1439 1434 1439 1435 1435 1439 1436 1435 1436 1432 1440 1441 1442 1440 1442 1443 1444 1447 1446 1444 1446 1445 1440 1444 1445 1440 1445 1441 1441 1445 1446 1441 1446 1442 1442 1446 1447 1442 1447 1443 1443 1447 1444 1443 1444 1440 1448 1449 1450 1448 1450 1451 1452 1455 1454 1452 1454 1453 1448 1452 1453 1448 1453 1449 1449 1453 1454 1449 1454 1450 1450 1454 1455 1450 1455 1451 1451 1455 1452 1451 1452 1448 1456 1457 1458 1456 1458 1459 1460 1463 1462 1460 1462 1461 1456 1460 1461 1456 1461 1457 1457 1461 1462 1457 1462 1458 1458 1462 1463 1458 1463 1459 1459 1463 1460 1459 1460 1456 1464 1465 1466 1464 1466 1467 1468 1471 1470 1468 1470 1469 1464 1468 1469 1464 1469 1465 1465 1469 1470 1465 1470 1466 1466 1470 1471 1466 1471 1467 1467 1471 1468 1467 1468 1464 1472 1473 1474 1472 1474 1475 1476 1479 1478 1476 1478 1477 1472 1476 1477 1472 1477 1473 1473 1477 1478 1473 1478 1474 1474 1478 1479 1474 1479 1475 1475 1479 1476 1475 1476 1472 1480 1481 1482 1480 1482 1483 1484 1487 1486 1484 1486 1485 1480 1484 1485 1480 1485 1481 1481 1485 1486 1481 1486 1482 1482 1486 1487 1482 1487 1483 1483 1487 1484 1483 1484 1480 1488 1489 1490 1488 1490 1491 1492 1495 1494 1492 1494 1493 1488 1492 1493 1488 1493 1489 1489 1493 1494 1489 1494 1490 1490 1494 1495 1490 1495 1491 1491 1495 1492 1491 1492 1488 1496 1497 1498 1496 1498 1499 1500 1503 1502 1500 1502 1501 1496 1500 1501 1496 1501 1497 1497 1501 1502 1497 1502 1498 1498 1502 1503 1498 1503 1499 1499 1503 1500 1499 1500 1496 1504 1505 1506 1504 1506 1507 1508 1511 1510 1508 1510 1509 1504 1508 1509 1504 1509 1505 1505 1509 1510 1505 1510 1506 1506 1510 1511 1506 1511 1507 1507 1511 1508 1507 1508 1504 1512 1513 1514 1512 1514 1515 1516 1519 1518 1516 1518 1517 1512 1516 1517 1512 1517 1513 1513 1517 1518 1513 1518 1514 1514 1518 1519 1514 1519 1515 1515 1519 1516 1515 1516 1512 1520 1521 1522 1520 1522 1523 1524 1527 1526 1524 1526 1525 1520 1524 1525 1520 1525 1521 1521 1525 1526 1521 1526 1522 1522 1526 1527 1522 1527 1523 1523 1527 1524 1523 1524 1520 1528 1529 1530 1528 1530 1531 1532 1535 1534 1532 1534 1533 1528 1532 1533 1528 1533 1529 1529 1533 1534 1529 1534 1530 1530 1534 1535 1530 1535 1531 1531 1535 1532 1531 1532 1528 1536 1537 1538 1536 1538 1539 1540 1543 1542 1540 1542 1541 1536 1540 1541 1536 1541 1537 1537 1541 1542 1537 1542 1538 1538 1542 1543 1538 1543 1539 1539 1543 1540 1539 1540 1536 1544 1545 1546 1544 1546 1547 1548 1551 1550 1548 1550 1549 1544 1548 1549 1544 1549 1545 1545 1549 1550 1545 1550 1546 1546 1550 1551 1546 1551 1547 1547 1551 1548 1547 1548 1544 1552 1553 1554 1552 1554 1555 1556 1559 1558 1556 1558 1557 1552 1556 1557 1552 1557 1553 1553 1557 1558 1553 1558 1554 1554 1558 1559 1554 1559 1555 1555 1559 1556 1555 1556 1552 1560 1561 1562 1560 1562 1563 1564 1567 1566 1564 1566 1565 1560 1564 1565 1560 1565 1561 1561 1565 1566 1561 1566 1562 1562 1566 1567 1562 1567 1563 1563 1567 1564 1563 1564 1560 1568 1569 1570 1568 1570 1571 1572 1575 1574 1572 1574 1573 1568 1572 1573 1568 1573 1569 1569 1573 1574 1569 1574 1570 1570 1574 1575 1570 1575 1571 1571 1575 1572 1571 1572 1568 1576 1577 1578 1576 1578 1579 1580 1583 1582 1580 1582 1581 1576 1580 1581 1576 1581 1577 1577 1581 1582 1577 1582 1578 1578 1582 1583 1578 1583 1579 1579 1583 1580 1579 1580 1576 1584 1585 1586 1584 1586 1587 1588 1591 1590 1588 1590 1589 1584 1588 1589 1584 1589 1585 1585 1589 1590 1585 1590 1586 1586 1590 1591 1586 1591 1587 1587 1591 1588 1587 1588 1584 1592 1593 1594 1592 1594 1595 1596 1599 1598 1596 1598 1597 1592 1596 1597 1592 1597 1593 1593 1597 1598 1593 1598 1594 1594 1598 1599 1594 1599 1595 1595 1599 1596 1595 1596 1592 1600 1601 1602 1600 1602 1603 1604 1607 1606 1604 1606 1605 1600 1604 1605 1600 1605 1601 1601 1605 1606 1601 1606 1602 1602 1606 1607 1602 1607 1603 1603 1607 1604 1603 1604 1600 1608 1609 1610 1608 1610 1611 1612 1615 1614 1612 1614 1613 1608 1612 1613 1608 1613 1609 1609 1613 1614 1609 1614 1610 1610 1614 1615 1610 1615 1611 1611 1615 1612 1611 1612 1608 1616 1617 1618 1616 1618 1619 1620 1623 1622 1620 1622 1621 1616 1620 1621 1616 1621 1617 1617 1621 1622 1617 1622 1618 1618 1622 1623 1618 1623 1619 1619 1623 1620 1619 1620 1616 1624 1625 1626 1624 1626 1627 1628 1631 1630 1628 1630 1629 1624 1628 1629 1624 1629 1625 1625 1629 1630 1625 1630 1626 1626 1630 1631 1626 1631 1627 1627 1631 1628 1627 1628 1624 1632 1633 1634 1632 1634 1635 1636 1639 1638 1636 1638 1637 1632 1636 1637 1632 1637 1633 1633 1637 1638 1633 1638 1634 1634 1638 1639 1634 1639 1635 1635 1639 1636 1635 1636 1632 1640 1641 1642 1640 1642 1643 1644 1647 1646 1644 1646 1645 1640 1644 1645 1640 1645 1641 1641 1645 1646 1641 1646 1642 1642 1646 1647 1642 1647 1643 1643 1647 1644 1643 1644 1640 1648 1649 1650 1648 1650 1651 1652 1655 1654 1652 1654 1653 1648 1652 1653 1648 1653 1649 1649 1653 1654 1649 1654 1650 1650 1654 1655 1650 1655 1651 1651 1655 1652 1651 1652 1648 1656 1657 1658 1656 1658 1659 1660 1663 1662 1660 1662 1661 1656 1660 1661 1656 1661 1657 1657 1661 1662 1657 1662 1658 1658 1662 1663 1658 1663 1659 1659 1663 1660 1659 1660 1656 1664 1665 1666 1664 1666 1667 1668 1671 1670 1668 1670 1669 1664 1668 1669 1664 1669 1665 1665 1669 1670 1665 1670 1666 1666 1670 1671 1666 1671 1667 1667 1671 1668 1667 1668 1664 1672 1673 1674 1672 1674 1675 1676 1679 1678 1676 1678 1677 1672 1676 1677 1672 1677 1673 1673 1677 1678 1673 1678 1674 1674 1678 1679 1674 1679 1675 1675 1679 1676 1675 1676 1672 1680 1681 1682 1680 1682 1683 1684 1687 1686 1684 1686 1685 1680 1684 1685 1680 1685 1681 1681 1685 1686 1681 1686 1682 1682 1686 1687 1682 1687 1683 1683 1687 1684 1683 1684 1680 1688 1689 1690 1688 1690 1691 1692 1695 1694 1692 1694 1693 1688 1692 1693 1688 1693 1689 1689 1693 1694 1689 1694 1690 1690 1694 1695 1690 1695 1691 1691 1695 1692 1691 1692 1688 1696 1697 1698 1696 1698 1699 1700 1703 1702 1700 1702 1701 1696 1700 1701 1696 1701 1697 1697 1701 1702 1697 1702 1698 1698 1702 1703 1698 1703 1699 1699 1703 1700 1699 1700 1696 1704 1705 1706 1704 1706 1707 1708 1711 1710 1708 1710 1709 1704 1708 1709 1704 1709 1705 1705 1709 1710 1705 1710 1706 1706 1710 1711 1706 1711 1707 1707 1711 1708 1707 1708 1704 1712 1713 1714 1712 1714 1715 1716 1719 1718 1716 1718 1717 1712 1716 1717 1712 1717 1713 1713 1717 1718 1713 1718 1714 1714 1718 1719 1714 1719 1715 1715 1719 1716 1715 1716 1712 1720 1721 1722 1720 1722 1723 1724 1727 1726 1724 1726 1725 1720 1724 1725 1720 1725 1721 1721 1725 1726 1721 1726 1722 1722 1726 1727 1722 1727 1723 1723 1727 1724 1723 1724 1720 1728 1729 1730 1728 1730 1731 1732 1735 1734 1732 1734 1733 1728 1732 1733 1728 1733 1729 1729 1733 1734 1729 1734 1730 1730 1734 1735 1730 1735 1731 1731 1735 1732 1731 1732 1728 1736 1737 1738 1736 1738 1739 1740 1743 1742 1740 1742 1741 1736 1740 1741 1736 1741 1737 1737 1741 1742 1737 1742 1738 1738 1742 1743 1738 1743 1739 1739 1743 1740 1739 1740 1736 1744 1745 1746 1744 1746 1747 1748 1751 1750 1748 1750 1749 1744 1748 1749 1744 1749 1745 1745 1749 1750 1745 1750 1746 1746 1750 1751 1746 1751 1747 1747 1751 1748 1747 1748 1744 1752 1753 1754 1752 1754 1755 1756 1759 1758 1756 1758 1757 1752 1756 1757 1752 1757 1753 1753 1757 1758 1753 1758 1754 1754 1758 1759 1754 1759 1755 1755 1759 1756 1755 1756 1752 1760 1761 1762 1760 1762 1763 1764 1767 1766 1764 1766 1765 1760 1764 1765 1760 1765 1761 1761 1765 1766 1761 1766 1762 1762 1766 1767 1762 1767 1763 1763 1767 1764 1763 1764 1760 1768 1769 1770 1768 1770 1771 1772 1775 1774 1772 1774 1773 1768 1772 1773 1768 1773 1769 1769 1773 1774 1769 1774 1770 1770 1774 1775 1770 1775 1771 1771 1775 1772 1771 1772 1768 1776 1777 1778 1776 1778 1779 1780 1783 1782 1780 1782 1781 1776 1780 1781 1776 1781 1777 1777 1781 1782 1777 1782 1778 1778 1782 1783 1778 1783 1779 1779 1783 1780 1779 1780 1776 1784 1785 1786 1784 1786 1787 1788 1791 1790 1788 1790 1789 1784 1788 1789 1784 1789 1785 1785 1789 1790 1785 1790 1786 1786 1790 1791 1786 1791 1787 1787 1791 1788 1787 1788 1784 1792 1793 1794 1792 1794 1795 1796 1799 1798 1796 1798 1797 1792 1796 1797 1792 1797 1793 1793 1797 1798 1793 1798 1794 1794 1798 1799 1794 1799 1795 1795 1799 1796 1795 1796 1792 1800 1801 1802 1800 1802 1803 1804 1807 1806 1804 1806 1805 1800 1804 1805 1800 1805 1801 1801 1805 1806 1801 1806 1802 1802 1806 1807 1802 1807 1803 1803 1807 1804 1803 1804 1800 1808 1809 1810 1808 1810 1811 1812 1815 1814 1812 1814 1813 1808 1812 1813 1808 1813 1809 1809 1813 1814 1809 1814 1810 1810 1814 1815 1810 1815 1811 1811 1815 1812 1811 1812 1808 1816 1817 1818 1816 1818 1819 1820 1823 1822 1820 1822 1821 1816 1820 1821 1816 1821 1817 1817 1821 1822 1817 1822 1818 1818 1822 1823 1818 1823 1819 1819 1823 1820 1819 1820 1816 1824 1825 1826 1824 1826 1827 1828 1831 1830 1828 1830 1829 1824 1828 1829 1824 1829 1825 1825 1829 1830 1825 1830 1826 1826 1830 1831 1826 1831 1827 1827 1831 1828 1827 1828 1824 1832 1833 1834 1832 1834 1835 1836 1839 1838 1836 1838 1837 1832 1836 1837 1832 1837 1833 1833 1837 1838 1833 1838 1834 1834 1838 1839 1834 1839 1835 1835 1839 1836 1835 1836 1832 1840 1841 1842 1840 1842 1843 1844 1847 1846 1844 1846 1845 1840 1844 1845 1840 1845 1841 1841 1845 1846 1841 1846 1842 1842 1846 1847 1842 1847 1843 1843 1847 1844 1843 1844 1840 1848 1849 1850 1848 1850 1851 1852 1855 1854 1852 1854 1853 1848 1852 1853 1848 1853 1849 1849 1853 1854 1849 1854 1850 1850 1854 1855 1850 1855 1851 1851 1855 1852 1851 1852 1848 1856 1857 1858 1856 1858 1859 1860 1863 1862 1860 1862 1861 1856 1860 1861 1856 1861 1857 1857 1861 1862 1857 1862 1858 1858 1862 1863 1858 1863 1859 1859 1863 1860 1859 1860 1856 1864 1865 1866 1864 1866 1867 1868 1871 1870 1868 1870 1869 1864 1868 1869 1864 1869 1865 1865 1869 1870 1865 1870 1866 1866 1870 1871 1866 1871 1867 1867 1871 1868 1867 1868 1864 1872 1873 1874 1872 1874 1875 1876 1879 1878 1876 1878 1877 1872 1876 1877 1872 1877 1873 1873 1877 1878 1873 1878 1874 1874 1878 1879 1874 1879 1875 1875 1879 1876 1875 1876 1872 1880 1881 1882 1880 1882 1883 1884 1887 1886 1884 1886 1885 1880 1884 1885 1880 1885 1881 1881 1885 1886 1881 1886 1882 1882 1886 1887 1882 1887 1883 1883 1887 1884 1883 1884 1880 1888 1889 1890 1888 1890 1891 1892 1895 1894 1892 1894 1893 1888 1892 1893 1888 1893 1889 1889 1893 1894 1889 1894 1890 1890 1894 1895 1890 1895 1891 1891 1895 1892 1891 1892 1888 1896 1897 1898 1896 1898 1899 1900 1903 1902 1900 1902 1901 1896 1900 1901 1896 1901 1897 1897 1901 1902 1897 1902 1898 1898 1902 1903 1898 1903 1899 1899 1903 1900 1899 1900 1896 1904 1905 1906 1904 1906 1907 1908 1911 1910 1908 1910 1909 1904 1908 1909 1904 1909 1905 1905 1909 1910 1905 1910 1906 1906 1910 1911 1906 1911 1907 1907 1911 1908 1907 1908 1904 1912 1913 1914 1912 1914 1915 1916 1919 1918 1916 1918 1917 1912 1916 1917 1912 1917 1913 1913 1917 1918 1913 1918 1914 1914 1918 1919 1914 1919 1915 1915 1919 1916 1915 1916 1912 1920 1921 1922 1920 1922 1923 1924 1927 1926 1924 1926 1925 1920 1924 1925 1920 1925 1921 1921 1925 1926 1921 1926 1922 1922 1926 1927 1922 1927 1923 1923 1927 1924 1923 1924 1920 1928 1929 1930 1928 1930 1931 1932 1935 1934 1932 1934 1933 1928 1932 1933 1928 1933 1929 1929 1933 1934 1929 1934 1930 1930 1934 1935 1930 1935 1931 1931 1935 1932 1931 1932 1928 1936 1937 1938 1936 1938 1939 1940 1943 1942 1940 1942 1941 1936 1940 1941 1936 1941 1937 1937 1941 1942 1937 1942 1938 1938 1942 1943 1938 1943 1939 1939 1943 1940 1939 1940 1936 1944 1945 1946 1944 1946 1947 1948 1951 1950 1948 1950 1949 1944 1948 1949 1944 1949 1945 1945 1949 1950 1945 1950 1946 1946 1950 1951 1946 1951 1947 1947 1951 1948 1947 1948 1944 1952 1953 1954 1952 1954 1955 1956 1959 1958 1956 1958 1957 1952 1956 1957 1952 1957 1953 1953 1957 1958 1953 1958 1954 1954 1958 1959 1954 1959 1955 1955 1959 1956 1955 1956 1952 1960 1961 1962 1960 1962 1963 1964 1967 1966 1964 1966 1965 1960 1964 1965 1960 1965 1961 1961 1965 1966 1961 1966 1962 1962 1966 1967 1962 1967 1963 1963 1967 1964 1963 1964 1960 1968 1969 1970 1968 1970 1971 1972 1975 1974 1972 1974 1973 1968 1972 1973 1968 1973 1969 1969 1973 1974 1969 1974 1970 1970 1974 1975 1970 1975 1971 1971 1975 1972 1971 1972 1968 1976 1977 1978 1976 1978 1979 1980 1983 1982 1980 1982 1981 1976 1980 1981 1976 1981 1977 1977 1981 1982 1977 1982 1978 1978 1982 1983 1978 1983 1979 1979 1983 1980 1979 1980 1976</p>
        </triangles>
      </mesh>
    </geometry>
  </library_geometries>
  <library_visual_scenes>
    <visual_scene id="Scene" name="Scene">
      <node id="Ruins-Urban-01" name="Ruins-Urban-01">
        <instance_geometry url="#ruins_urban_01_geometry"/>
      </node>
    </visual_scene>
  </library_visual_scenes>
  <scene><instance_visual_scene url="#Scene"/></scene>
</COLLADA>
