<svg xmlns="http://www.w3.org/2000/svg" width="1240" height="520" viewBox="0 0 1240 520">
<rect width="1240" height="520" fill="#1f2225"/>
<text x="55" y="34" fill="#f1f2f3" font-family="sans-serif" font-size="22">Ruins-Urban-01 challenge validation preview</text>
<text x="55" y="58" fill="#aeb4ba" font-family="sans-serif" font-size="13">Reference graph overlay is for generation QA only; it is not available to exploration algorithms.</text>
<rect x="55.0" y="78.0" width="504.0" height="384.0" fill="#303438" stroke="#70777d"/>
<rect x="665.0" y="78.0" width="504.0" height="384.0" fill="#303438" stroke="#70777d"/>
<text x="55.0" y="68.0" fill="#d8dcdf" font-family="sans-serif" font-size="15">Ground / low level</text>
<text x="665.0" y="68.0" fill="#d8dcdf" font-family="sans-serif" font-size="15">Upper / overhead structure</text>
<rect x="57.40" y="78.84" width="499.20" height="5.52" fill="#87857f" fill-opacity="0.88" stroke="#18191a" stroke-width="0.45" transform="rotate(-0.00 307.00 81.60)"/>
<rect x="667.40" y="78.84" width="499.20" height="5.52" fill="#87857f" fill-opacity="0.78" stroke="#18191a" stroke-width="0.45" transform="rotate(-0.00 917.00 81.60)"/>
<rect x="57.40" y="455.64" width="499.20" height="5.52" fill="#87857f" fill-opacity="0.88" stroke="#18191a" stroke-width="0.45" transform="rotate(-0.00 307.00 458.40)"/>
<rect x="667.40" y="455.64" width="499.20" height="5.52" fill="#87857f" fill-opacity="0.78" stroke="#18191a" stroke-width="0.45" transform="rotate(-0.00 917.00 458.40)"/>
<rect x="-23.00" y="159.24" width="160.80" height="5.52" fill="#87857f" fill-opacity="0.88" stroke="#18191a" stroke-width="0.45" transform="rotate(90.00 57.40 162.00)"/>
<rect x="587.00" y="159.24" width="160.80" height="5.52" fill="#87857f" fill-opacity="0.78" stroke="#18191a" stroke-width="0.45" transform="rotate(90.00 667.40 162.00)"/>
<rect x="-23.00" y="375.24" width="160.80" height="5.52" fill="#87857f" fill-opacity="0.88" stroke="#18191a" stroke-width="0.45" transform="rotate(90.00 57.40 378.00)"/>
<rect x="587.00" y="375.24" width="160.80" height="5.52" fill="#87857f" fill-opacity="0.78" stroke="#18191a" stroke-width="0.45" transform="rotate(90.00 667.40 378.00)"/>
<rect x="368.20" y="267.24" width="376.80" height="5.52" fill="#87857f" fill-opacity="0.88" stroke="#18191a" stroke-width="0.45" transform="rotate(-90.00 556.60 270.00)"/>
<rect x="978.20" y="267.24" width="376.80" height="5.52" fill="#87857f" fill-opacity="0.78" stroke="#18191a" stroke-width="0.45" transform="rotate(-90.00 1166.60 270.00)"/>
<rect x="82.60" y="112.20" width="66.00" height="3.60" fill="#aaa79f" fill-opacity="0.88" stroke="#18191a" stroke-width="0.45" transform="rotate(-0.00 115.60 114.00)"/>
<rect x="158.20" y="112.20" width="45.60" height="3.60" fill="#87857f" fill-opacity="0.88" stroke="#18191a" stroke-width="0.45" transform="rotate(-0.00 181.00 114.00)"/>
<rect x="235.00" y="114.60" width="57.60" height="3.60" fill="#87857f" fill-opacity="0.88" stroke="#18191a" stroke-width="0.45" transform="rotate(-0.00 263.80 116.40)"/>
<rect x="391.00" y="117.00" width="54.00" height="3.60" fill="#aaa79f" fill-opacity="0.88" stroke="#18191a" stroke-width="0.45" transform="rotate(-0.00 418.00 118.80)"/>
<rect x="475.00" y="117.00" width="57.60" height="3.60" fill="#87857f" fill-opacity="0.88" stroke="#18191a" stroke-width="0.45" transform="rotate(-0.00 503.80 118.80)"/>
<rect x="81.40" y="421.80" width="69.60" height="3.60" fill="#aaa79f" fill-opacity="0.88" stroke="#18191a" stroke-width="0.45" transform="rotate(-0.00 116.20 423.60)"/>
<rect x="183.40" y="421.80" width="51.60" height="3.60" fill="#87857f" fill-opacity="0.88" stroke="#18191a" stroke-width="0.45" transform="rotate(-0.00 209.20 423.60)"/>
<rect x="292.60" y="419.40" width="69.60" height="3.60" fill="#aaa79f" fill-opacity="0.88" stroke="#18191a" stroke-width="0.45" transform="rotate(-0.00 327.40 421.20)"/>
<rect x="397.00" y="421.80" width="51.60" height="3.60" fill="#87857f" fill-opacity="0.88" stroke="#18191a" stroke-width="0.45" transform="rotate(-0.00 422.80 423.60)"/>
<rect x="477.40" y="421.80" width="55.20" height="3.60" fill="#aaa79f" fill-opacity="0.88" stroke="#18191a" stroke-width="0.45" transform="rotate(-0.00 505.00 423.60)"/>
<rect x="484.60" y="181.80" width="48.00" height="3.60" fill="#87857f" fill-opacity="0.88" stroke="#18191a" stroke-width="0.45" transform="rotate(-90.00 508.60 183.60)"/>
<rect x="482.20" y="354.60" width="52.80" height="3.60" fill="#aaa79f" fill-opacity="0.88" stroke="#18191a" stroke-width="0.45" transform="rotate(-90.00 508.60 356.40)"/>
<rect x="241.12" y="192.12" width="6.96" height="6.96" fill="#87857f" fill-opacity="0.88" stroke="#18191a" stroke-width="0.45" transform="rotate(-0.00 244.60 195.60)"/>
<rect x="851.12" y="192.12" width="6.96" height="6.96" fill="#87857f" fill-opacity="0.78" stroke="#18191a" stroke-width="0.45" transform="rotate(-0.00 854.60 195.60)"/>
<rect x="311.92" y="192.12" width="6.96" height="6.96" fill="#87857f" fill-opacity="0.88" stroke="#18191a" stroke-width="0.45" transform="rotate(-0.00 315.40 195.60)"/>
<rect x="921.92" y="192.12" width="6.96" height="6.96" fill="#87857f" fill-opacity="0.78" stroke="#18191a" stroke-width="0.45" transform="rotate(-0.00 925.40 195.60)"/>
<rect x="311.92" y="340.92" width="6.96" height="6.96" fill="#87857f" fill-opacity="0.88" stroke="#18191a" stroke-width="0.45" transform="rotate(-0.00 315.40 344.40)"/>
<rect x="921.92" y="340.92" width="6.96" height="6.96" fill="#87857f" fill-opacity="0.78" stroke="#18191a" stroke-width="0.45" transform="rotate(-0.00 925.40 344.40)"/>
<rect x="701.00" y="132.00" width="72.00" height="48.00" fill="#414345" fill-opacity="0.78" stroke="#18191a" stroke-width="0.45" transform="rotate(-2.29 737.00 156.00)"/>
<rect x="824.00" y="114.00" width="66.00" height="36.00" fill="#414345" fill-opacity="0.78" stroke="#18191a" stroke-width="0.45" transform="rotate(-2.29 857.00 132.00)"/>
<rect x="705.80" y="360.00" width="74.40" height="48.00" fill="#414345" fill-opacity="0.78" stroke="#18191a" stroke-width="0.45" transform="rotate(2.29 743.00 384.00)"/>
<rect x="1055.00" y="349.20" width="72.00" height="57.60" fill="#414345" fill-opacity="0.78" stroke="#18191a" stroke-width="0.45" transform="rotate(2.29 1091.00 378.00)"/>
<rect x="112.75" y="346.81" width="5.45" height="7.25" fill="#70493b" fill-opacity="0.88" stroke="#18191a" stroke-width="0.45" transform="rotate(-49.85 115.47 350.44)"/>
<rect x="122.25" y="375.84" width="7.09" height="11.84" fill="#6f6253" fill-opacity="0.88" stroke="#18191a" stroke-width="0.45" transform="rotate(-93.73 125.80 381.76)"/>
<rect x="133.78" y="388.26" width="7.46" height="7.10" fill="#6f6253" fill-opacity="0.88" stroke="#18191a" stroke-width="0.45" transform="rotate(-57.49 137.51 391.81)"/>
<rect x="136.89" y="369.29" width="10.98" height="10.12" fill="#6f6253" fill-opacity="0.88" stroke="#18191a" stroke-width="0.45" transform="rotate(-6.60 142.38 374.35)"/>
<rect x="82.31" y="384.09" width="8.79" height="9.10" fill="#70493b" fill-opacity="0.88" stroke="#18191a" stroke-width="0.45" transform="rotate(-119.66 86.70 388.64)"/>
<rect x="115.20" y="349.24" width="10.58" height="11.74" fill="#6f6253" fill-opacity="0.88" stroke="#18191a" stroke-width="0.45" transform="rotate(-83.76 120.49 355.11)"/>
<rect x="123.82" y="331.35" width="11.84" height="5.59" fill="#6f6253" fill-opacity="0.88" stroke="#18191a" stroke-width="0.45" transform="rotate(-143.67 129.74 334.15)"/>
<rect x="92.64" y="335.41" width="8.61" height="10.77" fill="#6f6253" fill-opacity="0.88" stroke="#18191a" stroke-width="0.45" transform="rotate(-169.29 96.94 340.80)"/>
<rect x="114.90" y="365.23" width="8.92" height="7.87" fill="#70493b" fill-opacity="0.88" stroke="#18191a" stroke-width="0.45" transform="rotate(-100.62 119.35 369.17)"/>
<rect x="91.66" y="357.69" width="12.98" height="9.67" fill="#6f6253" fill-opacity="0.88" stroke="#18191a" stroke-width="0.45" transform="rotate(-79.13 98.15 362.52)"/>
<rect x="81.84" y="365.03" width="12.94" height="8.01" fill="#6f6253" fill-opacity="0.88" stroke="#18191a" stroke-width="0.45" transform="rotate(-146.38 88.31 369.03)"/>
<rect x="126.31" y="327.87" width="6.16" height="8.26" fill="#6f6253" fill-opacity="0.88" stroke="#18191a" stroke-width="0.45" transform="rotate(-17.37 129.39 332.00)"/>
<rect x="89.08" y="361.32" width="6.00" height="7.11" fill="#70493b" fill-opacity="0.88" stroke="#18191a" stroke-width="0.45" transform="rotate(-161.85 92.08 364.88)"/>
<rect x="131.50" y="365.43" width="11.21" height="6.84" fill="#6f6253" fill-opacity="0.88" stroke="#18191a" stroke-width="0.45" transform="rotate(-15.28 137.11 368.85)"/>
<rect x="109.03" y="371.35" width="34.07" height="3.84" fill="#aaa79f" fill-opacity="0.88" stroke="#18191a" stroke-width="0.45" transform="rotate(-92.20 126.07 373.27)"/>
<rect x="178.50" y="165.03" width="5.98" height="6.58" fill="#6f6253" fill-opacity="0.88" stroke="#18191a" stroke-width="0.45" transform="rotate(-47.20 181.49 168.32)"/>
<rect x="160.66" y="158.26" width="13.54" height="4.34" fill="#6f6253" fill-opacity="0.88" stroke="#18191a" stroke-width="0.45" transform="rotate(-1.09 167.43 160.43)"/>
<rect x="167.21" y="168.87" width="11.30" height="4.51" fill="#70493b" fill-opacity="0.88" stroke="#18191a" stroke-width="0.45" transform="rotate(-148.60 172.86 171.12)"/>
<rect x="143.83" y="172.73" width="11.04" height="9.76" fill="#6f6253" fill-opacity="0.88" stroke="#18191a" stroke-width="0.45" transform="rotate(-174.37 149.36 177.61)"/>
<rect x="153.90" y="115.77" width="5.09" height="6.12" fill="#6f6253" fill-opacity="0.88" stroke="#18191a" stroke-width="0.45" transform="rotate(-47.94 156.45 118.83)"/>
<rect x="154.27" y="141.72" width="9.90" height="5.12" fill="#6f6253" fill-opacity="0.88" stroke="#18191a" stroke-width="0.45" transform="rotate(-94.53 159.22 144.28)"/>
<rect x="161.50" y="128.19" width="6.42" height="9.51" fill="#70493b" fill-opacity="0.88" stroke="#18191a" stroke-width="0.45" transform="rotate(-6.33 164.72 132.94)"/>
<rect x="159.33" y="150.74" width="13.33" height="10.28" fill="#6f6253" fill-opacity="0.88" stroke="#18191a" stroke-width="0.45" transform="rotate(-11.15 166.00 155.88)"/>
<rect x="157.75" y="144.99" width="10.67" height="8.96" fill="#6f6253" fill-opacity="0.88" stroke="#18191a" stroke-width="0.45" transform="rotate(-9.18 163.08 149.47)"/>
<rect x="151.03" y="148.47" width="11.46" height="10.66" fill="#6f6253" fill-opacity="0.88" stroke="#18191a" stroke-width="0.45" transform="rotate(-15.65 156.76 153.80)"/>
<rect x="165.92" y="150.65" width="8.95" height="8.62" fill="#70493b" fill-opacity="0.88" stroke="#18191a" stroke-width="0.45" transform="rotate(-98.52 170.40 154.96)"/>
<rect x="126.00" y="167.17" width="6.86" height="10.61" fill="#6f6253" fill-opacity="0.88" stroke="#18191a" stroke-width="0.45" transform="rotate(-71.22 129.43 172.47)"/>
<rect x="172.04" y="131.31" width="9.54" height="9.89" fill="#6f6253" fill-opacity="0.88" stroke="#18191a" stroke-width="0.45" transform="rotate(-134.55 176.81 136.25)"/>
<rect x="127.97" y="165.03" width="11.63" height="10.75" fill="#6f6253" fill-opacity="0.88" stroke="#18191a" stroke-width="0.45" transform="rotate(-114.01 133.78 170.40)"/>
<rect x="475.15" y="151.65" width="7.16" height="8.06" fill="#70493b" fill-opacity="0.88" stroke="#18191a" stroke-width="0.45" transform="rotate(-109.85 478.74 155.68)"/>
<rect x="479.31" y="196.93" width="12.03" height="8.33" fill="#6f6253" fill-opacity="0.88" stroke="#18191a" stroke-width="0.45" transform="rotate(-95.81 485.32 201.10)"/>
<rect x="473.19" y="171.17" width="6.35" height="11.14" fill="#6f6253" fill-opacity="0.88" stroke="#18191a" stroke-width="0.45" transform="rotate(-80.79 476.37 176.74)"/>
<rect x="435.54" y="189.02" width="12.10" height="6.96" fill="#6f6253" fill-opacity="0.88" stroke="#18191a" stroke-width="0.45" transform="rotate(-46.51 441.59 192.50)"/>
<rect x="449.27" y="153.65" width="12.11" height="8.65" fill="#70493b" fill-opacity="0.88" stroke="#18191a" stroke-width="0.45" transform="rotate(-133.40 455.32 157.98)"/>
<rect x="501.78" y="190.92" width="11.67" height="5.02" fill="#6f6253" fill-opacity="0.88" stroke="#18191a" stroke-width="0.45" transform="rotate(-93.28 507.62 193.43)"/>
<rect x="456.91" y="188.89" width="13.67" height="6.62" fill="#6f6253" fill-opacity="0.88" stroke="#18191a" stroke-width="0.45" transform="rotate(-31.99 463.75 192.20)"/>
<rect x="463.56" y="160.50" width="11.66" height="8.86" fill="#6f6253" fill-opacity="0.88" stroke="#18191a" stroke-width="0.45" transform="rotate(-16.27 469.39 164.93)"/>
<rect x="459.25" y="171.25" width="11.90" height="6.48" fill="#70493b" fill-opacity="0.88" stroke="#18191a" stroke-width="0.45" transform="rotate(-148.45 465.20 174.49)"/>
<rect x="452.71" y="140.03" width="13.54" height="5.98" fill="#6f6253" fill-opacity="0.88" stroke="#18191a" stroke-width="0.45" transform="rotate(-142.96 459.48 143.02)"/>
<rect x="481.52" y="144.04" width="13.12" height="7.40" fill="#6f6253" fill-opacity="0.88" stroke="#18191a" stroke-width="0.45" transform="rotate(-59.65 488.08 147.74)"/>
<rect x="478.93" y="181.69" width="12.66" height="10.96" fill="#6f6253" fill-opacity="0.88" stroke="#18191a" stroke-width="0.45" transform="rotate(-39.10 485.26 187.17)"/>
<rect x="447.40" y="165.62" width="6.83" height="6.80" fill="#70493b" fill-opacity="0.88" stroke="#18191a" stroke-width="0.45" transform="rotate(-138.86 450.81 169.02)"/>
<rect x="466.29" y="145.52" width="10.24" height="9.20" fill="#6f6253" fill-opacity="0.88" stroke="#18191a" stroke-width="0.45" transform="rotate(-168.31 471.41 150.12)"/>
<rect x="458.01" y="171.39" width="42.03" height="3.84" fill="#aaa79f" fill-opacity="0.88" stroke="#18191a" stroke-width="0.45" transform="rotate(-44.06 479.03 173.31)"/>
<rect x="121.00" y="397.80" width="36.00" height="3.60" fill="#aaa79f" fill-opacity="0.88" stroke="#18191a" stroke-width="0.45" transform="rotate(-90.00 139.00 399.60)"/>
<rect x="182.80" y="124.20" width="32.40" height="3.60" fill="#aaa79f" fill-opacity="0.88" stroke="#18191a" stroke-width="0.45" transform="rotate(-90.00 199.00 126.00)"/>
<rect x="391.00" y="142.20" width="36.00" height="3.60" fill="#aaa79f" fill-opacity="0.88" stroke="#18191a" stroke-width="0.45" transform="rotate(-0.00 409.00 144.00)"/>
<rect x="432.40" y="400.20" width="37.20" height="3.60" fill="#aaa79f" fill-opacity="0.88" stroke="#18191a" stroke-width="0.45" transform="rotate(-0.00 451.00 402.00)"/>
<rect x="374.20" y="346.20" width="28.80" height="3.60" fill="#aaa79f" fill-opacity="0.88" stroke="#18191a" stroke-width="0.45" transform="rotate(-90.00 388.60 348.00)"/>
<rect x="206.20" y="391.80" width="28.80" height="3.60" fill="#aaa79f" fill-opacity="0.88" stroke="#18191a" stroke-width="0.45" transform="rotate(-0.00 220.60 393.60)"/>
<line x1="79.00" y1="270.00" x2="121.00" y2="270.00" stroke="#51d0d8" stroke-width="1.6" stroke-dasharray="5 4" opacity="0.9"/>
<line x1="121.00" y1="270.00" x2="121.00" y2="204.00" stroke="#51d0d8" stroke-width="1.6" stroke-dasharray="5 4" opacity="0.9"/>
<line x1="121.00" y1="204.00" x2="175.00" y2="150.00" stroke="#51d0d8" stroke-width="1.6" stroke-dasharray="5 4" opacity="0.9"/>
<line x1="175.00" y1="150.00" x2="223.00" y2="210.00" stroke="#51d0d8" stroke-width="1.6" stroke-dasharray="5 4" opacity="0.9"/>
<line x1="223.00" y1="210.00" x2="211.00" y2="270.00" stroke="#51d0d8" stroke-width="1.6" stroke-dasharray="5 4" opacity="0.9"/>
<line x1="211.00" y1="270.00" x2="121.00" y2="270.00" stroke="#51d0d8" stroke-width="1.6" stroke-dasharray="5 4" opacity="0.9"/>
<line x1="121.00" y1="204.00" x2="91.00" y2="132.00" stroke="#51d0d8" stroke-width="1.6" stroke-dasharray="5 4" opacity="0.9"/>
<line x1="121.00" y1="270.00" x2="121.00" y2="336.00" stroke="#51d0d8" stroke-width="1.6" stroke-dasharray="5 4" opacity="0.9"/>
<line x1="121.00" y1="336.00" x2="181.00" y2="396.00" stroke="#51d0d8" stroke-width="1.6" stroke-dasharray="5 4" opacity="0.9"/>
<line x1="181.00" y1="396.00" x2="223.00" y2="348.00" stroke="#51d0d8" stroke-width="1.6" stroke-dasharray="5 4" opacity="0.9"/>
<line x1="223.00" y1="348.00" x2="211.00" y2="270.00" stroke="#51d0d8" stroke-width="1.6" stroke-dasharray="5 4" opacity="0.9"/>
<line x1="121.00" y1="336.00" x2="91.00" y2="408.00" stroke="#51d0d8" stroke-width="1.6" stroke-dasharray="5 4" opacity="0.9"/>
<line x1="211.00" y1="270.00" x2="277.00" y2="222.00" stroke="#51d0d8" stroke-width="1.6" stroke-dasharray="5 4" opacity="0.9"/>
<line x1="277.00" y1="222.00" x2="331.00" y2="270.00" stroke="#51d0d8" stroke-width="1.6" stroke-dasharray="5 4" opacity="0.9"/>
<line x1="211.00" y1="270.00" x2="277.00" y2="318.00" stroke="#51d0d8" stroke-width="1.6" stroke-dasharray="5 4" opacity="0.9"/>
<line x1="277.00" y1="318.00" x2="331.00" y2="270.00" stroke="#51d0d8" stroke-width="1.6" stroke-dasharray="5 4" opacity="0.9"/>
<line x1="223.00" y1="210.00" x2="277.00" y2="222.00" stroke="#51d0d8" stroke-width="1.6" stroke-dasharray="5 4" opacity="0.9"/>
<line x1="223.00" y1="348.00" x2="277.00" y2="318.00" stroke="#51d0d8" stroke-width="1.6" stroke-dasharray="5 4" opacity="0.9"/>
<line x1="331.00" y1="270.00" x2="439.00" y2="270.00" stroke="#51d0d8" stroke-width="1.6" stroke-dasharray="5 4" opacity="0.9"/>
<line x1="439.00" y1="270.00" x2="523.00" y2="270.00" stroke="#51d0d8" stroke-width="1.6" stroke-dasharray="5 4" opacity="0.9"/>
<line x1="331.00" y1="270.00" x2="403.00" y2="210.00" stroke="#51d0d8" stroke-width="1.6" stroke-dasharray="5 4" opacity="0.9"/>
<line x1="403.00" y1="210.00" x2="463.00" y2="156.00" stroke="#51d0d8" stroke-width="1.6" stroke-dasharray="5 4" opacity="0.9"/>
<line x1="463.00" y1="156.00" x2="439.00" y2="270.00" stroke="#51d0d8" stroke-width="1.6" stroke-dasharray="5 4" opacity="0.9"/>
<line x1="463.00" y1="156.00" x2="523.00" y2="126.00" stroke="#51d0d8" stroke-width="1.6" stroke-dasharray="5 4" opacity="0.9"/>
<line x1="331.00" y1="270.00" x2="403.00" y2="330.00" stroke="#51d0d8" stroke-width="1.6" stroke-dasharray="5 4" opacity="0.9"/>
<line x1="403.00" y1="330.00" x2="475.00" y2="390.00" stroke="#51d0d8" stroke-width="1.6" stroke-dasharray="5 4" opacity="0.9"/>
<line x1="475.00" y1="390.00" x2="439.00" y2="270.00" stroke="#51d0d8" stroke-width="1.6" stroke-dasharray="5 4" opacity="0.9"/>
<line x1="475.00" y1="390.00" x2="523.00" y2="414.00" stroke="#51d0d8" stroke-width="1.6" stroke-dasharray="5 4" opacity="0.9"/>
<line x1="223.00" y1="210.00" x2="277.00" y2="222.00" stroke="#51d0d8" stroke-width="1.6" stroke-dasharray="5 4" opacity="0.9"/>
<line x1="887.00" y1="222.00" x2="941.00" y2="270.00" stroke="#f4c95d" stroke-width="1.6" stroke-dasharray="5 4" opacity="0.9"/>
<line x1="331.00" y1="270.00" x2="331.00" y2="270.00" stroke="#51d0d8" stroke-width="1.6" stroke-dasharray="5 4" opacity="0.9"/>
<line x1="941.00" y1="270.00" x2="1049.00" y2="270.00" stroke="#f4c95d" stroke-width="1.6" stroke-dasharray="5 4" opacity="0.9"/>
<line x1="439.00" y1="270.00" x2="439.00" y2="270.00" stroke="#51d0d8" stroke-width="1.6" stroke-dasharray="5 4" opacity="0.9"/>
</svg>