<svg xmlns="http://www.w3.org/2000/svg" width="1240" height="520" viewBox="0 0 1240 520">
<rect width="1240" height="520" fill="#1f2225"/>
<text x="55" y="34" fill="#f1f2f3" font-family="sans-serif" font-size="22">Ruins-Urban-01 medium validation preview</text>
<text x="55" y="58" fill="#aeb4ba" font-family="sans-serif" font-size="13">Reference graph overlay is for generation QA only; it is not available to exploration algorithms.</text>
<rect x="55.0" y="78.0" width="504.0" height="384.0" fill="#303438" stroke="#70777d"/>
<rect x="665.0" y="78.0" width="504.0" height="384.0" fill="#303438" stroke="#70777d"/>
<text x="55.0" y="68.0" fill="#d8dcdf" font-family="sans-serif" font-size="15">Ground / low level</text>
<text x="665.0" y="68.0" fill="#d8dcdf" font-family="sans-serif" font-size="15">Overhead / vertical structure</text>
<rect x="55.00" y="77.52" width="228.00" height="4.56" fill="#87857f" fill-opacity="0.88" stroke="#18191a" stroke-width="0.45" transform="rotate(0.57 169.00 79.80)"/>
<rect x="307.00" y="76.68" width="252.00" height="5.04" fill="#87857f" fill-opacity="0.88" stroke="#18191a" stroke-width="0.45" transform="rotate(-0.86 433.00 79.20)"/>
<rect x="917.00" y="76.68" width="252.00" height="5.04" fill="#87857f" fill-opacity="0.78" stroke="#18191a" stroke-width="0.45" transform="rotate(-0.86 1043.00 79.20)"/>
<rect x="55.00" y="458.28" width="264.00" height="5.04" fill="#87857f" fill-opacity="0.88" stroke="#18191a" stroke-width="0.45" transform="rotate(-0.69 187.00 460.80)"/>
<rect x="665.00" y="458.28" width="264.00" height="5.04" fill="#87857f" fill-opacity="0.78" stroke="#18191a" stroke-width="0.45" transform="rotate(-0.69 797.00 460.80)"/>
<rect x="343.00" y="457.92" width="216.00" height="4.56" fill="#87857f" fill-opacity="0.88" stroke="#18191a" stroke-width="0.45" transform="rotate(1.03 451.00 460.20)"/>
<rect x="53.08" y="78.00" width="5.04" height="164.40" fill="#87857f" fill-opacity="0.88" stroke="#18191a" stroke-width="0.45" transform="rotate(1.15 55.60 160.20)"/>
<rect x="663.08" y="78.00" width="5.04" height="164.40" fill="#87857f" fill-opacity="0.78" stroke="#18191a" stroke-width="0.45" transform="rotate(1.15 665.60 160.20)"/>
<rect x="53.08" y="297.60" width="5.04" height="164.40" fill="#87857f" fill-opacity="0.88" stroke="#18191a" stroke-width="0.45" transform="rotate(-0.86 55.60 379.80)"/>
<rect x="663.08" y="297.60" width="5.04" height="164.40" fill="#87857f" fill-opacity="0.78" stroke="#18191a" stroke-width="0.45" transform="rotate(-0.86 665.60 379.80)"/>
<rect x="555.88" y="79.20" width="5.04" height="381.60" fill="#87857f" fill-opacity="0.88" stroke="#18191a" stroke-width="0.45" transform="rotate(0.57 558.40 270.00)"/>
<rect x="1165.88" y="79.20" width="5.04" height="381.60" fill="#87857f" fill-opacity="0.78" stroke="#18191a" stroke-width="0.45" transform="rotate(0.57 1168.40 270.00)"/>
<rect x="126.27" y="247.46" width="26.26" height="3.36" fill="#87857f" fill-opacity="0.88" stroke="#18191a" stroke-width="0.45" transform="rotate(-100.12 139.40 249.14)"/>
<rect x="161.47" y="241.18" width="26.26" height="3.36" fill="#87857f" fill-opacity="0.88" stroke="#18191a" stroke-width="0.45" transform="rotate(-100.12 174.60 242.86)"/>
<rect x="122.72" y="189.98" width="13.82" height="3.36" fill="#87857f" fill-opacity="0.88" stroke="#18191a" stroke-width="0.45" transform="rotate(-115.46 129.63 191.66)"/>
<rect x="141.46" y="181.06" width="13.82" height="3.36" fill="#87857f" fill-opacity="0.88" stroke="#18191a" stroke-width="0.45" transform="rotate(-115.46 148.37 182.74)"/>
<rect x="123.65" y="124.55" width="21.78" height="3.36" fill="#87857f" fill-opacity="0.88" stroke="#18191a" stroke-width="0.45" transform="rotate(-48.81 134.54 126.23)"/>
<rect x="150.57" y="148.09" width="21.78" height="3.36" fill="#87857f" fill-opacity="0.88" stroke="#18191a" stroke-width="0.45" transform="rotate(-48.81 161.46 149.77)"/>
<rect x="191.66" y="111.38" width="20.64" height="3.36" fill="#87857f" fill-opacity="0.88" stroke="#18191a" stroke-width="0.45" transform="rotate(16.70 201.98 113.06)"/>
<rect x="185.70" y="131.26" width="20.64" height="3.36" fill="#87857f" fill-opacity="0.88" stroke="#18191a" stroke-width="0.45" transform="rotate(16.70 196.02 132.94)"/>
<rect x="249.74" y="148.64" width="19.77" height="3.36" fill="#87857f" fill-opacity="0.88" stroke="#18191a" stroke-width="0.45" transform="rotate(60.95 259.63 150.32)"/>
<rect x="218.48" y="166.00" width="19.77" height="3.36" fill="#87857f" fill-opacity="0.88" stroke="#18191a" stroke-width="0.45" transform="rotate(60.95 228.37 167.68)"/>
<rect x="210.63" y="296.78" width="23.90" height="3.36" fill="#87857f" fill-opacity="0.88" stroke="#18191a" stroke-width="0.45" transform="rotate(100.49 222.58 298.46)"/>
<rect x="175.47" y="290.26" width="23.90" height="3.36" fill="#87857f" fill-opacity="0.88" stroke="#18191a" stroke-width="0.45" transform="rotate(100.49 187.42 291.94)"/>
<rect x="166.84" y="351.25" width="14.19" height="3.36" fill="#87857f" fill-opacity="0.88" stroke="#18191a" stroke-width="0.45" transform="rotate(151.63 173.93 352.93)"/>
<rect x="156.97" y="332.99" width="14.19" height="3.36" fill="#87857f" fill-opacity="0.88" stroke="#18191a" stroke-width="0.45" transform="rotate(151.63 164.07 334.67)"/>
<rect x="149.04" y="408.04" width="42.85" height="3.36" fill="#87857f" fill-opacity="0.88" stroke="#18191a" stroke-width="0.45" transform="rotate(8.13 170.47 409.72)"/>
<rect x="146.11" y="428.60" width="42.85" height="3.36" fill="#87857f" fill-opacity="0.88" stroke="#18191a" stroke-width="0.45" transform="rotate(8.13 167.53 430.28)"/>
<rect x="218.85" y="390.62" width="33.18" height="3.36" fill="#87857f" fill-opacity="0.88" stroke="#18191a" stroke-width="0.45" transform="rotate(-28.61 235.44 392.30)"/>
<rect x="235.97" y="422.02" width="33.18" height="3.36" fill="#87857f" fill-opacity="0.88" stroke="#18191a" stroke-width="0.45" transform="rotate(-28.61 252.56 423.70)"/>
<rect x="432.01" y="226.78" width="10.39" height="3.36" fill="#87857f" fill-opacity="0.88" stroke="#18191a" stroke-width="0.45" transform="rotate(-69.90 437.21 228.46)"/>
<rect x="465.60" y="239.06" width="10.39" height="3.36" fill="#87857f" fill-opacity="0.88" stroke="#18191a" stroke-width="0.45" transform="rotate(-69.90 470.79 240.74)"/>
<rect x="476.53" y="187.04" width="11.67" height="3.36" fill="#87857f" fill-opacity="0.88" stroke="#18191a" stroke-width="0.45" transform="rotate(-26.57 482.36 188.72)"/>
<rect x="485.81" y="205.60" width="11.67" height="3.36" fill="#87857f" fill-opacity="0.88" stroke="#18191a" stroke-width="0.45" transform="rotate(-26.57 491.64 207.28)"/>
<rect x="486.87" y="148.12" width="25.08" height="3.36" fill="#87857f" fill-opacity="0.88" stroke="#18191a" stroke-width="0.45" transform="rotate(-79.70 499.41 149.80)"/>
<rect x="522.05" y="154.52" width="25.08" height="3.36" fill="#87857f" fill-opacity="0.88" stroke="#18191a" stroke-width="0.45" transform="rotate(-79.70 534.59 156.20)"/>
<rect x="454.89" y="288.63" width="27.44" height="3.36" fill="#87857f" fill-opacity="0.88" stroke="#18191a" stroke-width="0.45" transform="rotate(80.05 468.61 290.31)"/>
<rect x="419.67" y="294.81" width="27.44" height="3.36" fill="#87857f" fill-opacity="0.88" stroke="#18191a" stroke-width="0.45" transform="rotate(80.05 433.39 296.49)"/>
<rect x="475.98" y="340.99" width="19.12" height="3.36" fill="#87857f" fill-opacity="0.88" stroke="#18191a" stroke-width="0.45" transform="rotate(46.59 485.54 342.67)"/>
<rect x="460.90" y="355.25" width="19.12" height="3.36" fill="#87857f" fill-opacity="0.88" stroke="#18191a" stroke-width="0.45" transform="rotate(46.59 470.46 356.93)"/>
<rect x="520.43" y="387.40" width="22.90" height="3.36" fill="#87857f" fill-opacity="0.88" stroke="#18191a" stroke-width="0.45" transform="rotate(56.31 531.88 389.08)"/>
<rect x="490.67" y="407.24" width="22.90" height="3.36" fill="#87857f" fill-opacity="0.88" stroke="#18191a" stroke-width="0.45" transform="rotate(56.31 502.12 408.92)"/>
<rect x="83.79" y="241.80" width="37.22" height="3.60" fill="#87857f" fill-opacity="0.88" stroke="#18191a" stroke-width="0.45" transform="rotate(1.85 102.40 243.60)"/>
<rect x="196.56" y="237.60" width="34.88" height="3.60" fill="#87857f" fill-opacity="0.88" stroke="#18191a" stroke-width="0.45" transform="rotate(-3.95 214.00 239.40)"/>
<rect x="302.15" y="237.60" width="30.10" height="3.60" fill="#87857f" fill-opacity="0.88" stroke="#18191a" stroke-width="0.45" transform="rotate(4.57 317.20 239.40)"/>
<rect x="352.55" y="243.60" width="28.90" height="3.60" fill="#87857f" fill-opacity="0.88" stroke="#18191a" stroke-width="0.45" transform="rotate(-4.76 367.00 245.40)"/>
<rect x="399.32" y="238.50" width="28.96" height="3.60" fill="#87857f" fill-opacity="0.88" stroke="#18191a" stroke-width="0.45" transform="rotate(5.95 413.80 240.30)"/>
<rect x="460.57" y="242.10" width="31.25" height="3.60" fill="#87857f" fill-opacity="0.88" stroke="#18191a" stroke-width="0.45" transform="rotate(-3.30 476.20 243.90)"/>
<rect x="87.38" y="294.90" width="37.24" height="3.60" fill="#87857f" fill-opacity="0.88" stroke="#18191a" stroke-width="0.45" transform="rotate(-2.77 106.00 296.70)"/>
<rect x="144.90" y="299.40" width="32.60" height="3.60" fill="#87857f" fill-opacity="0.88" stroke="#18191a" stroke-width="0.45" transform="rotate(-6.34 161.20 301.20)"/>
<rect x="250.53" y="300.30" width="32.54" height="3.60" fill="#87857f" fill-opacity="0.88" stroke="#18191a" stroke-width="0.45" transform="rotate(-5.29 266.80 302.10)"/>
<rect x="354.90" y="299.40" width="31.41" height="3.60" fill="#87857f" fill-opacity="0.88" stroke="#18191a" stroke-width="0.45" transform="rotate(-6.58 370.60 301.20)"/>
<rect x="402.97" y="288.30" width="28.86" height="3.60" fill="#87857f" fill-opacity="0.88" stroke="#18191a" stroke-width="0.45" transform="rotate(3.58 417.40 290.10)"/>
<rect x="462.94" y="297.30" width="36.12" height="3.60" fill="#87857f" fill-opacity="0.88" stroke="#18191a" stroke-width="0.45" transform="rotate(-4.76 481.00 299.10)"/>
<rect x="96.88" y="194.28" width="7.44" height="7.44" fill="#aaa79f" fill-opacity="0.88" stroke="#18191a" stroke-width="0.45" transform="rotate(-0.00 100.60 198.00)"/>
<rect x="706.88" y="194.28" width="7.44" height="7.44" fill="#aaa79f" fill-opacity="0.78" stroke="#18191a" stroke-width="0.45" transform="rotate(-0.00 710.60 198.00)"/>
<rect x="96.88" y="165.48" width="7.44" height="7.44" fill="#aaa79f" fill-opacity="0.88" stroke="#18191a" stroke-width="0.45" transform="rotate(-0.00 100.60 169.20)"/>
<rect x="706.88" y="165.48" width="7.44" height="7.44" fill="#aaa79f" fill-opacity="0.78" stroke="#18191a" stroke-width="0.45" transform="rotate(-0.00 710.60 169.20)"/>
<rect x="406.48" y="194.28" width="7.44" height="7.44" fill="#aaa79f" fill-opacity="0.88" stroke="#18191a" stroke-width="0.45" transform="rotate(-0.00 410.20 198.00)"/>
<rect x="1016.48" y="194.28" width="7.44" height="7.44" fill="#aaa79f" fill-opacity="0.78" stroke="#18191a" stroke-width="0.45" transform="rotate(-0.00 1020.20 198.00)"/>
<rect x="435.28" y="158.28" width="7.44" height="7.44" fill="#aaa79f" fill-opacity="0.88" stroke="#18191a" stroke-width="0.45" transform="rotate(-0.00 439.00 162.00)"/>
<rect x="1045.28" y="158.28" width="7.44" height="7.44" fill="#aaa79f" fill-opacity="0.78" stroke="#18191a" stroke-width="0.45" transform="rotate(-0.00 1049.00 162.00)"/>
<rect x="464.08" y="158.28" width="7.44" height="7.44" fill="#aaa79f" fill-opacity="0.88" stroke="#18191a" stroke-width="0.45" transform="rotate(-0.00 467.80 162.00)"/>
<rect x="1074.08" y="158.28" width="7.44" height="7.44" fill="#aaa79f" fill-opacity="0.78" stroke="#18191a" stroke-width="0.45" transform="rotate(-0.00 1077.80 162.00)"/>
<rect x="291.28" y="419.88" width="7.44" height="7.44" fill="#aaa79f" fill-opacity="0.88" stroke="#18191a" stroke-width="0.45" transform="rotate(-0.00 295.00 423.60)"/>
<rect x="901.28" y="419.88" width="7.44" height="7.44" fill="#aaa79f" fill-opacity="0.78" stroke="#18191a" stroke-width="0.45" transform="rotate(-0.00 905.00 423.60)"/>
<rect x="339.28" y="392.28" width="7.44" height="7.44" fill="#aaa79f" fill-opacity="0.88" stroke="#18191a" stroke-width="0.45" transform="rotate(-0.00 343.00 396.00)"/>
<rect x="949.28" y="392.28" width="7.44" height="7.44" fill="#aaa79f" fill-opacity="0.78" stroke="#18191a" stroke-width="0.45" transform="rotate(-0.00 953.00 396.00)"/>
<rect x="405.28" y="407.88" width="7.44" height="7.44" fill="#aaa79f" fill-opacity="0.88" stroke="#18191a" stroke-width="0.45" transform="rotate(-0.00 409.00 411.60)"/>
<rect x="1015.28" y="407.88" width="7.44" height="7.44" fill="#aaa79f" fill-opacity="0.78" stroke="#18191a" stroke-width="0.45" transform="rotate(-0.00 1019.00 411.60)"/>
<rect x="285.10" y="252.60" width="15.00" height="26.40" fill="#6f6253" fill-opacity="0.88" stroke="#18191a" stroke-width="0.45" transform="rotate(10.31 292.60 265.80)"/>
<rect x="347.80" y="252.60" width="14.40" height="28.80" fill="#414345" fill-opacity="0.88" stroke="#18191a" stroke-width="0.45" transform="rotate(11.46 355.00 267.00)"/>
<rect x="874.98" y="150.30" width="48.04" height="29.40" fill="#414345" fill-opacity="0.78" stroke="#18191a" stroke-width="0.45" transform="rotate(-34.99 899.00 165.00)"/>
<rect x="879.68" y="151.54" width="21.64" height="2.64" fill="#aaa79f" fill-opacity="0.78" stroke="#18191a" stroke-width="0.45" transform="rotate(-34.99 890.50 152.86)"/>
<rect x="896.68" y="175.82" width="21.64" height="2.64" fill="#aaa79f" fill-opacity="0.78" stroke="#18191a" stroke-width="0.45" transform="rotate(-34.99 907.50 177.14)"/>
<rect x="941.48" y="126.30" width="47.05" height="29.40" fill="#414345" fill-opacity="0.78" stroke="#18191a" stroke-width="0.45" transform="rotate(-4.76 965.00 141.00)"/>
<rect x="943.84" y="124.91" width="39.85" height="2.64" fill="#aaa79f" fill-opacity="0.78" stroke="#18191a" stroke-width="0.45" transform="rotate(-4.76 963.77 126.23)"/>
<rect x="946.31" y="154.45" width="39.85" height="2.64" fill="#aaa79f" fill-opacity="0.78" stroke="#18191a" stroke-width="0.45" transform="rotate(-4.76 966.23 155.77)"/>
<rect x="1005.71" y="144.30" width="38.58" height="29.40" fill="#414345" fill-opacity="0.78" stroke="#18191a" stroke-width="0.45" transform="rotate(41.19 1025.00 159.00)"/>
<rect x="1019.07" y="146.53" width="31.38" height="2.64" fill="#aaa79f" fill-opacity="0.78" stroke="#18191a" stroke-width="0.45" transform="rotate(41.19 1034.76 147.85)"/>
<rect x="999.55" y="168.83" width="31.38" height="2.64" fill="#aaa79f" fill-opacity="0.78" stroke="#18191a" stroke-width="0.45" transform="rotate(41.19 1015.24 170.15)"/>
<rect x="1020.05" y="192.30" width="33.89" height="29.40" fill="#414345" fill-opacity="0.78" stroke="#18191a" stroke-width="0.45" transform="rotate(113.96 1037.00 207.00)"/>
<rect x="1037.20" y="211.70" width="26.69" height="2.64" fill="#aaa79f" fill-opacity="0.78" stroke="#18191a" stroke-width="0.45" transform="rotate(113.96 1050.54 213.02)"/>
<rect x="1010.11" y="199.66" width="26.69" height="2.64" fill="#aaa79f" fill-opacity="0.78" stroke="#18191a" stroke-width="0.45" transform="rotate(113.96 1023.46 200.98)"/>
<rect x="945.70" y="232.50" width="68.59" height="29.40" fill="#414345" fill-opacity="0.78" stroke="#18191a" stroke-width="0.45" transform="rotate(163.65 980.00 247.20)"/>
<rect x="963.08" y="260.10" width="42.19" height="2.64" fill="#aaa79f" fill-opacity="0.78" stroke="#18191a" stroke-width="0.45" transform="rotate(163.65 984.17 261.42)"/>
<rect x="954.73" y="231.66" width="42.19" height="2.64" fill="#aaa79f" fill-opacity="0.78" stroke="#18191a" stroke-width="0.45" transform="rotate(163.65 975.83 232.98)"/>
<rect x="864.87" y="208.50" width="74.26" height="29.40" fill="#414345" fill-opacity="0.78" stroke="#18191a" stroke-width="0.45" transform="rotate(-131.58 902.00 223.20)"/>
<rect x="866.99" y="231.71" width="47.86" height="2.64" fill="#aaa79f" fill-opacity="0.78" stroke="#18191a" stroke-width="0.45" transform="rotate(-131.58 890.91 233.03)"/>
<rect x="889.16" y="212.05" width="47.86" height="2.64" fill="#aaa79f" fill-opacity="0.78" stroke="#18191a" stroke-width="0.45" transform="rotate(-131.58 913.09 213.37)"/>
<rect x="914.00" y="129.00" width="30.00" height="30.00" fill="#414345" fill-opacity="0.78" stroke="#18191a" stroke-width="0.45" transform="rotate(-0.00 929.00 144.00)"/>
<rect x="986.00" y="123.00" width="30.00" height="30.00" fill="#414345" fill-opacity="0.78" stroke="#18191a" stroke-width="0.45" transform="rotate(-0.00 1001.00 138.00)"/>
<rect x="1034.00" y="165.00" width="30.00" height="30.00" fill="#414345" fill-opacity="0.78" stroke="#18191a" stroke-width="0.45" transform="rotate(-0.00 1049.00 180.00)"/>
<rect x="1010.00" y="219.00" width="30.00" height="30.00" fill="#414345" fill-opacity="0.78" stroke="#18191a" stroke-width="0.45" transform="rotate(-0.00 1025.00 234.00)"/>
<rect x="851.48" y="169.80" width="2.64" height="32.40" fill="#63382b" fill-opacity="0.78" stroke="#18191a" stroke-width="0.45" transform="rotate(-0.00 852.80 186.00)"/>
<rect x="883.88" y="169.80" width="2.64" height="32.40" fill="#63382b" fill-opacity="0.78" stroke="#18191a" stroke-width="0.45" transform="rotate(-0.00 885.20 186.00)"/>
<rect x="852.80" y="168.48" width="32.40" height="2.64" fill="#63382b" fill-opacity="0.78" stroke="#18191a" stroke-width="0.45" transform="rotate(-0.00 869.00 169.80)"/>
<rect x="917.48" y="244.20" width="2.64" height="32.40" fill="#63382b" fill-opacity="0.78" stroke="#18191a" stroke-width="0.45" transform="rotate(-0.00 918.80 260.40)"/>
<rect x="949.88" y="244.20" width="2.64" height="32.40" fill="#63382b" fill-opacity="0.78" stroke="#18191a" stroke-width="0.45" transform="rotate(-0.00 951.20 260.40)"/>
<rect x="918.80" y="242.88" width="32.40" height="2.64" fill="#63382b" fill-opacity="0.78" stroke="#18191a" stroke-width="0.45" transform="rotate(-0.00 935.00 244.20)"/>
<rect x="354.76" y="151.30" width="9.49" height="6.95" fill="#87857f" fill-opacity="0.88" stroke="#18191a" stroke-width="0.45" transform="rotate(-0.00 359.51 154.78)"/>
<rect x="523.48" y="230.18" width="9.02" height="6.63" fill="#87857f" fill-opacity="0.88" stroke="#18191a" stroke-width="0.45" transform="rotate(-0.00 528.00 233.49)"/>
<rect x="1133.48" y="230.18" width="9.02" height="6.63" fill="#87857f" fill-opacity="0.78" stroke="#18191a" stroke-width="0.45" transform="rotate(-0.00 1138.00 233.49)"/>
<rect x="99.51" y="224.28" width="8.46" height="5.58" fill="#87857f" fill-opacity="0.88" stroke="#18191a" stroke-width="0.45" transform="rotate(-0.00 103.74 227.07)"/>
<rect x="366.85" y="284.16" width="8.68" height="9.89" fill="#87857f" fill-opacity="0.88" stroke="#18191a" stroke-width="0.45" transform="rotate(-0.00 371.19 289.10)"/>
<rect x="976.85" y="284.16" width="8.68" height="9.89" fill="#87857f" fill-opacity="0.78" stroke="#18191a" stroke-width="0.45" transform="rotate(-0.00 981.19 289.10)"/>
<rect x="491.16" y="280.47" width="8.17" height="7.40" fill="#87857f" fill-opacity="0.88" stroke="#18191a" stroke-width="0.45" transform="rotate(-0.00 495.25 284.17)"/>
<rect x="341.67" y="213.56" width="9.53" height="9.93" fill="#87857f" fill-opacity="0.88" stroke="#18191a" stroke-width="0.45" transform="rotate(-0.00 346.44 218.53)"/>
<rect x="951.67" y="213.56" width="9.53" height="9.93" fill="#87857f" fill-opacity="0.78" stroke="#18191a" stroke-width="0.45" transform="rotate(-0.00 956.44 218.53)"/>
<rect x="238.04" y="302.24" width="5.65" height="9.19" fill="#87857f" fill-opacity="0.88" stroke="#18191a" stroke-width="0.45" transform="rotate(-0.00 240.87 306.84)"/>
<rect x="232.95" y="359.34" width="9.56" height="9.31" fill="#87857f" fill-opacity="0.88" stroke="#18191a" stroke-width="0.45" transform="rotate(-0.00 237.73 363.99)"/>
<rect x="842.95" y="359.34" width="9.56" height="9.31" fill="#87857f" fill-opacity="0.78" stroke="#18191a" stroke-width="0.45" transform="rotate(-0.00 847.73 363.99)"/>
<rect x="368.07" y="306.57" width="7.62" height="6.12" fill="#87857f" fill-opacity="0.88" stroke="#18191a" stroke-width="0.45" transform="rotate(-0.00 371.88 309.63)"/>
<rect x="978.07" y="306.57" width="7.62" height="6.12" fill="#87857f" fill-opacity="0.78" stroke="#18191a" stroke-width="0.45" transform="rotate(-0.00 981.88 309.63)"/>
<rect x="102.48" y="222.78" width="7.63" height="8.02" fill="#87857f" fill-opacity="0.88" stroke="#18191a" stroke-width="0.45" transform="rotate(-0.00 106.29 226.80)"/>
<rect x="712.48" y="222.78" width="7.63" height="8.02" fill="#87857f" fill-opacity="0.78" stroke="#18191a" stroke-width="0.45" transform="rotate(-0.00 716.29 226.80)"/>
<rect x="226.97" y="237.38" width="4.40" height="5.74" fill="#70493b" fill-opacity="0.88" stroke="#18191a" stroke-width="0.45" transform="rotate(-164.26 229.17 240.25)"/>
<rect x="192.03" y="348.67" width="19.44" height="11.46" fill="#6f6253" fill-opacity="0.88" stroke="#18191a" stroke-width="0.45" transform="rotate(-138.32 201.75 354.40)"/>
<rect x="486.39" y="401.05" width="15.62" height="4.11" fill="#6f6253" fill-opacity="0.88" stroke="#18191a" stroke-width="0.45" transform="rotate(-165.10 494.20 403.11)"/>
<rect x="183.56" y="96.59" width="12.18" height="12.68" fill="#6f6253" fill-opacity="0.88" stroke="#18191a" stroke-width="0.45" transform="rotate(-76.58 189.66 102.93)"/>
<rect x="119.68" y="342.55" width="7.56" height="4.00" fill="#70493b" fill-opacity="0.88" stroke="#18191a" stroke-width="0.45" transform="rotate(-33.83 123.46 344.55)"/>
<rect x="258.47" y="97.96" width="5.05" height="14.05" fill="#6f6253" fill-opacity="0.88" stroke="#18191a" stroke-width="0.45" transform="rotate(-139.36 261.00 104.98)"/>
<rect x="524.92" y="161.05" width="9.71" height="6.23" fill="#6f6253" fill-opacity="0.88" stroke="#18191a" stroke-width="0.45" transform="rotate(-136.67 529.77 164.16)"/>
<rect x="367.92" y="179.21" width="8.91" height="11.89" fill="#4a4035" fill-opacity="0.88" stroke="#18191a" stroke-width="0.45" transform="rotate(-148.83 372.37 185.16)"/>
<rect x="89.74" y="144.83" width="5.19" height="3.62" fill="#70493b" fill-opacity="0.88" stroke="#18191a" stroke-width="0.45" transform="rotate(-146.81 92.34 146.64)"/>
<rect x="205.51" y="148.38" width="5.40" height="9.57" fill="#6f6253" fill-opacity="0.88" stroke="#18191a" stroke-width="0.45" transform="rotate(-86.26 208.22 153.17)"/>
<rect x="337.53" y="189.98" width="11.20" height="10.07" fill="#6f6253" fill-opacity="0.88" stroke="#18191a" stroke-width="0.45" transform="rotate(-133.72 343.13 195.01)"/>
<rect x="519.58" y="305.28" width="16.37" height="12.50" fill="#6f6253" fill-opacity="0.88" stroke="#18191a" stroke-width="0.45" transform="rotate(-57.97 527.77 311.53)"/>
<rect x="309.72" y="409.60" width="5.46" height="11.73" fill="#70493b" fill-opacity="0.88" stroke="#18191a" stroke-width="0.45" transform="rotate(-146.03 312.44 415.46)"/>
<rect x="335.94" y="300.02" width="11.33" height="10.58" fill="#6f6253" fill-opacity="0.88" stroke="#18191a" stroke-width="0.45" transform="rotate(-116.11 341.61 305.31)"/>
<rect x="221.17" y="350.86" width="9.50" height="15.65" fill="#4a4035" fill-opacity="0.88" stroke="#18191a" stroke-width="0.45" transform="rotate(-10.42 225.92 358.68)"/>
<rect x="355.42" y="320.22" width="18.68" height="6.51" fill="#6f6253" fill-opacity="0.88" stroke="#18191a" stroke-width="0.45" transform="rotate(-174.37 364.76 323.47)"/>
<rect x="128.65" y="423.10" width="10.21" height="16.06" fill="#70493b" fill-opacity="0.88" stroke="#18191a" stroke-width="0.45" transform="rotate(-176.75 133.75 431.14)"/>
<rect x="171.77" y="238.47" width="11.39" height="12.77" fill="#6f6253" fill-opacity="0.88" stroke="#18191a" stroke-width="0.45" transform="rotate(-87.49 177.46 244.86)"/>
<rect x="223.59" y="374.10" width="15.39" height="15.02" fill="#6f6253" fill-opacity="0.88" stroke="#18191a" stroke-width="0.45" transform="rotate(-54.30 231.29 381.61)"/>
<rect x="359.42" y="375.49" width="4.41" height="12.82" fill="#6f6253" fill-opacity="0.88" stroke="#18191a" stroke-width="0.45" transform="rotate(-36.81 361.62 381.90)"/>
<rect x="358.81" y="193.70" width="15.93" height="5.24" fill="#70493b" fill-opacity="0.88" stroke="#18191a" stroke-width="0.45" transform="rotate(-36.91 366.77 196.32)"/>
<rect x="175.73" y="183.45" width="18.33" height="6.08" fill="#4a4035" fill-opacity="0.88" stroke="#18191a" stroke-width="0.45" transform="rotate(-42.65 184.89 186.49)"/>
<rect x="385.25" y="112.18" width="17.33" height="13.55" fill="#6f6253" fill-opacity="0.88" stroke="#18191a" stroke-width="0.45" transform="rotate(-91.04 393.92 118.96)"/>
<rect x="227.96" y="365.34" width="6.39" height="10.48" fill="#6f6253" fill-opacity="0.88" stroke="#18191a" stroke-width="0.45" transform="rotate(-2.31 231.15 370.57)"/>
<rect x="338.36" y="369.55" width="18.82" height="10.47" fill="#70493b" fill-opacity="0.88" stroke="#18191a" stroke-width="0.45" transform="rotate(-108.88 347.77 374.78)"/>
<rect x="344.34" y="187.14" width="12.03" height="8.16" fill="#6f6253" fill-opacity="0.88" stroke="#18191a" stroke-width="0.45" transform="rotate(-137.23 350.36 191.22)"/>
<rect x="348.30" y="218.85" width="18.23" height="7.22" fill="#6f6253" fill-opacity="0.88" stroke="#18191a" stroke-width="0.45" transform="rotate(-164.90 357.42 222.46)"/>
<rect x="393.08" y="325.10" width="9.66" height="6.22" fill="#6f6253" fill-opacity="0.88" stroke="#18191a" stroke-width="0.45" transform="rotate(-71.26 397.91 328.21)"/>
<rect x="399.32" y="407.67" width="7.04" height="13.86" fill="#70493b" fill-opacity="0.88" stroke="#18191a" stroke-width="0.45" transform="rotate(-74.02 402.84 414.60)"/>
<rect x="81.70" y="143.93" width="7.94" height="8.40" fill="#6f6253" fill-opacity="0.88" stroke="#18191a" stroke-width="0.45" transform="rotate(-55.37 85.67 148.13)"/>
<rect x="420.69" y="149.99" width="17.21" height="4.06" fill="#6f6253" fill-opacity="0.88" stroke="#18191a" stroke-width="0.45" transform="rotate(-123.47 429.29 152.02)"/>
<rect x="120.27" y="253.37" width="13.56" height="5.48" fill="#6f6253" fill-opacity="0.88" stroke="#18191a" stroke-width="0.45" transform="rotate(-0.75 127.05 256.11)"/>
<rect x="193.00" y="397.10" width="16.33" height="15.21" fill="#70493b" fill-opacity="0.88" stroke="#18191a" stroke-width="0.45" transform="rotate(-46.54 201.17 404.70)"/>
<rect x="472.17" y="387.47" width="9.95" height="11.44" fill="#6f6253" fill-opacity="0.88" stroke="#18191a" stroke-width="0.45" transform="rotate(-145.86 477.15 393.19)"/>
<rect x="203.62" y="152.46" width="5.16" height="12.17" fill="#6f6253" fill-opacity="0.88" stroke="#18191a" stroke-width="0.45" transform="rotate(-66.47 206.20 158.54)"/>
<rect x="99.10" y="409.77" width="12.65" height="9.48" fill="#4a4035" fill-opacity="0.88" stroke="#18191a" stroke-width="0.45" transform="rotate(-1.24 105.43 414.51)"/>
<rect x="146.85" y="383.79" width="5.84" height="8.24" fill="#70493b" fill-opacity="0.88" stroke="#18191a" stroke-width="0.45" transform="rotate(-114.00 149.77 387.92)"/>
<rect x="424.32" y="277.01" width="8.41" height="7.88" fill="#6f6253" fill-opacity="0.88" stroke="#18191a" stroke-width="0.45" transform="rotate(-39.01 428.52 280.95)"/>
<rect x="476.75" y="142.21" width="5.14" height="13.51" fill="#6f6253" fill-opacity="0.88" stroke="#18191a" stroke-width="0.45" transform="rotate(-132.72 479.32 148.97)"/>
<rect x="230.25" y="104.06" width="9.80" height="7.70" fill="#6f6253" fill-opacity="0.88" stroke="#18191a" stroke-width="0.45" transform="rotate(-6.85 235.15 107.91)"/>
<rect x="463.62" y="382.80" width="9.12" height="8.86" fill="#70493b" fill-opacity="0.88" stroke="#18191a" stroke-width="0.45" transform="rotate(-165.30 468.18 387.23)"/>
<rect x="495.05" y="204.09" width="15.41" height="4.56" fill="#6f6253" fill-opacity="0.88" stroke="#18191a" stroke-width="0.45" transform="rotate(-95.91 502.76 206.37)"/>
<rect x="206.00" y="339.00" width="17.68" height="15.24" fill="#4a4035" fill-opacity="0.88" stroke="#18191a" stroke-width="0.45" transform="rotate(-107.59 214.84 346.62)"/>
<rect x="340.01" y="175.74" width="13.28" height="8.51" fill="#6f6253" fill-opacity="0.88" stroke="#18191a" stroke-width="0.45" transform="rotate(-11.10 346.65 180.00)"/>
<rect x="325.91" y="383.03" width="7.64" height="8.73" fill="#70493b" fill-opacity="0.88" stroke="#18191a" stroke-width="0.45" transform="rotate(-65.15 329.73 387.39)"/>
<rect x="518.13" y="205.67" width="9.58" height="5.25" fill="#6f6253" fill-opacity="0.88" stroke="#18191a" stroke-width="0.45" transform="rotate(-154.54 522.92 208.30)"/>
<rect x="421.22" y="412.94" width="17.04" height="7.78" fill="#6f6253" fill-opacity="0.88" stroke="#18191a" stroke-width="0.45" transform="rotate(-35.44 429.74 416.83)"/>
<rect x="104.68" y="353.80" width="14.28" height="9.06" fill="#6f6253" fill-opacity="0.88" stroke="#18191a" stroke-width="0.45" transform="rotate(-158.91 111.81 358.34)"/>
<rect x="147.81" y="393.02" width="15.90" height="4.13" fill="#70493b" fill-opacity="0.88" stroke="#18191a" stroke-width="0.45" transform="rotate(-16.10 155.76 395.08)"/>
<rect x="206.01" y="173.94" width="19.43" height="9.02" fill="#4a4035" fill-opacity="0.88" stroke="#18191a" stroke-width="0.45" transform="rotate(-27.43 215.73 178.45)"/>
<rect x="116.48" y="432.90" width="6.10" height="4.54" fill="#6f6253" fill-opacity="0.88" stroke="#18191a" stroke-width="0.45" transform="rotate(-92.11 119.53 435.17)"/>
<rect x="396.86" y="422.19" width="6.40" height="9.98" fill="#6f6253" fill-opacity="0.88" stroke="#18191a" stroke-width="0.45" transform="rotate(-149.60 400.06 427.18)"/>
<rect x="413.97" y="119.31" width="41.00" height="3.93" fill="#6f6253" fill-opacity="0.88" stroke="#18191a" stroke-width="0.45" transform="rotate(-13.08 434.47 121.27)"/>
<rect x="175.17" y="207.03" width="42.26" height="4.02" fill="#6f6253" fill-opacity="0.88" stroke="#18191a" stroke-width="0.45" transform="rotate(-58.64 196.30 209.04)"/>
<rect x="335.49" y="180.30" width="38.85" height="4.04" fill="#6f6253" fill-opacity="0.88" stroke="#18191a" stroke-width="0.45" transform="rotate(-107.32 354.91 182.32)"/>
<rect x="407.64" y="403.55" width="24.88" height="6.00" fill="#6f6253" fill-opacity="0.88" stroke="#18191a" stroke-width="0.45" transform="rotate(-38.10 420.09 406.55)"/>
<rect x="402.85" y="401.75" width="34.66" height="4.30" fill="#6f6253" fill-opacity="0.88" stroke="#18191a" stroke-width="0.45" transform="rotate(-155.98 420.18 403.90)"/>
<rect x="113.86" y="336.05" width="24.87" height="6.02" fill="#6f6253" fill-opacity="0.88" stroke="#18191a" stroke-width="0.45" transform="rotate(-7.33 126.30 339.05)"/>
<rect x="286.10" y="289.26" width="29.07" height="5.70" fill="#6f6253" fill-opacity="0.88" stroke="#18191a" stroke-width="0.45" transform="rotate(-89.47 300.63 292.10)"/>
<rect x="208.06" y="347.33" width="55.66" height="5.36" fill="#6f6253" fill-opacity="0.88" stroke="#18191a" stroke-width="0.45" transform="rotate(-68.01 235.89 350.01)"/>
<rect x="197.11" y="215.43" width="25.14" height="3.99" fill="#6f6253" fill-opacity="0.88" stroke="#18191a" stroke-width="0.45" transform="rotate(-139.86 209.69 217.43)"/>
<rect x="384.14" y="413.80" width="56.16" height="5.69" fill="#6f6253" fill-opacity="0.88" stroke="#18191a" stroke-width="0.45" transform="rotate(-11.71 412.22 416.65)"/>
<rect x="419.93" y="381.27" width="38.66" height="5.55" fill="#6f6253" fill-opacity="0.88" stroke="#18191a" stroke-width="0.45" transform="rotate(-124.89 439.25 384.05)"/>
<rect x="161.37" y="380.54" width="42.83" height="6.05" fill="#6f6253" fill-opacity="0.88" stroke="#18191a" stroke-width="0.45" transform="rotate(-75.11 182.78 383.57)"/>
<rect x="176.82" y="196.37" width="36.20" height="4.55" fill="#6f6253" fill-opacity="0.88" stroke="#18191a" stroke-width="0.45" transform="rotate(-126.39 194.92 198.64)"/>
<rect x="82.78" y="297.09" width="40.69" height="4.75" fill="#6f6253" fill-opacity="0.88" stroke="#18191a" stroke-width="0.45" transform="rotate(-65.62 103.13 299.46)"/>
<rect x="507.15" y="301.52" width="29.50" height="4.28" fill="#6f6253" fill-opacity="0.88" stroke="#18191a" stroke-width="0.45" transform="rotate(-85.73 521.90 303.66)"/>
<rect x="930.20" y="124.80" width="57.60" height="9.60" fill="#6f6253" fill-opacity="0.78" stroke="#18191a" stroke-width="0.45" transform="rotate(-6.88 959.00 129.60)"/>
<rect x="1017.80" y="219.90" width="43.20" height="9.00" fill="#6f6253" fill-opacity="0.78" stroke="#18191a" stroke-width="0.45" transform="rotate(22.92 1039.40 224.40)"/>
<rect x="234.62" y="327.12" width="34.36" height="3.36" fill="#87857f" fill-opacity="0.88" stroke="#18191a" stroke-width="0.45" transform="rotate(-12.09 251.80 328.80)"/>
<rect x="383.88" y="210.12" width="32.24" height="3.36" fill="#87857f" fill-opacity="0.88" stroke="#18191a" stroke-width="0.45" transform="rotate(-45.00 400.00 211.80)"/>
<line x1="76.60" y1="270.00" x2="115.00" y2="270.00" stroke="#51d0d8" stroke-width="1.6" stroke-dasharray="5 4" opacity="0.9"/>
<line x1="115.00" y1="270.00" x2="163.00" y2="279.60" stroke="#51d0d8" stroke-width="1.6" stroke-dasharray="5 4" opacity="0.9"/>
<line x1="163.00" y1="279.60" x2="211.00" y2="262.80" stroke="#51d0d8" stroke-width="1.6" stroke-dasharray="5 4" opacity="0.9"/>
<line x1="211.00" y1="262.80" x2="265.00" y2="274.80" stroke="#51d0d8" stroke-width="1.6" stroke-dasharray="5 4" opacity="0.9"/>
<line x1="265.00" y1="274.80" x2="325.00" y2="260.40" stroke="#51d0d8" stroke-width="1.6" stroke-dasharray="5 4" opacity="0.9"/>
<line x1="325.00" y1="260.40" x2="385.00" y2="273.60" stroke="#51d0d8" stroke-width="1.6" stroke-dasharray="5 4" opacity="0.9"/>
<line x1="385.00" y1="273.60" x2="445.00" y2="259.20" stroke="#51d0d8" stroke-width="1.6" stroke-dasharray="5 4" opacity="0.9"/>
<line x1="445.00" y1="259.20" x2="499.00" y2="270.00" stroke="#51d0d8" stroke-width="1.6" stroke-dasharray="5 4" opacity="0.9"/>
<line x1="499.00" y1="270.00" x2="535.00" y2="258.00" stroke="#51d0d8" stroke-width="1.6" stroke-dasharray="5 4" opacity="0.9"/>
<line x1="163.00" y1="279.60" x2="151.00" y2="212.40" stroke="#51d0d8" stroke-width="1.6" stroke-dasharray="5 4" opacity="0.9"/>
<line x1="151.00" y1="212.40" x2="127.00" y2="162.00" stroke="#51d0d8" stroke-width="1.6" stroke-dasharray="5 4" opacity="0.9"/>
<line x1="127.00" y1="162.00" x2="169.00" y2="114.00" stroke="#51d0d8" stroke-width="1.6" stroke-dasharray="5 4" opacity="0.9"/>
<line x1="169.00" y1="114.00" x2="229.00" y2="132.00" stroke="#51d0d8" stroke-width="1.6" stroke-dasharray="5 4" opacity="0.9"/>
<line x1="229.00" y1="132.00" x2="259.00" y2="186.00" stroke="#51d0d8" stroke-width="1.6" stroke-dasharray="5 4" opacity="0.9"/>
<line x1="259.00" y1="186.00" x2="265.00" y2="274.80" stroke="#51d0d8" stroke-width="1.6" stroke-dasharray="5 4" opacity="0.9"/>
<line x1="127.00" y1="162.00" x2="87.40" y2="114.00" stroke="#51d0d8" stroke-width="1.6" stroke-dasharray="5 4" opacity="0.9"/>
<line x1="211.00" y1="262.80" x2="199.00" y2="327.60" stroke="#51d0d8" stroke-width="1.6" stroke-dasharray="5 4" opacity="0.9"/>
<line x1="199.00" y1="327.60" x2="139.00" y2="360.00" stroke="#51d0d8" stroke-width="1.6" stroke-dasharray="5 4" opacity="0.9"/>
<line x1="139.00" y1="360.00" x2="127.00" y2="414.00" stroke="#51d0d8" stroke-width="1.6" stroke-dasharray="5 4" opacity="0.9"/>
<line x1="127.00" y1="414.00" x2="211.00" y2="426.00" stroke="#51d0d8" stroke-width="1.6" stroke-dasharray="5 4" opacity="0.9"/>
<line x1="211.00" y1="426.00" x2="277.00" y2="390.00" stroke="#51d0d8" stroke-width="1.6" stroke-dasharray="5 4" opacity="0.9"/>
<line x1="277.00" y1="390.00" x2="325.00" y2="342.00" stroke="#51d0d8" stroke-width="1.6" stroke-dasharray="5 4" opacity="0.9"/>
<line x1="325.00" y1="342.00" x2="325.00" y2="260.40" stroke="#51d0d8" stroke-width="1.6" stroke-dasharray="5 4" opacity="0.9"/>
<line x1="139.00" y1="360.00" x2="79.00" y2="396.00" stroke="#51d0d8" stroke-width="1.6" stroke-dasharray="5 4" opacity="0.9"/>
<line x1="445.00" y1="259.20" x2="463.00" y2="210.00" stroke="#51d0d8" stroke-width="1.6" stroke-dasharray="5 4" opacity="0.9"/>
<line x1="463.00" y1="210.00" x2="511.00" y2="186.00" stroke="#51d0d8" stroke-width="1.6" stroke-dasharray="5 4" opacity="0.9"/>
<line x1="511.00" y1="186.00" x2="523.00" y2="120.00" stroke="#51d0d8" stroke-width="1.6" stroke-dasharray="5 4" opacity="0.9"/>
<line x1="445.00" y1="259.20" x2="457.00" y2="327.60" stroke="#51d0d8" stroke-width="1.6" stroke-dasharray="5 4" opacity="0.9"/>
<line x1="457.00" y1="327.60" x2="499.00" y2="372.00" stroke="#51d0d8" stroke-width="1.6" stroke-dasharray="5 4" opacity="0.9"/>
<line x1="499.00" y1="372.00" x2="535.00" y2="426.00" stroke="#51d0d8" stroke-width="1.6" stroke-dasharray="5 4" opacity="0.9"/>
<line x1="457.00" y1="327.60" x2="379.00" y2="360.00" stroke="#51d0d8" stroke-width="1.6" stroke-dasharray="5 4" opacity="0.9"/>
<line x1="379.00" y1="360.00" x2="325.00" y2="342.00" stroke="#51d0d8" stroke-width="1.6" stroke-dasharray="5 4" opacity="0.9"/>
<line x1="259.00" y1="186.00" x2="259.00" y2="186.00" stroke="#51d0d8" stroke-width="1.6" stroke-dasharray="5 4" opacity="0.9"/>
<line x1="869.00" y1="186.00" x2="929.00" y2="144.00" stroke="#f4c95d" stroke-width="1.6" stroke-dasharray="5 4" opacity="0.9"/>
<line x1="929.00" y1="144.00" x2="1001.00" y2="138.00" stroke="#f4c95d" stroke-width="1.6" stroke-dasharray="5 4" opacity="0.9"/>
<line x1="1001.00" y1="138.00" x2="1049.00" y2="180.00" stroke="#f4c95d" stroke-width="1.6" stroke-dasharray="5 4" opacity="0.9"/>
<line x1="1049.00" y1="180.00" x2="1025.00" y2="234.00" stroke="#f4c95d" stroke-width="1.6" stroke-dasharray="5 4" opacity="0.9"/>
<line x1="1025.00" y1="234.00" x2="935.00" y2="260.40" stroke="#f4c95d" stroke-width="1.6" stroke-dasharray="5 4" opacity="0.9"/>
<line x1="935.00" y1="260.40" x2="869.00" y2="186.00" stroke="#f4c95d" stroke-width="1.6" stroke-dasharray="5 4" opacity="0.9"/>
<line x1="325.00" y1="260.40" x2="325.00" y2="260.40" stroke="#51d0d8" stroke-width="1.6" stroke-dasharray="5 4" opacity="0.9"/>
</svg>